<?xml version="1.0" standalone="no"?>
<!DOCTYPE svg PUBLIC "-//W3C//DTD SVG 1.1//EN" "http://www.w3.org/Graphics/SVG/1.1/DTD/svg11.dtd" >
<svg xmlns="http://www.w3.org/2000/svg">
<metadata>
This is a custom SVG webfont generated by Font Squirrel.
Copyright   : Copyright c 2011 Oriol Esparraguera Font hiparqinkcomwwwparqinkcomwith Reserved Font Name Afta
Designer    : parqink
Foundry     : Oriol Esparraguera Font
</metadata>
<defs>
<font id="AftasansItalic" horiz-adv-x="1310" >
<font-face units-per-em="2048" ascent="1638" descent="-410" />
<missing-glyph horiz-adv-x="577" />
<glyph unicode=" "  horiz-adv-x="577" />
<glyph unicode="&#x09;" horiz-adv-x="577" />
<glyph unicode="&#xa0;" horiz-adv-x="577" />
<glyph unicode="!" horiz-adv-x="540" d="M195 0l36 176h175l-37 -176h-174zM348 461l78 602l92 436h146l-93 -436l-180 -602h-43z" />
<glyph unicode="&#x22;" horiz-adv-x="890" d="M479 1010l105 485h94l-105 -485h-94zM793 1010l104 485h90l-104 -485h-90z" />
<glyph unicode="#" horiz-adv-x="1175" d="M190 457l13 63h248l161 418h-266l12 63h277l170 451h94l-174 -451h344l172 451h96l-176 -451h197l-12 -63h-207l-160 -418h211l-12 -63h-217q-90 -209 -175 -457h-94l172 457h-344l-170 -457h-94l172 457h-238zM543 520h340l164 418h-340z" />
<glyph unicode="$" horiz-adv-x="1198" d="M135 82l29 133q160 -143 457 -158l141 658q-236 76 -335 177q-74 75 -74 184q0 38 9 79q31 139 182.5 250t391.5 133l31 141h63l-31 -141q291 -18 418 -96l-20 -103q-182 96 -416 113l-131 -623l70 -29q30 -12 70 -31t67.5 -35.5t60.5 -41t53.5 -49.5t39 -56.5 t26.5 -65.5t8 -76t-10 -89q-27 -121 -123 -209t-208.5 -130t-239.5 -56l-43 -205h-64l43 203q-332 14 -465 123zM526 1153q-5 -23 -5 -45q0 -160 265 -270l132 612q-160 -27 -263.5 -102.5t-128.5 -194.5zM684 55q166 43 267.5 122t121.5 179q8 19 8 46q0 11 -1 23 q-5 42 -21.5 85t-77 95.5t-158.5 99.5z" />
<glyph unicode="%" horiz-adv-x="2048" d="M436 1075q94 412 418 412q125 0 187.5 -59.5t64.5 -150.5v-20q0 -83 -14 -182q-90 -395 -408 -395q-263 0 -263 257q0 62 15 138zM471 -39l1483 1555h104l-1485 -1555h-102zM518 1069q-17 -85 -17 -148q0 -80 28 -123q50 -75 163 -75q119 0 197 79t121 273q20 98 20 167 q0 76 -24 118q-45 80 -162 80q-121 0 -200 -81t-126 -290zM1358 220q4 65 16 155q51 205 149.5 307t270.5 102q251 0 251 -257q0 -67 -17 -152q-29 -129 -75 -213t-105.5 -121t-108.5 -48t-113 -11q-43 0 -74.5 4t-71.5 17t-61.5 39t-43.5 70q-18 37 -18 89q0 9 1 19z M1458 367q-21 -96 -21 -164q0 -73 24 -113q46 -78 169 -78q125 0 201 82t117 281q23 114 23 191q0 65 -17 102q-37 80 -168 80q-125 0 -205 -87.5t-123 -293.5z" />
<glyph unicode="&#x26;" horiz-adv-x="1554" d="M203 520q53 238 184 351.5t381 150.5q-2 29 -5 67.5t-4 54t2 45.5t11 68q51 234 379 234q158 -2 229 -57q52 -40 52 -117q0 -28 -7 -60q-14 -55 -45 -135q207 -37 276 -152q43 -69 43 -181q0 -72 -18 -162q-74 -326 -366 -512q98 -61 213 -62q166 0 338 84l-25 -108 q-123 -61 -338 -62q-176 0 -305 92q-236 -96 -536 -96q-307 0 -411 139q-68 91 -68 240q0 81 20 178zM340 528q-22 -108 -22 -190q0 -122 49 -185q82 -104 317 -104q184 0 440 68q-260 313 -358 852q-102 -27 -158.5 -49.5t-114 -69.5t-92 -124t-61.5 -198zM858 1225 q-9 -38 -9 -86q0 -79 24 -188q38 -173 96 -324l165 233q52 76 110.5 182.5t76.5 182.5q7 32 7 58q0 57 -36 82q-51 36 -159 36q-119 0 -185.5 -35t-89.5 -141zM981 539q70 -154 112 -221.5t115 -141.5q264 115 336 459q18 86 20 147q1 11 1 22q0 48 -10 83 q-11 43 -42.5 74.5t-70 52t-101.5 45.5q-131 -242 -360 -520z" />
<glyph unicode="'" horiz-adv-x="585" d="M479 1010l105 485h92l-105 -485h-92z" />
<glyph unicode="(" horiz-adv-x="645" d="M225 317.5q0 118.5 25 233.5q53 260 225 522t397 469h74q-92 -106 -190.5 -241.5t-209 -350.5t-147.5 -399q-27 -119 -27 -258q0 -314 138 -729h-59l-41 70q-23 38 -58 113t-60.5 162t-46 188.5t-20.5 220z" />
<glyph unicode=")" horiz-adv-x="630" d="M-35 -436q150 207 228.5 325.5t174 309t132.5 352.5q27 130 27 270q0 333 -154 721h73q229 -382 229 -748q0 -122 -26 -243q-104 -469 -622 -987h-62z" />
<glyph unicode="*" horiz-adv-x="673" d="M342 1116l98 49l166 74l-215 104q6 12 16.5 29t12.5 19l184 -111l47 217h54l-48 -217l234 111q0 -2 4 -18.5t4 -29.5l-260 -104q33 -16 86 -48l89 -53l36 -22l-27 -51l-180 147l-55 -266h-53l55 266l-242 -147z" />
<glyph unicode="+" horiz-adv-x="1228" d="M121 475v86h465v481h92v-481h483v-86h-483v-473h-92v473h-465z" />
<glyph unicode="," horiz-adv-x="569" d="M106 -383l15 72q45 4 81 27.5t54 45t37.5 75.5t25 74.5t21.5 88.5h-123l35 172h178q-10 -141 -27 -203q-35 -170 -115.5 -254t-181.5 -98z" />
<glyph unicode="-" horiz-adv-x="815" d="M246 518l22 105h574l-23 -105h-573z" />
<glyph unicode="." horiz-adv-x="555" d="M215 -2l37 172h174l-37 -172h-174z" />
<glyph unicode="/" horiz-adv-x="710" d="M2 -39l961 1581h96l-961 -1581h-96z" />
<glyph unicode="0" horiz-adv-x="1331" d="M234 466q2 112 30 247q41 186 106.5 326.5t138.5 223.5t163 133t171 67.5t173 17.5q55 0 103 -7.5t102.5 -28t96.5 -55t77 -94t51 -137.5q12 -59 12 -140q0 -25 -1 -52q-5 -115 -36 -254q-39 -186 -109.5 -327.5t-146 -219.5t-167 -125t-162 -60.5t-142.5 -13.5 q-49 0 -96 6.5t-102.5 26.5t-100.5 53t-84 91.5t-59 134.5q-19 67 -19 163q0 12 1 24zM401 698q-33 -152 -33 -269q0 -378 345 -378q197 0 350.5 160t222.5 502q37 162 37 282q0 64 -10 117q-31 150 -110 213.5t-206 63.5q-215 0 -366.5 -159t-229.5 -532z" />
<glyph unicode="1" horiz-adv-x="890" d="M387 0l293 1380l-94 -24q-23 -6 -44.5 -12.5t-33.5 -9.5t-12 -1l12 60q109 61 162 94h168l-316 -1487h-135z" />
<glyph unicode="2" horiz-adv-x="1189" d="M70 0q35 154 97 267.5t160.5 198.5t196 142.5t254.5 128.5h-2q303 135 352 363q6 31 6 59q0 81 -49 141q-65 82 -229 91q-207 0 -367 -160q-53 53 -83 80q72 74 199.5 125t268.5 51q227 0 324 -109q72 -80 72 -192q0 -41 -10 -86q-68 -307 -472 -484q-446 -203 -528 -518 h834l-21 -98h-1003z" />
<glyph unicode="3" horiz-adv-x="1269" d="M96 45l23 109q203 -100 469 -101q125 0 228.5 39t164.5 98.5t96 117t45 106.5q6 28 6 55q0 89 -69 164q-90 98 -281 98h-176l23 98h176q330 0 393 289q6 30 6 58q0 75 -45 134q-63 81 -223 81q-211 0 -543 -152l25 111q301 139 538 139q205 0 322 -84q90 -65 90 -181 q0 -35 -8 -75q-31 -143 -114 -233.5t-230 -127.5q166 -43 243 -123q51 -55 51 -150q0 -46 -12 -101q-39 -186 -235.5 -317.5t-476.5 -131.5q-338 0 -486 80z" />
<glyph unicode="4" horiz-adv-x="1384" d="M162 412l26 127l1008 950h123l-211 -989h338l-19 -88h-337l-86 -412h-134l86 412h-794zM248 500h727l188 880z" />
<glyph unicode="5" horiz-adv-x="1269" d="M113 109l24 118q264 -143 496 -143q115 0 211 41t159.5 105.5t103.5 137t56 144.5q9 47 9 90q0 108 -59 190q-83 113 -306 113q-133 0 -399 -86l-99 66l191 501l28 78h967l-31 -80h-831l-160 -471q197 76 352 76q272 0 404 -117q96 -84 96 -234q0 -58 -14 -126 q-51 -242 -242.5 -377t-452.5 -135q-199 0 -325.5 36t-177.5 73z" />
<glyph unicode="6" horiz-adv-x="1232" d="M222 368v7q0 142 38 354q86 397 283.5 578.5t460.5 181.5q90 0 177 -23.5t132 -45t135 -70.5l-35 -119q-214 155 -429 155h-3q-121 0 -221.5 -57t-164 -140t-112.5 -200t-72.5 -210t-41.5 -195q57 104 204.5 215.5t317.5 111.5q266 0 363 -184q42 -80 42 -171 q0 -89 -40 -188q-84 -208 -293 -314q-147 -74 -326 -74q-129 0 -214 35.5t-142.5 121.5t-58.5 231zM367 449q-10 -42 -10 -83q0 -95 55 -182q77 -123 241 -123q230 0 377 186q112 141 112 298q0 11 -1 23q-9 170 -151 225q-53 20 -120 20q-143 0 -281 -106t-222 -258z" />
<glyph unicode="7" horiz-adv-x="1255" d="M406 1376l49 76h1032q-8 -39 -19.5 -69.5t-29 -56.5t-29.5 -41t-40 -43l-40 -40q2 0 -51 -53l-152 -151l-206 -203q-150 -164 -195 -367l-90 -428h-139l90 428q45 215 227 410l541 538h-948z" />
<glyph unicode="8" horiz-adv-x="1255" d="M184 192q-10 40 -10 91q0 53 10 116q18 90 74.5 171t129.5 136.5t135.5 91.5t115.5 54q-39 16 -77 41t-81 63.5t-65 93.5q-13 33 -13 68q0 22 5 43q33 156 177 241t377.5 85t334.5 -92q79 -72 79 -173q0 -29 -6 -61q-45 -203 -354 -305q154 -80 232 -188q53 -75 53 -174 q0 -45 -11 -95q-43 -209 -223 -321.5t-430 -112.5q-119 0 -208 21.5t-157.5 72t-87.5 133.5zM322 399q-10 -42 -10 -79q0 -66 31 -116q48 -79 131 -111t185 -32q172 0 313.5 92.5t172.5 245.5q9 42 9 81q0 127 -95 215q-123 114 -311 128q-168 -49 -280 -157.5t-146 -266.5z M559 1180q-3 -12 -3 -23q0 -29 18 -58q26 -40 62 -66.5t97.5 -55.5t92.5 -39l81 -27q59 14 181 91t143 178q6 27 6 50q0 34 -12 61q-21 44 -70 65.5t-99 29t-116 7.5q-125 0 -241.5 -53.5t-139.5 -159.5z" />
<glyph unicode="9" horiz-adv-x="1232" d="M147 119l33 119q225 -156 432 -156q121 0 221.5 57.5t165 142.5t113.5 198.5t73.5 209.5t39.5 195q-57 -104 -205 -216t-318 -112q-265 0 -361 185q-42 81 -42 172q0 88 39 186q84 208 292 314q147 75 326 75q129 0 215 -36t143.5 -122t58.5 -230v-7q0 -143 -40 -355 q-86 -397 -283.5 -578t-459.5 -181q-90 0 -176 23.5t-134.5 46t-132.5 69.5zM452 900q9 -170 153 -225q53 -20 120 -20q145 0 280.5 106.5t221.5 258.5q10 42 10 83q0 95 -54 181q-77 123 -241 123q-230 0 -378 -186q-113 -141 -113 -298q0 -11 1 -23z" />
<glyph unicode=":" horiz-adv-x="575" d="M215 -2l37 172h174l-37 -172h-174zM406 887l34 172h174l-34 -172h-174z" />
<glyph unicode=";" horiz-adv-x="587" d="M106 -383l15 72q45 4 81 27.5t54 45t37.5 75.5t25 74.5t21.5 88.5h-123l35 172h178q-10 -141 -27 -203q-35 -170 -115.5 -254t-181.5 -98zM406 887l34 172h174l-34 -172h-174z" />
<glyph unicode="&#x3c;" horiz-adv-x="1271" d="M121 481v80q178 74 542.5 243t544.5 243v-109l-1001 -420l1020 -418v-104q-188 76 -553 243t-553 242z" />
<glyph unicode="=" horiz-adv-x="1224" d="M121 262v84h1026v-84h-1026zM121 686v88h1026v-88h-1026z" />
<glyph unicode="&#x3e;" horiz-adv-x="1265" d="M98 -4v104l1020 418l-1001 420v109q178 -74 542.5 -243t544.5 -243v-80q-188 -76 -552.5 -242.5t-553.5 -242.5z" />
<glyph unicode="?" horiz-adv-x="1189" d="M432 1331l29 142q167 65 406 65h7q227 0 347 -89q91 -68 91 -189q0 -38 -9 -82q-27 -117 -105 -198t-205 -163q-261 -172 -331 -360h-82q25 102 88 190t111 128t122 91q80 53 117 83t80 90.5t61 138.5q6 30 6 56q0 80 -56 131q-75 69 -257 69t-420 -103zM446 -2l37 172 h172l-37 -172h-172z" />
<glyph unicode="@" horiz-adv-x="1673" d="M100 750q0 358 221.5 574t569.5 216q332 0 546 -165t214 -472q0 -193 -94.5 -333t-301.5 -140q-98 0 -160.5 44t-82.5 97q-65 -114 -203 -114h-2q-238 0 -238 291q0 139 62.5 234t183.5 95q49 0 116.5 -35.5t119.5 -107.5q0 6 32 127q-4 0 103 -37q-43 -317 -43 -383 q0 -125 125 -125q111 0 169 113.5t58 290.5q0 168 -91 289.5t-226.5 177t-292.5 55.5q-37 0 -67 -2t-98.5 -15.5t-122.5 -37t-119.5 -75.5t-109.5 -122t-75 -183.5t-31 -254.5q0 -143 31 -257t74 -185.5t113.5 -123t126 -76t135 -38t117.5 -14.5t95 -1h15q303 0 647 195 v-174q-311 -115 -723 -115q-395 0 -598 213q-195 205 -195 547v27zM705 733q0 -172 141 -172q53 0 108.5 49.5t63.5 100.5l18 106q-123 150 -198 150q-133 0 -133 -234z" />
<glyph unicode="A" d="M23 0l886 1464h187l204 -1464h-135l-67 557h-598l-344 -557h-133zM539 643h551l-101 754z" />
<glyph unicode="B" horiz-adv-x="1402" d="M193 -2l307 1464h471q285 0 390 -98q78 -73 78 -181q0 -37 -9 -79q-27 -127 -124.5 -202t-236.5 -93q188 -33 288 -133q73 -73 72 -187q0 -42 -10 -90q-95 -426 -653 -426h-31q-406 6 -542 25zM338 68l303 -15q23 -1 46 0q131 0 227 20q114 24 183.5 75t106.5 114.5 t58 153.5q8 39 8 74q0 106 -74 173q-99 89 -295 89h-418zM502 844h325q209 0 314.5 60.5t134.5 199.5q7 34 7 64q0 84 -56 136q-76 70 -273 70h-340z" />
<glyph unicode="C" horiz-adv-x="1392" d="M274 725q76 362 334 567t582 205q160 0 379 -67l-27 -125q-205 106 -371 106q-16 0 -41.5 -2t-86 -16.5t-120 -39t-134 -75.5t-136 -121t-120 -181.5t-91.5 -248.5q-23 -107 -23 -197q0 -94 17 -160q15 -64 48.5 -116.5t66.5 -83.5t82 -53.5t82 -32.5t78 -16.5t58 -6.5 h34q207 0 440 160l-29 -141q-217 -123 -434 -123q-350 0 -500 218q-106 154 -107 364q0 88 19 186z" />
<glyph unicode="D" horiz-adv-x="1396" d="M188 2l312 1464h368q158 0 278 -48t185.5 -127t106.5 -177q40 -96 40 -193t-14 -194q-20 -96 -61 -190.5t-116 -192.5t-172 -173t-241.5 -122t-314.5 -47h-371zM349 100q5 -10 42 -10h187q98 0 201.5 33t210 101.5t190.5 198.5t120 304q17 97 17 177q0 67 -12 123 q-26 124 -102.5 202t-165.5 113.5t-185 35.5q-240 0 -242 -16l-254 -1192q-8 -42 -8 -59q0 -8 1 -11z" />
<glyph unicode="E" horiz-adv-x="1163" d="M193 0l309 1462h850l-19 -86h-721l-125 -588h535l-18 -88h-535l-129 -612h770l-18 -88h-899z" />
<glyph unicode="F" horiz-adv-x="1185" d="M193 0l309 1462h946l-18 -90h-816l-125 -584h506l-20 -102h-506l-145 -686h-131z" />
<glyph unicode="G" horiz-adv-x="1626" d="M264 735q76 348 320.5 556t603.5 208q176 0 320.5 -25.5t199.5 -50.5l-29 -137q-12 4 -85.5 36t-113.5 44t-127 27.5t-184 15.5q-297 0 -492.5 -191.5t-260.5 -494.5q-25 -109 -25 -201t14.5 -156.5t50.5 -115.5t68.5 -82t87 -53.5t87 -32.5t87 -15.5t69.5 -5.5h50 q305 0 518 125l90 430h136l-113 -538q-391 -119 -653 -119h-16q-632 0 -632 526q0 113 29 250z" />
<glyph unicode="H" horiz-adv-x="1536" d="M190 0l310 1464h147l-145 -684h925l146 684h133l-309 -1464h-133l145 688h-926l-145 -688h-148z" />
<glyph unicode="I" horiz-adv-x="530" d="M211 0l309 1464h131l-309 -1464h-131z" />
<glyph unicode="J" horiz-adv-x="557" d="M35 -418l16 76q82 68 124 134.5t63 162.5l321 1511h127l-321 -1511q-23 -102 -66 -177t-94 -114t-90 -56.5t-80 -25.5z" />
<glyph unicode="K" horiz-adv-x="1282" d="M178 0l309 1464h131l-176 -835l895 835h140l-603 -571l404 -893h-160l-354 786l-356 -315l-99 -471h-131z" />
<glyph unicode="L" horiz-adv-x="1095" d="M193 0l309 1464h135l-279 -1319q-10 -41 -6 -47t39 -6h715l-19 -92h-894z" />
<glyph unicode="M" horiz-adv-x="1884" d="M188 0l310 1464h250l264 -1097q8 -39 26.5 -46.5t38 6t35.5 40.5l310 473l206 311l113 172l63 97l27 44h231l-309 -1464h-131l291 1382l-817 -1210h-152l-328 1208l-299 -1380h-129z" />
<glyph unicode="N" horiz-adv-x="1456" d="M186 0l310 1462h194l537 -1306l276 1306h135l-309 -1462h-153l-566 1378l-293 -1378h-131z" />
<glyph unicode="O" horiz-adv-x="1687" d="M250 729q80 373 321.5 567.5t614.5 200.5q395 -6 539 -196q93 -123 94 -325q0 -112 -29 -247q-74 -350 -305.5 -560t-626.5 -210q-635 0 -635 529q0 109 27 241zM385 527v-25q0 -77 10 -133q12 -66 44 -118t64 -85t80 -56.5t82.5 -35t83 -17.5t68.5 -6h52h10q31 0 60.5 2 t101 15.5t133 37t140.5 73.5t139 120t115.5 181.5t84.5 250.5q25 109 25 200q0 95 -17 163q-16 66 -52 118t-71 84.5t-88 55t-88 33t-86 16.5t-67 6h-44q-35 0 -66.5 -2t-101 -15.5t-127 -37t-132 -74.5t-133 -119.5t-111.5 -179.5t-84 -248q-23 -111 -25 -204z" />
<glyph unicode="P" horiz-adv-x="1261" d="M193 -2l311 1464l504 2q139 0 236 -39t138 -101t58 -139q7 -35 7 -69q0 -41 -11 -82q-35 -166 -186.5 -292t-422.5 -126h-372l-131 -618h-131zM475 711h373q100 0 184 36.5t133 92t78 104.5t37 90q10 34 10 71q0 21 -3 42q-9 60 -33.5 111t-93 83.5t-171.5 32.5h-373z " />
<glyph unicode="Q" horiz-adv-x="1681" d="M250 723q80 373 320.5 567.5t613.5 200.5q395 -6 541 -197q94 -122 94 -322q0 -112 -29 -249q-74 -332 -290 -536.5t-597 -233.5l-14 -68q-9 -41 -9 -75q0 -81 47 -131q68 -70 160 -80l-4 -23q-92 4 -157.5 31.5t-95 62.5t-42.5 81q-11 43 -11 72q0 31 7 64l15 66 q-574 41 -574 541q0 104 25 229zM382 521q-1 -17 -1 -33q0 -72 11 -125q14 -66 44.5 -118t63 -85t81 -56.5t83 -35t84 -17.5t69.5 -6h51h9q33 0 63.5 2t101 15.5t131 37t138.5 73.5t138 119.5t115.5 181.5t86.5 251q25 109 25 200q0 95 -16 163q-15 65 -52 117t-72 85 t-88 55.5t-88 33t-85 16.5t-67 6h-45q-35 0 -65.5 -2t-100 -15.5t-128 -37t-134.5 -73.5t-133 -120t-110 -180.5t-82 -247.5q-25 -111 -28 -204z" />
<glyph unicode="R" horiz-adv-x="1355" d="M188 0l310 1464h491q240 0 344 -96q77 -72 77 -178q0 -36 -9 -76q-33 -158 -149.5 -248t-241.5 -104q47 -12 78.5 -32.5t50 -58.5t25.5 -63.5t20 -81.5l100 -526h-135q-100 549 -111 586q-16 68 -54 97.5t-105 29.5h-412l-150 -713h-129zM489 813h363q184 0 284.5 86 t120.5 197q6 29 6 57q0 79 -48 139q-66 82 -244 82h-363z" />
<glyph unicode="S" horiz-adv-x="1204" d="M131 78l29 135q74 -66 186.5 -111t243.5 -45q168 0 300 84t161 207q6 39 8 66v7q-1 25 -11 64q-12 45 -41.5 78t-95 71t-161.5 64h2q-236 70 -337 168q-72 70 -72 175q0 41 11 87q31 152 191 260.5t397 108.5q290 0 444 -86l-22 -104q-119 61 -218 81.5t-224 20.5 q-145 0 -262 -76t-146 -207q-6 -33 -6 -62q0 -79 46 -127q63 -66 216 -112q111 -37 171 -63.5t145 -81.5t114 -138q16 -46 16 -101q0 -44 -10 -93q-25 -113 -99.5 -194.5t-173.5 -121.5t-188.5 -56.5t-175.5 -16.5q-295 0 -438 119z" />
<glyph unicode="T" horiz-adv-x="1261" d="M317 1378l19 88h1247l-18 -88h-547l-293 -1378h-137l293 1378h-564z" />
<glyph unicode="U" horiz-adv-x="1468" d="M277 363q-1 9 -1 20q0 34 7 81l13.5 93t16.5 86l174 821h134l-177 -837q-8 -37 -15 -73t-11 -95q-2 -23 -2 -45q0 -33 4 -62q6 -49 27.5 -103t59.5 -92t105.5 -62.5t157.5 -24.5q86 0 160 23.5t125 56t95 87t68.5 96.5t48 106.5t31 92t19.5 77.5q2 11 4 18l176 837h129 l-176 -837q-14 -61 -18.5 -82t-23.5 -88.5t-34.5 -99t-48.5 -93t-65.5 -93.5t-86 -76t-113 -66.5t-139 -39t-171.5 -16.5q-94 0 -168 16.5t-125 40t-87 65.5t-55.5 79t-27 93.5t-10.5 95.5z" />
<glyph unicode="V" horiz-adv-x="1398" d="M352 1464h144l200 -1370l783 1370h161l-864 -1464h-198z" />
<glyph unicode="W" horiz-adv-x="2170" d="M346 1464h152l207 -1364l641 1364h167l54 -1368l776 1368h156l-842 -1464h-199l-43 1391l-637 -1391h-198z" />
<glyph unicode="X" horiz-adv-x="1398" d="M63 -2l746 756l-401 710h159l330 -610l592 610h160l-688 -710l407 -756h-141l-371 657l-649 -657h-144z" />
<glyph unicode="Y" horiz-adv-x="1413" d="M369 1464h149l340 -811l690 811h152l-787 -915l-116 -551h-148l117 551z" />
<glyph unicode="Z" horiz-adv-x="1341" d="M70 0l28 137l1385 1239h-1123l19 88h1243l-29 -135l-1364 -1227h1104l-20 -102h-1243z" />
<glyph unicode="[" horiz-adv-x="663" d="M90 -436l420 1972h477l-20 -92h-324l-379 -1790h324l-21 -90h-477z" />
<glyph unicode="\" horiz-adv-x="710" d="M340 1542h96l285 -1581h-96z" />
<glyph unicode="]" horiz-adv-x="663" d="M-61 -434l20 94h322l378 1784h-323l20 92h475l-419 -1970h-473z" />
<glyph unicode="^" horiz-adv-x="1232" d="M150 592l460 862v2h74q72 -154 239 -456t228 -425h-96l-408 805q-113 -240 -237.5 -479t-155.5 -307z" />
<glyph unicode="_" horiz-adv-x="1024" d="M-39 -285l8 39h1024l-8 -39h-1024z" />
<glyph unicode="`" horiz-adv-x="454" d="M334 1538h160l53 -229h-86z" />
<glyph unicode="a" horiz-adv-x="1101" d="M218 118q-26 71 -25 166q0 107 32 244q61 293 208 429.5t409 136.5q92 0 207.5 -44.5t142.5 -50.5l-209 -997h-106l22 215q-33 -72 -163 -161t-273 -89q-191 1 -245 151zM324 215q6 -76 44.5 -117t112.5 -41q174 0 305.5 132.5t159.5 269.5l96 456q-121 72 -233.5 72 t-194.5 -39t-132 -112.5t-76.5 -142t-49.5 -165.5q-20 -96 -29 -166q-5 -43 -4 -88q-1 -29 1 -59z" />
<glyph unicode="b" horiz-adv-x="1052" d="M117 51l329 1575h138l-178 -840q53 111 184 208.5t274 97.5q273 0 273 -311q0 -94 -25 -218q-66 -307 -215 -447.5t-410 -140.5q-196 0 -370 76zM270 129q113 -70 269 -70q322 0 432 504q26 126 26 216q0 220 -157 220q-92 0 -182.5 -58t-153 -141t-104.5 -166t-52 -140z " />
<glyph unicode="c" horiz-adv-x="1042" d="M221 539q66 299 231.5 425t440.5 126q176 0 317 -91l-22 -108l-34 17q-26 14 -35 18l-32 15q-24 11 -36 15l-34 13q-21 8 -36 11l-33 7q-20 4 -38.5 6t-37.5 2q-90 0 -161.5 -18.5t-143 -64.5t-125 -139t-82.5 -230q-24 -93 -24 -165q0 -20 2 -38q9 -84 31 -138.5 t73.5 -85t105.5 -43t126 -12.5q176 0 375 89q-10 -41 -15.5 -76t-7.5 -43q-217 -63 -373 -64q-279 0 -386 139q-68 89 -68 240q0 87 22 193z" />
<glyph unicode="d" horiz-adv-x="1101" d="M219 535q61 289 210 427t331 138q147 0 325 -74l127 598h138l-346 -1632h-130q2 8 6.5 47t16.5 100q-139 -164 -389 -164q-182 0 -266 132q-49 77 -49 209q0 95 26 219zM333 388q-2 -25 -2 -52q0 -47 6 -98q9 -78 57 -125t132 -47q351 0 437 389l100 463 q-59 31 -156.5 59.5t-167.5 28.5q-272 0 -377 -447q-3 -16 -6 -22q-18 -78 -23 -149z" />
<glyph unicode="e" horiz-adv-x="1067" d="M215 506q121 584 606 584q329 0 329 -331q0 -96 -28 -220l-764 2q-23 -98 -32 -163q-6 -40 -6 -82q0 -25 2 -50q6 -68 34.5 -107t89 -63.5t154.5 -24.5q199 0 348 166q72 -68 76 -72q-190 -178 -442 -178q-258 0 -339 138q-49 83 -49 212q0 85 21 189zM391 625l631 2 q10 59 10 111q0 81 -24 145q-47 112 -204 112h-3q-168 0 -270.5 -105t-139.5 -265z" />
<glyph unicode="f" horiz-adv-x="659" d="M231 0l205 973h-176l21 88h176l18 92q55 250 174 346t328 96q127 0 211 -63l-19 -105q-104 61 -215 62q-98 0 -161.5 -19.5t-99.5 -74t-49 -93t-34 -132.5q-2 -11 -4 -17l-18 -92h264l-21 -88h-264l-205 -973h-131z" />
<glyph unicode="g" horiz-adv-x="1153" d="M104 -270l97 65q35 -47 78 -82q100 -80 215 -80q98 0 176 32t119.5 72t72.5 98.5t39 89t14 63.5l29 133q-84 -88 -161.5 -124t-196.5 -36q-133 0 -222.5 48t-126 128t-44.5 185q-1 21 -1 43q0 84 23 174q61 276 198.5 414.5t393.5 138.5q150 0 220.5 -43t115.5 -144 l45 156h92l-229 -1073l-13 -48q-4 -16 -24.5 -69t-45 -88t-70.5 -85t-101.5 -80t-139.5 -52.5t-182 -22.5q-248 0 -371 187zM327 349v-12q0 -75 17 -121q18 -50 44 -84t66 -50t74.5 -21.5t77.5 -5.5q47 0 82 4t91.5 31t97.5 75t85 144.5t72 229.5q25 109 28 189v22 q0 66 -16 107q-18 48 -39.5 78t-64.5 42t-69.5 15t-71.5 3t-64.5 -1t-66.5 -9t-74 -23.5t-69 -48t-68.5 -81t-56.5 -123t-50 -170.5q-23 -106 -25 -190z" />
<glyph unicode="h" horiz-adv-x="1165" d="M162 0l344 1628h135l-166 -786q61 98 201.5 174t263.5 76q150 0 214 -115q37 -66 37 -167q0 -75 -20 -169l-135 -641h-131l139 655q14 70 14 125q0 209 -202 209q-139 0 -265 -94t-151 -217l-143 -678h-135z" />
<glyph unicode="i" horiz-adv-x="468" d="M188 0l226 1061h139l-225 -1061h-140zM463 1456l37 174h174l-37 -174h-174z" />
<glyph unicode="j" horiz-adv-x="473" d="M-31 -438l11 47q8 31 12 45q147 115 186 293l238 1114h139l-233 -1094q-23 -113 -69 -195.5t-102.5 -123.5t-97.5 -59.5t-84 -26.5zM467 1456l37 174h172l-37 -174h-172z" />
<glyph unicode="k" horiz-adv-x="1101" d="M176 0l344 1626h139l-165 -784q245 284 508 284h2q129 0 188 -82q42 -58 42 -136q0 -32 -7 -68q-45 -217 -410 -430l225 -410h-161l-193 348l-137 -55l22 108q182 72 340 180.5t185 235.5q6 29 6 54q0 56 -30 94q-44 57 -130 57t-193.5 -58.5t-195.5 -156.5t-111 -199 l-129 -608h-139z" />
<glyph unicode="l" horiz-adv-x="468" d="M188 0l344 1626h136l-344 -1626h-136z" />
<glyph unicode="m" horiz-adv-x="1615" d="M152 0l223 1059h121l-35 -225q139 258 418 258q176 0 190 -258q72 113 183.5 185.5t252.5 72.5q131 0 169 -102q17 -45 17 -115q0 -87 -26 -213l-133 -662h-131l143 676q16 80 21 131q1 16 1 32q0 33 -6 64q-9 45 -44 66.5t-97 21.5q-145 0 -243.5 -100t-124.5 -236 l-140 -655h-139l139 655q22 97 22 168q0 47 -9 81q-24 87 -129 87q-141 0 -245 -117.5t-132 -252.5l-131 -621h-135z" />
<glyph unicode="n" horiz-adv-x="1150" d="M168 0l225 1061h121l-33 -211q59 96 199.5 169t265.5 73q152 0 216 -115q36 -66 36 -167q0 -75 -20 -169l-136 -641h-131l140 655q14 70 14 125q0 209 -203 209q-139 0 -265 -94t-151 -217l-143 -678h-135z" />
<glyph unicode="o" horiz-adv-x="1153" d="M193 318q-2 23 -2 48q0 82 22 169q61 281 200.5 419t397.5 138q408 0 408 -365q0 -86 -23 -192q-59 -293 -195.5 -431.5t-406.5 -138.5q-135 0 -226.5 46t-129 125t-45.5 182zM330 344v-12q0 -74 18 -120q20 -50 44 -83t66 -47t75.5 -18.5t80.5 -4.5q51 0 82 3.5t89.5 29 t98.5 71.5t85 141t73 231q20 94 23 168q1 23 2 43q0 46 -6 80q-8 48 -34 83t-48.5 51.5t-62 25.5t-63.5 10t-62 1q-43 0 -63.5 -1t-66 -9t-72 -24.5t-65.5 -49t-65.5 -81t-55.5 -124t-49 -173.5q-23 -109 -24 -191z" />
<glyph unicode="p" horiz-adv-x="1114" d="M66 -436l317 1495h106l-26 -246q33 78 166 179.5t274 101.5q190 0 245 -151q25 -71 25 -166q0 -107 -32 -245q-61 -289 -207 -418.5t-410 -129.5q-92 0 -229 39l-98 -459h-131zM324 145q104 -61 233 -61q113 0 195 38t132 108.5t76.5 139t49.5 162.5q20 96 29 167 q5 43 5 88q0 29 -2 59q-6 76 -44.5 117t-112.5 41q-174 0 -305 -132.5t-160 -269.5z" />
<glyph unicode="q" horiz-adv-x="1105" d="M215 126q-26 71 -26 166q0 106 32 243q61 289 206.5 418.5t408.5 129.5q188 0 352 -90l-303 -1425h-133l139 655q-98 -111 -200.5 -179.5t-231.5 -68.5q-190 0 -244 151zM319 221q5 -76 44.5 -117t113.5 -41q172 0 304 132.5t161 269.5l96 457q-127 79 -267 79h-3 q-324 0 -418 -466q-20 -98 -28 -168q-6 -42 -6 -87q0 -29 3 -59z" />
<glyph unicode="r" horiz-adv-x="751" d="M160 0l223 1059h113l-21 -234q82 131 158 198t196 67q94 0 158 -27l-33 -113q-98 33 -147 33q-123 0 -234.5 -115.5t-164.5 -359.5l-107 -508h-141z" />
<glyph unicode="s" horiz-adv-x="966" d="M109 88q4 23 14 66t14 67q72 -47 119 -73.5t122 -51t146 -24.5q272 0 322 211q3 14 3 27q-1 25 -11 46q-15 33 -38.5 54.5t-77.5 45.5q-54 22 -92 34l-114 34q-156 47 -203 114q-32 46 -32 114q0 30 6 65q14 59 51 113.5t134.5 102.5t238.5 48q39 0 74.5 -3t69.5 -11 l57 -13q22 -5 53.5 -17.5t43 -17.5t42 -19.5t32.5 -14.5q-4 -16 -10 -52t-8 -46q-80 37 -124 55.5t-113.5 35.5t-135.5 17q-223 0 -260 -182q-5 -28 -5 -50q0 -52 29 -77q42 -35 173 -74q213 -55 299 -132q67 -60 67 -145q0 -25 -6 -52q-33 -145 -165 -229.5t-322 -84.5 q-137 0 -241.5 40t-151.5 79z" />
<glyph unicode="t" horiz-adv-x="704" d="M256 973l20 88h207l107 313h92l-66 -313h275l-21 -88h-274l-145 -688q-20 -93 -20 -140q0 -22 4 -33q14 -36 91 -36q82 0 158 33l-22 -103q-137 -31 -207 -31q-105 -1 -143 49q-21 27 -21 83q0 44 14 106l160 760h-209z" />
<glyph unicode="u" horiz-adv-x="1175" d="M244 403l141 658h139l-145 -676q-21 -83 -21 -146q0 -57 17 -97q35 -85 164 -85q147 0 286.5 100.5t173.5 260.5l138 643h133l-226 -1061h-122l34 221q-72 -123 -194.5 -189.5t-273.5 -66.5q-152 -1 -222 103q-41 62 -41 169q0 73 19 166z" />
<glyph unicode="v" horiz-adv-x="1122" d="M293 1061h141l166 -940q2 0 299 469t295 471h137l-688 -1061h-129z" />
<glyph unicode="w" horiz-adv-x="1611" d="M281 1061h129l53 -959l141 240l284 479l142 240h111l129 -961l430 961h131l-492 -1061h-168l-104 977l-555 -977h-158z" />
<glyph unicode="x" horiz-adv-x="1046" d="M51 2l529 553l-261 506h160l195 -406l375 406h157l-475 -506l289 -553h-139l-248 455l-436 -455h-146z" />
<glyph unicode="y" horiz-adv-x="1095" d="M287 1061h139l170 -1061l569 1061h140l-854 -1495h-119l170 328z" />
<glyph unicode="z" horiz-adv-x="937" d="M76 0l22 109l865 862h-682l20 90h840l-21 -90l-874 -862h676l-23 -109h-823z" />
<glyph unicode="{" horiz-adv-x="915" d="M242 508l20 94q182 66 223 209l68 317q29 143 113 239.5t185 135.5t218 39h139l-20 -96h-119q-307 0 -356 -223l-86 -410q-18 -78 -63.5 -143.5t-112.5 -75.5l-17 -78q66 -12 85 -76q10 -32 10 -63q0 -35 -11 -70l-90 -430q-6 -30 -6 -56q0 -163 255 -163h5h6h119 l-21 -94h-139q-184 0 -285 103q-67 68 -67 193q0 60 16 134l66 313q6 23 7 43.5t-4 36.5t-11.5 29.5t-18.5 25.5l-20 19q-8 8 -23 16l-24 13l-23 10t-18 8z" />
<glyph unicode="|" horiz-adv-x="468" d="M102 -479l453 2136h96l-452 -2136h-97z" />
<glyph unicode="}" horiz-adv-x="909" d="M-16 -436l18 94h119q309 0 356 219l90 430q43 182 174 207l17 78q-66 10 -84 84q-9 35 -9 67q0 37 11 70l86 410q6 28 6 52q0 31 -9 56q-18 45 -47.5 66.5t-78.5 34t-73.5 13.5t-57.5 1h-119l20 96h140q184 0 284 -100q70 -72 70 -199q0 -53 -12 -115l-68 -315 q-7 -28 -7 -52q0 -112 140 -159l-20 -96q-184 -70 -221 -199l-66 -313q-49 -227 -191.5 -328.5t-330.5 -101.5h-137z" />
<glyph unicode="~" horiz-adv-x="1228" d="M217 485q137 63 211 64q96 0 209 -28.5t221 -28.5q100 0 203 45v-93q-137 -57 -203 -57q-102 0 -218 27.5t-216 27.5q-72 0 -203 -39q0 20 -2 43t-2 39z" />
<glyph unicode="&#xa1;" horiz-adv-x="540" d="M121 -444l94 436l178 602h43l-76 -602l-94 -436h-145zM383 883l37 172h172l-37 -172h-172z" />
<glyph unicode="&#xa2;" horiz-adv-x="1042" d="M221 539q55 264 214 404t384 140l33 154h68l-33 -154q190 -16 325 -75q-29 -76 -36 -97q-164 78 -306 93l-202 -947q213 20 381 93q-23 -96 -25 -121q-205 -55 -375 -62l-47 -221h-67l49 225q-236 0 -327 152q-57 94 -57 232q0 84 21 184zM360 543v-2q-21 -93 -21 -170 q0 -107 39 -183q68 -133 222 -133l203 949q-131 0 -265.5 -130t-177.5 -331z" />
<glyph unicode="&#xa3;" horiz-adv-x="1198" d="M100 0l19 88q231 33 297 332l67 317h-100l20 92h101l76 357q35 172 170 260t294 88q143 0 218 -53l-19 -88q-100 51 -203 51q-145 0 -212.5 -82t-98.5 -223l-65 -310h231l-21 -92h-231l-68 -317q-31 -137 -87 -209t-148 -121l360 -4q398 1 490 320q11 55 11 102 q0 109 -60 176q10 10 32.5 28.5t32.5 28.5q73 -88 73 -218q0 -55 -13 -117q-47 -209 -207 -312q-148 -95 -334 -95q-14 0 -29 1h-596z" />
<glyph unicode="&#xa5;" horiz-adv-x="1413" d="M272 154l19 82h416l73 346h-415l18 84h350l-366 831h170l325 -825l701 825h172l-719 -831h356l-18 -84h-422l-74 -346h422l-18 -82h-422l-31 -154h-152l31 154h-416z" />
<glyph unicode="&#xa7;" horiz-adv-x="1138" d="M88 -319l31 137q199 -152 385 -152q135 0 219 44t106 163q4 19 4 38q0 80 -80 149q-100 85 -251 85q-174 0 -243 112q-44 72 -44 170q0 56 14 120q27 121 121 236.5t277 170.5q-84 57 -109 127q-14 36 -14 85q0 45 12 102q23 102 118 180t304 78q213 0 375 -94l-21 -101 q-197 106 -372 107q-104 0 -173 -37t-92 -144q-7 -32 -7 -61q0 -193 292 -256q147 -33 213 -121q41 -55 41 -149q0 -55 -14 -123q-25 -121 -125.5 -232.5t-272.5 -142.5q193 -77 193 -233q0 -32 -8 -66q-31 -147 -162 -228t-324 -81q-41 0 -81 4t-75.5 13t-62 17.5 t-58.5 22.5t-45.5 21.5t-41 21.5t-29.5 17zM355 378q10 -79 85.5 -110.5t253.5 -31.5q111 0 212.5 87t129.5 224q12 61 13 107v5q0 43 -8 74q-9 33 -36.5 54.5t-53 35t-78 20.5t-93 10t-116.5 5q-86 0 -175.5 -83t-109.5 -185q-27 -102 -27 -173q0 -21 3 -39z" />
<glyph unicode="&#xa8;" horiz-adv-x="454" d="M209 1247l43 201h170l-43 -201h-170zM209 1247l43 201h170l-43 -201h-170zM612 1247l43 201h172l-43 -201h-172zM612 1247l43 201h172l-43 -201h-172z" />
<glyph unicode="&#xaa;" horiz-adv-x="567" d="M291 1044q14 68 63 113t138 45h31h29h22q16 0 21 1t16.5 3t17.5 5t13 7.5t15 10.5q11 67 11 103q0 27 -6 38q-15 23 -93 23q-92 0 -157 -29l-11 51q90 29 189 29q88 0 126 -43q22 -25 22 -78q0 -38 -11 -90l-72 -344h-51l-14 47q-59 -53 -148 -53q-100 0 -135 40 q-23 26 -23 69q0 24 7 52zM360 1044q-4 -18 -4 -34q0 -34 18 -54q27 -28 79 -28q71 0 153 63l39 183q-41 -16 -141 -17q-41 0 -60.5 -3t-46 -29.5t-37.5 -80.5z" />
<glyph unicode="&#xab;" horiz-adv-x="1150" d="M254 578q6 25 35 40l399 248q-16 -80 -43 -92l-319 -196q199 -172 229 -191q18 -14 18 -48q0 -22 -8 -52l-293 250q-19 14 -19 34q0 3 1 7zM766 578q6 25 35 40l399 248q-16 -80 -43 -92l-319 -196q199 -172 229 -191q18 -14 18 -48q0 -22 -8 -52l-293 250q-19 14 -19 34 q0 3 1 7z" />
<glyph unicode="&#xad;" horiz-adv-x="815" d="M246 518l22 105h574l-23 -105h-573z" />
<glyph unicode="&#xb0;" horiz-adv-x="819" d="M131 1182q0 141 75 215t210 76q152 -2 220.5 -75t68.5 -216q0 -131 -70 -209t-219 -78q-285 0 -285 287zM213 1182q0 -66 19.5 -113t42 -68.5t59.5 -33t48 -11.5h34q18 0 35.5 1t52.5 13.5t59.5 34t45 67.5t20.5 109.5t-20.5 109.5t-44 67.5t-60.5 34t-52.5 13.5t-35.5 1 q-18 0 -34.5 -1t-50.5 -13.5t-57.5 -34t-42 -67.5t-18.5 -109z" />
<glyph unicode="&#xb2;" horiz-adv-x="712" d="M209 614q86 279 412 414q199 92 229 238q5 27 5 51q0 54 -28 92q-41 55 -161 55q-117 0 -217 -90q-12 4 -33 21q119 92 258 92q133 0 187 -62q39 -46 39 -110q0 -23 -5 -49q-37 -172 -268 -275q-147 -66 -232 -143.5t-112 -210.5h508l-7 -23h-575z" />
<glyph unicode="&#xb3;" horiz-adv-x="698" d="M176 641l8 39h2q137 -41 273 -41q154 0 237.5 68.5t100.5 148.5q4 17 4 34q0 56 -45 108q-60 67 -183 67h-86l7 27h86q221 0 262 190q4 20 4 37q0 52 -30 90q-41 51 -150 51q-115 0 -301 -76l6 29q170 76 301 76q117 0 184 -49q49 -36 49 -106q0 -24 -6 -52 q-35 -158 -213 -205q187 -36 187 -167q0 -25 -7 -54q-23 -104 -136.5 -178t-272.5 -74q-190 0 -281 37z" />
<glyph unicode="&#xb4;" horiz-adv-x="454" d="M416 1257l172 263h209l-256 -263h-125z" />
<glyph unicode="&#xb7;" horiz-adv-x="593" d="M350 627l37 174h174l-37 -174h-174z" />
<glyph unicode="&#xb8;" horiz-adv-x="501" d="M31 -442l8 41q43 -20 94 -21q123 0 148 113q4 22 4 39q0 86 -103 86q-33 0 -78 -11q8 6 32 38t57.5 81t58.5 80h14l-119 -164q22 2 42 2q92 0 131 -39q38 -36 38 -82q0 -15 -4 -30q-27 -133 -196 -150q-82 0 -127 17z" />
<glyph unicode="&#xb9;" horiz-adv-x="608" d="M459 741l153 723l-53 -8l-37 -6l31 14l49 23h47l-160 -746h-30z" />
<glyph unicode="&#xba;" horiz-adv-x="819" d="M381 1182q31 141 121 215t225 76q239 -2 239 -196q0 -43 -12 -95q-27 -131 -113.5 -209t-236.5 -78q-234 0 -234 194q0 42 11 93zM454 1107v-7q0 -30 7 -49q8 -23 18 -40.5t28 -26.5l30 -16q12 -7 31.5 -9.5t26.5 -2.5h20h3q25 0 49.5 4.5t71.5 22.5t85 69.5t55 129.5 q4 43 8 74q1 8 1 15q0 23 -11 41l-21 41.5t-29.5 27t-34 15.5t-33 8t-27.5 3h-17q-203 0 -252 -225q-8 -41 -9 -75z" />
<glyph unicode="&#xbb;" horiz-adv-x="1136" d="M223 287q20 80 56 100q291 178 307 191l-234 196q-13 7 -13 36q0 22 7 56l297 -248q20 -13 14 -40q-4 -25 -34 -41zM735 287q20 80 56 100q291 178 307 191l-234 196q-13 7 -13 36q0 22 7 56l297 -248q15 -10 15 -28q0 -6 -1 -12q-4 -25 -34 -41z" />
<glyph unicode="&#xbc;" horiz-adv-x="2984" d="M387 0l293 1380l-94 -24q-23 -6 -44.5 -12.5t-33.5 -9.5t-12 -1l12 60q109 61 162 94h168l-316 -1487h-135zM898 -41l1022 1583h25l-1020 -1583h-27zM1762 412l26 127l1008 950h123l-211 -989h338l-19 -88h-337l-86 -412h-134l86 412h-794zM1848 500h727l188 880z" />
<glyph unicode="&#xbd;" horiz-adv-x="2789" d="M387 0l293 1380l-94 -24q-23 -6 -44.5 -12.5t-33.5 -9.5t-12 -1l12 60q109 61 162 94h168l-316 -1487h-135zM898 -41l1022 1583h25l-1020 -1583h-27zM1670 0q35 154 97 267.5t160.5 198.5t196 142.5t254.5 128.5h-2q303 135 352 363q6 31 6 59q0 81 -48 141 q-66 82 -230 91q-207 0 -367 -160q-53 53 -83 80q72 74 199.5 125t268.5 51q227 0 324 -109q72 -80 72 -192q0 -41 -10 -86q-68 -307 -472 -484q-446 -203 -528 -518h834l-21 -98h-1003z" />
<glyph unicode="&#xbe;" horiz-adv-x="3363" d="M96 45l23 109q203 -100 469 -101q125 0 228.5 39t164.5 98.5t96 117t45 106.5q6 28 6 55q0 89 -69 164q-90 98 -281 98h-176l23 98h176q330 0 393 289q6 30 6 58q0 75 -46 134q-62 81 -222 81q-211 0 -543 -152l25 111q301 139 538 139q205 0 322 -84q90 -65 90 -181 q0 -35 -8 -75q-31 -143 -114 -233.5t-230 -127.5q166 -43 242 -124q52 -54 52 -149q0 -46 -12 -101q-39 -186 -235.5 -317.5t-476.5 -131.5q-338 0 -486 80zM1277 -41l1022 1583h25l-1020 -1583h-27zM2141 412l26 127l1008 950h123l-211 -989h338l-19 -88h-337l-86 -412 h-134l86 412h-794zM2227 500h727l188 880z" />
<glyph unicode="&#xbf;" horiz-adv-x="1150" d="M137 -121q18 82 67.5 149.5t100 106.5t150.5 107q68 45 102.5 70.5t87.5 72.5t86 99.5t53 115.5h78q-43 -150 -124 -241t-195 -166q-78 -55 -115 -86t-82 -92.5t-59 -135.5q-7 -31 -7 -59q0 -78 56 -128q76 -69 258 -69q176 0 414 103l-29 -140q-212 -67 -400 -67h-6 q-233 0 -354 89q-92 67 -92 188q0 39 10 83zM788 887l35 172h172l-34 -172h-173z" />
<glyph unicode="&#xc0;" d="M23 0l886 1464h187l204 -1464h-135l-67 557h-598l-344 -557h-133zM539 643h551l-101 754zM934 1942h160l53 -230h-86z" />
<glyph unicode="&#xc1;" d="M23 0l886 1464h187l204 -1464h-135l-67 557h-598l-344 -557h-133zM539 643h551l-101 754zM842 1661l172 262h209l-256 -262h-125z" />
<glyph unicode="&#xc2;" d="M23 0l886 1464h187l204 -1464h-135l-67 557h-598l-344 -557h-133zM539 643h551l-101 754zM758 1683l268 265h80l154 -265h-89l-118 211l-207 -211h-88z" />
<glyph unicode="&#xc3;" d="M23 0l886 1464h187l204 -1464h-135l-67 557h-598l-344 -557h-133zM539 643h551l-101 754zM741 1759l17 88q41 41 127 41q53 0 154.5 -28.5t158.5 -28.5q84 0 133 20l-16 -77q-70 -47 -137 -48q-61 0 -159.5 27t-162.5 27q-62 -1 -115 -21z" />
<glyph unicode="&#xc4;" d="M23 0l886 1464h187l204 -1464h-135l-67 557h-598l-344 -557h-133zM539 643h551l-101 754zM715 1651l43 200h170l-43 -200h-170zM715 1651l43 200h170l-43 -200h-170zM1118 1651l43 200h172l-43 -200h-172zM1118 1651l43 200h172l-43 -200h-172z" />
<glyph unicode="&#xc5;" d="M23 0l886 1464h187l204 -1464h-135l-67 557h-598l-344 -557h-133zM539 643h551l-101 754zM784 1726q29 137 116 208t218 73q145 -2 197 -71q34 -44 34 -116q0 -42 -12 -94q-27 -127 -109.5 -201.5t-228.5 -74.5q-224 0 -224 190q0 39 9 86zM816 1642v-8q0 -32 8 -56 q10 -26 22 -46.5t32 -30.5l35 -17q15 -7 36.5 -10.5t29.5 -3.5h21h4q31 0 58.5 5.5t81.5 26t97 78.5t62 146q8 41 9 76v9q0 29 -6 51q-6 24 -19 44.5t-27.5 33t-34 20.5t-33.5 12t-32.5 7t-28.5 3h-19q-20 0 -38.5 -2t-60.5 -15t-73 -37.5t-64 -77t-49 -124.5 q-10 -47 -11 -84z" />
<glyph unicode="&#xc6;" horiz-adv-x="2131" d="M127 2l1384 1460h885l-18 -86h-709l-61 -294l-40 -194q-12 -59 -22 -100h525l-19 -88h-524l-125 -612h754l-19 -88h-899l119 559h-576l-540 -557h-115zM846 645h528l160 731z" />
<glyph unicode="&#xc7;" horiz-adv-x="1392" d="M274 725q76 362 334 567t582 205q160 0 379 -67l-27 -125q-205 106 -371 106q-16 0 -41.5 -2t-86 -16.5t-120 -39t-134 -75.5t-136 -121t-120 -181.5t-91.5 -248.5q-23 -107 -23 -197q0 -94 17 -160q15 -65 48.5 -117t66.5 -83t82 -53.5t82 -32.5t78 -16.5t58 -6.5h34 q207 0 440 160l-29 -141q-217 -123 -434 -123q-350 0 -500 218q-107 154 -107 364q0 88 19 186zM594 -436l8 41q43 -20 94 -21q123 0 148 113q4 22 4 39q0 86 -103 86q-33 0 -77 -10q8 6 32 37l57 81q34 50 58 80h14l-118 -164q22 2 41 2q92 0 132 -39q37 -36 37 -84 q0 -13 -3 -28q-27 -133 -197 -150q-82 0 -127 17z" />
<glyph unicode="&#xc8;" horiz-adv-x="1163" d="M193 0l309 1462h850l-19 -86h-721l-125 -588h535l-18 -88h-535l-129 -612h770l-18 -88h-899zM860 1942h160l53 -230h-86z" />
<glyph unicode="&#xc9;" horiz-adv-x="1163" d="M193 0l309 1462h850l-19 -86h-721l-125 -588h535l-18 -88h-535l-129 -612h770l-18 -88h-899zM768 1661l172 262h209l-256 -262h-125z" />
<glyph unicode="&#xca;" horiz-adv-x="1163" d="M193 0l309 1462h850l-19 -86h-721l-125 -588h535l-18 -88h-535l-129 -612h770l-18 -88h-899zM684 1683l268 265h80l154 -265h-88l-119 211l-207 -211h-88z" />
<glyph unicode="&#xcb;" horiz-adv-x="1163" d="M193 0l309 1462h850l-19 -86h-721l-125 -588h535l-18 -88h-535l-129 -612h770l-18 -88h-899zM641 1651l43 200h170l-43 -200h-170zM641 1651l43 200h170l-43 -200h-170zM1044 1651l43 200h173l-43 -200h-173zM1044 1651l43 200h173l-43 -200h-173z" />
<glyph unicode="&#xcc;" horiz-adv-x="530" d="M211 0l309 1464h131l-309 -1464h-131zM543 1942h159l54 -230h-86z" />
<glyph unicode="&#xcd;" horiz-adv-x="530" d="M211 0l309 1464h131l-309 -1464h-131zM455 1661l172 262h209l-256 -262h-125z" />
<glyph unicode="&#xce;" horiz-adv-x="530" d="M211 0l309 1464h131l-309 -1464h-131zM369 1683l268 265h80l153 -265h-88l-118 211l-207 -211h-88z" />
<glyph unicode="&#xcf;" horiz-adv-x="530" d="M211 0l309 1464h131l-309 -1464h-131zM326 1651l43 200h170l-43 -200h-170zM326 1651l43 200h170l-43 -200h-170zM729 1651l43 200h172l-43 -200h-172zM729 1651l43 200h172l-43 -200h-172z" />
<glyph unicode="&#xd1;" horiz-adv-x="1456" d="M186 0l310 1462h194l537 -1306l276 1306h135l-309 -1462h-153l-566 1378l-293 -1378h-131zM905 1759l17 88q41 41 127 41q53 0 154.5 -28.5t158.5 -28.5q84 0 133 20l-16 -77q-70 -47 -138 -48q-61 0 -159.5 27t-161.5 27q-62 -1 -115 -21z" />
<glyph unicode="&#xd2;" horiz-adv-x="1687" d="M250 729q80 373 321.5 567.5t614.5 200.5q395 -6 539 -196q93 -123 93 -325q0 -111 -28 -247q-74 -350 -305.5 -560t-626.5 -210q-635 0 -635 529q0 109 27 241zM385 527v-25q0 -77 10 -133q13 -66 44.5 -118t63.5 -85t80 -56.5t82.5 -35t83 -17.5t68.5 -6h52h10 q31 0 60.5 2t101 15.5t133 37t140.5 73.5t139 120t115.5 181.5t84.5 250.5q25 109 25 200q0 95 -17 163q-16 65 -52 117.5t-71 85t-88 55t-88 33t-86 16.5t-67 6h-44q-35 0 -66.5 -2t-101 -15.5t-127 -37t-132 -74.5t-133 -119.5t-111.5 -179.5t-84 -248q-23 -111 -25 -204z M1122 1942h160l53 -230h-86z" />
<glyph unicode="&#xd3;" horiz-adv-x="1687" d="M250 729q80 373 321.5 567.5t614.5 200.5q395 -6 539 -196q93 -123 93 -325q0 -111 -28 -247q-74 -350 -305.5 -560t-626.5 -210q-635 0 -635 529q0 109 27 241zM385 527v-25q0 -77 10 -133q13 -66 44.5 -118t63.5 -85t80 -56.5t82.5 -35t83 -17.5t68.5 -6h52h10 q31 0 60.5 2t101 15.5t133 37t140.5 73.5t139 120t115.5 181.5t84.5 250.5q25 109 25 200q0 95 -17 163q-16 65 -52 117.5t-71 85t-88 55t-88 33t-86 16.5t-67 6h-44q-35 0 -66.5 -2t-101 -15.5t-127 -37t-132 -74.5t-133 -119.5t-111.5 -179.5t-84 -248q-23 -111 -25 -204z M1030 1661l172 262h209l-256 -262h-125z" />
<glyph unicode="&#xd4;" horiz-adv-x="1687" d="M250 729q80 373 321.5 567.5t614.5 200.5q395 -6 539 -196q93 -123 93 -325q0 -111 -28 -247q-74 -350 -305.5 -560t-626.5 -210q-635 0 -635 529q0 109 27 241zM385 527v-25q0 -77 10 -133q13 -66 44.5 -118t63.5 -85t80 -56.5t82.5 -35t83 -17.5t68.5 -6h52h10 q31 0 60.5 2t101 15.5t133 37t140.5 73.5t139 120t115.5 181.5t84.5 250.5q25 109 25 200q0 95 -17 163q-16 65 -52 117.5t-71 85t-88 55t-88 33t-86 16.5t-67 6h-44q-35 0 -66.5 -2t-101 -15.5t-127 -37t-132 -74.5t-133 -119.5t-111.5 -179.5t-84 -248q-23 -111 -25 -204z M946 1683l268 265h80l154 -265h-88l-119 211l-207 -211h-88z" />
<glyph unicode="&#xd5;" horiz-adv-x="1687" d="M250 729q80 373 321.5 567.5t614.5 200.5q395 -6 539 -196q93 -123 93 -325q0 -111 -28 -247q-74 -350 -305.5 -560t-626.5 -210q-635 0 -635 529q0 109 27 241zM385 527v-25q0 -77 10 -133q13 -66 44.5 -118t63.5 -85t80 -56.5t82.5 -35t83 -17.5t68.5 -6h52h10 q31 0 60.5 2t101 15.5t133 37t140.5 73.5t139 120t115.5 181.5t84.5 250.5q25 109 25 200q0 95 -17 163q-16 65 -52 117.5t-71 85t-88 55t-88 33t-86 16.5t-67 6h-44q-35 0 -66.5 -2t-101 -15.5t-127 -37t-132 -74.5t-133 -119.5t-111.5 -179.5t-84 -248q-23 -111 -25 -204z M930 1759l16 88q41 41 127 41q53 0 154.5 -28.5t158.5 -28.5q84 0 134 20l-17 -77q-70 -47 -137 -48q-61 0 -159.5 27t-162.5 27q-61 -1 -114 -21z" />
<glyph unicode="&#xd6;" horiz-adv-x="1687" d="M250 729q80 373 321.5 567.5t614.5 200.5q395 -6 539 -196q93 -123 93 -325q0 -111 -28 -247q-74 -350 -305.5 -560t-626.5 -210q-635 0 -635 529q0 109 27 241zM385 527v-25q0 -77 10 -133q13 -66 44.5 -118t63.5 -85t80 -56.5t82.5 -35t83 -17.5t68.5 -6h52h10 q31 0 60.5 2t101 15.5t133 37t140.5 73.5t139 120t115.5 181.5t84.5 250.5q25 109 25 200q0 95 -17 163q-16 65 -52 117.5t-71 85t-88 55t-88 33t-86 16.5t-67 6h-44q-35 0 -66.5 -2t-101 -15.5t-127 -37t-132 -74.5t-133 -119.5t-111.5 -179.5t-84 -248q-23 -111 -25 -204z M903 1651l43 200h170l-43 -200h-170zM903 1651l43 200h170l-43 -200h-170zM1307 1651l43 200h172l-43 -200h-172zM1307 1651l43 200h172l-43 -200h-172z" />
<glyph unicode="&#xd8;" horiz-adv-x="1687" d="M250 729q78 356 336 562t600 206q145 0 268 -31q6 12 14 21q2 4 6 7q5 5 5 7q4 4 4 6h39l-31 -49q215 -90 286 -268q40 -98 40 -227q0 -106 -27 -234q-74 -350 -305.5 -560t-626.5 -210q-121 0 -262 25l-14 -25h-35l20 31q-341 125 -341 513q0 104 24 226zM410 731 q-23 -111 -23 -206q0 -304 236 -437l405 664l375 622q-117 33 -238 33q-37 0 -68.5 -2t-101 -15.5t-127 -37t-132 -74.5t-132 -119.5t-110.5 -179.5t-84 -248zM653 76q89 -25 226 -25q31 0 60.5 2t101 15.5t133 37t140.5 73.5t139 120t115.5 181.5t84.5 250.5q22 102 22 191 q0 291 -241 440z" />
<glyph unicode="&#xd9;" horiz-adv-x="1468" d="M277 363q-1 9 -1 20q0 34 7 81q8 62 13 93t17 86l174 821h134l-177 -837q-8 -37 -15 -73t-11 -95q-2 -23 -2 -45q0 -33 4 -62q6 -49 27.5 -103t59.5 -92t105.5 -62.5t157.5 -24.5q86 0 160 23.5t125 56t95 87t68.5 96.5t48 106.5t31 92t19.5 77.5q2 11 4 18l176 837h129 l-176 -837q-14 -61 -18.5 -82t-23.5 -88.5t-34.5 -99t-48.5 -93t-65.5 -93.5t-86 -76t-113 -66.5t-139 -39t-171.5 -16.5q-94 0 -168 16.5t-125 40t-87 65.5t-55.5 79t-27.5 93.5t-10 95.5zM1012 1942h159l54 -230h-86z" />
<glyph unicode="&#xda;" horiz-adv-x="1468" d="M277 363q-1 9 -1 20q0 34 7 81q8 62 13 93t17 86l174 821h134l-177 -837q-8 -37 -15 -73t-11 -95q-2 -23 -2 -45q0 -33 4 -62q6 -49 27.5 -103t59.5 -92t105.5 -62.5t157.5 -24.5q86 0 160 23.5t125 56t95 87t68.5 96.5t48 106.5t31 92t19.5 77.5q2 11 4 18l176 837h129 l-176 -837q-14 -61 -18.5 -82t-23.5 -88.5t-34.5 -99t-48.5 -93t-65.5 -93.5t-86 -76t-113 -66.5t-139 -39t-171.5 -16.5q-94 0 -168 16.5t-125 40t-87 65.5t-55.5 79t-27.5 93.5t-10 95.5zM922 1661l172 262h209l-256 -262h-125z" />
<glyph unicode="&#xdb;" horiz-adv-x="1468" d="M277 363q-1 9 -1 20q0 34 7 81q8 62 13 93t17 86l174 821h134l-177 -837q-8 -37 -15 -73t-11 -95q-2 -23 -2 -45q0 -33 4 -62q6 -49 27.5 -103t59.5 -92t105.5 -62.5t157.5 -24.5q86 0 160 23.5t125 56t95 87t68.5 96.5t48 106.5t31 92t19.5 77.5q2 11 4 18l176 837h129 l-176 -837q-14 -61 -18.5 -82t-23.5 -88.5t-34.5 -99t-48.5 -93t-65.5 -93.5t-86 -76t-113 -66.5t-139 -39t-171.5 -16.5q-94 0 -168 16.5t-125 40t-87 65.5t-55.5 79t-27.5 93.5t-10 95.5zM838 1683l268 265h80l153 -265h-88l-118 211l-207 -211h-88z" />
<glyph unicode="&#xdc;" horiz-adv-x="1468" d="M277 363q-1 9 -1 20q0 34 7 81q8 62 13 93t17 86l174 821h134l-177 -837q-8 -37 -15 -73t-11 -95q-2 -23 -2 -45q0 -33 4 -62q6 -49 27.5 -103t59.5 -92t105.5 -62.5t157.5 -24.5q86 0 160 23.5t125 56t95 87t68.5 96.5t48 106.5t31 92t19.5 77.5q2 11 4 18l176 837h129 l-176 -837q-14 -61 -18.5 -82t-23.5 -88.5t-34.5 -99t-48.5 -93t-65.5 -93.5t-86 -76t-113 -66.5t-139 -39t-171.5 -16.5q-94 0 -168 16.5t-125 40t-87 65.5t-55.5 79t-27.5 93.5t-10 95.5zM795 1651l43 200h170l-43 -200h-170zM795 1651l43 200h170l-43 -200h-170z M1198 1651l43 200h172l-43 -200h-172zM1198 1651l43 200h172l-43 -200h-172z" />
<glyph unicode="&#xdd;" horiz-adv-x="1413" d="M369 1464h149l340 -811l690 811h152l-787 -915l-116 -551h-148l117 551zM893 1661l172 262h209l-256 -262h-125z" />
<glyph unicode="&#xdf;" horiz-adv-x="1171" d="M158 0l194 922q20 94 32.5 144t37 127t49.5 118t66 92t89 76.5t117.5 43t153.5 17.5q70 0 133.5 -16.5t123.5 -55t85 -119.5q12 -40 12 -88.5t-12 -105.5q-23 -119 -115 -210t-262 -126q299 -78 299 -314q0 -42 -10 -89q-25 -111 -74 -193t-106.5 -127t-136 -71.5 t-144 -33.5t-147.5 -7l20 96q365 35 428 340q13 42 13 84q0 11 -1 22q-4 52 -26.5 96t-88 80.5t-171.5 61.5l22 106q166 8 259.5 75t123.5 212q9 44 9 81q0 85 -51 131q-72 65 -206 65q-88 0 -145 -21.5t-96 -76t-63.5 -125t-51.5 -191.5l-215 -1020h-145z" />
<glyph unicode="&#xe0;" horiz-adv-x="948" d="M218 118q-25 71 -25 166q0 107 32 244q61 293 208 429.5t409 136.5q92 0 207.5 -44.5t142.5 -50.5l-209 -997h-106l22 215q-33 -72 -163 -161t-273 -89q-190 0 -245 151zM324 215q6 -76 44.5 -117t112.5 -41q174 0 305.5 132.5t159.5 269.5l96 456q-121 72 -233.5 72 t-194.5 -39t-132 -112.5t-76.5 -142t-49.5 -165.5q-20 -96 -29 -166q-5 -43 -5 -88q0 -29 2 -59zM668 1538h159l54 -229h-86z" />
<glyph unicode="&#xe1;" horiz-adv-x="948" d="M218 118q-25 71 -25 166q0 107 32 244q61 293 208 429.5t409 136.5q92 0 207.5 -44.5t142.5 -50.5l-209 -997h-106l22 215q-33 -72 -163 -161t-273 -89q-190 0 -245 151zM324 215q6 -76 44.5 -117t112.5 -41q174 0 305.5 132.5t159.5 269.5l96 456q-121 72 -233.5 72 t-194.5 -39t-132 -112.5t-76.5 -142t-49.5 -165.5q-20 -96 -29 -166q-5 -43 -5 -88q0 -29 2 -59zM578 1257l172 263h208l-256 -263h-124z" />
<glyph unicode="&#xe2;" horiz-adv-x="948" d="M218 118q-25 71 -25 166q0 107 32 244q61 293 208 429.5t409 136.5q92 0 207.5 -44.5t142.5 -50.5l-209 -997h-106l22 215q-33 -72 -163 -161t-273 -89q-190 0 -245 151zM324 215q6 -76 44.5 -117t112.5 -41q174 0 305.5 132.5t159.5 269.5l96 456q-121 72 -233.5 72 t-194.5 -39t-132 -112.5t-76.5 -142t-49.5 -165.5q-20 -96 -29 -166q-5 -43 -5 -88q0 -29 2 -59zM494 1280l268 264h80l153 -264h-88l-119 211l-206 -211h-88z" />
<glyph unicode="&#xe3;" horiz-adv-x="948" d="M218 118q-25 71 -25 166q0 107 32 244q61 293 208 429.5t409 136.5q92 0 207.5 -44.5t142.5 -50.5l-209 -997h-106l22 215q-33 -72 -163 -161t-273 -89q-190 0 -245 151zM324 215q6 -76 44.5 -117t112.5 -41q174 0 305.5 132.5t159.5 269.5l96 456q-121 72 -233.5 72 t-194.5 -39t-132 -112.5t-76.5 -142t-49.5 -165.5q-20 -96 -29 -166q-5 -43 -5 -88q0 -29 2 -59zM477 1356l17 88q41 41 127 41q53 0 154.5 -29t158.5 -29q84 0 133 21l-16 -78q-70 -47 -138 -47q-61 0 -159.5 26.5t-161.5 26.5q-62 0 -115 -20z" />
<glyph unicode="&#xe4;" horiz-adv-x="948" d="M218 118q-25 71 -25 166q0 107 32 244q61 293 208 429.5t409 136.5q92 0 207.5 -44.5t142.5 -50.5l-209 -997h-106l22 215q-33 -72 -163 -161t-273 -89q-190 0 -245 151zM324 215q6 -76 44.5 -117t112.5 -41q174 0 305.5 132.5t159.5 269.5l96 456q-121 72 -233.5 72 t-194.5 -39t-132 -112.5t-76.5 -142t-49.5 -165.5q-20 -96 -29 -166q-5 -43 -5 -88q0 -29 2 -59zM451 1247l43 201h170l-43 -201h-170zM451 1247l43 201h170l-43 -201h-170zM854 1247l43 201h172l-43 -201h-172zM854 1247l43 201h172l-43 -201h-172z" />
<glyph unicode="&#xe5;" horiz-adv-x="948" d="M218 118q-25 71 -25 166q0 107 32 244q61 293 208 429.5t409 136.5q92 0 207.5 -44.5t142.5 -50.5l-209 -997h-106l22 215q-33 -72 -163 -161t-273 -89q-190 0 -245 151zM324 215q6 -76 44.5 -117t112.5 -41q174 0 305.5 132.5t159.5 269.5l96 456q-121 72 -233.5 72 t-194.5 -39t-132 -112.5t-76.5 -142t-49.5 -165.5q-20 -96 -29 -166q-5 -43 -5 -88q0 -29 2 -59zM592 1518q29 137 116 207.5t218 72.5q145 -2 198 -71q33 -44 33 -115q0 -42 -12 -94q-27 -127 -110 -202t-228 -75q-224 0 -224 191q0 39 9 86zM624 1433v-7q0 -34 8 -57 q9 -26 21.5 -46t32.5 -30l35 -18q14 -7 35.5 -10t29.5 -3h22h3q31 0 58.5 5t82 25.5t97.5 79t61 146.5q8 41 9 76v9q0 29 -5 50q-6 24 -19.5 44.5t-27.5 33t-33.5 20.5t-34 12t-33 7.5t-27.5 3.5h-19q-20 0 -39 -2.5t-61 -15.5t-72.5 -37.5t-63.5 -76.5t-49 -124 q-10 -47 -11 -85z" />
<glyph unicode="&#xe6;" horiz-adv-x="1691" d="M158 459h753q18 88 27.5 140t16.5 125q3 26 3 48q0 40 -9 68q-13 43 -39.5 85t-81 61.5t-134.5 19.5q-78 0 -155.5 -34t-112.5 -60.5t-86 -73.5l-21 20l-18 18q-10 11 -18 18l-15 15q197 180 445 180l1 1q247 0 367 -187q207 186 439 187q337 0 337 -319q0 -77 -20 -173 h-754q-18 -88 -27 -139t-17 -125q-2 -28 -2 -51q0 -39 7 -65q13 -42 39.5 -85t82 -62.5t134.5 -19.5q190 0 349 168q18 -14 38.5 -36.5t34.5 -35.5q-180 -180 -440 -180q-244 0 -377 185q-206 -184 -430 -185q-337 0 -337 317q0 78 20 175zM260 273q10 -54 30.5 -101t75 -79 t130.5 -32q162 0 253.5 92.5t124.5 221.5h-614q-5 -24 -5 -49t5 -53zM1116 682h619q3 24 3 47q0 46 -11 91q-15 67 -73.5 121t-154.5 54q-291 0 -383 -313z" />
<glyph unicode="&#xe7;" horiz-adv-x="1087" d="M227 535q61 297 228.5 421.5t441.5 124.5q193 0 322 -73l-25 -115q-150 98 -317 98q-88 0 -160 -18.5t-143.5 -64.5t-126 -139t-82.5 -230q-23 -93 -23 -165q0 -20 2 -38q8 -84 30.5 -138.5t72 -85t104.5 -43t127 -12.5q178 0 377 88q-22 -89 -25 -122q-219 -59 -371 -60 h-59l-65 -110h20q107 0 150 -39q33 -31 33 -75q0 -18 -5 -38q-25 -131 -194 -145h2q-84 0 -133 12l8 43q39 -20 94 -21q25 0 52.5 7.5t57 34t37.5 69.5q5 24 5 43q0 84 -101 84q-49 0 -74 -2q4 2 6.5 4t5.5 4t7 7l8 10l13 17l16 22.5l23 31.5l30 41q-240 45 -331 185 q-58 89 -58 220q0 76 20 167z" />
<glyph unicode="&#xe8;" horiz-adv-x="1067" d="M215 506q121 584 606 584q329 0 329 -331q0 -96 -28 -220l-764 2q-23 -98 -32 -163q-6 -40 -6 -82q0 -25 2 -50q6 -68 34.5 -107t89 -63.5t154.5 -24.5q199 0 348 166q72 -68 76 -72q-190 -178 -442 -178q-258 0 -339 138q-49 83 -49 212q0 85 21 189zM391 625l631 2 q10 59 10 111q0 82 -24 145q-47 112 -204 112h-3q-168 0 -270.5 -105t-139.5 -265zM727 1538h160l53 -229h-86z" />
<glyph unicode="&#xe9;" horiz-adv-x="1067" d="M215 506q121 584 606 584q329 0 329 -331q0 -96 -28 -220l-764 2q-23 -98 -32 -163q-6 -40 -6 -82q0 -25 2 -50q6 -68 34.5 -107t89 -63.5t154.5 -24.5q199 0 348 166q72 -68 76 -72q-190 -178 -442 -178q-258 0 -339 138q-49 83 -49 212q0 85 21 189zM391 625l631 2 q10 59 10 111q0 82 -24 145q-47 112 -204 112h-3q-168 0 -270.5 -105t-139.5 -265zM637 1257l172 263h209l-256 -263h-125z" />
<glyph unicode="&#xea;" horiz-adv-x="1067" d="M215 506q121 584 606 584q329 0 329 -331q0 -96 -28 -220l-764 2q-23 -98 -32 -163q-6 -40 -6 -82q0 -25 2 -50q6 -68 34.5 -107t89 -63.5t154.5 -24.5q199 0 348 166q72 -68 76 -72q-190 -178 -442 -178q-258 0 -339 138q-49 83 -49 212q0 85 21 189zM391 625l631 2 q10 59 10 111q0 82 -24 145q-47 112 -204 112h-3q-168 0 -270.5 -105t-139.5 -265zM553 1280l268 264h80l154 -264h-88l-119 211l-207 -211h-88z" />
<glyph unicode="&#xeb;" horiz-adv-x="1067" d="M215 506q121 584 606 584q329 0 329 -331q0 -96 -28 -220l-764 2q-23 -98 -32 -163q-6 -40 -6 -82q0 -25 2 -50q6 -68 34.5 -107t89 -63.5t154.5 -24.5q199 0 348 166q72 -68 76 -72q-190 -178 -442 -178q-258 0 -339 138q-49 83 -49 212q0 85 21 189zM391 625l631 2 q10 59 10 111q0 82 -24 145q-47 112 -204 112h-3q-168 0 -270.5 -105t-139.5 -265zM510 1247l43 201h170l-43 -201h-170zM510 1247l43 201h170l-43 -201h-170zM913 1247l43 201h172l-43 -201h-172zM913 1247l43 201h172l-43 -201h-172z" />
<glyph unicode="&#xec;" horiz-adv-x="493" d="M188 0l226 1061h139l-225 -1061h-140zM440 1538h160l53 -229h-86z" />
<glyph unicode="&#xed;" horiz-adv-x="493" d="M188 0l226 1061h139l-225 -1061h-140zM356 1257l172 263h209l-256 -263h-125z" />
<glyph unicode="&#xee;" horiz-adv-x="493" d="M188 0l226 1061h139l-225 -1061h-140zM268 1280l269 264h79l154 -264h-88l-119 211l-207 -211h-88z" />
<glyph unicode="&#xef;" horiz-adv-x="493" d="M188 0l226 1061h139l-225 -1061h-140zM223 1247l43 201h170l-43 -201h-170zM223 1247l43 201h170l-43 -201h-170zM627 1247l43 201h172l-43 -201h-172zM627 1247l43 201h172l-43 -201h-172z" />
<glyph unicode="&#xf1;" horiz-adv-x="1150" d="M168 0l225 1061h121l-33 -211q59 96 199.5 169t265.5 73q152 0 216 -115q36 -66 36 -167q0 -75 -20 -169l-136 -641h-131l140 655q14 70 14 125q0 209 -203 209q-139 0 -265 -94t-151 -217l-143 -678h-135zM578 1356l16 88q41 41 127 41q53 0 154.5 -29t158.5 -29 q84 0 133 21l-16 -78q-70 -47 -137 -47q-61 0 -159.5 26.5t-162.5 26.5q-61 0 -114 -20z" />
<glyph unicode="&#xf2;" horiz-adv-x="1153" d="M193 318q-2 24 -2 48q0 82 22 169q61 281 200.5 419t397.5 138q408 0 408 -365q0 -86 -23 -192q-59 -293 -195.5 -431.5t-406.5 -138.5q-135 0 -226.5 46t-129 125t-45.5 182zM330 344q-1 -6 -1 -12q0 -74 19 -120q19 -50 43.5 -83t66.5 -47t75.5 -18.5t80.5 -4.5 q51 0 82 3.5t89.5 29t98.5 71.5t85 141t73 231q20 94 23 168q2 23 2 43q0 47 -6 80q-8 48 -34 83t-48.5 51.5t-62 25.5t-63.5 10t-62 1q-43 0 -63.5 -1t-66 -9t-72 -24.5t-65.5 -49t-65.5 -81t-55.5 -124t-49 -173.5q-23 -109 -24 -191zM770 1538h160l53 -229h-86z" />
<glyph unicode="&#xf3;" horiz-adv-x="1153" d="M193 318q-2 24 -2 48q0 82 22 169q61 281 200.5 419t397.5 138q408 0 408 -365q0 -86 -23 -192q-59 -293 -195.5 -431.5t-406.5 -138.5q-135 0 -226.5 46t-129 125t-45.5 182zM330 344q-1 -6 -1 -12q0 -74 19 -120q19 -50 43.5 -83t66.5 -47t75.5 -18.5t80.5 -4.5 q51 0 82 3.5t89.5 29t98.5 71.5t85 141t73 231q20 94 23 168q2 23 2 43q0 47 -6 80q-8 48 -34 83t-48.5 51.5t-62 25.5t-63.5 10t-62 1q-43 0 -63.5 -1t-66 -9t-72 -24.5t-65.5 -49t-65.5 -81t-55.5 -124t-49 -173.5q-23 -109 -24 -191zM680 1257l172 263h209l-256 -263 h-125z" />
<glyph unicode="&#xf4;" horiz-adv-x="1153" d="M193 318q-2 24 -2 48q0 82 22 169q61 281 200.5 419t397.5 138q408 0 408 -365q0 -86 -23 -192q-59 -293 -195.5 -431.5t-406.5 -138.5q-135 0 -226.5 46t-129 125t-45.5 182zM330 344q-1 -6 -1 -12q0 -74 19 -120q19 -50 43.5 -83t66.5 -47t75.5 -18.5t80.5 -4.5 q51 0 82 3.5t89.5 29t98.5 71.5t85 141t73 231q20 94 23 168q2 23 2 43q0 47 -6 80q-8 48 -34 83t-48.5 51.5t-62 25.5t-63.5 10t-62 1q-43 0 -63.5 -1t-66 -9t-72 -24.5t-65.5 -49t-65.5 -81t-55.5 -124t-49 -173.5q-23 -109 -24 -191zM596 1280l268 264h80l154 -264h-88 l-119 211l-207 -211h-88z" />
<glyph unicode="&#xf5;" horiz-adv-x="1153" d="M193 318q-2 24 -2 48q0 82 22 169q61 281 200.5 419t397.5 138q408 0 408 -365q0 -86 -23 -192q-59 -293 -195.5 -431.5t-406.5 -138.5q-135 0 -226.5 46t-129 125t-45.5 182zM330 344q-1 -6 -1 -12q0 -74 19 -120q19 -50 43.5 -83t66.5 -47t75.5 -18.5t80.5 -4.5 q51 0 82 3.5t89.5 29t98.5 71.5t85 141t73 231q20 94 23 168q2 23 2 43q0 47 -6 80q-8 48 -34 83t-48.5 51.5t-62 25.5t-63.5 10t-62 1q-43 0 -63.5 -1t-66 -9t-72 -24.5t-65.5 -49t-65.5 -81t-55.5 -124t-49 -173.5q-23 -109 -24 -191zM580 1356l16 88q41 41 127 41 q53 0 154.5 -29t158.5 -29q84 0 133 21l-16 -78q-70 -47 -137 -47q-61 0 -159.5 26.5t-162.5 26.5q-61 0 -114 -20z" />
<glyph unicode="&#xf6;" horiz-adv-x="1153" d="M193 318q-2 24 -2 48q0 82 22 169q61 281 200.5 419t397.5 138q408 0 408 -365q0 -86 -23 -192q-59 -293 -195.5 -431.5t-406.5 -138.5q-135 0 -226.5 46t-129 125t-45.5 182zM330 344q-1 -6 -1 -12q0 -74 19 -120q19 -50 43.5 -83t66.5 -47t75.5 -18.5t80.5 -4.5 q51 0 82 3.5t89.5 29t98.5 71.5t85 141t73 231q20 94 23 168q2 23 2 43q0 47 -6 80q-8 48 -34 83t-48.5 51.5t-62 25.5t-63.5 10t-62 1q-43 0 -63.5 -1t-66 -9t-72 -24.5t-65.5 -49t-65.5 -81t-55.5 -124t-49 -173.5q-23 -109 -24 -191zM553 1247l43 201h170l-43 -201h-170z M553 1247l43 201h170l-43 -201h-170zM956 1247l43 201h172l-43 -201h-172zM956 1247l43 201h172l-43 -201h-172z" />
<glyph unicode="&#xf8;" horiz-adv-x="1157" d="M192 343q3 93 21 192q61 279 203.5 418t402.5 139q215 0 301 -84l49 53h23l-59 -66q76 -70 93 -205q6 -44 6 -87q0 -87 -24 -168q-59 -291 -198.5 -430.5t-409.5 -139.5q-160 0 -264 60l-19 -25q-10 -10 -34 -41h-25l61 76q-66 45 -97 130q-30 79 -30 164v14zM360 535 q-18 -86 -18 -164q0 -136 55 -244l645 780q-10 14 -21 26.5t-21.5 21t-24.5 15.5t-23.5 11t-28 8t-25.5 5t-26.5 2t-24.5 1h-25h-23q-43 0 -64.5 -1t-66.5 -9t-72 -24.5t-65.5 -49t-65.5 -81t-56 -124t-49 -173.5zM406 115q72 -56 215 -56q51 0 81.5 3.5t89 29t98.5 71.5 t85 141t74 231q25 139 25 229q0 87 -23 129z" />
<glyph unicode="&#xf9;" horiz-adv-x="1175" d="M244 403l141 658h139l-145 -676q-21 -83 -21 -146q0 -57 17 -97q35 -85 164 -85q147 0 286.5 100.5t173.5 260.5l138 643h133l-226 -1061h-122l34 221q-72 -123 -194.5 -189.5t-274 -66.5t-221.5 103q-41 62 -41 169q0 73 19 166zM782 1538h160l53 -229h-86z" />
<glyph unicode="&#xfa;" horiz-adv-x="1175" d="M244 403l141 658h139l-145 -676q-21 -83 -21 -146q0 -57 17 -97q35 -85 164 -85q147 0 286.5 100.5t173.5 260.5l138 643h133l-226 -1061h-122l34 221q-72 -123 -194.5 -189.5t-274 -66.5t-221.5 103q-41 62 -41 169q0 73 19 166zM690 1257l172 263h209l-256 -263h-125z " />
<glyph unicode="&#xfb;" horiz-adv-x="1175" d="M244 403l141 658h139l-145 -676q-21 -83 -21 -146q0 -57 17 -97q35 -85 164 -85q147 0 286.5 100.5t173.5 260.5l138 643h133l-226 -1061h-122l34 221q-72 -123 -194.5 -189.5t-274 -66.5t-221.5 103q-41 62 -41 169q0 73 19 166zM606 1280l268 264h80l154 -264h-88 l-119 211l-207 -211h-88z" />
<glyph unicode="&#xfc;" horiz-adv-x="1175" d="M244 403l141 658h139l-145 -676q-21 -83 -21 -146q0 -57 17 -97q35 -85 164 -85q147 0 286.5 100.5t173.5 260.5l138 643h133l-226 -1061h-122l34 221q-72 -123 -194.5 -189.5t-274 -66.5t-221.5 103q-41 62 -41 169q0 73 19 166zM563 1247l43 201h170l-43 -201h-170z M563 1247l43 201h170l-43 -201h-170zM967 1247l43 201h172l-43 -201h-172zM967 1247l43 201h172l-43 -201h-172z" />
<glyph unicode="&#xfd;" horiz-adv-x="1095" d="M287 1061h139l170 -1061l569 1061h140l-854 -1495h-119l170 328zM651 1257l172 263h209l-256 -263h-125z" />
<glyph unicode="&#xff;" horiz-adv-x="1095" d="M287 1061h139l170 -1061l569 1061h140l-854 -1495h-119l170 328zM524 1247l43 201h170l-43 -201h-170zM524 1247l43 201h170l-43 -201h-170zM928 1247l43 201h172l-43 -201h-172zM928 1247l43 201h172l-43 -201h-172z" />
<glyph unicode="&#x152;" horiz-adv-x="2850" d="M250 729q80 373 321.5 567.5t614.5 200.5q395 -6 540 -197q93 -122 93 -324q0 -111 -29 -247q-74 -350 -305.5 -560t-626.5 -210q-635 0 -635 529q0 109 27 241zM385 527v-25q0 -77 11 -134q12 -65 43.5 -117t63.5 -85t80 -56.5t82.5 -35t83 -17.5t69.5 -6h51h10 q31 0 60.5 2t101 15.5t133 37t140.5 73.5t139 120t115.5 181.5t84.5 250.5q25 109 25 200q0 95 -17 163q-16 65 -52 117.5t-71 85t-88 55t-88 33t-86 16.5t-66 6h-45q-35 0 -66.5 -2t-101 -15.5t-127 -37t-132 -74.5t-133 -119.5t-111.5 -179.5t-84 -248q-23 -111 -25 -204z M1880 0l309 1462h850l-19 -86h-721l-125 -588h535l-18 -88h-535l-129 -612h770l-18 -88h-899z" />
<glyph unicode="&#x153;" horiz-adv-x="2220" d="M192 318q-1 24 -1 48q0 82 22 169q61 281 200.5 419t397.5 138q408 0 408 -365q0 -86 -23 -192q-59 -293 -195.5 -431.5t-406.5 -138.5q-135 0 -226.5 46t-129 125t-46.5 182zM330 344q-1 -6 -1 -12q0 -74 19 -120q19 -50 43.5 -83t66.5 -47t75.5 -18.5t80.5 -4.5 q51 0 82 3.5t89.5 29t98.5 71.5t85 141t73 231q20 94 24 169q1 22 1 42q0 47 -6 80q-8 48 -34 83t-48.5 51.5t-62 25.5t-63.5 10t-62 1q-43 0 -63.5 -1t-66 -9t-72 -24.5t-65.5 -49t-65.5 -81t-55.5 -124t-49 -173.5q-23 -109 -24 -191zM1368 506q121 584 606 584 q329 0 329 -331q0 -96 -28 -220l-764 2q-23 -98 -32 -163q-6 -40 -6 -82q0 -25 3 -50q5 -68 33.5 -107t89 -63.5t154.5 -24.5q199 0 348 166q72 -68 76 -72q-190 -178 -442 -178q-258 0 -339 137q-49 84 -49 213q0 85 21 189zM1544 625l631 2q10 59 10 111q0 82 -24 145 q-47 112 -204 112h-3q-168 0 -270.5 -105t-139.5 -265z" />
<glyph unicode="&#x178;" horiz-adv-x="1413" d="M369 1464h149l340 -811l690 811h152l-787 -915l-116 -551h-148l117 551zM766 1651l43 200h170l-43 -200h-170zM766 1651l43 200h170l-43 -200h-170zM1169 1651l43 200h172l-43 -200h-172zM1169 1651l43 200h172l-43 -200h-172z" />
<glyph unicode="&#x2c6;" horiz-adv-x="491" d="M268 1280l269 264h79l154 -264h-88l-119 211l-207 -211h-88z" />
<glyph unicode="&#x2dc;" horiz-adv-x="454" d="M252 1356l16 88q41 41 127 41q53 0 154.5 -29t159.5 -29q84 0 133 21l-17 -78q-70 -47 -137 -47q-61 0 -159.5 26.5t-161.5 26.5q-62 0 -115 -20z" />
<glyph unicode="&#x2000;" horiz-adv-x="1003" />
<glyph unicode="&#x2001;" horiz-adv-x="2007" />
<glyph unicode="&#x2002;" horiz-adv-x="1003" />
<glyph unicode="&#x2003;" horiz-adv-x="2007" />
<glyph unicode="&#x2004;" horiz-adv-x="669" />
<glyph unicode="&#x2005;" horiz-adv-x="501" />
<glyph unicode="&#x2006;" horiz-adv-x="334" />
<glyph unicode="&#x2007;" horiz-adv-x="334" />
<glyph unicode="&#x2008;" horiz-adv-x="250" />
<glyph unicode="&#x2009;" horiz-adv-x="401" />
<glyph unicode="&#x200a;" horiz-adv-x="111" />
<glyph unicode="&#x2010;" horiz-adv-x="815" d="M246 518l22 105h574l-23 -105h-573z" />
<glyph unicode="&#x2011;" horiz-adv-x="815" d="M246 518l22 105h574l-23 -105h-573z" />
<glyph unicode="&#x2012;" horiz-adv-x="815" d="M246 518l22 105h574l-23 -105h-573z" />
<glyph unicode="&#x2013;" horiz-adv-x="1024" d="M133 518l23 105h1022l-23 -105h-1022z" />
<glyph unicode="&#x2014;" horiz-adv-x="2048" d="M401 518l23 105h1554l-22 -105h-1555z" />
<glyph unicode="&#x2018;" horiz-adv-x="569" d="M399 918q2 109 25 204q72 324 299 355l-18 -80q-43 -4 -78 -25.5t-55.5 -45t-38 -70t-26 -77t-20.5 -87.5h127l-36 -174h-179z" />
<glyph unicode="&#x2019;" horiz-adv-x="569" d="M377 920l16 73q45 4 80 26.5t54.5 45t38 73t24.5 76.5l20 91h-123l37 174h178q-10 -133 -28 -209q-61 -307 -297 -350z" />
<glyph unicode="&#x201a;" horiz-adv-x="569" d="M106 -383l15 72q45 4 81 27.5t54 45t37.5 75.5t25 74.5t21.5 88.5h-123l35 172h178q-10 -141 -27 -203q-35 -170 -115.5 -254t-181.5 -98z" />
<glyph unicode="&#x201c;" horiz-adv-x="901" d="M365 918q2 111 22 204q70 312 301 355l-16 -78q-57 -8 -95 -34t-63 -76t-35 -87t-26 -110h127l-37 -174h-178zM788 918q14 150 29 204q70 311 297 355l-16 -78q-43 -6 -78 -27.5t-55.5 -46.5t-38 -69t-25.5 -75.5t-20 -88.5h123l-37 -174h-179z" />
<glyph unicode="&#x201d;" horiz-adv-x="909" d="M336 920l16 73q45 4 79 25.5t54.5 46.5t39 73t26.5 77.5t20 89.5h-122l36 174h179q-16 -158 -29 -209q-59 -303 -299 -350zM764 920l16 73q45 4 80 26.5t54.5 45t38 73t24.5 76.5l20 91h-127l37 174h180q0 -90 -26 -209q-61 -309 -297 -350z" />
<glyph unicode="&#x201e;" horiz-adv-x="997" d="M98 -383l15 72q45 4 79.5 27.5t54 45t38 75.5t23.5 75l22 88h-121l35 172h176q-6 -120 -25 -203q-35 -170 -115.5 -254t-181.5 -98zM563 -383l15 72q55 6 93 32.5t61.5 75.5t34.5 90t24 111q-16 0 -57.5 1t-61.5 1l35 172h178q-2 -115 -23 -203q-33 -172 -115.5 -255 t-183.5 -97z" />
<glyph unicode="&#x2022;" horiz-adv-x="1024" d="M160 745.5q0 153.5 108.5 262t262 108.5t262 -108.5t108.5 -262t-108.5 -262t-262 -108.5t-262 108.5t-108.5 262z" />
<glyph unicode="&#x2026;" horiz-adv-x="1665" d="M188 -2l37 172h174l-37 -172h-174zM791 -2l36 172h174l-36 -172h-174zM1393 -2l37 172h172l-37 -172h-172z" />
<glyph unicode="&#x202f;" horiz-adv-x="401" />
<glyph unicode="&#x2039;" horiz-adv-x="626" d="M266 578q6 25 35 40l399 248q-16 -80 -43 -92l-319 -196q199 -172 229 -191q29 -23 11 -100l-293 250q-23 16 -19 41z" />
<glyph unicode="&#x203a;" horiz-adv-x="636" d="M213 287q20 80 55 100q291 178 307 191l-233 196q-13 7 -13 36q0 22 7 56l297 -248q15 -10 15 -28q0 -6 -1 -12q-4 -25 -35 -41z" />
<glyph unicode="&#x2044;" horiz-adv-x="710" d="M8 -41l1022 1583h25l-1020 -1583h-27z" />
<glyph unicode="&#x205f;" horiz-adv-x="501" />
<glyph unicode="&#x20ac;" horiz-adv-x="1259" d="M199 555l37 45h120q31 201 74 342h-149l36 43h125q238 590 715 590q152 0 385 -72l-29 -127q-213 109 -374 109q-49 0 -91 -7.5t-101.5 -38t-113 -80.5t-114 -146.5t-111.5 -227.5h514l-24 -43h-500q-53 -231 -66 -342h396q-10 -27 -21 -45h-383q4 -127 39 -220t73 -134 t92 -64.5t74.5 -25.5t43.5 -2q217 0 448 157l-30 -143q-205 -123 -441 -123q-211 0 -339 147.5t-136 407.5h-149z" />
<glyph unicode="&#x2122;" horiz-adv-x="3145" d="M317 1378l19 88h1247l-18 -88h-547l-293 -1378h-137l293 1378h-564zM1449 0l310 1464h250l264 -1097q8 -39 26.5 -46.5t38 6t35.5 40.5l309 473l206 311l114 172l64 97q16 26 26 44h231l-309 -1464h-131l291 1382l-817 -1210h-152l-328 1208l-299 -1380h-129z" />
<glyph unicode="&#xe000;" horiz-adv-x="1060" d="M0 1060h1060v-1060h-1060v1060z" />
<glyph unicode="&#xfb01;" horiz-adv-x="1241" d="M207 0l205 973h-162l20 88h162l39 188q47 211 179 320.5t306 109.5q88 0 155 -16t95.5 -31.5t83.5 -50.5l15 68h180l-39 -183h-209q-156 127 -285 127q-143 0 -232 -108.5t-120 -243.5l-37 -180h797l-225 -1061h-146l205 973h-649l-205 -973h-133z" />
<glyph unicode="&#xfb02;" horiz-adv-x="1232" d="M225 0l205 971h-184l20 90h185l38 182q51 248 172 345.5t310 97.5q63 0 118.5 -6.5t114 -23t98 -44t72.5 -70.5t36 -104q1 -12 1 -24q0 -52 -10 -116l-275 -1296h-145l274 1296q10 46 10 83q0 85 -51 131q-73 67 -266 67q-150 -4 -220.5 -90t-102.5 -246l-39 -182h260 l-21 -90h-260l-205 -971h-135z" />
<glyph unicode="&#xfb03;" horiz-adv-x="1786" d="M231 0l205 973h-176l21 88h176l18 92q55 250 174 346t328 96q127 0 211 -63l-19 -105q-104 61 -215 62q-98 0 -161.5 -19.5t-99.5 -74t-49 -93t-34 -132.5q-2 -11 -4 -17l-18 -92h264l-21 -88h-264l-205 -973h-131zM890 0l205 973h-176l21 88h176l18 92q55 250 174 346 t328 96q127 0 211 -63l-19 -105q-104 61 -215 62q-98 0 -161.5 -19.5t-99.5 -74t-49 -93t-34 -132.5q-2 -11 -4 -17l-18 -92h264l-21 -88h-264l-205 -973h-131zM1506 0l226 1061h139l-225 -1061h-140zM1781 1456l37 174h174l-37 -174h-174z" />
<glyph unicode="&#xfb04;" horiz-adv-x="1786" d="M231 0l205 973h-176l21 88h176l18 92q55 250 174 346t328 96q127 0 211 -63l-19 -105q-104 61 -215 62q-98 0 -161.5 -19.5t-99.5 -74t-49 -93t-34 -132.5q-2 -11 -4 -17l-18 -92h264l-21 -88h-264l-205 -973h-131zM890 0l205 973h-176l21 88h176l18 92q55 250 174 346 t328 96q127 0 211 -63l-19 -105q-104 61 -215 62q-98 0 -161.5 -19.5t-99.5 -74t-49 -93t-34 -132.5q-2 -11 -4 -17l-18 -92h264l-21 -88h-264l-205 -973h-131zM1506 0l344 1626h136l-344 -1626h-136z" />
</font>
</defs>
</svg>
