<?xml version="1.0" standalone="no"?>
<!DOCTYPE svg PUBLIC "-//W3C//DTD SVG 1.1//EN" "http://www.w3.org/Graphics/SVG/1.1/DTD/svg11.dtd" >
<svg xmlns="http://www.w3.org/2000/svg">
<metadata>
This is a custom SVG webfont generated by Font Squirrel.
Copyright   : Copyright c 2011 Oriol Esparraguera Font hiparqinkcomwwwparqinkcomwith Reserved Font Name Afta
Designer    : parqink
Foundry     : Oriol Esparraguera Font
</metadata>
<defs>
<font id="AftaserifItalic" horiz-adv-x="1206" >
<font-face units-per-em="2048" ascent="1638" descent="-410" />
<missing-glyph horiz-adv-x="577" />
<glyph unicode=" "  horiz-adv-x="577" />
<glyph unicode="&#x09;" horiz-adv-x="577" />
<glyph unicode="&#xa0;" horiz-adv-x="577" />
<glyph unicode="!" horiz-adv-x="581" d="M211 -2l37 172h174l-37 -172h-174zM369 457l75 602l95 436h145l-94 -436l-178 -602h-43z" />
<glyph unicode="&#x22;" horiz-adv-x="931" d="M502 1010l104 485h94l-104 -485h-94zM813 1010l105 485h94l-105 -485h-94z" />
<glyph unicode="#" horiz-adv-x="1216" d="M211 459l14 63h250l158 418h-266l14 64h276l168 450h97l-172 -450h344l168 450h96l-172 -450h194l-14 -64h-207l-158 -418h211l-14 -63h-217q-35 -82 -89 -232.5t-85 -224.5h-92l170 457h-344l-117 -315q-53 -140 -53 -142h-95l173 457h-238zM567 522h342q25 74 78 209 l80 209h-342z" />
<glyph unicode="$" horiz-adv-x="1239" d="M158 82l28 133q182 -150 455 -158l141 660q-233 72 -333 174q-73 75 -73 184q0 38 9 80q31 139 183.5 250t387.5 133l31 141h64l-31 -141q291 -18 418 -96l-21 -103q-182 96 -416 113l-133 -629q39 -14 64 -26l63 -27q37 -16 62.5 -30.5t56.5 -34t50 -40.5l41 -45 q22 -24 33 -52.5t19 -60.5q8 -29 8 -63v-8q-1 -39 -10 -80q-20 -92 -78.5 -164.5t-142.5 -117.5t-170 -72t-180 -41l-43 -205h-63l43 203q-322 12 -463 123zM549 1153q-5 -24 -5 -47q0 -160 263 -268l131 614q-139 -27 -253 -106.5t-136 -192.5zM705 55q143 33 255.5 119 t133.5 182q9 20 9 49q0 10 -1 21q-4 43 -19.5 86t-77 95.5t-161.5 97.5z" />
<glyph unicode="%" horiz-adv-x="2088" d="M457 1075q49 205 148.5 308.5t271.5 103.5q94 0 152 -35t77.5 -91t21.5 -131v-17q0 -67 -14 -138q-96 -395 -407 -395q-265 0 -265 258q0 61 15 137zM492 -39l1482 1555h105l-1483 -1555h-104zM539 1069q-17 -84 -17 -147q0 -81 29 -123q51 -76 164 -76q119 0 196.5 79 t120.5 273q20 98 20 167q0 76 -24 118q-45 80 -162 80q-121 0 -200.5 -81t-126.5 -290zM1381 238q1 61 16 137q49 205 147.5 307t270.5 102q253 0 253 -256q0 -68 -18 -153q-29 -129 -75 -213t-105.5 -121t-108.5 -48t-114 -11q-37 0 -65 3t-61.5 12t-57 25.5t-44 46 t-30.5 69.5q-8 36 -8 89v11zM1479 367q-21 -96 -21 -164q0 -73 24 -113q46 -78 169 -78q121 0 200.5 83t118.5 280q22 112 22 187q0 68 -18 106q-37 80 -168 80q-123 0 -203.5 -85t-123.5 -296z" />
<glyph unicode="&#x26;" horiz-adv-x="1554" d="M203 520q53 238 184 351.5t381 150.5q-4 73 -4 125q0 74 8 110q51 234 379 234q158 -2 229 -57q52 -40 52 -117q0 -28 -7 -60q-14 -55 -45 -135q207 -37 277 -152q42 -69 42 -181q0 -72 -18 -162q-74 -326 -366 -512q127 -61 213 -62q166 0 338 84l-25 -108 q-123 -61 -338 -62q-176 0 -305 92q-238 -96 -505 -96h-31q-311 0 -414 139q-66 90 -66 236q0 82 21 182zM340 528q-22 -108 -22 -190q0 -122 49 -185q82 -104 317 -104q184 0 440 68q-260 311 -356 848q-199 -45 -289 -127t-139 -310zM858 1225q-9 -38 -9 -86 q0 -79 24 -187q38 -174 96 -325l165 233q52 76 110.5 182.5t76.5 182.5q7 32 7 58q0 57 -36 82q-51 36 -159 36q-119 0 -185.5 -35t-89.5 -141zM981 539q70 -154 112 -221.5t115 -141.5q264 115 336 459q18 86 19 148q1 8 1 15q0 53 -11 90q-11 42 -41.5 73.5t-68.5 51 t-97 42.5q-125 -225 -365 -516z" />
<glyph unicode="'" horiz-adv-x="585" d="M479 1010l105 485h92l-105 -485h-92z" />
<glyph unicode="(" horiz-adv-x="645" d="M225 317.5q0 118.5 25 233.5q53 260 225 522t397 469h74q-92 -106 -190.5 -241.5t-209 -350.5t-147.5 -399q-27 -119 -27 -258q0 -314 138 -729h-59l-41 70q-23 38 -58 113t-60.5 162t-46 188.5t-20.5 220z" />
<glyph unicode=")" horiz-adv-x="630" d="M-35 -436q150 207 228.5 325.5t174 309t132.5 352.5q27 130 27 270q0 333 -154 721h73q229 -382 229 -748q0 -122 -26 -243q-104 -469 -622 -987h-62z" />
<glyph unicode="*" horiz-adv-x="673" d="M342 1114l240 109l-193 108l31 43l186 -110l49 233h52l-50 -233l228 110l14 -43l-240 -108l193 -109l-31 -43l-182 111l-49 -236h-51l49 236l-232 -111z" />
<glyph unicode="+" horiz-adv-x="1228" d="M121 475v86h465v481h92v-481h483v-86h-483v-473h-92v473h-465z" />
<glyph unicode="," horiz-adv-x="569" d="M106 -383l15 72q45 4 81 27.5t54 45t37.5 75.5t25 74.5t21.5 88.5h-123l35 172h178q-10 -141 -27 -203q-35 -170 -115.5 -254t-181.5 -98z" />
<glyph unicode="-" horiz-adv-x="815" d="M246 518l22 105h576l-23 -105h-575z" />
<glyph unicode="." horiz-adv-x="555" d="M215 -2l37 172h174l-37 -172h-174z" />
<glyph unicode="/" horiz-adv-x="710" d="M2 -41l961 1583h96l-961 -1581q-16 0 -50 -1t-46 -1z" />
<glyph unicode="0" horiz-adv-x="1372" d="M254 466q2 112 31 247q41 186 106.5 326.5t138 223.5t162.5 133t171 67.5t173 17.5q66 0 121 -10.5t118.5 -38t106.5 -84t72 -137.5q27 -76 27 -193v-16q-2 -128 -37 -289q-39 -186 -110.5 -327.5t-147.5 -218.5t-168 -125t-162 -61.5t-141 -13.5q-49 0 -96.5 6.5 t-102.5 26.5t-100 53t-84 91.5t-59 134.5q-19 68 -19 167v20zM424 698q-33 -153 -33 -270q0 -377 342 -377q197 0 350.5 160t223.5 502q37 170 37 298q0 378 -326 378q-213 0 -364.5 -159t-229.5 -532z" />
<glyph unicode="1" horiz-adv-x="886" d="M244 0l8 43l170 39l276 1296q-94 -10 -184 -45l12 64q27 16 82.5 44.5t83.5 47.5h164l-299 -1407q23 -8 77 -20.5t77 -18.5l-9 -43h-458z" />
<glyph unicode="2" horiz-adv-x="1230" d="M88 0q27 119 78 218t112.5 171t150.5 138.5t171 111.5t197 98q301 139 350 363q6 32 6 60q0 82 -48 142q-65 80 -228 89q-213 0 -392 -179q-43 -109 -57 -137h-43l29 217q23 23 81 63t174.5 86t223.5 46q227 0 325 -109q70 -80 70 -190q0 -42 -10 -88q-68 -307 -471 -484 q-442 -203 -528 -518h729l73 164h45l-34 -262h-1004z" />
<glyph unicode="3" horiz-adv-x="1310" d="M115 41q27 104 65 233h43l2 -155q213 -70 381 -70q125 0 228.5 39t165 99.5t96 117.5t45.5 109q7 28 7 55q0 86 -70 162q-91 100 -281 100h-174l22 98h174q332 0 395 289q6 30 6 57q0 76 -46 135q-64 81 -224 81q-168 0 -436 -107q-14 -35 -65 -143q-12 0 -26 -2t-20 -2 l33 217q305 135 535 135q201 0 320 -85q91 -66 91 -182q0 -34 -8 -73q-33 -141 -138.5 -236.5t-238.5 -107.5q172 -25 263 -131q64 -74 64 -174q0 -41 -11 -86q-39 -186 -235.5 -317.5t-477.5 -131.5q-356 0 -485 76z" />
<glyph unicode="4" horiz-adv-x="1425" d="M182 412l27 127l1008 950h126l-210 -989h333l-18 -88h-334l-70 -328l160 -41l-8 -43h-471l6 43l174 39l72 330h-795zM268 500h727l189 880z" />
<glyph unicode="5" horiz-adv-x="1310" d="M133 111q10 37 32.5 114.5t33.5 112.5h43l2 -148q227 -112 406 -112h3q217 0 356.5 136t174.5 298q9 47 9 90q0 108 -59 190q-83 113 -307 113q-168 0 -397 -86l-47 31q-35 22 -51 35q158 430 217 579h975q-12 -47 -39 -124.5t-37 -116.5h-41l-4 161h-748 q-23 -72 -77 -226t-80 -243q176 74 340 74q262 0 400 -127q104 -96 104 -246q0 -49 -11 -104q-51 -242 -242.5 -377t-451.5 -135q-342 0 -504 111z" />
<glyph unicode="6" horiz-adv-x="1273" d="M243 368v7q0 142 38 354q86 399 283.5 579.5t459.5 180.5q57 0 104.5 -6t101.5 -25.5t75.5 -28t87 -41t75.5 -36.5l-61 -217h-43l-2 147q-182 104 -361 104q-213 0 -365.5 -176t-203.5 -401q-4 -27 -18.5 -99.5t-26.5 -142.5q63 141 222 242.5t302 101.5q268 0 365 -184 q42 -80 42 -171q0 -89 -40 -188q-85 -207 -293 -313q-148 -75 -328 -75q-129 0 -214 35.5t-142 121.5t-58 231zM387 449q-8 -40 -8 -80q0 -49 12 -97q23 -88 97.5 -149.5t185.5 -61.5q238 0 383 189q104 137 104 287q0 18 -1 36q-15 168 -156 221q-50 19 -113 19 q-84 0 -167 -37t-141.5 -89t-104.5 -106.5t-68.5 -90t-22.5 -41.5z" />
<glyph unicode="7" horiz-adv-x="1296" d="M500 1454h1005q-31 -154 -147 -258l-422 -399q-150 -166 -195 -367l-90 -428h-139l90 428q29 135 85 225t144 185l541 538h-737l-37 -112q-27 -80 -39 -121h-43z" />
<glyph unicode="8" horiz-adv-x="1255" d="M183 192q-9 40 -9 91q0 53 10 116q18 90 74.5 171t129.5 136.5t135.5 91.5t115.5 54q-39 16 -77 41t-81 63.5t-65 92.5q-13 34 -13 69q0 22 5 43q33 156 177 241t378 85q231 0 333 -98q79 -74 79 -177q0 -31 -7 -65q-27 -111 -109.5 -174.5t-242.5 -116.5 q154 -80 231 -188q54 -75 54 -174q0 -45 -11 -95q-43 -209 -223 -321.5t-430 -112.5q-119 0 -208 21.5t-157.5 72t-88.5 133.5zM322 399q-10 -42 -10 -79q0 -66 31 -116q48 -79 131 -111t185 -32q172 0 313.5 92.5t172.5 245.5q9 44 9 83q0 128 -95 214q-125 113 -311 127 q-168 -49 -280 -157.5t-146 -266.5zM559 1180q-3 -12 -3 -23q0 -29 18 -58q26 -40 62 -66.5t97.5 -55.5t92.5 -39l81 -27q16 4 58.5 22.5t99.5 49.5t104.5 79t59.5 99q5 26 5 48q0 56 -31 95q-44 54 -110.5 71.5t-152.5 17.5q-125 0 -241.5 -53.5t-139.5 -159.5z" />
<glyph unicode="9" horiz-adv-x="1273" d="M170 115l61 217h43l5 -148q174 -104 358 -104q213 0 365.5 176t203.5 401q4 27 18.5 99.5t26.5 142.5q-63 -145 -221 -244.5t-303 -99.5q-268 0 -365 185q-42 79 -42 170q0 89 41 188q85 207 293 313q148 76 327 76q127 0 213 -36t144.5 -122t59.5 -231v-6 q0 -143 -40 -355q-84 -397 -282.5 -578.5t-461.5 -181.5q-57 0 -104 6.5t-101 25.5l-76 28q-22 8 -87.5 41t-75.5 37zM479 893q15 -168 155 -221q50 -19 114 -19q84 0 166.5 37t141 89t104.5 106.5t68.5 90.5t22.5 42q9 41 9 82q0 46 -12 93q-23 87 -98 149.5t-185 62.5 q-239 0 -384 -189q-104 -136 -104 -285q0 -19 2 -38z" />
<glyph unicode=":" horiz-adv-x="616" d="M238 -2l36 172h172l-36 -172h-172zM428 887l35 172h172l-35 -172h-172z" />
<glyph unicode=";" horiz-adv-x="628" d="M129 -381l14 70q45 4 80 26.5t54.5 45t38 72.5t24.5 77l20 90h-120l34 172h177q-10 -141 -27 -203q-35 -168 -116 -252t-179 -98zM428 887l35 172h172l-35 -172h-172z" />
<glyph unicode="&#x3c;" horiz-adv-x="1271" d="M121 459v110l1087 478v-109l-1036 -426l1055 -412v-104z" />
<glyph unicode="=" horiz-adv-x="1224" d="M121 262v84h1026v-84h-1026zM121 686v88h1026v-88h-1026z" />
<glyph unicode="&#x3e;" horiz-adv-x="1265" d="M92 -4v104l1055 412l-1036 426v109l1087 -478v-110z" />
<glyph unicode="?" horiz-adv-x="1230" d="M469 0l35 172h174l-35 -172h-174zM487 1468q195 66 408 66q227 0 347 -88q91 -66 91 -188q0 -39 -10 -84q-18 -82 -71.5 -154t-103.5 -112t-134 -95q-80 -57 -106.5 -77.5t-86 -72t-91.5 -101.5t-50 -109h-82q72 244 324 409q78 53 113.5 83t81.5 92.5t61 136.5 q7 32 7 59q0 78 -55 129q-75 68 -258 68q-137 0 -305 -54q-27 -229 -35 -284h-43z" />
<glyph unicode="@" horiz-adv-x="1673" d="M100 750q0 358 221.5 574t569.5 216q332 0 546 -165t214 -472q0 -193 -94.5 -333t-301.5 -140q-104 0 -167.5 40t-75.5 101q-27 -47 -82.5 -80.5t-122.5 -33.5q-238 0 -238 291q0 131 74 230t172 99q152 0 236 -149l32 133l103 -37q-41 -268 -41 -383q0 -125 123 -125 q111 0 169 113.5t58 290.5q0 168 -91 289.5t-226.5 177t-292.5 55.5q-37 0 -67 -2t-98.5 -15.5t-122.5 -37t-119.5 -75.5t-109.5 -122t-75 -183.5t-31 -254.5q0 -143 31 -257t74 -185.5t113.5 -123t126 -76t135 -38t117.5 -14.5t95 -1h15q303 0 647 195v-174 q-311 -115 -723 -115q-395 0 -598 213q-195 205 -195 547v27zM705 733q0 -172 141 -172q82 1 172 103l12 145q-37 90 -106 139q-35 19 -67 19q-47 0 -87 -43q-65 -70 -65 -191z" />
<glyph unicode="A" horiz-adv-x="1345" d="M-80 0q10 33 12 41l148 35l794 1308q-82 20 -155 41l10 41h381l188 -1390q27 -4 78 -18.5t62 -16.5q0 -2 -6 -41h-461q2 8 6 22.5t4 20.5l180 39l-47 475h-600l-293 -473q27 -8 84 -22l80 -21q0 -2 -6 -41h-459zM551 643h555l-107 743z" />
<glyph unicode="B" horiz-adv-x="1443" d="M53 0l8 45l166 37l281 1304l-154 37l11 43h632q285 0 389 -99q77 -73 78 -182q0 -38 -10 -81q-55 -258 -399 -305q201 -14 314 -112q84 -73 85 -197q0 -42 -10 -91q-37 -174 -209 -298t-475 -128l-318 11q-258 8 -389 16zM360 68l306 -15q25 -1 48 -1q270 0 395 85 q136 92 177 279q8 39 8 74q0 106 -75 173q-99 89 -293 89h-420zM524 842h324q209 0 315.5 61.5t134.5 200.5q8 37 8 69q0 82 -54 134q-75 72 -271 71h-342z" />
<glyph unicode="C" horiz-adv-x="1433" d="M294 339q-23 85 -23 180q0 97 24 206q72 348 314.5 560t600.5 212q199 0 379 -65q-12 -49 -39.5 -134.5t-38.5 -123.5h-38l2 174q-113 63 -283 63q-61 0 -138 -19.5t-171.5 -70.5t-176 -126t-153.5 -198t-107 -272q-14 -92 -15 -171v-13q0 -71 10 -126q12 -60 30 -109.5 t47 -84.5t58.5 -62.5t67.5 -44t71 -27.5t70.5 -16t64.5 -7.5t55 -2.5q201 0 441 160l-29 -141q-72 -41 -192.5 -80t-241.5 -43q-240 0 -391.5 105.5t-197.5 276.5z" />
<glyph unicode="D" horiz-adv-x="1437" d="M49 0l8 43l168 37l277 1306l-152 35l8 43h527q158 0 279.5 -48t187 -127t106.5 -177q40 -96 40 -193t-13 -194q-20 -96 -61.5 -190.5t-117 -192.5t-173 -173t-241.5 -122t-314 -47h-529zM371 94q4 -6 45 -6h182q98 0 201.5 33t210 101.5t191.5 198.5t122 304 q17 94 17 173q0 69 -13 127q-27 124 -103.5 202t-166.5 113.5t-187 35.5h-50q-114 0 -144.5 -2t-42.5 -14l-258 -1208q-5 -34 -5 -48q0 -8 1 -10z" />
<glyph unicode="E" horiz-adv-x="1204" d="M55 0l8 43l168 37l279 1304l-154 37l9 43h1011l-82 -286h-39l9 200h-625l-127 -590h532l-18 -88h-532l-129 -612h692l67 158h39l-51 -246h-1057z" />
<glyph unicode="F" horiz-adv-x="1226" d="M59 0l9 45l165 37l277 1300l-150 37l9 45h1101l-73 -288h-45l6 198h-719l-123 -583h506l-23 -103h-505l-129 -610l153 -37l-8 -41h-451z" />
<glyph unicode="G" horiz-adv-x="1667" d="M285 735q76 348 321.5 556t603.5 208q309 0 519 -76l-72 -247h-43v165q-133 66 -426 66q-176 -10 -322 -84q-342 -176 -430 -600q-23 -106 -24 -197q-1 -8 -1 -17q0 -79 13 -137q14 -65 46 -116t65.5 -83t83 -54.5t86 -33.5t86 -16.5t72 -6.5t54.5 -1h9q301 0 520 125 l76 357q-117 25 -154 35l8 38h293l-115 -540q-367 -117 -651 -117h-16q-632 0 -632 524q0 114 30 252z" />
<glyph unicode="H" horiz-adv-x="1576" d="M55 0l8 43l162 37l277 1306q-23 4 -73 17.5t-73 17.5l11 45h460l-10 -43l-168 -37l-127 -604h926l127 602l-156 41l11 41h456l-10 -43l-164 -34l-280 -1307q139 -33 151 -37l-8 -45h-457l8 43l168 37l133 610h-925l-129 -612l151 -35l-8 -43h-461z" />
<glyph unicode="I" horiz-adv-x="571" d="M80 0l8 43l162 37l276 1306q-20 4 -70 17.5t-73 17.5l10 45h438l-10 -43l-164 -37l-276 -1308l149 -35l-8 -43h-442z" />
<glyph unicode="J" horiz-adv-x="598" d="M55 -420l17 76q139 100 184 297l303 1433l-156 37l11 43h456l-10 -43l-170 -37l-309 -1433q-70 -307 -326 -373z" />
<glyph unicode="K" horiz-adv-x="1357" d="M53 0l8 43l168 37l279 1304q-90 20 -154 39l11 43h454l-10 -43l-164 -34l-168 -781l811 768l-186 47l10 43h485l-10 -43l-143 -32l-522 -492l368 -823q27 -4 76 -18.5t61 -16.5l-8 -41h-446l8 41l160 31l-320 719l-379 -345l-77 -366q139 -33 151 -37l-8 -43h-455z" />
<glyph unicode="L" horiz-adv-x="1136" d="M57 0l6 43l168 37l279 1306l-154 37l11 43h454l-10 -43l-164 -34l-268 -1250q-8 -35 -3 -40t44 -5h610l78 201h43l-47 -295h-1047z" />
<glyph unicode="M" horiz-adv-x="1835" d="M47 0l8 43l168 37l277 1306l-154 37l10 43h365l260 -1099q8 -31 24.5 -42.5t38 0t41.5 42.5l717 1099h346l-10 -43l-168 -37l-276 -1304l157 -39l-10 -43h-461l9 43l170 37l266 1237l-758 -1145h-152l-294 1149l-265 -1243l160 -35l-8 -43h-461z" />
<glyph unicode="N" horiz-adv-x="1517" d="M45 0q2 8 6 22.5t4 20.5l166 37l279 1306l-150 37l10 43h332l559 -1308l279 1308h293l-11 -43l-167 -37l-277 -1308l154 -35l-9 -43h-317l-571 1337l-269 -1255q90 -20 154 -39l-6 -43h-459z" />
<glyph unicode="O" horiz-adv-x="1728" d="M274 729q80 373 320.5 567.5t611.5 200.5q395 -7 541 -197q94 -123 93 -325q0 -111 -28 -246q-74 -350 -305 -560t-628 -210q-632 0 -632 529q0 109 27 241zM405 527v-25q0 -77 11 -133q12 -66 44 -118t63.5 -85t79.5 -56.5t83 -35t83 -17.5q49 -6 69 -6h52h9 q33 0 62.5 2t101.5 15.5t132 37t139 73.5t139.5 120t116 181.5t83.5 250.5q25 111 25 204t-16.5 158.5t-52.5 118t-70.5 85t-88 55t-88 33t-86 16.5t-66.5 6h-44q-37 0 -68 -2t-100.5 -15.5t-126.5 -37t-132 -73.5t-133.5 -119.5t-111.5 -180.5t-84 -248q-23 -111 -25 -204z " />
<glyph unicode="P" horiz-adv-x="1302" d="M53 0l8 43l170 37l279 1306l-152 37l11 43h661q115 0 202 -25.5t135 -67.5t77 -98q28 -53 27 -110v-5q-2 -60 -11 -122q-35 -166 -186.5 -291.5t-423.5 -125.5h-371l-114 -539q88 -18 155 -39l-8 -43h-459zM498 713h370q104 0 189.5 36.5t133.5 92t74.5 104.5t37.5 90 q12 37 12 77q0 18 -2 36q-8 60 -34 111t-95.5 83.5t-173.5 32.5h-371z" />
<glyph unicode="Q" horiz-adv-x="1722" d="M274 723q80 371 320.5 566.5t609.5 201.5q397 -6 542 -196q94 -123 94 -326q0 -111 -28 -246q-160 -717 -888 -770l-15 -68q-9 -40 -9 -75q0 -81 48 -130q68 -71 160 -81l-4 -23q-92 4 -157.5 30.5t-95.5 61.5t-42 80q-11 42 -11 72v5q1 32 7 62l14 66q-369 31 -492 229 q-78 126 -78 312q0 105 25 229zM402 521q-1 -17 -1 -33q0 -72 11 -125q14 -66 44.5 -118t63.5 -85t81 -56.5t83 -35t84 -17.5t69 -6h51h9q33 0 63.5 2t101.5 15.5t131 37t138 73.5t138.5 119.5t115.5 181.5t86 251q25 111 25 204t-15.5 158.5t-52.5 117.5t-71.5 85t-88 55.5 t-88 33t-85 16.5t-67.5 6h-44q-35 0 -66 -2t-100.5 -15.5t-128 -37t-134 -73.5t-133 -120t-110.5 -180.5t-82 -247.5q-25 -111 -28 -204z" />
<glyph unicode="R" horiz-adv-x="1396" d="M49 0l8 43l168 37l279 1306l-150 37l11 43h651q236 0 336 -106q74 -78 74 -186q0 -38 -9 -80q-57 -262 -395 -334q47 -6 80 -27.5t53.5 -60.5t28.5 -68t20 -78l84 -450q27 -6 77 -18.5t65 -16.5q0 -2 -7 -41h-456l8 43l184 39l-98 498q-20 72 -56 102.5t-106 30.5h-410 l-133 -635l31 -8q23 -6 125 -27l-6 -43h-457zM512 813h365q182 0 281 86t120 197q6 30 6 57q0 77 -48 139q-65 84 -241 84h-364z" />
<glyph unicode="S" horiz-adv-x="1245" d="M154 78l45 237h41l6 -147q160 -111 364 -111q168 0 300 84t161 207q6 37 8 63v9q0 25 -9 63q-11 45 -41 79t-96.5 72t-162.5 64q-231 70 -330 168q-73 72 -73 178q0 39 10 84q31 152 190.5 260.5t395.5 108.5q330 0 442 -84l-59 -217h-46l-4 147q-154 74 -352 74 q-145 0 -263 -80t-146 -211q-8 -38 -8 -71q0 -75 43 -120q63 -63 221 -112q104 -33 170.5 -61.5t147.5 -82.5t110 -138q17 -48 17 -104q0 -42 -9 -89q-25 -113 -99.5 -194.5t-174 -121.5t-188.5 -56.5t-175 -16.5q-293 0 -436 119z" />
<glyph unicode="T" horiz-adv-x="1302" d="M326 1221l32 245h1248l-76 -245h-43l-2 157h-445l-276 -1298l151 -37l-8 -43h-456l8 43l170 37l276 1298h-463l-73 -157h-43z" />
<glyph unicode="U" horiz-adv-x="1509" d="M297 402q6 75 14 123t25 114l158 747l-156 35l10 45h461l-10 -43l-168 -34l-168 -768q-10 -49 -14.5 -73t-9.5 -92q-2 -31 -2 -57q0 -31 3 -53q6 -41 26.5 -100.5t58.5 -94t105.5 -60t157.5 -25.5q121 0 219.5 47t154 108.5t97 148.5t56 140t24.5 111l162 765l-153 35 l10 45h457l-13 -43l-164 -34l-170 -768l-18 -82q-4 -19 -23.5 -87.5t-35.5 -99.5l-48 -92q-33 -62 -65.5 -93.5t-85.5 -75.5t-112.5 -66.5t-139.5 -39t-172 -16.5q-119 0 -207 25.5t-140 63.5t-82 100q-30 60 -39 114q-5 32 -5 73q0 27 2 57z" />
<glyph unicode="V" horiz-adv-x="1439" d="M254 1425l10 41h438l-10 -43l-162 -32l185 -1317l747 1323l-129 28l10 41h435l-11 -41l-153 -34l-815 -1391h-195l-213 1391z" />
<glyph unicode="W" horiz-adv-x="2189" d="M248 1425l10 41h432l-10 -43l-150 -30l207 -1315l637 1388h127l31 -1392l764 1319l-139 30l10 43h430l-10 -41l-148 -34l-799 -1391h-206l-29 1321l-596 -1321h-207l-215 1391z" />
<glyph unicode="X" horiz-adv-x="1449" d="M8 0l8 43l146 33l669 680l-358 635l-133 34l10 41h457l-10 -43l-164 -37l287 -530l522 537l-148 32l11 41h456l-10 -41l-145 -34l-621 -635l365 -680q27 -4 75 -18.5t60 -16.5l-8 -41h-457l8 43l176 41l-325 573l-568 -577l162 -39l-8 -41h-457z" />
<glyph unicode="Y" horiz-adv-x="1454" d="M287 1423l10 43h434l-10 -41l-164 -30l317 -762l650 762l-140 30l11 41h428l-11 -41l-145 -34l-739 -846l-99 -465l150 -37l-8 -43h-455l8 43l166 37l98 465l-366 846z" />
<glyph unicode="Z" horiz-adv-x="1382" d="M92 0l21 102l1355 1276h-983l-71 -155h-39l28 243h1244l-19 -94l-1345 -1270h977l114 193l-39 -295h-1243z" />
<glyph unicode="[" horiz-adv-x="663" d="M90 -436l420 1972h477l-20 -92h-324l-379 -1790h324l-21 -90h-477z" />
<glyph unicode="\" horiz-adv-x="710" d="M340 1542h96l285 -1583q-12 0 -46 1t-50 1z" />
<glyph unicode="]" horiz-adv-x="663" d="M-61 -434l20 94h322l378 1784h-323l20 92h475l-419 -1970h-473z" />
<glyph unicode="^" horiz-adv-x="1232" d="M131 590l471 874h111l456 -891h-102l-408 850l-421 -835z" />
<glyph unicode="_" horiz-adv-x="1024" d="M-39 -285l8 39h1024l-8 -39h-1024z" />
<glyph unicode="`" horiz-adv-x="454" d="M334 1538h160l53 -229h-86z" />
<glyph unicode="a" d="M223 202q-4 31 -3 68q0 118 40 293q59 281 207.5 402.5t337.5 121.5q100 0 188 -30.5t149.5 -61t96.5 -30.5l-186 -883q23 -4 75 -17.5t78 -19.5l-8 -45h-297l51 242q-80 -119 -204.5 -196t-278.5 -77q-113 0 -171.5 50.5t-74.5 182.5zM395 563q-35 -159 -35 -268 q0 -236 164 -236q92 0 182.5 57.5t153 139.5t104.5 164t56 143l74 344q-143 74 -275 74q-100 0 -180 -39t-127 -104.5t-74.5 -132t-42.5 -142.5z" />
<glyph unicode="b" horiz-adv-x="1140" d="M188 55l318 1491q-23 4 -77 18.5t-77 18.5l8 45h302l-179 -840q45 100 178.5 202t278.5 102q273 0 273 -311q0 -94 -25 -218q-66 -307 -215.5 -447.5t-409.5 -140.5q-143 0 -375 80zM340 129q143 -70 270 -70q100 0 179 45.5t127.5 126t76 157.5t49.5 175q26 126 26 216 q0 220 -157 220q-92 0 -182 -58t-153.5 -141t-105.5 -166t-52 -140z" />
<glyph unicode="c" horiz-adv-x="1083" d="M242 541q63 299 230 425t439 126q178 0 318 -86q-6 -18 -60 -215h-43l-6 147q-123 59 -229 59q-88 0 -160 -17t-143.5 -63.5t-124.5 -139.5t-82 -232q-22 -92 -23 -163q0 -21 3 -40q9 -84 30 -138t71 -85t104 -43.5t126 -12.5q180 0 377 89l-22 -119q-213 -63 -375 -64 q-276 -1 -384 139q-69 89 -69 240q0 86 23 193z" />
<glyph unicode="d" d="M240 541q61 287 213.5 426t332.5 139q158 0 330 -70l109 512l-154 37q4 14 8 45h305l-331 -1552l159 -35l-8 -43h-297l19 186q-51 -94 -155.5 -149t-233.5 -55q-184 0 -273 133q-51 77 -51 208q0 95 27 218zM366 394q-2 -28 -3 -56q-1 -45 5 -93q9 -79 56 -126t131 -47 q354 0 436 389l99 459l-27 14q-156 78 -295 78q-98 0 -174 -56.5t-117 -145.5t-59.5 -149.5t-28.5 -117.5q-17 -79 -23 -149z" />
<glyph unicode="e" horiz-adv-x="1107" d="M215 506q121 584 606 584q329 0 328 -331q0 -96 -27 -220l-764 2q-23 -98 -32 -163q-6 -40 -6 -82q0 -24 3 -50q6 -68 34 -107t88.5 -63.5t154.5 -24.5q199 0 348 166l76 -72q-190 -178 -442 -178q-258 0 -339 137q-49 83 -49 213q0 85 21 189zM391 625l631 2 q10 64 10 117q0 251 -229 251h-2q-168 0 -270.5 -105t-139.5 -265z" />
<glyph unicode="f" horiz-adv-x="643" d="M27 0l8 43l172 39l192 891h-176l21 88h176l18 94q55 250 175 346t327 96q94 0 213 -63l-61 -221h-41l-2 157q-80 20 -131 21q-45 0 -84 -6t-68 -12.5t-53.5 -26t-40 -29.5t-31.5 -41l-23 -44q-8 -13 -19 -55t-14 -56.5t-16 -65.5l-18 -94h264l-20 -88h-265l-188 -895 l160 -35l-8 -43h-467z" />
<glyph unicode="g" horiz-adv-x="1202" d="M102 -283l97 66q35 -47 77 -82q102 -82 220 -82q100 0 178 31t121 74t72.5 98t38.5 90t14 65l32 154q-84 -96 -163.5 -131t-196.5 -35q-135 0 -225.5 46t-128 125t-46.5 182q-1 24 -1 48q0 82 22 169q61 281 199.5 419t398.5 138q154 0 228.5 -46.5t111.5 -140.5l43 154 h231l-10 -49l-149 -54l-209 -979q-44 -165 -120 -257q-157 -193 -462 -193q-252 0 -373 190zM329 344v-12q0 -74 18 -120q20 -50 44.5 -83t66.5 -47t74.5 -18.5t79.5 -4.5q51 0 83 3.5t90.5 29t99.5 71.5t85 141t72 231q20 94 23 168q2 23 2 43q0 47 -6 80q-8 48 -32.5 82 t-48.5 51.5t-62.5 26.5t-62.5 10t-64 1q-45 0 -65.5 -1t-66 -9t-71 -24.5t-65.5 -49t-65.5 -81t-54.5 -124t-49 -173.5q-23 -109 -25 -191zM1415 1010l4 2z" />
<glyph unicode="h" horiz-adv-x="1228" d="M23 0l8 45l172 33l311 1470q-25 4 -81 18.5t-79 18.5l11 45h299l-166 -788q70 96 205 172t260 76q154 0 216 -113q35 -64 36 -165q0 -76 -21 -173l-123 -557l160 -37l-8 -45h-461l8 43l170 39l125 571q15 67 15 121q0 74 -28 125q-48 88 -173 88q-139 0 -265.5 -94 t-150.5 -217l-127 -594q25 -8 80 -21l80 -18l-9 -43h-464z" />
<glyph unicode="i" horiz-adv-x="489" d="M20 0l9 43l172 39l190 895l-155 39l8 43h303l-207 -977l156 -39l-9 -43h-467zM457 1454l37 174h174l-37 -174h-174z" />
<glyph unicode="j" horiz-adv-x="493" d="M-39 -440l19 92q156 125 192 293l219 1032l-155 39l8 43h303l-232 -1094q-23 -111 -69.5 -192.5t-104 -123.5t-99.5 -61.5t-81 -27.5zM459 1454l37 174h172l-37 -174h-172z" />
<glyph unicode="k" horiz-adv-x="1140" d="M20 0l9 43l170 39l311 1464q-119 29 -154 39l9 43h305l-170 -809q229 309 516 309q128 0 188 -82q42 -57 42 -135q0 -33 -7 -69q-45 -213 -410 -430l185 -336l135 -33l-8 -43h-465l8 43l166 33l-152 274l-137 -53l23 106q477 190 526 416q5 27 5 50q0 58 -31 98 q-44 57 -130 57q-135 0 -300 -130t-199 -280l-113 -532q23 -8 77 -20.5t77 -18.5l-9 -43h-467z" />
<glyph unicode="l" horiz-adv-x="489" d="M23 0l8 43l170 39l311 1464q-119 29 -154 39l9 43h303l-328 -1546l154 -39l-9 -43h-464z" />
<glyph unicode="m" horiz-adv-x="1726" d="M16 0l9 43l172 39l190 895l-156 39l9 43h286l-18 -205q70 98 186.5 168t216.5 70q85 0 139 -56q51 -52 50 -168v-18q72 100 195.5 171t238.5 71q131 0 169 -104q17 -46 17 -116q0 -86 -26 -208l-119 -580l160 -43l-9 -41h-296l143 676q16 80 20 131q1 16 1 31q0 34 -6 65 q-9 45 -44 66.5t-96 21.5q-145 0 -242.5 -100t-124.5 -236l-123 -573l152 -39l-8 -43h-299l139 655q24 102 24 173q0 45 -10 78q-24 85 -129 85q-143 0 -245.5 -103.5t-126.5 -232.5l-123 -571l162 -43l-9 -41h-469z" />
<glyph unicode="n" horiz-adv-x="1218" d="M18 0l9 45l172 33l190 899q-18 4 -74.5 17.5t-85.5 19.5l9 45h286l-16 -209q84 104 205 172t245 68q154 0 216 -113q36 -64 37 -165q0 -76 -21 -173l-119 -557l156 -37l-8 -45h-295l137 653q15 66 15 120q0 75 -29 126q-48 88 -173 88q-139 0 -265 -94t-150 -217 l-127 -594l162 -39l-9 -43h-467z" />
<glyph unicode="o" horiz-adv-x="1198" d="M216 319q-2 25 -2 49q0 81 22 167q59 279 201.5 418t404.5 139q410 0 410 -365q0 -86 -23 -192q-59 -291 -198.5 -430.5t-409.5 -139.5q-135 0 -227.5 46t-130.5 125.5t-47 182.5zM356 344v-15q0 -72 18 -117q20 -50 44 -83t66 -47t76 -18.5t81 -4.5q51 0 82 3.5t89 29 t99 71.5t86 141t74 231q20 94 24 169q1 22 1 41q0 47 -6 81q-9 48 -33.5 83t-47 51.5t-62.5 25.5t-63.5 10t-62.5 1h-50q-15 0 -51 -4t-55.5 -11t-53 -23.5t-54 -38t-49.5 -57.5t-49.5 -81t-41 -108t-36.5 -139q-23 -109 -25 -191z" />
<glyph unicode="p" horiz-adv-x="1169" d="M-70 -436l11 47l161 31l285 1335q-23 4 -75 17.5t-79 19.5l9 45h297l-52 -242q80 119 205 196t279 77q113 0 171 -50.5t75 -182.5q3 -31 3 -68q0 -118 -40 -293q-59 -281 -208 -400t-337 -119q-158 0 -311 64l-86 -401l153 -31l-10 -45h-451zM346 152q143 -74 275 -74 q100 0 180 39t127 104.5t74.5 132t41.5 142.5q35 159 35 268q0 235 -163 235h-1q-92 0 -182 -57t-152.5 -139t-104.5 -164t-56 -143z" />
<glyph unicode="q" horiz-adv-x="1159" d="M238 530q61 289 206.5 419t411.5 130q160 0 350 -88l-284 -1345l153 -35l-10 -45h-459l10 45l170 33l121 569q-70 -88 -188.5 -167t-245.5 -79q-267 0 -267 310q0 108 32 253zM369 530q-34 -149 -34 -251q0 -220 159 -220q88 0 173 42t144 104.5t98 130t49 125.5l99 457 q-133 79 -266 79h-3q-326 0 -419 -467z" />
<glyph unicode="r" horiz-adv-x="794" d="M18 0l9 43l159 35l191 899l-152 39l8 43h271l4 -223q49 125 144.5 189.5t185.5 64.5q106 0 159 -29l-67 -246h-45l-2 162q-31 6 -68 6q-49 0 -84 -6t-85 -32.5t-87 -75t-76 -140.5t-67 -219l-90 -432q59 -12 102 -23.5t45 -11.5l-8 -43h-447z" />
<glyph unicode="s" horiz-adv-x="1007" d="M133 76q4 8 66 235h43l6 -147q172 -92 305 -92q279 0 319 215q3 13 3 25q0 44 -39 81q-50 47 -120.5 71.5t-183.5 51.5q-135 28 -193 106q-42 56 -42 129q0 28 6 58q10 41 32.5 81t68 87t128 75.5t191.5 28.5q47 0 92 -5t79 -12t70 -19l54 -20q20 -7 47 -18.5t31 -13.5 q-10 -37 -26.5 -106.5t-29.5 -106.5h-45l-4 150q-164 65 -280 65h-4q-102 0 -168 -38.5t-93 -147.5q-5 -25 -5 -46q0 -54 33 -81q46 -37 175 -70q215 -51 303 -124q69 -58 69 -145q0 -24 -5 -50q-33 -152 -163 -238t-321 -86q-135 0 -240.5 35t-158.5 72z" />
<glyph unicode="t" horiz-adv-x="720" d="M225 971l19 88h205q6 16 47 136t63 179h92l-67 -315h274l-18 -88h-275l-145 -686q-20 -93 -20 -140q0 -22 4 -33q14 -36 92 -36q74 0 155 35l-22 -109q-106 -27 -205 -27q-106 -1 -144 49q-21 28 -21 84q0 44 13 105l160 758h-207z" />
<glyph unicode="u" horiz-adv-x="1216" d="M231 1016l9 43h292l-143 -676q-20 -81 -20 -143q0 -59 18 -100q37 -85 166 -85q145 0 283.5 100.5t173.5 260.5l120 567l-219 35l9 41h358l-207 -977l156 -39l-8 -43h-287l16 199q-80 -106 -209 -171t-241 -65q-150 0 -221 104q-42 61 -42 165q0 74 21 169l123 576z" />
<glyph unicode="v" horiz-adv-x="1132" d="M186 1012l9 47h458l-8 -43l-178 -41l125 -901l508 903l-133 37l8 45h432l-8 -41l-158 -35l-586 -983h-161l-162 983z" />
<glyph unicode="w" horiz-adv-x="1626" d="M156 1012l8 47h463l-9 -47l-186 -31l29 -881l491 959h158l90 -959l402 881l-170 31l8 47h463l-9 -47l-163 -29q-9 -15 -461 -983h-158l-94 987l-510 -987h-158q-43 968 -43 983z" />
<glyph unicode="x" horiz-adv-x="1118" d="M12 0l8 41l152 35l428 456l-201 451l-133 35l8 41h398l-8 -43l-125 -41l151 -357l314 359l-105 39l8 43h404l-8 -41l-150 -35l-397 -448l229 -459l143 -35l-8 -41h-403l8 43l113 41l-176 379l-336 -379l92 -41l-8 -43h-398z" />
<glyph unicode="y" horiz-adv-x="1167" d="M178 1012l8 47h459l-8 -41l-178 -37l155 -987l529 981l-162 39l8 45h459l-8 -41l-156 -35l-762 -1339l174 -37l-10 -45h-467l8 43l166 33l135 243l-206 1102z" />
<glyph unicode="z" horiz-adv-x="978" d="M94 0l23 109l852 860h-568l-73 -162h-45l39 252h837l-16 -86l-854 -864h551l71 161h43l-32 -270h-828z" />
<glyph unicode="{" horiz-adv-x="915" d="M242 508l20 94q182 66 223 209l68 317q29 143 113 239.5t185 135.5t218 39h139l-20 -96h-119q-307 0 -356 -223l-86 -410q-18 -78 -63.5 -143.5t-112.5 -75.5l-17 -78q66 -12 85 -76q10 -32 10 -63q0 -35 -11 -70l-90 -430q-6 -30 -6 -56q0 -163 255 -163h5h6h119 l-21 -94h-139q-184 0 -285 103q-67 68 -67 193q0 60 16 134l66 313q6 23 7 43.5t-4 36.5t-11.5 29.5t-18.5 25.5l-20 19q-8 8 -23 16l-24 13l-23 10t-18 8z" />
<glyph unicode="|" horiz-adv-x="468" d="M102 -479l453 2136h96l-452 -2136h-97z" />
<glyph unicode="}" horiz-adv-x="909" d="M-16 -436l18 94h119q309 0 356 219l90 430q43 182 174 207l17 78q-66 10 -84 84q-9 35 -9 67q0 37 11 70l86 410q6 28 6 52q0 31 -9 56q-18 45 -47.5 66.5t-78.5 34t-73.5 13.5t-57.5 1h-119l20 96h140q184 0 283 -100q71 -72 71 -199q0 -53 -12 -115l-68 -315 q-6 -25 -6 -48q0 -112 143 -163l-24 -96q-184 -70 -221 -199l-66 -313q-49 -227 -191.5 -328.5t-330.5 -101.5h-137z" />
<glyph unicode="~" horiz-adv-x="1228" d="M305 403q4 18 7 42t7 40q154 63 224 64q96 0 203.5 -28.5t216.5 -28.5q102 0 211 45l-19 -93q-150 -57 -215 -57q-102 0 -213 27.5t-211 27.5q-70 0 -211 -39z" />
<glyph unicode="&#xa1;" horiz-adv-x="581" d="M131 -440l92 436l180 602h43l-77 -602l-93 -436h-145zM403 885l37 172h174l-36 -172h-175z" />
<glyph unicode="&#xa2;" horiz-adv-x="1042" d="M221 539q55 260 221 402t377 142l33 154h68l-33 -152q184 -16 325 -77q-29 -76 -36 -97q-158 76 -308 90l-200 -944q213 20 381 93q-23 -96 -25 -121q-205 -55 -375 -62l-47 -221h-67l49 225q-383 50 -383 394q0 79 20 174zM360 541q-20 -90 -20 -163q0 -102 38 -172 q66 -120 224 -145l201 943q-129 0 -264.5 -130t-178.5 -331v-2z" />
<glyph unicode="&#xa3;" horiz-adv-x="1198" d="M98 -2l19 88q233 33 299 332l67 317h-100l18 92h101l76 357q39 172 172 260t292 88q150 0 220 -53l-19 -88q-100 51 -203 51q-145 0 -214.5 -83t-98.5 -222l-65 -310h231l-19 -92h-231l-68 -317q-29 -129 -235 -330l358 -20h2q390 0 488 331v4q14 56 14 104 q0 103 -61 175q10 10 32.5 28.5t32.5 28.5q72 -88 72 -216q0 -56 -14 -120q-43 -207 -205 -310q-150 -96 -336 -96q-14 0 -29 1h-596z" />
<glyph unicode="&#xa5;" horiz-adv-x="1413" d="M272 154l19 82h416l73 346h-415l18 84h350l-366 831h170l325 -825l701 825h172l-719 -831h356l-18 -84h-420l-74 -346h420l-18 -82h-420l-31 -154h-154l31 154h-416z" />
<glyph unicode="&#xa7;" horiz-adv-x="1179" d="M113 -324q10 35 30.5 115t32.5 117h43l4 -148q143 -94 305 -94q283 0 322 207q3 17 3 34q0 81 -80 152q-97 86 -247 86q-180 0 -246 111q-43 71 -43 171q0 56 13 120q12 55 40.5 114.5t77 126t129.5 113.5t177 57q-80 45 -122 118q-30 53 -30 102q0 18 4 36 q57 311 432 312q213 0 375 -94l-65 -215q-10 0 -21.5 1t-17.5 1l-6 149q-205 70 -283 70q-104 0 -172 -36t-90 -145q-7 -30 -7 -57q0 -76 51 -137q69 -84 241 -123q250 -55 250 -281q0 -52 -13 -112q-33 -158 -134 -252t-288 -137q109 -39 172 -116q46 -58 46 -124 q0 -22 -5 -45q-31 -147 -165 -228t-320 -81q-217 0 -393 112zM376 378q11 -79 86 -110.5t253 -31.5q113 0 213 87t129 224q12 59 12 104t-8 78t-35 55.5t-53.5 36t-77.5 21.5t-95 11t-116 5q-86 0 -174 -82t-109 -186q-27 -102 -27 -173q0 -21 2 -39z" />
<glyph unicode="&#xa8;" horiz-adv-x="454" d="M233 1298l35 166h135l-34 -166h-136zM233 1298l35 166h135l-34 -166h-136zM653 1298l35 166h137l-34 -166h-138zM653 1298l35 166h137l-34 -166h-138z" />
<glyph unicode="&#xaa;" horiz-adv-x="567" d="M307 1077q31 154 195 154q84 0 110.5 4t49.5 22q11 55 11 89q0 29 -9 42q-17 27 -86 27q-53 0 -123 -18q-23 -49 -31 -76h-23l17 106q80 35 176 35q84 0 122 -44q22 -26 22 -75q0 -36 -11 -83l-61 -291l75 -19l-4 -22h-116l-19 63q-91 -69 -178 -69h-2q-121 0 -121 105 q0 22 6 50zM375 1075q-4 -18 -4 -32q0 -32 17 -51q26 -27 77 -27q73 0 147 61l39 176q-66 -14 -143 -14q-35 0 -53.5 -4t-43 -30t-36.5 -79z" />
<glyph unicode="&#xab;" horiz-adv-x="1150" d="M254 578q6 25 35 40l399 248q-16 -80 -43 -92l-319 -196q158 -137 229 -189q18 -16 18 -50q0 -22 -8 -52l-293 250q-19 14 -19 34q0 3 1 7zM762 578q6 25 35 40l399 248q-16 -80 -43 -92l-319 -196q158 -137 229 -189q18 -16 18 -50q0 -22 -8 -52l-293 250q-19 14 -19 34 q0 3 1 7z" />
<glyph unicode="&#xad;" horiz-adv-x="815" d="M246 518l22 105h576l-23 -105h-575z" />
<glyph unicode="&#xb0;" horiz-adv-x="819" d="M139 1210q0 139 74 212t211 75q150 -2 218.5 -72.5t68.5 -214.5q0 -129 -70 -206.5t-217 -77.5q-285 0 -285 284zM197 1212q0 -74 21.5 -127t47 -76.5t65.5 -35.5t54 -13.5t39 -1.5q18 0 37.5 2.5t58.5 15.5t66.5 37.5t50 76t22.5 123t-22.5 124t-49 76t-67.5 36.5 t-58.5 14t-38 1t-38.5 -2t-56 -15t-63.5 -37t-47 -75t-21.5 -123z" />
<glyph unicode="&#xb2;" horiz-adv-x="753" d="M223 612q20 88 59.5 157t99.5 120t118.5 86t142.5 74q178 78 205 213q4 19 4 37q0 48 -28 83q-38 48 -136 52q-55 0 -110.5 -25t-69.5 -37l-49 -43q-23 -59 -35 -82h-25l17 129q29 29 111.5 72t170.5 43q135 0 191 -65q42 -47 42 -114q0 -24 -5 -50q-35 -178 -277 -285 q-264 -119 -313 -307h430l45 98h27l-21 -156h-594z" />
<glyph unicode="&#xb3;" horiz-adv-x="739" d="M197 647q20 88 39 135h24v-90q131 -41 221 -41q139 0 218 70t96 143q3 15 3 29q0 52 -40 97q-51 59 -164 59h-102l12 57h102q104 0 160.5 48t71.5 122q4 16 4 31q0 43 -29 79q-39 48 -131 48q-90 0 -254 -62q-6 -12 -18.5 -40.5t-18.5 -43.5q-8 0 -15 -1t-11 -1l18 127 q176 78 311 78q117 0 185 -49q55 -39 55 -110q0 -19 -4 -40q-18 -82 -81 -138t-138 -62q100 -12 152 -75q38 -46 38 -105q0 -23 -6 -48q-20 -109 -136 -185.5t-280 -76.5q-209 0 -282 45z" />
<glyph unicode="&#xb4;" horiz-adv-x="454" d="M459 1309l149 229h164q-203 -209 -227 -229h-86z" />
<glyph unicode="&#xb7;" horiz-adv-x="593" d="M350 627l37 174h174l-37 -174h-174z" />
<glyph unicode="&#xb8;" horiz-adv-x="501" d="M31 -442l8 41q43 -20 94 -21q123 0 148 113q5 22 5 40q0 83 -104 83q-43 0 -78 -9q8 6 27 31l56 76q36 51 65 88h14l-119 -160q28 3 53 3q83 0 120 -37q38 -37 38 -84q0 -15 -4 -31q-27 -133 -196 -150q-80 0 -127 17z" />
<glyph unicode="&#xb9;" horiz-adv-x="649" d="M391 729l6 23l84 18l142 662q-43 -2 -93 -23l7 33q10 6 39.5 21.5t44.5 25.5h84l-154 -719l80 -18l-6 -23h-234z" />
<glyph unicode="&#xba;" horiz-adv-x="819" d="M395 1210q61 283 346 287q150 -2 203 -72q34 -46 34 -121q0 -42 -11 -94q-27 -129 -113 -206.5t-233 -77.5q-235 0 -235 199q0 39 9 85zM443 1135v-15q0 -25 4 -44q6 -25 19 -45.5t24.5 -32t32 -20.5t30.5 -12t31.5 -5.5t24.5 -2.5h18q18 0 37.5 2.5t62.5 15.5t76 37.5 t65.5 76t46.5 122.5q8 41 9 76q1 7 1 13q0 27 -6 47q-6 24 -19 43.5t-26.5 32t-33 20.5t-32.5 12t-31.5 6t-26.5 2h-17q-27 0 -53.5 -5t-76.5 -25.5t-91 -77t-59 -144.5q-8 -43 -10 -77z" />
<glyph unicode="&#xbb;" horiz-adv-x="1136" d="M221 287q18 80 55 102q29 16 149 89t159 100l-234 196q-13 7 -13 36q0 22 7 56l297 -248q20 -13 14 -40q-4 -25 -34 -41zM729 287q18 80 55 102q29 16 149 89t159 100l-234 196q-13 7 -13 36q0 22 7 56l297 -248q15 -10 15 -28q0 -6 -1 -12q-4 -25 -35 -41z" />
<glyph unicode="&#xbc;" horiz-adv-x="3021" d="M244 0l8 43l170 39l276 1296q-94 -10 -184 -45l12 64q27 16 82.5 44.5t83.5 47.5h164l-299 -1407q23 -8 77 -20.5t77 -18.5l-9 -43h-458zM855 -41l1055 1583h35l-1057 -1581q-14 0 -17.5 -1t-15.5 -1zM1778 412l27 127l1008 950h126l-210 -989h333l-18 -88h-334l-70 -328 l160 -41l-8 -43h-471l6 43l174 39l72 330h-795zM1864 500h727l189 880z" />
<glyph unicode="&#xbd;" horiz-adv-x="2826" d="M244 0l8 43l170 39l276 1296q-94 -10 -184 -45l12 64q27 16 82.5 44.5t83.5 47.5h164l-299 -1407q23 -8 77 -20.5t77 -18.5l-9 -43h-458zM855 -41l1055 1583h35l-1057 -1581q-14 0 -17.5 -1t-15.5 -1zM1684 0q27 119 78 218t112.5 171t150.5 138.5t171 111.5t197 98 q301 139 350 363q6 32 6 60q0 82 -48 142q-65 80 -228 89q-213 0 -392 -179q-43 -109 -57 -137h-43l29 217q23 23 81 63t174.5 86t223.5 46q227 0 325 -109q70 -80 70 -190q0 -42 -10 -88q-68 -307 -471 -484q-442 -203 -528 -518h729l73 164h45l-34 -262h-1004z" />
<glyph unicode="&#xbe;" horiz-adv-x="3445" d="M115 41q27 104 65 233h43l2 -155q213 -70 381 -70q125 0 228.5 39t165 99.5t96 117.5t45.5 109q7 28 7 55q0 86 -70 162q-91 100 -281 100h-174l22 98h174q332 0 395 289q6 30 6 57q0 76 -46 135q-64 81 -224 81q-168 0 -436 -107q-14 -35 -65 -143q-12 0 -26 -2t-20 -2 l33 217q305 135 535 135q201 0 319 -85q92 -66 92 -182q0 -34 -8 -73q-33 -141 -138.5 -236.5t-238.5 -107.5q172 -25 263 -131q64 -74 64 -174q0 -41 -11 -86q-39 -186 -235.5 -317.5t-477.5 -131.5q-356 0 -485 76zM1279 -41l1055 1583h35l-1057 -1581q-14 0 -17.5 -1 t-15.5 -1zM2202 412l27 127l1008 950h126l-210 -989h333l-18 -88h-334l-70 -328l160 -41l-8 -43h-471l6 43l174 39l72 330h-795zM2288 500h727l189 880z" />
<glyph unicode="&#xbf;" horiz-adv-x="1191" d="M160 -115q12 63 40.5 115.5t80 101t86 74t102.5 70.5q63 41 104 71.5t92.5 76.5t84 99.5t51.5 112.5h82q-70 -254 -322 -409q-72 -49 -112.5 -81t-85 -94.5t-58.5 -136.5q-7 -31 -7 -59q0 -78 55 -128q75 -69 257 -69q123 0 308 54l32 284h43l2 -379q-184 -63 -407 -63 q-229 0 -348 89q-90 67 -90 187q0 39 10 84zM805 887l35 172h174l-35 -172h-174z" />
<glyph unicode="&#xc0;" horiz-adv-x="1345" d="M-80 0q10 33 12 41l148 35l794 1308q-82 20 -155 41l10 41h381l188 -1390q27 -4 78 -18.5t62 -16.5q0 -2 -6 -41h-461q2 8 6 22.5t4 20.5l180 39l-47 475h-600l-293 -473q27 -8 84 -22l80 -21q0 -2 -6 -41h-459zM551 643h555l-107 743zM952 1946h160l53 -230h-86z" />
<glyph unicode="&#xc1;" horiz-adv-x="1345" d="M-80 0q10 33 12 41l148 35l794 1308q-82 20 -155 41l10 41h381l188 -1390q27 -4 78 -18.5t62 -16.5q0 -2 -6 -41h-461q2 8 6 22.5t4 20.5l180 39l-47 475h-600l-293 -473q27 -8 84 -22l80 -21q0 -2 -6 -41h-459zM551 643h555l-107 743zM903 1716q29 42 150 230h164 q-203 -209 -228 -230h-86z" />
<glyph unicode="&#xc2;" horiz-adv-x="1345" d="M-80 0q10 33 12 41l148 35l794 1308q-82 20 -155 41l10 41h381l188 -1390q27 -4 78 -18.5t62 -16.5q0 -2 -6 -41h-461q2 8 6 22.5t4 20.5l180 39l-47 475h-600l-293 -473q27 -8 84 -22l80 -21q0 -2 -6 -41h-459zM551 643h555l-107 743zM770 1688l268 264h95l153 -264h-88 l-123 221l-217 -221h-88z" />
<glyph unicode="&#xc3;" horiz-adv-x="1345" d="M-80 0q10 33 12 41l148 35l794 1308q-82 20 -155 41l10 41h381l188 -1390q27 -4 78 -18.5t62 -16.5q0 -2 -6 -41h-461q2 8 6 22.5t4 20.5l180 39l-47 475h-600l-293 -473q27 -8 84 -22l80 -21q0 -2 -6 -41h-459zM551 643h555l-107 743zM762 1763l16 88q41 41 127 41 q53 0 154.5 -28.5t159.5 -28.5q84 0 133 20l-17 -77q-70 -47 -137 -47q-61 0 -159.5 26.5t-161.5 26.5q-62 -1 -115 -21z" />
<glyph unicode="&#xc4;" horiz-adv-x="1345" d="M-80 0q10 33 12 41l148 35l794 1308q-82 20 -155 41l10 41h381l188 -1390q27 -4 78 -18.5t62 -16.5q0 -2 -6 -41h-461q2 8 6 22.5t4 20.5l180 39l-47 475h-600l-293 -473q27 -8 84 -22l80 -21q0 -2 -6 -41h-459zM551 643h555l-107 743zM754 1706l34 166h136l-35 -166 h-135zM754 1706l34 166h136l-35 -166h-135zM1174 1706l34 166h138l-35 -166h-137zM1174 1706l34 166h138l-35 -166h-137z" />
<glyph unicode="&#xc5;" horiz-adv-x="1345" d="M-80 0q10 33 12 41l148 35l794 1308q-82 20 -155 41l10 41h381l188 -1390q27 -4 78 -18.5t62 -16.5q0 -2 -6 -41h-461q2 8 6 22.5t4 20.5l180 39l-47 475h-600l-293 -473q27 -8 84 -22l80 -21q0 -2 -6 -41h-459zM551 643h555l-107 743zM786 1731q62 282 347 286 q150 -2 203 -72q33 -45 33 -118q0 -43 -11 -96q-27 -129 -113 -207t-233 -78q-235 0 -235 199q0 39 9 86zM835 1655v-11q0 -28 4 -48q5 -25 18 -45.5t24.5 -32t32 -20.5t30.5 -12t31.5 -5t24.5 -2h18q18 0 37.5 2t62.5 15t76 38t65.5 76t47.5 123q8 41 9 76v9q0 29 -5 50 q-6 24 -19.5 43.5t-27 32t-33 20.5t-32.5 12t-31.5 6.5t-25.5 2.5h-18q-27 0 -53.5 -5.5t-76.5 -26t-91 -76.5t-59 -144q-8 -43 -9 -78z" />
<glyph unicode="&#xc6;" horiz-adv-x="2152" d="M-23 0l11 41l147 35l1315 1390h915q-2 -8 -77 -286h-41l8 200h-621l-123 -592h523l-19 -88h-522l-127 -612h682l68 158h38l-51 -246h-899l119 559h-604l-459 -473q23 -4 180 -45l-8 -41h-455zM784 645h555l164 762z" />
<glyph unicode="&#xc7;" horiz-adv-x="1433" d="M294 339q-23 85 -23 180q0 97 24 206q72 348 314.5 560t600.5 212q199 0 379 -65q-12 -49 -39.5 -134.5t-38.5 -123.5h-38l2 174q-113 63 -283 63q-61 0 -138 -19.5t-171.5 -70.5t-176 -126t-153.5 -198t-107 -272q-14 -92 -15 -171v-13q0 -71 10 -126q12 -59 30 -109 t47 -85t58.5 -62.5t67.5 -44t71 -27.5t70.5 -16t64.5 -7.5t55 -2.5q201 0 441 160l-29 -141q-72 -41 -192.5 -80t-241.5 -43q-240 0 -391.5 105.5t-197.5 276.5zM604 -442l8 41q43 -20 95 -21q123 0 147 113q5 22 5 41q0 82 -103 82q-43 0 -78 -9q8 6 26 31l56 76l65 88h15 l-119 -160q28 3 53 3q83 0 120 -37t37 -86q0 -14 -3 -29q-27 -133 -197 -150q-80 0 -127 17z" />
<glyph unicode="&#xc8;" horiz-adv-x="1204" d="M55 0l8 43l168 37l279 1304l-154 37l9 43h1011l-82 -286h-39l9 200h-625l-127 -590h532l-18 -88h-532l-129 -612h692l67 158h39l-51 -246h-1057zM883 1946h159l54 -230h-86z" />
<glyph unicode="&#xc9;" horiz-adv-x="1204" d="M55 0l8 43l168 37l279 1304l-154 37l9 43h1011l-82 -286h-39l9 200h-625l-127 -590h532l-18 -88h-532l-129 -612h692l67 158h39l-51 -246h-1057zM831 1716q29 42 150 230h164q-203 -209 -227 -230h-87z" />
<glyph unicode="&#xca;" horiz-adv-x="1204" d="M55 0l8 43l168 37l279 1304l-154 37l9 43h1011l-82 -286h-39l9 200h-625l-127 -590h532l-18 -88h-532l-129 -612h692l67 158h39l-51 -246h-1057zM700 1688l269 264h94l154 -264h-89l-122 221l-218 -221h-88z" />
<glyph unicode="&#xcb;" horiz-adv-x="1204" d="M55 0l8 43l168 37l279 1304l-154 37l9 43h1011l-82 -286h-39l9 200h-625l-127 -590h532l-18 -88h-532l-129 -612h692l67 158h39l-51 -246h-1057zM684 1706l35 166h135l-35 -166h-135zM684 1706l35 166h135l-35 -166h-135zM1104 1706l35 166h137l-35 -166h-137zM1104 1706 l35 166h137l-35 -166h-137z" />
<glyph unicode="&#xcc;" horiz-adv-x="571" d="M80 0l8 43l162 37l276 1306q-20 4 -70 17.5t-73 17.5l10 45h438l-10 -43l-164 -37l-276 -1308l149 -35l-8 -43h-442zM565 1946h160l53 -230h-86z" />
<glyph unicode="&#xcd;" horiz-adv-x="571" d="M80 0l8 43l162 37l276 1306q-20 4 -70 17.5t-73 17.5l10 45h438l-10 -43l-164 -37l-276 -1308l149 -35l-8 -43h-442zM518 1716q29 42 150 230h163q-203 -209 -227 -230h-86z" />
<glyph unicode="&#xce;" horiz-adv-x="571" d="M80 0l8 43l162 37l276 1306q-20 4 -70 17.5t-73 17.5l10 45h438l-10 -43l-164 -37l-276 -1308l149 -35l-8 -43h-442zM383 1688l268 264h94l154 -264h-88l-123 221l-217 -221h-88z" />
<glyph unicode="&#xcf;" horiz-adv-x="571" d="M80 0l8 43l162 37l276 1306q-20 4 -70 17.5t-73 17.5l10 45h438l-10 -43l-164 -37l-276 -1308l149 -35l-8 -43h-442zM367 1706l34 166h136l-35 -166h-135zM367 1706l34 166h136l-35 -166h-135zM786 1706l35 166h137l-34 -166h-138zM786 1706l35 166h137l-34 -166h-138z " />
<glyph unicode="&#xd1;" horiz-adv-x="1517" d="M45 0q2 8 6 22.5t4 20.5l166 37l279 1306l-150 37l10 43h332l559 -1308l279 1308h293l-11 -43l-167 -37l-277 -1308l154 -35l-9 -43h-317l-571 1337l-269 -1255q90 -20 154 -39l-6 -43h-459zM848 1763l16 88q41 41 127 41q53 0 154.5 -28.5t159.5 -28.5q84 0 133 20 l-17 -77q-70 -47 -137 -47q-61 0 -159.5 26.5t-161.5 26.5q-62 -1 -115 -21z" />
<glyph unicode="&#xd2;" horiz-adv-x="1728" d="M274 729q80 373 320.5 567.5t611.5 200.5q395 -6 541 -197q93 -122 93 -325q0 -111 -28 -246q-74 -350 -305 -560t-628 -210q-632 0 -632 529q0 109 27 241zM405 527v-25q0 -77 11 -133q12 -66 44 -118t63.5 -85t79.5 -56.5t83 -35t83 -17.5t69 -6h52h9q33 0 62.5 2 t101.5 15.5t132 37t139 73.5t139.5 120t116 181.5t83.5 250.5q25 111 25 204t-16.5 158.5t-52.5 118t-70.5 85t-88 55t-88 33t-86 16.5t-66.5 6h-44q-37 0 -68 -2t-100.5 -15.5t-126.5 -37t-132 -73.5t-133.5 -119.5t-111.5 -180.5t-84 -248q-23 -111 -25 -204zM1145 1946 h160l53 -230h-86z" />
<glyph unicode="&#xd3;" horiz-adv-x="1728" d="M274 729q80 373 320.5 567.5t611.5 200.5q395 -6 541 -197q93 -122 93 -325q0 -111 -28 -246q-74 -350 -305 -560t-628 -210q-632 0 -632 529q0 109 27 241zM405 527v-25q0 -77 11 -133q12 -66 44 -118t63.5 -85t79.5 -56.5t83 -35t83 -17.5t69 -6h52h9q33 0 62.5 2 t101.5 15.5t132 37t139 73.5t139.5 120t116 181.5t83.5 250.5q25 111 25 204t-16.5 158.5t-52.5 118t-70.5 85t-88 55t-88 33t-86 16.5t-66.5 6h-44q-37 0 -68 -2t-100.5 -15.5t-126.5 -37t-132 -73.5t-133.5 -119.5t-111.5 -180.5t-84 -248q-23 -111 -25 -204zM1094 1716 l149 230h164q-203 -209 -227 -230h-86z" />
<glyph unicode="&#xd4;" horiz-adv-x="1728" d="M274 729q80 373 320.5 567.5t611.5 200.5q395 -6 541 -197q93 -122 93 -325q0 -111 -28 -246q-74 -350 -305 -560t-628 -210q-632 0 -632 529q0 109 27 241zM405 527v-25q0 -77 11 -133q12 -66 44 -118t63.5 -85t79.5 -56.5t83 -35t83 -17.5t69 -6h52h9q33 0 62.5 2 t101.5 15.5t132 37t139 73.5t139.5 120t116 181.5t83.5 250.5q25 111 25 204t-16.5 158.5t-52.5 118t-70.5 85t-88 55t-88 33t-86 16.5t-66.5 6h-44q-37 0 -68 -2t-100.5 -15.5t-126.5 -37t-132 -73.5t-133.5 -119.5t-111.5 -180.5t-84 -248q-23 -111 -25 -204zM963 1688 l268 264h94l154 -264h-88l-123 221l-217 -221h-88z" />
<glyph unicode="&#xd5;" horiz-adv-x="1728" d="M274 729q80 373 320.5 567.5t611.5 200.5q395 -6 541 -197q93 -122 93 -325q0 -111 -28 -246q-74 -350 -305 -560t-628 -210q-632 0 -632 529q0 109 27 241zM405 527v-25q0 -77 11 -133q12 -66 44 -118t63.5 -85t79.5 -56.5t83 -35t83 -17.5t69 -6h52h9q33 0 62.5 2 t101.5 15.5t132 37t139 73.5t139.5 120t116 181.5t83.5 250.5q25 111 25 204t-16.5 158.5t-52.5 118t-70.5 85t-88 55t-88 33t-86 16.5t-66.5 6h-44q-37 0 -68 -2t-100.5 -15.5t-126.5 -37t-132 -73.5t-133.5 -119.5t-111.5 -180.5t-84 -248q-23 -111 -25 -204zM952 1763 l17 88q41 41 127 41q53 0 154.5 -28.5t158.5 -28.5q84 0 133 20l-16 -77q-70 -47 -137 -47q-61 0 -160 26.5t-162 26.5q-62 -1 -115 -21z" />
<glyph unicode="&#xd6;" horiz-adv-x="1728" d="M274 729q80 373 320.5 567.5t611.5 200.5q395 -6 541 -197q93 -122 93 -325q0 -111 -28 -246q-74 -350 -305 -560t-628 -210q-632 0 -632 529q0 109 27 241zM405 527v-25q0 -77 11 -133q12 -66 44 -118t63.5 -85t79.5 -56.5t83 -35t83 -17.5t69 -6h52h9q33 0 62.5 2 t101.5 15.5t132 37t139 73.5t139.5 120t116 181.5t83.5 250.5q25 111 25 204t-16.5 158.5t-52.5 118t-70.5 85t-88 55t-88 33t-86 16.5t-66.5 6h-44q-37 0 -68 -2t-100.5 -15.5t-126.5 -37t-132 -73.5t-133.5 -119.5t-111.5 -180.5t-84 -248q-23 -111 -25 -204zM946 1706 l35 166h135l-35 -166h-135zM946 1706l35 166h135l-35 -166h-135zM1366 1706l35 166h137l-35 -166h-137zM1366 1706l35 166h137l-35 -166h-137z" />
<glyph unicode="&#xd8;" horiz-adv-x="1687" d="M252 729q78 356 335 562t599 206q129 0 272 -29l25 39h39l-31 -49q215 -90 285 -268q39 -97 39 -225q0 -107 -27 -236q-74 -350 -305.5 -560t-624.5 -210q-94 0 -262 29l-14 -29h-35l20 31q-340 124 -340 511q0 104 25 228zM410 731q-23 -111 -23 -206q0 -304 236 -437 l405 664l373 618q-139 37 -236 37q-37 0 -68.5 -2t-101 -15.5t-127 -37t-132 -74.5t-132 -119.5t-110.5 -179.5t-84 -248zM655 78q87 -27 224 -27q31 0 60.5 2t101 15.5t133 37t140.5 73.5t139 120t115.5 181.5t84.5 250.5q22 101 22 189q0 290 -243 440z" />
<glyph unicode="&#xd9;" horiz-adv-x="1509" d="M297 402q6 75 14 123t25 114l158 747l-156 35l10 45h461l-10 -43l-168 -34l-168 -768q-10 -49 -14.5 -73t-9.5 -92q-2 -32 -2 -57q0 -31 3 -53q6 -41 26.5 -100.5t58.5 -94t105.5 -60t157.5 -25.5q121 0 219.5 47t154 108.5t97 148.5t56 140t24.5 111l162 765l-153 35 l10 45h457l-13 -43l-164 -34l-170 -768l-18 -82q-4 -19 -23.5 -87.5t-35.5 -99.5l-48 -92q-32 -61 -65 -93t-86 -76t-112.5 -66.5t-139.5 -39t-172 -16.5q-119 0 -207 25.5t-140 63.5t-82 99.5t-39 114.5q-5 33 -5 73q0 26 2 57zM1034 1946h160l53 -230h-86z" />
<glyph unicode="&#xda;" horiz-adv-x="1509" d="M297 402q6 75 14 123t25 114l158 747l-156 35l10 45h461l-10 -43l-168 -34l-168 -768q-10 -49 -14.5 -73t-9.5 -92q-2 -32 -2 -57q0 -31 3 -53q6 -41 26.5 -100.5t58.5 -94t105.5 -60t157.5 -25.5q121 0 219.5 47t154 108.5t97 148.5t56 140t24.5 111l162 765l-153 35 l10 45h457l-13 -43l-164 -34l-170 -768l-18 -82q-4 -19 -23.5 -87.5t-35.5 -99.5l-48 -92q-32 -61 -65 -93t-86 -76t-112.5 -66.5t-139.5 -39t-172 -16.5q-119 0 -207 25.5t-140 63.5t-82 99.5t-39 114.5q-5 33 -5 73q0 26 2 57zM985 1716q29 42 150 230h163 q-203 -209 -227 -230h-86z" />
<glyph unicode="&#xdb;" horiz-adv-x="1509" d="M297 402q6 75 14 123t25 114l158 747l-156 35l10 45h461l-10 -43l-168 -34l-168 -768q-10 -49 -14.5 -73t-9.5 -92q-2 -32 -2 -57q0 -31 3 -53q6 -41 26.5 -100.5t58.5 -94t105.5 -60t157.5 -25.5q121 0 219.5 47t154 108.5t97 148.5t56 140t24.5 111l162 765l-153 35 l10 45h457l-13 -43l-164 -34l-170 -768l-18 -82q-4 -19 -23.5 -87.5t-35.5 -99.5l-48 -92q-32 -61 -65 -93t-86 -76t-112.5 -66.5t-139.5 -39t-172 -16.5q-119 0 -207 25.5t-140 63.5t-82 99.5t-39 114.5q-5 33 -5 73q0 26 2 57zM852 1688l268 264h94l154 -264h-88l-123 221 l-217 -221h-88z" />
<glyph unicode="&#xdc;" horiz-adv-x="1509" d="M297 402q6 75 14 123t25 114l158 747l-156 35l10 45h461l-10 -43l-168 -34l-168 -768q-10 -49 -14.5 -73t-9.5 -92q-2 -32 -2 -57q0 -31 3 -53q6 -41 26.5 -100.5t58.5 -94t105.5 -60t157.5 -25.5q121 0 219.5 47t154 108.5t97 148.5t56 140t24.5 111l162 765l-153 35 l10 45h457l-13 -43l-164 -34l-170 -768l-18 -82q-4 -19 -23.5 -87.5t-35.5 -99.5l-48 -92q-32 -61 -65 -93t-86 -76t-112.5 -66.5t-139.5 -39t-172 -16.5q-119 0 -207 25.5t-140 63.5t-82 99.5t-39 114.5q-5 33 -5 73q0 26 2 57zM836 1706l34 166h136l-35 -166h-135z M836 1706l34 166h136l-35 -166h-135zM1255 1706l35 166h137l-34 -166h-138zM1255 1706l35 166h137l-34 -166h-138z" />
<glyph unicode="&#xdd;" horiz-adv-x="1454" d="M287 1423l10 43h434l-10 -41l-164 -30l317 -762l650 762l-140 30l11 41h428l-11 -41l-145 -34l-739 -846l-99 -465l150 -37l-8 -43h-455l8 43l166 37l98 465l-366 846zM956 1716q29 42 150 230h164q-203 -209 -228 -230h-86z" />
<glyph unicode="&#xdf;" horiz-adv-x="1212" d="M23 0l8 43l168 39l178 840q20 94 32.5 144t37 127t49 118t65.5 92t89 76.5t118 43t154 17.5q45 0 87 -6t90 -21.5t81.5 -43t62.5 -70.5t32 -103q1 -10 1 -21q0 -52 -12 -120q-23 -117 -123.5 -223.5t-239.5 -122.5q141 -16 224 -130q60 -82 60 -183q0 -39 -9 -80 q-94 -432 -607 -432l44 148l42 140h43v-176q264 86 318 324q15 68 15 105.5t-21 83.5q-21 48 -87.5 85t-181.5 68l23 108q324 12 383 287q9 44 9 81q0 86 -50 131q-72 65 -207 65q-88 0 -145.5 -21.5t-97.5 -76t-64 -125t-51 -191.5l-215 -1020h-303z" />
<glyph unicode="&#xe0;" d="M223 202q-3 31 -3 68q0 118 40 293q59 281 207.5 402.5t337.5 121.5q100 0 188 -30.5t149.5 -61t96.5 -30.5l-186 -883q23 -4 75 -17.5t78 -19.5l-8 -45h-297l51 242q-80 -119 -204.5 -196t-278.5 -77q-113 0 -171 50.5t-75 182.5zM395 563q-35 -159 -35 -268 q0 -236 164 -236q92 0 182.5 57.5t153 139.5t104.5 164t56 143l74 344q-143 74 -275 74q-100 0 -180 -39t-127 -104.5t-74.5 -132t-42.5 -142.5zM717 1538h160l53 -229h-86z" />
<glyph unicode="&#xe1;" d="M223 202q-3 31 -3 68q0 118 40 293q59 281 207.5 402.5t337.5 121.5q100 0 188 -30.5t149.5 -61t96.5 -30.5l-186 -883q23 -4 75 -17.5t78 -19.5l-8 -45h-297l51 242q-80 -119 -204.5 -196t-278.5 -77q-113 0 -171 50.5t-75 182.5zM395 563q-35 -159 -35 -268 q0 -236 164 -236q92 0 182.5 57.5t153 139.5t104.5 164t56 143l74 344q-143 74 -275 74q-100 0 -180 -39t-127 -104.5t-74.5 -132t-42.5 -142.5zM666 1309l149 229h164q-203 -209 -227 -229h-86z" />
<glyph unicode="&#xe2;" d="M223 202q-3 31 -3 68q0 118 40 293q59 281 207.5 402.5t337.5 121.5q100 0 188 -30.5t149.5 -61t96.5 -30.5l-186 -883q23 -4 75 -17.5t78 -19.5l-8 -45h-297l51 242q-80 -119 -204.5 -196t-278.5 -77q-113 0 -171 50.5t-75 182.5zM395 563q-35 -159 -35 -268 q0 -236 164 -236q92 0 182.5 57.5t153 139.5t104.5 164t56 143l74 344q-143 74 -275 74q-100 0 -180 -39t-127 -104.5t-74.5 -132t-42.5 -142.5zM535 1280l268 264h94l154 -264h-88l-123 221l-217 -221h-88z" />
<glyph unicode="&#xe3;" d="M223 202q-3 31 -3 68q0 118 40 293q59 281 207.5 402.5t337.5 121.5q100 0 188 -30.5t149.5 -61t96.5 -30.5l-186 -883q23 -4 75 -17.5t78 -19.5l-8 -45h-297l51 242q-80 -119 -204.5 -196t-278.5 -77q-113 0 -171 50.5t-75 182.5zM395 563q-35 -159 -35 -268 q0 -236 164 -236q92 0 182.5 57.5t153 139.5t104.5 164t56 143l74 344q-143 74 -275 74q-100 0 -180 -39t-127 -104.5t-74.5 -132t-42.5 -142.5zM524 1356l17 88q41 41 127 41q53 0 154.5 -29t158.5 -29q84 0 133 21l-16 -78q-70 -47 -137 -47q-61 0 -160 26.5t-162 26.5 q-62 0 -115 -20z" />
<glyph unicode="&#xe4;" d="M223 202q-3 31 -3 68q0 118 40 293q59 281 207.5 402.5t337.5 121.5q100 0 188 -30.5t149.5 -61t96.5 -30.5l-186 -883q23 -4 75 -17.5t78 -19.5l-8 -45h-297l51 242q-80 -119 -204.5 -196t-278.5 -77q-113 0 -171 50.5t-75 182.5zM395 563q-35 -159 -35 -268 q0 -236 164 -236q92 0 182.5 57.5t153 139.5t104.5 164t56 143l74 344q-143 74 -275 74q-100 0 -180 -39t-127 -104.5t-74.5 -132t-42.5 -142.5zM518 1298l35 166h135l-35 -166h-135zM518 1298l35 166h135l-35 -166h-135zM938 1298l35 166h137l-35 -166h-137zM938 1298 l35 166h137l-35 -166h-137z" />
<glyph unicode="&#xe5;" d="M223 202q-3 31 -3 68q0 118 40 293q59 281 207.5 402.5t337.5 121.5q100 0 188 -30.5t149.5 -61t96.5 -30.5l-186 -883q23 -4 75 -17.5t78 -19.5l-8 -45h-297l51 242q-80 -119 -204.5 -196t-278.5 -77q-113 0 -171 50.5t-75 182.5zM395 563q-35 -159 -35 -268 q0 -236 164 -236q92 0 182.5 57.5t153 139.5t104.5 164t56 143l74 344q-143 74 -275 74q-100 0 -180 -39t-127 -104.5t-74.5 -132t-42.5 -142.5zM635 1530q61 283 346 287q150 -2 203 -73q33 -45 33 -118q0 -43 -11 -96q-27 -129 -112.5 -207t-233.5 -78q-234 0 -234 198 q0 40 9 87zM683 1454v-11q0 -28 4 -49q5 -24 18.5 -44.5t24.5 -31.5t31.5 -20.5t31 -12.5t32 -5t24.5 -2h17q18 0 38 2t63 15.5t75.5 38t65.5 75.5t47 123q8 41 9 75v10q0 29 -5 50q-6 25 -19.5 44.5t-26.5 31.5t-32.5 20.5t-33 12.5t-32 6t-25.5 2h-17q-27 0 -53.5 -5 t-76.5 -25.5t-91.5 -77t-59.5 -144.5q-8 -43 -9 -78z" />
<glyph unicode="&#xe6;" horiz-adv-x="1732" d="M178 461l770 71l22 105q7 37 14 91q5 38 5 63q0 11 -1 20q-3 29 -11 65.5t-28.5 56t-50.5 39t-76 27t-107 7.5q-186 0 -355 -168l-73 69q190 182 446 183q244 0 369 -189q207 188 438 189q337 0 337 -318q0 -95 -30 -219q-410 0 -762 -33q-12 -59 -18 -92t-13 -82 q-6 -43 -6 -69v-6q1 -27 4 -64t16 -56.5t33.5 -42t50.5 -32.5t73 -17.5t96 -7.5q106 0 199.5 53.5t150.5 114.5q12 -10 35 -35.5t37 -38.5q-190 -178 -440 -178q-238 0 -379 185q-199 -184 -428 -185q-341 0 -341 311q0 81 23 183zM281 371q-4 -28 -4 -56q0 -39 8 -77 q14 -66 72.5 -121.5t158.5 -55.5q113 0 201 67t127.5 142.5t64.5 159.5zM1126 623l625 32q4 38 4 71q0 269 -235 269q-84 0 -156 -37.5t-119 -98t-76 -120t-43 -116.5z" />
<glyph unicode="&#xe7;" horiz-adv-x="1083" d="M242 541q63 299 230 425t439 126q178 0 318 -86q-6 -18 -60 -215h-43l-6 147q-123 59 -229 59q-88 0 -160 -17t-143.5 -63.5t-124.5 -139.5t-82 -232q-22 -92 -22 -163q0 -21 2 -40q8 -84 29.5 -138t71.5 -85t104 -43.5t126 -12.5q180 0 377 89l-22 -119 q-213 -63 -375 -64q-276 0 -384 139q-69 89 -69 240q0 86 23 193zM412 -426l8 41q43 -20 94 -21q123 0 148 113q5 22 5 40q0 83 -104 83q-43 0 -78 -8q8 6 27 31l55 76q37 51 66 87h14l-119 -159q28 3 53 3q83 0 120 -37q38 -37 38 -85q0 -15 -4 -31q-27 -133 -196 -149 q-80 0 -127 16z" />
<glyph unicode="&#xe8;" horiz-adv-x="1107" d="M215 506q121 584 606 584q329 0 329 -331q0 -96 -28 -220l-764 2q-23 -98 -32 -163q-6 -40 -6 -82q0 -25 3 -50q5 -68 33.5 -107t89 -63.5t154.5 -24.5q199 0 348 166l76 -72q-190 -178 -442 -178q-258 0 -339 137q-49 84 -49 213q0 85 21 189zM391 625l631 2 q10 64 10 117q0 251 -229 251h-2q-168 0 -270.5 -105t-139.5 -265zM748 1538h159l54 -229h-87z" />
<glyph unicode="&#xe9;" horiz-adv-x="1107" d="M215 506q121 584 606 584q329 0 329 -331q0 -96 -28 -220l-764 2q-23 -98 -32 -163q-6 -40 -6 -82q0 -25 3 -50q5 -68 33.5 -107t89 -63.5t154.5 -24.5q199 0 348 166l76 -72q-190 -178 -442 -178q-258 0 -339 137q-49 84 -49 213q0 85 21 189zM391 625l631 2 q10 64 10 117q0 251 -229 251h-2q-168 0 -270.5 -105t-139.5 -265zM698 1309q29 41 150 229h164q-203 -209 -228 -229h-86z" />
<glyph unicode="&#xea;" horiz-adv-x="1107" d="M215 506q121 584 606 584q329 0 329 -331q0 -96 -28 -220l-764 2q-23 -98 -32 -163q-6 -40 -6 -82q0 -25 3 -50q5 -68 33.5 -107t89 -63.5t154.5 -24.5q199 0 348 166l76 -72q-190 -178 -442 -178q-258 0 -339 137q-49 84 -49 213q0 85 21 189zM391 625l631 2 q10 64 10 117q0 251 -229 251h-2q-168 0 -270.5 -105t-139.5 -265zM565 1280l269 264h94l153 -264h-88l-123 221l-217 -221h-88z" />
<glyph unicode="&#xeb;" horiz-adv-x="1107" d="M215 506q121 584 606 584q329 0 329 -331q0 -96 -28 -220l-764 2q-23 -98 -32 -163q-6 -40 -6 -82q0 -25 3 -50q5 -68 33.5 -107t89 -63.5t154.5 -24.5q199 0 348 166l76 -72q-190 -178 -442 -178q-258 0 -339 137q-49 84 -49 213q0 85 21 189zM391 625l631 2 q10 64 10 117q0 251 -229 251h-2q-168 0 -270.5 -105t-139.5 -265zM549 1298l35 166h135l-35 -166h-135zM549 1298l35 166h135l-35 -166h-135zM969 1298l35 166h137l-35 -166h-137zM969 1298l35 166h137l-35 -166h-137z" />
<glyph unicode="&#xec;" horiz-adv-x="534" d="M45 0l8 43l172 39l191 895l-156 39l8 43h303l-206 -977l155 -39l-8 -43h-467zM461 1538h160l53 -229h-86z" />
<glyph unicode="&#xed;" horiz-adv-x="534" d="M45 0l8 43l172 39l191 895l-156 39l8 43h303l-206 -977l155 -39l-8 -43h-467zM416 1309l149 229h164q-203 -209 -227 -229h-86z" />
<glyph unicode="&#xee;" horiz-adv-x="534" d="M45 0l8 43l172 39l191 895l-156 39l8 43h303l-206 -977l155 -39l-8 -43h-467zM279 1280l268 264h94l154 -264h-88l-123 221l-217 -221h-88z" />
<glyph unicode="&#xef;" horiz-adv-x="534" d="M45 0l8 43l172 39l191 895l-156 39l8 43h303l-206 -977l155 -39l-8 -43h-467zM262 1298l35 166h135l-35 -166h-135zM262 1298l35 166h135l-35 -166h-135zM682 1298l35 166h137l-35 -166h-137zM682 1298l35 166h137l-35 -166h-137z" />
<glyph unicode="&#xf1;" horiz-adv-x="1218" d="M18 0l9 45l172 33l190 899q-18 4 -74.5 17.5t-85.5 19.5l9 45h286l-16 -209q84 104 205 172t245 68q154 0 216 -113q36 -64 36 -165q0 -76 -20 -173l-119 -557l156 -37l-8 -45h-295l137 653q15 66 15 120q0 75 -29 126q-48 88 -173 88q-139 0 -265 -94t-150 -217 l-127 -594l162 -39l-9 -43h-467zM612 1356l17 88q41 41 127 41q53 0 154.5 -29t158.5 -29q84 0 133 21l-16 -78q-70 -47 -137 -47q-61 0 -159.5 26.5t-162.5 26.5q-62 0 -115 -20z" />
<glyph unicode="&#xf2;" horiz-adv-x="1198" d="M216 319q-2 24 -2 49q0 81 22 167q59 279 201.5 418t404.5 139q410 0 410 -365q0 -86 -23 -192q-59 -291 -198.5 -430.5t-409.5 -139.5q-135 0 -227.5 46t-130.5 125t-47 183zM356 344v-15q0 -72 18 -117q19 -50 43.5 -83t66.5 -47t76 -18.5t81 -4.5q51 0 82 3.5t89 29 t99 71.5t86 141t74 231q20 94 24 169q1 21 1 41q0 47 -6 81q-9 48 -33.5 83t-47 51.5t-62.5 25.5t-63.5 10t-62.5 1h-50q-15 0 -51 -4t-55.5 -11t-53 -23.5t-54 -38t-49.5 -57.5t-49.5 -81t-41 -108t-36.5 -139q-23 -109 -25 -191zM793 1538h159l54 -229h-86z" />
<glyph unicode="&#xf3;" horiz-adv-x="1198" d="M216 319q-2 24 -2 49q0 81 22 167q59 279 201.5 418t404.5 139q410 0 410 -365q0 -86 -23 -192q-59 -291 -198.5 -430.5t-409.5 -139.5q-135 0 -227.5 46t-130.5 125t-47 183zM356 344v-15q0 -72 18 -117q19 -50 43.5 -83t66.5 -47t76 -18.5t81 -4.5q51 0 82 3.5t89 29 t99 71.5t86 141t74 231q20 94 24 169q1 21 1 41q0 47 -6 81q-9 48 -33.5 83t-47 51.5t-62.5 25.5t-63.5 10t-62.5 1h-50q-15 0 -51 -4t-55.5 -11t-53 -23.5t-54 -38t-49.5 -57.5t-49.5 -81t-41 -108t-36.5 -139q-23 -109 -25 -191zM743 1309q29 41 150 229h164 q-203 -209 -228 -229h-86z" />
<glyph unicode="&#xf4;" horiz-adv-x="1198" d="M216 319q-2 24 -2 49q0 81 22 167q59 279 201.5 418t404.5 139q410 0 410 -365q0 -86 -23 -192q-59 -291 -198.5 -430.5t-409.5 -139.5q-135 0 -227.5 46t-130.5 125t-47 183zM356 344v-15q0 -72 18 -117q19 -50 43.5 -83t66.5 -47t76 -18.5t81 -4.5q51 0 82 3.5t89 29 t99 71.5t86 141t74 231q20 94 24 169q1 21 1 41q0 47 -6 81q-9 48 -33.5 83t-47 51.5t-62.5 25.5t-63.5 10t-62.5 1h-50q-15 0 -51 -4t-55.5 -11t-53 -23.5t-54 -38t-49.5 -57.5t-49.5 -81t-41 -108t-36.5 -139q-23 -109 -25 -191zM610 1280l269 264h94l153 -264h-88 l-123 221l-217 -221h-88z" />
<glyph unicode="&#xf5;" horiz-adv-x="1198" d="M216 319q-2 24 -2 49q0 81 22 167q59 279 201.5 418t404.5 139q410 0 410 -365q0 -86 -23 -192q-59 -291 -198.5 -430.5t-409.5 -139.5q-135 0 -227.5 46t-130.5 125t-47 183zM356 344v-15q0 -72 18 -117q19 -50 43.5 -83t66.5 -47t76 -18.5t81 -4.5q51 0 82 3.5t89 29 t99 71.5t86 141t74 231q20 94 24 169q1 21 1 41q0 47 -6 81q-9 48 -33.5 83t-47 51.5t-62.5 25.5t-63.5 10t-62.5 1h-50q-15 0 -51 -4t-55.5 -11t-53 -23.5t-54 -38t-49.5 -57.5t-49.5 -81t-41 -108t-36.5 -139q-23 -109 -25 -191zM602 1356l16 88q41 41 127 41 q53 0 154.5 -29t159.5 -29q84 0 133 21l-16 -78q-70 -47 -138 -47q-61 0 -159.5 26.5t-161.5 26.5q-62 0 -115 -20z" />
<glyph unicode="&#xf6;" horiz-adv-x="1198" d="M216 319q-2 24 -2 49q0 81 22 167q59 279 201.5 418t404.5 139q410 0 410 -365q0 -86 -23 -192q-59 -291 -198.5 -430.5t-409.5 -139.5q-135 0 -227.5 46t-130.5 125t-47 183zM356 344v-15q0 -72 18 -117q19 -50 43.5 -83t66.5 -47t76 -18.5t81 -4.5q51 0 82 3.5t89 29 t99 71.5t86 141t74 231q20 94 24 169q1 21 1 41q0 47 -6 81q-9 48 -33.5 83t-47 51.5t-62.5 25.5t-63.5 10t-62.5 1h-50q-15 0 -51 -4t-55.5 -11t-53 -23.5t-54 -38t-49.5 -57.5t-49.5 -81t-41 -108t-36.5 -139q-23 -109 -25 -191zM594 1298l35 166h135l-35 -166h-135z M594 1298l35 166h135l-35 -166h-135zM1014 1298l35 166h137l-35 -166h-137zM1014 1298l35 166h137l-35 -166h-137z" />
<glyph unicode="&#xf8;" horiz-adv-x="1198" d="M216 319q-2 24 -2 49q0 81 22 167q59 279 201.5 418t404.5 139q410 0 410 -365q0 -86 -23 -192q-59 -291 -198.5 -430.5t-409.5 -139.5q-135 0 -227.5 46t-130.5 125t-47 183zM293 -41l864 1133h33l-864 -1131q-16 0 -19.5 -1t-13.5 -1zM356 344v-15q0 -72 18 -117 q19 -50 43.5 -83t66.5 -47t76 -18.5t81 -4.5q51 0 82 3.5t89 29t99 71.5t86 141t74 231q20 94 24 169q1 21 1 41q0 47 -6 81q-9 48 -33.5 83t-47 51.5t-62.5 25.5t-63.5 10t-62.5 1h-50q-15 0 -51 -4t-55.5 -11t-53 -23.5t-54 -38t-49.5 -57.5t-49.5 -81t-41 -108 t-36.5 -139q-23 -109 -25 -191z" />
<glyph unicode="&#xf9;" horiz-adv-x="1216" d="M231 1016l9 43h292l-143 -676q-20 -81 -20 -143q0 -59 18 -100q37 -85 166 -85q145 0 283.5 100.5t173.5 260.5l120 567l-219 35l9 41h358l-207 -977l156 -39l-8 -43h-287l16 199q-80 -106 -209 -171t-241 -65q-150 0 -221 104q-42 61 -42 165q0 74 21 169l123 576z M803 1538h160l53 -229h-86z" />
<glyph unicode="&#xfa;" horiz-adv-x="1216" d="M231 1016l9 43h292l-143 -676q-20 -81 -20 -143q0 -59 18 -100q37 -85 166 -85q145 0 283.5 100.5t173.5 260.5l120 567l-219 35l9 41h358l-207 -977l156 -39l-8 -43h-287l16 199q-80 -106 -209 -171t-241 -65q-150 0 -221 104q-42 61 -42 165q0 74 21 169l123 576z M752 1309l149 229h164q-203 -209 -227 -229h-86z" />
<glyph unicode="&#xfb;" horiz-adv-x="1216" d="M231 1016l9 43h292l-143 -676q-20 -81 -20 -143q0 -59 18 -100q37 -85 166 -85q145 0 283.5 100.5t173.5 260.5l120 567l-219 35l9 41h358l-207 -977l156 -39l-8 -43h-287l16 199q-80 -106 -209 -171t-241 -65q-150 0 -221 104q-42 61 -42 165q0 74 21 169l123 576z M621 1280l268 264h94l154 -264h-88l-123 221l-217 -221h-88z" />
<glyph unicode="&#xfc;" horiz-adv-x="1216" d="M231 1016l9 43h292l-143 -676q-20 -81 -20 -143q0 -59 18 -100q37 -85 166 -85q145 0 283.5 100.5t173.5 260.5l120 567l-219 35l9 41h358l-207 -977l156 -39l-8 -43h-287l16 199q-80 -106 -209 -171t-241 -65q-150 0 -221 104q-42 61 -42 165q0 74 21 169l123 576z M604 1298l35 166h135l-35 -166h-135zM604 1298l35 166h135l-35 -166h-135zM1024 1298l35 166h137l-35 -166h-137zM1024 1298l35 166h137l-35 -166h-137z" />
<glyph unicode="&#xfd;" horiz-adv-x="1167" d="M178 1012l8 47h459l-8 -41l-178 -37l155 -987l529 981l-162 39l8 45h459l-8 -41l-156 -35l-762 -1339l174 -37l-10 -45h-467l8 43l166 33l135 243l-206 1102zM727 1309q29 41 150 229h163q-203 -209 -227 -229h-86z" />
<glyph unicode="&#xff;" horiz-adv-x="1167" d="M178 1012l8 47h459l-8 -41l-178 -37l155 -987l529 981l-162 39l8 45h459l-8 -41l-156 -35l-762 -1339l174 -37l-10 -45h-467l8 43l166 33l135 243l-206 1102zM580 1298l34 166h136l-35 -166h-135zM580 1298l34 166h136l-35 -166h-135zM999 1298l35 166h137l-34 -166h-138 zM999 1298l35 166h137l-34 -166h-138z" />
<glyph unicode="&#x152;" horiz-adv-x="2932" d="M274 729q80 373 320.5 567.5t611.5 200.5q395 -6 540 -197q94 -122 94 -325q0 -111 -28 -246q-74 -350 -305 -560t-628 -210q-632 0 -632 529q0 109 27 241zM405 527v-25q0 -77 11 -134q12 -65 44 -117t63.5 -85t79.5 -56.5t83 -35t83 -17.5t69 -6h52h9q33 0 62.5 2 t101.5 15.5t132 37t139 73.5t139.5 120t116 181.5t83.5 250.5q25 111 25 204t-16.5 158.5t-52.5 118t-70.5 85t-88 55t-88 33t-86 16.5t-66.5 6h-44q-37 0 -68 -2t-100.5 -15.5t-126.5 -37t-132 -73.5t-133.5 -119.5t-111.5 -180.5t-84 -248q-23 -111 -25 -204zM1783 0l8 43 l168 37l279 1304l-154 37l9 43h1011l-82 -286h-39l9 200h-625l-127 -590h532l-18 -88h-532l-129 -612h692l67 158h39l-51 -246h-1057z" />
<glyph unicode="&#x153;" horiz-adv-x="2305" d="M216 318q-2 25 -2 50q0 81 22 167q59 279 201.5 418t404.5 139q410 0 410 -365q0 -86 -23 -192q-59 -291 -198.5 -430.5t-409.5 -139.5q-135 0 -227.5 46t-130.5 125t-47 182zM356 344v-15q0 -72 18 -117q19 -50 43.5 -83t66.5 -47t76 -18.5t81 -4.5q51 0 82 3.5t89 29 t99 71.5t86 141t74 231q20 94 23 169q2 21 2 41q0 47 -6 81q-9 48 -33.5 83t-47 51.5t-62.5 25.5t-63.5 10t-62.5 1h-50q-15 0 -51 -4t-55.5 -11t-53 -23.5t-54 -38t-49.5 -57.5t-49.5 -81t-41 -108t-36.5 -139q-23 -109 -25 -191zM1413 506q121 584 606 584q329 0 329 -331 q0 -96 -28 -220l-764 2q-23 -98 -32 -163q-6 -40 -6 -82q0 -25 2 -50q6 -68 34.5 -107t89 -63.5t154.5 -24.5q199 0 348 166l76 -72q-190 -178 -442 -178q-258 0 -339 137q-49 84 -49 213q0 85 21 189zM1589 625l631 2q10 64 10 117q0 251 -229 251h-2q-168 0 -270.5 -105 t-139.5 -265z" />
<glyph unicode="&#x178;" horiz-adv-x="1454" d="M287 1423l10 43h434l-10 -41l-164 -30l317 -762l650 762l-140 30l11 41h428l-11 -41l-145 -34l-739 -846l-99 -465l150 -37l-8 -43h-455l8 43l166 37l98 465l-366 846zM809 1706l35 166h135l-35 -166h-135zM809 1706l35 166h135l-35 -166h-135zM1229 1706l35 166h137 l-35 -166h-137zM1229 1706l35 166h137l-35 -166h-137z" />
<glyph unicode="&#x2c6;" horiz-adv-x="501" d="M268 1280l269 264h94l153 -264h-88l-123 221l-217 -221h-88z" />
<glyph unicode="&#x2dc;" horiz-adv-x="454" d="M252 1356l16 88q41 41 127 41q53 0 154.5 -29t159.5 -29q84 0 133 21l-17 -78q-70 -47 -137 -47q-61 0 -159.5 26.5t-161.5 26.5q-62 0 -115 -20z" />
<glyph unicode="&#x2000;" horiz-adv-x="1008" />
<glyph unicode="&#x2001;" horiz-adv-x="2017" />
<glyph unicode="&#x2002;" horiz-adv-x="1008" />
<glyph unicode="&#x2003;" horiz-adv-x="2017" />
<glyph unicode="&#x2004;" horiz-adv-x="672" />
<glyph unicode="&#x2005;" horiz-adv-x="504" />
<glyph unicode="&#x2006;" horiz-adv-x="336" />
<glyph unicode="&#x2007;" horiz-adv-x="336" />
<glyph unicode="&#x2008;" horiz-adv-x="252" />
<glyph unicode="&#x2009;" horiz-adv-x="403" />
<glyph unicode="&#x200a;" horiz-adv-x="112" />
<glyph unicode="&#x2010;" horiz-adv-x="815" d="M246 518l22 105h576l-23 -105h-575z" />
<glyph unicode="&#x2011;" horiz-adv-x="815" d="M246 518l22 105h576l-23 -105h-575z" />
<glyph unicode="&#x2012;" horiz-adv-x="815" d="M246 518l22 105h576l-23 -105h-575z" />
<glyph unicode="&#x2013;" horiz-adv-x="1024" d="M131 518l23 105h1024l-23 -105h-1024z" />
<glyph unicode="&#x2014;" horiz-adv-x="2048" d="M401 518l23 105h1554l-22 -105h-1555z" />
<glyph unicode="&#x2018;" horiz-adv-x="569" d="M399 918q2 109 25 204q72 324 299 355l-18 -80q-43 -4 -78 -25.5t-55.5 -45t-38 -70t-26 -77t-20.5 -87.5h129l-36 -174h-181z" />
<glyph unicode="&#x2019;" horiz-adv-x="569" d="M377 920l16 73q45 4 80 26.5t54.5 45t38 73t24.5 76.5l20 91h-123l37 174h178q-10 -133 -28 -209q-61 -307 -297 -350z" />
<glyph unicode="&#x201a;" horiz-adv-x="569" d="M106 -383l15 72q45 4 81 27.5t54 45t37.5 75.5t25 74.5t21.5 88.5h-123l35 172h178q-10 -141 -27 -203q-35 -170 -115.5 -254t-181.5 -98z" />
<glyph unicode="&#x201c;" horiz-adv-x="901" d="M365 918q2 111 22 204q39 170 121 255.5t180 99.5l-16 -78q-57 -8 -95 -34t-63 -76t-35 -87t-26 -110h127l-37 -174h-178zM788 918q14 150 29 204q70 324 297 355l-16 -78q-43 -6 -78 -27.5t-55.5 -46.5t-38 -69t-25.5 -75.5t-20 -88.5h123l-37 -174h-179z" />
<glyph unicode="&#x201d;" horiz-adv-x="909" d="M336 920l16 73q45 4 79 25.5t54.5 46.5t39 73t26.5 77.5t20 89.5h-122l36 174h179q-16 -158 -29 -209q-59 -303 -299 -350zM764 920l16 73q45 4 80 26.5t54.5 45t38 73t24.5 76.5l20 91h-127l37 174h180q0 -90 -26 -209q-61 -309 -297 -350z" />
<glyph unicode="&#x201e;" horiz-adv-x="997" d="M98 -383l15 72q45 4 79.5 27.5t54 45t38 75.5t23.5 75l22 88h-121l35 172h176q-6 -120 -25 -203q-35 -170 -115.5 -254t-181.5 -98zM563 -383l15 72q55 6 93 32.5t61.5 75.5t34.5 90t24 111q-16 0 -57.5 1t-61.5 1l35 172h178q-2 -115 -23 -203q-33 -172 -115.5 -255 t-183.5 -97z" />
<glyph unicode="&#x2022;" horiz-adv-x="1024" d="M160 745.5q0 153.5 108.5 262t262 108.5t262 -108.5t108.5 -262t-108.5 -262t-262 -108.5t-262 108.5t-108.5 262z" />
<glyph unicode="&#x2026;" horiz-adv-x="1665" d="M188 -2l37 172h174l-37 -172h-174zM791 -2l36 172h174l-36 -172h-174zM1393 -2l37 172h172l-37 -172h-172z" />
<glyph unicode="&#x202f;" horiz-adv-x="403" />
<glyph unicode="&#x2039;" horiz-adv-x="626" d="M262 578q6 25 35 40l399 248q-16 -80 -43 -92l-319 -196q158 -137 229 -189q29 -27 10 -102l-292 250q-23 16 -19 41z" />
<glyph unicode="&#x203a;" horiz-adv-x="636" d="M213 287q18 80 55 102q29 16 149 89t158 100l-233 196q-13 7 -13 36q0 22 7 56l297 -248q15 -10 15 -28q0 -6 -1 -12q-4 -25 -35 -41z" />
<glyph unicode="&#x2044;" horiz-adv-x="710" d="M-31 -41l1055 1583h35l-1057 -1581q-14 0 -17.5 -1t-15.5 -1z" />
<glyph unicode="&#x205f;" horiz-adv-x="504" />
<glyph unicode="&#x20ac;" horiz-adv-x="1259" d="M199 557l39 43h118q31 201 74 342h-149l36 43h125q242 590 715 590q152 0 385 -72l-29 -127q-213 109 -374 109q-49 0 -91 -7.5t-101.5 -38t-113 -80.5t-114 -146.5t-111.5 -227.5h514l-24 -43h-500q-8 -39 -21.5 -90t-19.5 -79t-14 -73t-15 -100h400q-12 -29 -21 -43 h-383q4 -123 36 -214t69 -134t86 -67.5t74.5 -28.5t50.5 -4h6q217 0 448 157l-30 -143q-205 -123 -441 -123q-211 0 -337 147.5t-138 409.5h-149z" />
<glyph unicode="&#x2122;" horiz-adv-x="3137" d="M326 1221l32 245h1248l-76 -245h-43l-2 157h-445l-276 -1298l151 -37l-8 -43h-456l8 43l170 37l276 1298h-463l-73 -157h-43zM1349 0l8 43l168 37l277 1306l-154 37l10 43h365l260 -1099q8 -31 24.5 -42.5t38 0t41.5 42.5l717 1099h346l-10 -43l-168 -37l-276 -1304 l157 -39l-10 -43h-461l9 43l170 37l266 1237l-758 -1145h-152l-294 1149l-265 -1243l160 -35l-8 -43h-461z" />
<glyph unicode="&#xe000;" horiz-adv-x="1060" d="M0 1060h1060v-1060h-1060v1060z" />
<glyph unicode="&#xfb01;" horiz-adv-x="1282" d="M63 0l9 41l170 33l190 897h-162l19 88h162l41 190q47 213 178 321.5t303 108.5q27 0 51.5 -1t48 -6t39.5 -8t39 -11t33 -12.5l33 -15.5l28 -14q6 -3 30.5 -17.5t29.5 -16.5l16 72h180l-39 -183h-207q-51 51 -128.5 89t-153.5 38q-145 0 -234.5 -108.5t-120.5 -243.5 l-38 -182h794l-209 -983l154 -35l-8 -41h-463l8 41l168 33l190 897h-651l-190 -895l164 -35l-9 -41h-465z" />
<glyph unicode="&#xfb02;" horiz-adv-x="1273" d="M80 0l8 43l170 39l188 891h-180l21 90h180l39 182q51 246 172 343.5t313 97.5q98 0 177 -16.5t148.5 -55.5t97.5 -119q15 -42 15 -94q0 -47 -12 -101l-258 -1218q23 -8 77 -20.5t77 -18.5l-8 -43h-463l8 43l168 39l258 1218q8 37 8 69q0 87 -62 139q-85 71 -237 71 q-154 -4 -232.5 -92t-109.5 -242l-39 -182h260l-20 -90h-260l-189 -891l158 -39l-8 -43h-465z" />
<glyph unicode="&#xfb03;" horiz-adv-x="1775" d="M27 0l8 43l172 39l192 891h-176l21 88h176l18 94q55 250 175 346t327 96q94 0 213 -63l-61 -221h-41l-2 157q-80 20 -131 21q-45 0 -84 -6t-68 -12.5t-53.5 -26t-40 -29.5t-31.5 -41l-23 -44q-8 -13 -19 -55t-14 -56.5t-16 -65.5l-18 -94h264l-20 -88h-265l-188 -895 l160 -35l-8 -43h-467zM670 0l8 43l172 39l192 891h-176l21 88h176l18 94q55 250 175 346t327 96q94 0 213 -63l-61 -221h-41l-2 157q-80 20 -131 21q-45 0 -84 -6t-68 -12.5t-53.5 -26t-40 -29.5t-31.5 -41l-24 -44q-7 -13 -18 -55t-14 -56.5t-16 -65.5l-18 -94h264l-20 -88 h-265l-188 -895l160 -35l-8 -43h-467zM1306 0l9 43l172 39l190 895l-155 39l8 43h303l-207 -977l156 -39l-9 -43h-467zM1743 1454l37 174h174l-37 -174h-174z" />
<glyph unicode="&#xfb04;" horiz-adv-x="1775" d="M27 0l8 43l172 39l192 891h-176l21 88h176l18 94q55 250 175 346t327 96q94 0 213 -63l-61 -221h-41l-2 157q-80 20 -131 21q-45 0 -84 -6t-68 -12.5t-53.5 -26t-40 -29.5t-31.5 -41l-23 -44q-8 -13 -19 -55t-14 -56.5t-16 -65.5l-18 -94h264l-20 -88h-265l-188 -895 l160 -35l-8 -43h-467zM670 0l8 43l172 39l192 891h-176l21 88h176l18 94q55 250 175 346t327 96q94 0 213 -63l-61 -221h-41l-2 157q-80 20 -131 21q-45 0 -84 -6t-68 -12.5t-53.5 -26t-40 -29.5t-31.5 -41l-24 -44q-7 -13 -18 -55t-14 -56.5t-16 -65.5l-18 -94h264l-20 -88 h-265l-188 -895l160 -35l-8 -43h-467zM1309 0l8 43l170 39l311 1464q-119 29 -154 39l9 43h303l-328 -1546l154 -39l-9 -43h-464z" />
</font>
</defs>
</svg>
