<?xml version="1.0" standalone="no"?>
<!DOCTYPE svg PUBLIC "-//W3C//DTD SVG 1.1//EN" "http://www.w3.org/Graphics/SVG/1.1/DTD/svg11.dtd" >
<svg xmlns="http://www.w3.org/2000/svg">
<metadata>
This is a custom SVG webfont generated by Font Squirrel.
Copyright   : Copyright c 2011 Oriol Esparraguera Font hiparqinkcomwwwparqinkcomwith Reserved Font Name Afta
Designer    : parqink
Foundry     : Oriol Esparraguera Font
</metadata>
<defs>
<font id="AftaserifRegular" horiz-adv-x="1198" >
<font-face units-per-em="2048" ascent="1638" descent="-410" />
<missing-glyph horiz-adv-x="577" />
<glyph unicode=" "  horiz-adv-x="577" />
<glyph unicode="&#x09;" horiz-adv-x="577" />
<glyph unicode="&#xa0;" horiz-adv-x="577" />
<glyph unicode="!" horiz-adv-x="581" d="M213 -2v172h174v-172h-174zM221 1059v436h146v-436l-52 -602h-43z" />
<glyph unicode="&#x22;" horiz-adv-x="931" d="M289 1010v485h94v-485h-94zM600 1010v485h94v-485h-94z" />
<glyph unicode="#" horiz-adv-x="1216" d="M115 459v63h250l69 418h-266v64h276l74 450h96l-77 -450h344l73 450h97l-78 -450h194v-64h-206l-70 -418h211v-63h-217q-18 -82 -40 -232.5t-38 -224.5h-92l73 457h-344q-37 -258 -73 -457h-95l76 457h-237zM457 522h342l35 209l34 209h-342q-10 -76 -34.5 -209 t-34.5 -209z" />
<glyph unicode="$" horiz-adv-x="1239" d="M141 82v133q229 -152 490 -158v660q-248 72 -369 174t-121 264q0 139 129 250t361 133v141h63v-141q295 -18 439 -96v-103q-205 96 -439 113v-629q111 -39 177.5 -69.5t148.5 -86t122 -133t40 -178.5q0 -92 -44 -164.5t-119 -117.5t-155 -72t-170 -41v-205h-63v203 q-174 6 -300 42t-190 81zM305 1153q0 -192 326 -315v614q-135 -27 -230.5 -106.5t-95.5 -192.5zM694 55q133 33 229.5 119t96.5 182q0 39 -8 72t-37 83t-100.5 100.5t-180.5 93.5v-650z" />
<glyph unicode="%" horiz-adv-x="2088" d="M229 1075q6 205 83 308.5t249 103.5q94 0 159.5 -33t98.5 -95.5t48.5 -128t19.5 -155.5q-4 -127 -36 -212t-85 -121.5t-99 -49t-104 -12.5q-328 0 -334 395zM313 1069q0 -346 248 -346q119 0 181.5 79t62.5 273q0 203 -63.5 284t-180.5 81q-121 0 -184.5 -81t-63.5 -290z M502 -39l1151 1555h104l-1151 -1555h-104zM1319 375q4 205 81 307t249 102q94 0 158.5 -32.5t98 -94t49 -128t17.5 -154.5q-2 -129 -30.5 -213t-81 -121t-98.5 -48t-111 -11q-68 0 -116 11t-101.5 48t-83 121t-31.5 213zM1401 367q0 -197 63.5 -276t184.5 -79q123 0 183 83 t60 280q0 209 -56 291t-187 82q-123 0 -185.5 -85t-62.5 -296z" />
<glyph unicode="&#x26;" horiz-adv-x="1554" d="M94 520q0 236 107.5 350.5t349.5 151.5q-45 195 -45 235q0 234 330 234q158 -2 240.5 -56.5t82.5 -177.5q0 -31 -16 -135q215 -37 310 -152.5t95 -342.5q0 -324 -256 -512q139 -61 226 -62q170 0 319 84v-108q-111 -61 -326 -62q-176 0 -325 92q-216 -96 -484 -96h-32 q-309 0 -442.5 140.5t-133.5 416.5zM229 528q0 -270 104.5 -374.5t340.5 -104.5q186 0 426 68q-324 311 -537 848q-96 -23 -150.5 -46.5t-100.5 -70.5t-64.5 -124t-18.5 -196zM598 1225q0 -100 75 -272.5t163 -325.5q80 154 116.5 231.5t72.5 184t36 182.5q0 104 -59.5 140 t-165.5 36q-119 0 -178.5 -35t-59.5 -141zM868 539q100 -154 156.5 -221.5t146.5 -141.5q240 115 240 459q0 139 -34 222t-90 122t-165 76q-76 -223 -254 -516z" />
<glyph unicode="'" horiz-adv-x="585" d="M266 1010v485h92v-485h-92z" />
<glyph unicode="(" horiz-adv-x="645" d="M133 551q0 260 116 522t296 469h73q-121 -186 -228 -456.5t-107 -534.5q0 -403 321 -987h-59q-45 51 -98.5 127t-132 211t-130 308t-51.5 341z" />
<glyph unicode=")" horiz-adv-x="630" d="M45 1542h74q414 -508 413 -991q0 -463 -411 -987h-64q102 199 159.5 323.5t112 313t54.5 350.5q0 143 -37 299t-96.5 293t-107.5 228t-97 171z" />
<glyph unicode="*" horiz-adv-x="673" d="M106 1114l218 109l-218 108l23 43l209 -110v233h51v-233l205 110l22 -43l-215 -108l215 -109l-22 -43l-205 111v-236h-51v236l-209 -111z" />
<glyph unicode="+" horiz-adv-x="1228" d="M121 475v86h465v481h92v-481h483v-86h-483v-473h-92v473h-465z" />
<glyph unicode="," horiz-adv-x="569" d="M188 -311q55 6 88 32.5t45.5 80t15.5 89t3 109.5h-123v172h178q16 -127 17 -203q0 -319 -224 -352v72z" />
<glyph unicode="-" horiz-adv-x="815" d="M137 518v105h576v-105h-576z" />
<glyph unicode="." horiz-adv-x="555" d="M217 -2v172h174v-172h-174z" />
<glyph unicode="/" horiz-adv-x="710" d="M12 -41l623 1583h96l-622 -1581q-16 0 -50.5 -1t-46.5 -1z" />
<glyph unicode="0" horiz-adv-x="1372" d="M135 712.5q0 186.5 35 328t90 223.5t136 132t158 67.5t169 17.5q571 0 571 -768q0 -186 -41 -327.5t-101 -218.5t-142 -125t-148.5 -61.5t-138.5 -13.5q-74 0 -142.5 13.5t-153.5 61.5t-146.5 125t-103.5 218t-42 327.5zM276 698q0 -647 447 -647q197 0 315.5 159 t118.5 503q0 676 -434 676q-215 0 -331 -159t-116 -532z" />
<glyph unicode="1" horiz-adv-x="886" d="M231 1333v64q23 16 72 44.5t74 47.5h164v-1407q25 -8 81 -20.5t80 -18.5v-43h-458v43l162 39v1296q-94 -10 -175 -45z" />
<glyph unicode="2" horiz-adv-x="1230" d="M88 0q2 119 33 218t77 171t120.5 138.5t147.5 111.5t175 98q272 139 272 363q0 119 -82.5 200.5t-248.5 90.5q-211 0 -353 -179q-2 -8 -11 -58t-17 -79h-43l-19 217q18 18 47 41t88.5 63t140.5 65.5t163 25.5q229 0 347.5 -109.5t118.5 -277.5q0 -305 -366 -484 q-399 -201 -420 -518h729l39 164h45l21 -262h-1004z" />
<glyph unicode="3" horiz-adv-x="1310" d="M106 41l17 233h43l35 -155q231 -70 395 -70q127 0 222 39t143.5 99.5t71 117.5t22.5 109q0 117 -110.5 217t-301.5 100h-174v98h174q180 0 257 81t77 208q0 111 -81 192t-241 81q-166 0 -413 -107q-4 -27 -17.5 -76t-17.5 -67q-12 0 -24.5 -2t-18.5 -2l-14 217 q274 135 505 135q201 0 338 -85t137 -255q0 -141 -87 -236.5t-216 -107.5q178 -25 289 -130.5t111 -260.5q0 -186 -169 -317.5t-450 -131.5q-356 0 -502 76z" />
<glyph unicode="4" horiz-adv-x="1425" d="M96 412v127l805 950h127v-989h334v-88h-334v-328l168 -41v-43h-471q0 8 -1 23.5t-1 19.5l166 39l2 330h-795zM164 500h727v880z" />
<glyph unicode="5" horiz-adv-x="1310" d="M111 111l16 227h43l35 -148q250 -112 429 -112h3q115 0 203 41t137 107.5t73.5 139t24.5 146.5q0 166 -107.5 279.5t-330.5 113.5q-145 0 -381 -86q-16 10 -54 31.5t-57 34.5q72 461 95 579h974q-2 -43 -12 -120.5t-12 -120.5h-41l-39 161h-748q-8 -68 -29.5 -223 t-29.5 -246q162 74 326 74q260 0 427 -128t167 -349q0 -242 -163 -377t-423 -135q-340 0 -526 111z" />
<glyph unicode="6" horiz-adv-x="1273" d="M127 729q0 205 45 355.5t127 237.5t183.5 127t226.5 40q47 0 95 -7t79.5 -13.5t82 -25t68.5 -26.5l77 -33l71 -32l-15 -217h-43l-34 147q-201 104 -381 104q-109 0 -198 -52t-141.5 -137t-80 -185.5t-27.5 -202.5q0 -113 6 -242q31 141 169 242.5t282 101.5 q275 0 410 -192q82 -117 82 -253q0 -53 -12 -108q-45 -207 -234 -309q-129 -69 -301 -69q-264 0 -400.5 167.5t-136.5 581.5zM293 449q0 -143 101.5 -265.5t267.5 -122.5q232 0 338 181q57 98 57 205q0 57 -16 117q-46 170 -196 227q-58 22 -126 22q-84 0 -159 -37t-122 -88 t-80.5 -106.5t-49 -91t-15.5 -41.5z" />
<glyph unicode="7" horiz-adv-x="1296" d="M193 1454h1005q0 -156 -94 -258l-336 -399q-117 -168 -117 -367v-428h-139v428q0 135 37 226.5t104 183.5l426 538h-737q-2 -35 -11 -115.5t-14 -117.5h-43z" />
<glyph unicode="8" horiz-adv-x="1255" d="M100 399q0 90 40 171t100.5 136.5t115 91.5t103.5 54q-43 18 -86 42t-95.5 62.5t-84 93t-31.5 111.5q0 156 126 241t359 85q231 0 354 -97.5t123 -242.5q0 -109 -70.5 -173.5t-217.5 -117.5q370 -174 370 -455q0 -211 -155.5 -323.5t-405.5 -112.5q-545 0 -545 434z M238 399q0 -170 122.5 -254t286.5 -84q172 0 293 92.5t121 245.5q0 184 -149 297t-339 127q-158 -49 -246.5 -158.5t-88.5 -265.5zM309 1180q0 -146 406 -269q27 6 83 34t120.5 89.5t64.5 126.5q0 86 -56.5 141.5t-127 73t-154.5 17.5q-125 0 -230.5 -53.5t-105.5 -159.5z " />
<glyph unicode="9" horiz-adv-x="1273" d="M130 1108q45 207 235 309q129 69 301 70q264 0 400 -168t136 -582q0 -205 -45 -355.5t-127 -237.5t-183.5 -127t-225.5 -40q-47 0 -95.5 7.5t-80 13.5t-82 24.5t-68.5 26.5l-77 34l-71 32l15 217h43l35 -148q201 -104 381 -104q109 0 197.5 52t141 137t80 185.5 t27.5 202.5q0 113 -6 242q-33 -145 -169 -244.5t-282 -99.5q-275 0 -410 192q-82 117 -82 253q0 53 12 108zM288 903q47 -170 196 -227q58 -22 126 -23q84 0 159 37t122 88t81 106.5t49 91.5t15 42q0 143 -101 265t-267 122q-233 0 -339 -181q-57 -98 -57 -204 q0 -57 16 -117z" />
<glyph unicode=":" horiz-adv-x="616" d="M240 -2v172h172v-172h-172zM240 887v172h172v-172h-172z" />
<glyph unicode=";" horiz-adv-x="628" d="M211 -311q43 4 72.5 25.5t45 46t22.5 72.5t8 78t1 89h-120v172h176q16 -127 16 -203q0 -168 -63.5 -252t-157.5 -98v70zM240 887v172h172v-172h-172z" />
<glyph unicode="&#x3c;" horiz-adv-x="1271" d="M121 459v110l1087 478v-109l-1036 -426l1055 -412v-104z" />
<glyph unicode="=" horiz-adv-x="1224" d="M121 262v84h1026v-84h-1026zM121 686v88h1026v-88h-1026z" />
<glyph unicode="&#x3e;" horiz-adv-x="1265" d="M92 -4v104l1055 412l-1036 426v109l1087 -478v-110z" />
<glyph unicode="?" horiz-adv-x="1230" d="M176 1468q180 66 393 66q227 0 366.5 -89t139.5 -271q0 -82 -39 -154t-81 -112t-113 -95q-8 -6 -37 -31l-39 -34l-35.5 -33.5t-35.5 -36.5l-31 -37q-21 -25 -30 -43l-21 -43q-13 -25 -19 -50.5t-8 -51.5h-82q10 147 74.5 241t160.5 168l72 62q23 20 56.5 61t48 87 t14.5 102q0 119 -89 187.5t-272 68.5q-137 0 -293 -54l25 -284h-43zM469 0v172h174v-172h-174z" />
<glyph unicode="@" horiz-adv-x="1673" d="M100 750q0 358 221.5 574t569.5 216q332 0 546 -165t214 -472q0 -193 -94.5 -333t-301.5 -140q-104 0 -167.5 40t-75.5 101q-27 -47 -82.5 -80.5t-122.5 -33.5q-238 0 -238 291q0 131 74 230t172 99q152 0 236 -149l32 133l103 -37q-41 -268 -41 -383q0 -125 123 -125 q111 0 169 113.5t58 290.5q0 168 -91 289.5t-226.5 177t-292.5 55.5q-37 0 -67 -2t-98.5 -15.5t-122.5 -37t-119.5 -75.5t-109.5 -122t-75 -183.5t-31 -254.5q0 -143 31 -257t74 -185.5t113.5 -123t126 -76t135 -38t117.5 -14.5t95 -1h15q303 0 647 195v-174 q-311 -115 -723 -115q-395 0 -598 213q-195 205 -195 547v27zM705 733q0 -172 141 -172q82 1 172 103l12 145q-37 90 -106 139q-35 19 -67 19q-47 0 -87 -43q-65 -70 -65 -191z" />
<glyph unicode="A" horiz-adv-x="1378" d="M-80 0q0 10 1 22.5t1 18.5l144 35l516 1308q-78 16 -164 41v41h409l490 -1390q27 -4 77 -17.5t68 -17.5q0 -12 1 -23.5t1 -17.5h-473q0 8 1 22.5t1 20.5l172 39l-147 475h-610l-193 -473q29 -8 90.5 -22.5t81.5 -20.5q0 -12 1 -23.5t1 -17.5h-469zM426 643h565l-274 743z " />
<glyph unicode="B" horiz-adv-x="1443" d="M53 0v45l158 37l4 1304l-162 37v43h633q283 0 409 -99t126 -263q0 -258 -334 -305q203 -14 338 -112.5t135 -287.5q0 -174 -146.5 -298t-447.5 -128q-57 2 -317.5 10.5t-395.5 16.5zM346 68l309 -15q25 -1 48 -1q269 0 377 85q118 92 118 279q0 158 -118.5 247t-313.5 89 h-420v-684zM346 842h324q209 0 302 61.5t93 200.5q0 274 -377 274h-342v-536z" />
<glyph unicode="C" horiz-adv-x="1433" d="M141 725q0 348 197 560t555 212q197 0 393 -65q-4 -47 -12 -131t-10 -127h-39l-35 174q-18 6 -57 18l-53 16q-14 4 -43 11.5t-47.5 10.5t-44 5t-52.5 2q-59 0 -131 -19.5t-155 -69.5t-149.5 -124t-112.5 -196.5t-48 -272.5q6 -129 38 -233.5t76 -172t102 -118.5 t111.5 -78t112 -42t93 -19.5t63.5 -4.5q201 0 407 160v-141q-59 -41 -172.5 -80t-234.5 -43q-242 0 -415 105.5t-255 276.5t-82 386z" />
<glyph unicode="D" horiz-adv-x="1437" d="M49 1421v43h526q195 0 347.5 -72.5t237.5 -187t128 -237.5t43 -242q0 -96 -20.5 -190.5t-75.5 -192.5t-137 -173t-216 -122t-304 -47h-529v43l160 37v1306zM344 1360v-1208q0 -49 6 -56.5t47 -7.5h183q78 0 154.5 18.5t156.5 65.5t140.5 116.5t99 182.5t38.5 254 q0 135 -38.5 247.5t-100 185.5t-140.5 123t-157 72.5t-153 22.5q-206 0 -225 -9q-6 -2 -11 -7z" />
<glyph unicode="E" horiz-adv-x="1204" d="M55 0v43l160 37l2 1304l-162 37v43h1012l-23 -286h-38l-35 200h-625v-590h533v-88h-533v-612h692l35 158h39v-246h-1057z" />
<glyph unicode="F" horiz-adv-x="1226" d="M59 0v45l158 37v1300l-158 37v45h1102l-6 -143q-4 -94 -8 -145h-45l-35 198h-719v-583h506v-103h-506v-610l162 -37v-41h-451z" />
<glyph unicode="G" horiz-adv-x="1667" d="M129 735q0 348 203 556t561 208q307 0 534 -76l-20 -247h-43l-35 165q-150 66 -440 66q-172 -10 -303 -84q-303 -180 -303 -600q0 -137 29.5 -245.5t70.5 -176.5t106.5 -117t116.5 -71.5t122 -36t102.5 -14.5t74.5 -1h8q301 0 494 125v357l-86 17q-35 7 -51.5 11t-22.5 7 v38h293v-540q-350 -117 -627 -117h-16q-768 0 -768 776z" />
<glyph unicode="H" horiz-adv-x="1576" d="M55 0v43l154 37v1306q-23 4 -77 17.5t-77 17.5v45h461v-43l-160 -37v-604h926v602l-164 41v41h457v-43l-158 -34l-2 -1307q131 -29 160 -37v-45h-457v43l160 37l4 610h-926v-612l160 -35v-43h-461z" />
<glyph unicode="I" horiz-adv-x="571" d="M80 0v43l153 37v1306q-23 4 -76 17.5t-75 17.5v45h438v-43l-155 -37v-1308l157 -35v-43h-442z" />
<glyph unicode="J" horiz-adv-x="598" d="M102 1423v43h457v-43l-162 -37l-6 -1433q0 -309 -246 -373v76q121 104 121 297v1433z" />
<glyph unicode="K" horiz-adv-x="1357" d="M53 0v43l160 37l2 1304q-100 20 -162 39v43h455v-43l-158 -34l-2 -781l649 768l-196 47v43h485v-43l-137 -32l-418 -492l545 -823q27 -4 76 -17.5t67 -17.5v-41h-446v41l153 31l-471 719l-307 -345v-366q131 -29 160 -37v-43h-455z" />
<glyph unicode="L" horiz-adv-x="1136" d="M55 43l160 37l2 1306l-162 37v43h455v-43l-158 -34l-2 -1250q0 -35 6 -40t45 -5h611q4 33 17 104.5t18 96.5h43l14 -295h-1047q0 8 -1 22.5t-1 20.5z" />
<glyph unicode="M" horiz-adv-x="1835" d="M45 1423v43h365l493 -1099q23 -47 53 -47l1 -1q30 0 51 48l483 1099h346v-43l-160 -37v-1304l166 -39l-2 -43h-461v43l162 37l4 1237l-514 -1145h-151l-541 1149v-1243l168 -35v-43h-461v43l160 37v1306z" />
<glyph unicode="N" horiz-adv-x="1517" d="M45 0q0 8 1 22.5t1 20.5l158 37l2 1306l-158 37v43h332l838 -1308v1308h292v-43l-159 -37v-1308l161 -35v-43h-317l-854 1337l-2 -1255q98 -20 162 -39q0 -12 1 -24.5t1 -18.5h-459z" />
<glyph unicode="O" horiz-adv-x="1728" d="M121 729q0 373 199.5 567.5t568.5 200.5q397 -6 583.5 -196.5t186.5 -571.5q0 -168 -43 -304t-132 -242.5t-240.5 -165t-354.5 -58.5q-403 0 -583.5 200.5t-184.5 569.5zM276 731q0 -143 31 -258t72 -184.5t109.5 -119.5t115.5 -71.5t123 -34t95 -12.5h67q33 0 62.5 2 t98 15.5t124 37t123 73.5t113.5 120t78 181.5t32 250.5q0 141 -32 254t-77 181.5t-115.5 118.5t-123 72.5t-125 35t-97 13.5t-63.5 1q-35 0 -65.5 -2t-97.5 -15.5t-120 -37t-117.5 -73.5t-107.5 -119.5t-73 -180.5t-30 -248z" />
<glyph unicode="P" horiz-adv-x="1302" d="M53 0v43l162 37l2 1306l-160 37v43h662q143 0 248.5 -37.5t163 -102t84 -136.5t26.5 -152q0 -76 -26.5 -145.5t-84 -133t-163 -101t-248.5 -37.5h-371v-539q96 -20 164 -39v-43h-459zM348 1376v-663h371q102 0 179 36.5t115 92t54 104.5t16 90q0 59 -16 114.5t-54 109 t-114 85t-180 31.5h-371z" />
<glyph unicode="Q" horiz-adv-x="1722" d="M121 723q0 373 199.5 567.5t568.5 200.5q397 -6 583.5 -196.5t186.5 -571.5q0 -332 -173 -536.5t-552 -233.5v-68q0 -135 83 -205.5t177 -80.5v-23q-115 6 -193.5 43t-112.5 90t-46.5 95t-12.5 83v66q-373 31 -538.5 228.5t-169.5 541.5zM276 725q0 -143 31 -258 t72 -184.5t109.5 -119.5t115.5 -71.5t123 -34t95 -12.5h67q33 0 62.5 2t98 15.5t124 37t123 73.5t112.5 119.5t77 181.5t32 251q0 111 -19.5 204t-49.5 158.5t-77 117.5t-88 85t-99.5 55.5t-95 33t-89 16.5t-69.5 6h-44q-35 0 -65.5 -2t-97.5 -15.5t-120 -37t-117.5 -73.5 t-107.5 -120t-73 -180.5t-30 -247.5z" />
<glyph unicode="R" horiz-adv-x="1396" d="M49 0v43l160 37l2 1306l-158 37v43h652q236 0 358.5 -105.5t122.5 -266.5q0 -262 -324 -334q61 -8 110.5 -49t71 -80t50.5 -105l180 -450l147 -35q0 -12 1 -23.5t1 -17.5h-456v43l176 39l-205 498q-37 72 -78 102.5t-110 30.5h-410v-635l33 -8q25 -6 131 -27 q0 -12 1 -24.5t1 -18.5h-457zM340 813h365q182 0 262 85t80 197.5t-84 196.5t-258 84h-365v-563z" />
<glyph unicode="S" horiz-adv-x="1245" d="M133 315h41l37 -147q186 -111 389 -111q168 0 282.5 85t114.5 206q0 47 -9 83t-42 89t-114.5 99.5t-208.5 78.5q-246 72 -366 168.5t-120 261.5q0 152 135.5 260.5t372.5 108.5q332 0 461 -84l-14 -217h-45l-35 147q-172 74 -369 74q-145 0 -245.5 -80t-100.5 -211 q0 -127 76 -190.5t243 -112.5q72 -20 121 -36.5t118 -46t116 -64.5t92 -82t67.5 -109.5t22.5 -136.5q0 -113 -56.5 -194.5t-147.5 -121.5t-177 -56.5t-172 -16.5q-289 0 -463 119q0 41 -2 118.5t-2 118.5z" />
<glyph unicode="T" horiz-adv-x="1302" d="M47 1466h1247l-22 -245h-43l-37 157h-444v-1298l159 -37v-43h-456v43l161 37v1298h-462l-39 -157h-43z" />
<glyph unicode="U" horiz-adv-x="1509" d="M37 1421v45h461v-43l-162 -34l-4 -768q0 -555 444 -555q432 0 432 555v765l-161 35v45h456l-2 -43l-158 -34l-6 -768q0 -70 -1 -107t-11 -117t-29.5 -127t-60.5 -111.5t-99.5 -100t-150.5 -62.5t-209 -27q-94 0 -172 16.5t-133 40t-99 64.5t-73 77t-48.5 93t-28.5 96 t-14 100.5t-6 93.5t-1 89v747z" />
<glyph unicode="V" horiz-adv-x="1439" d="M-47 1425v41h438v-43l-155 -32l464 -1317l467 1323l-135 28v41h434v-41l-147 -34l-520 -1391h-195l-508 1391z" />
<glyph unicode="W" horiz-adv-x="2189" d="M-53 1425v41h432v-43l-143 -30l485 -1315l342 1388h127l328 -1392l483 1319l-146 30v43h431v-41l-142 -34l-504 -1391h-206l-310 1321l-315 -1321h-207l-510 1391z" />
<glyph unicode="X" horiz-adv-x="1449" d="M8 0v43l139 33l525 680l-494 635l-139 34v41h457v-43l-156 -37l399 -530l408 537l-154 32v41h457v-41l-139 -34l-486 -635l510 -680q27 -4 75 -17.5t67 -17.5v-41h-457v43l168 41l-449 573l-444 -577l170 -39v-41h-457z" />
<glyph unicode="Y" horiz-adv-x="1454" d="M-14 1423v43h434v-41l-158 -30l479 -762l488 762l-146 30v41h428v-41l-139 -34l-559 -846v-465l158 -37v-43h-455v43l158 37v465l-547 846z" />
<glyph unicode="Z" horiz-adv-x="1382" d="M92 0v102l1084 1276h-983l-37 -155h-39l-25 243h1243l2 -94l-1075 -1270h977l74 193l22 -295h-1243z" />
<glyph unicode="[" horiz-adv-x="663" d="M184 -436v1972h478v-92h-324v-1790h324v-90h-478z" />
<glyph unicode="\" horiz-adv-x="710" d="M12 1542h97l622 -1583q-12 0 -46 1t-50 1z" />
<glyph unicode="]" horiz-adv-x="663" d="M31 -340h323v1784h-323v92h475v-1970h-475v94z" />
<glyph unicode="^" horiz-adv-x="1232" d="M131 590l471 874h111l456 -891h-102l-408 850l-421 -835z" />
<glyph unicode="_" horiz-adv-x="1024" d="M20 -246h1027v-39h-1027v39z" />
<glyph unicode="`" horiz-adv-x="454" d="M8 1538h160l102 -229h-86z" />
<glyph unicode="a" horiz-adv-x="1044" d="M94 305q0 139 77 226t255 87q170 0 220 8.5t93 47.5q0 145 -24.5 213.5t-70.5 88t-144 19.5q-131 0 -242 -34q0 -2 -12 -61l-21 -97h-47q-2 39 -6 110.5t-8 110.5q141 70 348 70q168 0 265 -90.5t97 -323.5v-596l164 -39v-45h-241l-64 131q-168 -143 -336 -143 q-147 0 -225 81t-78 236zM231 303q0 -113 65.5 -170t164.5 -57q147 0 280 127l4 360q-125 -33 -292 -33q-49 0 -76 -4t-67 -22.5t-59.5 -68.5t-19.5 -132z" />
<glyph unicode="b" horiz-adv-x="1140" d="M16 1583v45h301v-840q20 98 134 201t258 103q360 0 360 -529q0 -307 -120 -447.5t-380 -140.5q-143 0 -391 80v1491q-25 4 -82 18.5t-80 18.5zM313 129q158 -70 285 -70q102 0 171 45.5t100.5 126t43 157.5t11.5 175q0 436 -224 436q-92 0 -169.5 -58t-123 -142t-70 -165 t-24.5 -140v-365z" />
<glyph unicode="c" horiz-adv-x="1083" d="M127 541q0 299 140.5 425t412.5 126q182 0 336 -86l-6 -108q-4 -73 -9 -107h-43l-36 147q-137 59 -242 59q-88 0 -155.5 -17t-130 -63.5t-95.5 -139.5t-33 -232q0 -274 110.5 -378t303.5 -104q186 0 358 89l2 -119q-201 -63 -360 -64q-279 0 -416 139.5t-137 432.5z" />
<glyph unicode="d" horiz-adv-x="1206" d="M125 541q0 287 123 426t305 139q158 0 344 -70v512l-162 37q0 12 -1 25.5t-1 19.5h305l-2 -1552l168 -35v-43h-297l-20 186q-31 -92 -124 -148t-222 -56q-184 0 -300 133t-116 426zM274 543q0 -471 267 -471q354 0 354 389v459l-29 14q-180 78 -313 78q-279 0 -279 -469z " />
<glyph unicode="e" horiz-adv-x="1107" d="M109 506q0 584 481 584q420 0 420 -546v-5l-766 2q0 -100 4 -163t23.5 -132.5t55 -106.5t102.5 -62.5t161 -25.5q111 0 190.5 51.5t122.5 114.5l90 -72q-152 -178 -403 -178q-260 0 -368.5 137.5t-112.5 401.5zM260 625l629 2q-4 164 -77 266t-222 102q-166 0 -248 -106 t-82 -264z" />
<glyph unicode="f" horiz-adv-x="643" d="M18 973v88h177v94q0 248 99 345t308 97q94 0 225 -63l-14 -221h-41l-35 157q-82 20 -135 21q-82 0 -136 -18.5t-82 -41t-41 -74.5t-15 -88t-2 -114v-94h264v-88h-264v-895l168 -35v-43h-467v43l163 39l5 891h-177z" />
<glyph unicode="g" horiz-adv-x="1202" d="M100 535q0 279 109.5 418t370.5 139q154 0 238.5 -46.5t142.5 -140.5l10 154h231v-49l-139 -54v-979q0 -41 -3 -75.5t-28.5 -110.5t-72 -128t-145.5 -94t-236 -42q-254 0 -414 190l82 66q39 -41 96 -82q119 -82 236 -82q84 0 149.5 21.5t100 55.5t59 76t30 82t10.5 72.5 t-1 50.5v154q-59 -96 -134 -131t-192 -35q-262 0 -381 159t-119 411zM242 535q0 -129 23.5 -221.5t57 -140.5t87 -74.5t94.5 -33t96 -6.5q51 0 82 3.5t84 29t84 71.5t55.5 141t24.5 231q0 94 -13.5 168.5t-32 122.5t-50 82t-58 51.5t-67.5 26.5t-64.5 10t-64.5 1 q-43 0 -63.5 -1t-63.5 -9t-67 -24.5t-55.5 -49t-48 -81t-28.5 -124t-12 -173.5zM1202 1010l2 2z" />
<glyph unicode="h" horiz-adv-x="1228" d="M18 1585v45h299l2 -788q47 96 167 172t245 76q154 0 241 -113t87 -338l-4 -557l168 -37v-45h-461v43l162 39l4 571q0 160 -67.5 247t-190.5 87q-139 0 -245 -94t-106 -217v-594q25 -8 84.5 -20.5t83.5 -18.5v-43h-464v45l163 33v1470q-25 4 -83 18.5t-85 18.5z" />
<glyph unicode="i" horiz-adv-x="489" d="M20 0v43l164 39v895l-164 39v43h304v-977l163 -39v-43h-467zM150 1454v174h174v-174h-174z" />
<glyph unicode="j" horiz-adv-x="493" d="M20 1016v43h304v-1094q0 -90 -20.5 -161.5t-50.5 -113.5t-70 -72t-69.5 -41t-60.5 -17v92q131 125 131 293v1032zM152 1454v174h172v-174h-172z" />
<glyph unicode="k" horiz-adv-x="1140" d="M20 0v43l162 39v1464q-111 25 -162 39v43h306v-809q166 309 450 309q129 0 207 -82.5t78 -203.5q0 -211 -318 -430l256 -336l142 -33v-43h-465v43l160 33l-211 274l-125 -53v106q436 193 436 416q0 92 -55.5 148.5t-143.5 56.5q-135 0 -271 -129t-140 -281v-532 q25 -8 81 -20.5t80 -18.5v-43h-467z" />
<glyph unicode="l" horiz-adv-x="489" d="M23 0v43l161 39v1464q-111 25 -161 39v43h303v-1546l161 -39v-43h-464z" />
<glyph unicode="m" horiz-adv-x="1726" d="M16 1016v43h287l25 -205q49 98 150.5 168t201.5 70q86 0 151.5 -56.5t88.5 -185.5q51 100 159.5 171t223.5 71q131 0 191 -103.5t60 -324.5l5 -580l167 -43v-41h-296v676q0 162 -38 238.5t-153 76.5q-145 0 -221 -99t-76 -237v-573l160 -39v-43h-299v655q0 174 -40 255 t-145 81q-143 0 -223 -102.5t-80 -233.5v-571l170 -43v-41h-469v43l164 39v895z" />
<glyph unicode="n" horiz-adv-x="1218" d="M14 1014v45h287l27 -209q63 104 169.5 172t229.5 68q154 0 241 -113t87 -338v-557l164 -37v-45h-295v653q0 160 -68 247t-190 87q-139 0 -245 -94t-106 -217v-594l170 -39v-43h-467v45l164 33v899q-16 4 -76.5 17.5t-91.5 19.5z" />
<glyph unicode="o" d="M123 535q0 276 113.5 416.5t373.5 140.5q506 0 506 -557q0 -291 -109.5 -430.5t-377.5 -139.5q-262 0 -384 159t-122 411zM268 535q0 -129 23.5 -221.5t57.5 -140.5t87 -74.5t94 -33t99 -6.5q51 0 81.5 3.5t84 29t84 71.5t55 141t24.5 231q0 131 -24.5 223t-56 138 t-87 70.5t-89 27.5t-91.5 3q-39 0 -57 -1t-57 -5q-38 -4 -58 -16l-52 -33q-32 -21 -49.5 -55.5t-34.5 -81.5t-25.5 -115.5t-8.5 -154.5z" />
<glyph unicode="p" horiz-adv-x="1169" d="M18 1014v45h297v-242q57 121 165 197t259 76q170 0 253 -131.5t83 -462.5q0 -147 -35.5 -252t-100.5 -161t-137.5 -81t-160.5 -25q-158 0 -326 64v-401l160 -31v-45h-452v47l157 31v1335q-16 4 -74.5 17.5t-87.5 19.5zM315 152q160 -74 289 -74q100 0 172 39t105.5 104.5 t46.5 132.5q12 57 12 123v19q0 244 -53 373.5t-182 129.5q-92 0 -170 -57t-123 -139t-71 -164t-26 -143v-344z" />
<glyph unicode="q" horiz-adv-x="1159" d="M125 530q0 289 117.5 419t384.5 130q160 0 370 -88v-1345l162 -35v-45h-459v45l162 33v569q-45 -84 -149.5 -165t-231.5 -81q-356 0 -356 563zM256 530q0 -94 7 -165.5t28.5 -147.5t69.5 -117t120 -41q172 0 276.5 134.5t104.5 267.5v457q-148 79 -281 79h-3 q-322 0 -322 -467z" />
<glyph unicode="r" horiz-adv-x="794" d="M10 1016v43h271l51 -223q23 125 103.5 189.5t170.5 64.5q104 0 166 -29l-14 -246h-45l-37 162q-31 6 -70 6q-47 0 -80.5 -6t-78 -32.5t-72 -75t-47 -140.5t-19.5 -219v-432q94 -18 156 -35v-43h-447v43l152 35v899z" />
<glyph unicode="s" horiz-adv-x="1007" d="M119 76q0 2 1 14t5 68.5t8 152.5h43l37 -147q193 -92 326 -92q274 0 274 215q0 86 -103.5 138t-285.5 91q-139 29 -215 106.5t-76 186.5q0 39 14.5 80t50 87t112.5 75.5t184 29.5q182 0 391 -88q-2 -37 -3 -106.5t-5 -106.5h-46l-36 150q-177 65 -295 65h-4 q-100 0 -160 -38.5t-60 -147.5q0 -90 53.5 -127t190.5 -70q227 -51 330.5 -124.5t103.5 -194.5q0 -152 -111.5 -238t-301.5 -86q-135 0 -249 35t-173 72z" />
<glyph unicode="t" horiz-adv-x="720" d="M20 971v88h205q6 37 19.5 147.5t23.5 167.5h92v-315h275v-88h-275v-686q0 -137 21.5 -173t99.5 -36q74 0 148 35v-109q-100 -27 -199 -27q-106 0 -154.5 49.5t-48.5 188.5v758h-207z" />
<glyph unicode="u" horiz-adv-x="1216" d="M16 1016v43h293v-676q0 -166 52.5 -247t181.5 -81q145 0 262 100.5t117 260.5v567l-226 35v41h359v-977l164 -39v-43h-287l-25 199q-55 -106 -170.5 -171t-230.5 -65q-150 0 -242 104.5t-92 333.5v576z" />
<glyph unicode="v" horiz-adv-x="1132" d="M-29 1012v47h459v-43l-170 -41l318 -901l315 903l-141 37v45h432v-41l-152 -35l-377 -983h-161l-371 983z" />
<glyph unicode="w" horiz-adv-x="1626" d="M-59 1012v47h462v-47l-178 -31l215 -881l289 959h158l293 -959l215 881l-178 31v47h462v-47l-157 -29l-252 -983h-158l-303 987l-301 -987h-158l-252 983z" />
<glyph unicode="x" horiz-adv-x="1118" d="M12 0v41l146 35l329 456l-297 451l-139 35v41h398v-43l-117 -41l227 -357l238 359l-113 39v43h403v-41l-143 -35l-301 -448l328 -459l149 -35v-41h-403v43l104 41l-258 379l-254 -379l101 -41v-43h-398z" />
<glyph unicode="y" horiz-adv-x="1167" d="M-37 1012v47h459v-41l-170 -37l364 -987l320 981l-170 39v45h459v-41l-150 -35l-477 -1339l182 -37v-45h-467v43l158 33l84 243l-442 1102z" />
<glyph unicode="z" horiz-adv-x="978" d="M94 0v109l670 860h-567l-39 -162h-45l-15 252h838l2 -86l-672 -864h551l37 161h43l25 -270h-828z" />
<glyph unicode="{" horiz-adv-x="915" d="M135 508v94q168 66 178 209v317q0 211 123 312.5t305 101.5h140v-96h-119q-307 0 -307 -223v-410q0 -76 -33 -141.5t-96 -77.5v-78q68 -12 98.5 -71.5t30.5 -137.5v-430q0 -219 307 -219h119v-94h-140q-86 0 -159.5 22.5t-136 69.5t-97.5 134t-35 204v313q0 23 -4 43.5 t-13 36.5l-16 29q-8 14 -23 26l-23 20q-9 7 -28.5 16t-25.5 12l-25 10z" />
<glyph unicode="|" horiz-adv-x="468" d="M205 -479v2136h96v-2136h-96z" />
<glyph unicode="}" horiz-adv-x="909" d="M76 -342h119q309 0 309 219v430q0 182 129 207v78q-68 10 -98.5 76.5t-30.5 144.5v410q0 223 -309 223h-119v96h139q184 0 307 -101.5t123 -312.5v-315q0 -152 182 -211l-4 -96q-70 -29 -122 -80t-56 -119v-313q0 -227 -121 -328.5t-309 -101.5h-139v94z" />
<glyph unicode="~" horiz-adv-x="1228" d="M217 485q137 63 211 64q96 0 209 -28.5t221 -28.5q100 0 203 45v-93q-137 -57 -203 -57q-102 0 -218 27.5t-216 27.5q-72 0 -203 -39q0 20 -2 43t-2 39z" />
<glyph unicode="&#xa1;" horiz-adv-x="581" d="M217 885v172h174v-172h-174zM225 -4l51 602h43l52 -602v-436h-146v436z" />
<glyph unicode="&#xa2;" horiz-adv-x="1042" d="M109 539q0 260 135 402t346 142v154h67v-152q184 -16 342 -77l-16 -97q-174 76 -326 90v-944q213 20 361 93q0 -102 2 -121q-195 -55 -363 -62v-221h-67v225q-481 61 -481 568zM246 541q0 -215 91 -335t253 -145v943q-127 0 -235.5 -131t-108.5 -330v-2z" />
<glyph unicode="&#xa3;" d="M100 -2v88q227 33 228 332v317h-101v92h101v357q0 172 115.5 260t275.5 88q145 0 229 -53v-88q-111 51 -213 51q-145 0 -196.5 -82t-51.5 -223v-310h232v-92h-232v-317q0 -133 -165 -330l362 -20q201 0 304.5 87.5t115.5 243.5v4q0 172 -107 279q10 12 28.5 31.5 t25.5 25.5q129 -127 129 -336q0 -207 -140 -310q-129 -96 -315 -96q-14 0 -29 1h-596z" />
<glyph unicode="&#xa5;" horiz-adv-x="1413" d="M49 1497h170l502 -825l524 825h172l-543 -831h357v-84h-420v-346h420v-82h-420v-154h-154v154h-415v82h415v346h-415v84h350z" />
<glyph unicode="&#xa7;" horiz-adv-x="1179" d="M135 547q0 53 15.5 113.5t50.5 127t105.5 113.5t164.5 57q-90 45 -146.5 117t-56.5 139q0 139 79 225.5t288 86.5q207 0 395 -94l-20 -215q-10 0 -21.5 1t-17.5 1l-37 149q-221 70 -299 70q-102 0 -162.5 -37t-60.5 -144q0 -111 86 -194.5t266 -122.5q321 -72 321 -391 q0 -162 -80.5 -255t-259.5 -136q119 -39 197 -116t78 -169q0 -145 -117 -227t-303 -82q-227 0 -418 112l7 116q4 79 8 116h43l34 -148q168 -94 326 -94q127 0 203 44t76 163q0 100 -117 186t-266 86q-178 0 -269.5 112t-91.5 290zM276 590q0 -113 10.5 -171.5t50.5 -105.5 t116.5 -62t212.5 -15q113 0 194.5 86t81.5 225q0 84 -19.5 139t-49 88t-91 51.5t-120 23.5t-160.5 9q-86 0 -156 -82t-70 -186z" />
<glyph unicode="&#xa8;" horiz-adv-x="454" d="M-41 1298v166h135v-166h-135zM-41 1298v166h135v-166h-135zM379 1298v166h137v-166h-137zM379 1298v166h137v-166h-137z" />
<glyph unicode="&#xaa;" horiz-adv-x="567" d="M80 1077q0 154 162 154q82 0 108.5 4t44.5 22q0 100 -23.5 129t-92.5 29q-55 0 -119 -18q-4 -8 -17 -76h-22l-6 106q74 35 170 35q82 0 129 -44t47 -158v-291l80 -19v-22h-117l-31 63q-79 -69 -164 -69h-2q-147 0 -147 155zM147 1075q0 -55 31 -82.5t82 -27.5 q74 0 135 61l2 176q-63 -14 -141 -14q-25 0 -38 -2t-32.5 -11.5t-29 -35t-9.5 -64.5z" />
<glyph unicode="&#xab;" horiz-adv-x="1150" d="M133 578q0 25 25 40l348 248q0 -80 -25 -92l-276 -196q162 -123 268 -189q33 -25 33 -102l-346 250q-27 14 -27 41zM641 578q0 25 25 40l348 248q0 -80 -25 -92l-276 -196q162 -123 268 -189q33 -25 33 -102l-346 250q-27 14 -27 41z" />
<glyph unicode="&#xad;" horiz-adv-x="815" d="M137 518v105h576v-105h-576z" />
<glyph unicode="&#xb0;" horiz-adv-x="819" d="M139 1210q0 139 74 212t211 75q150 -2 218.5 -72.5t68.5 -214.5q0 -129 -70 -206.5t-217 -77.5q-285 0 -285 284zM197 1212q0 -74 21.5 -127t47 -76.5t65.5 -35.5t54 -13.5t39 -1.5q18 0 37.5 2.5t58.5 15.5t66.5 37.5t50 76t22.5 123t-22.5 124t-49 76t-67.5 36.5 t-58.5 14t-38 1t-38.5 -2t-56 -15t-63.5 -37t-47 -75t-21.5 -123z" />
<glyph unicode="&#xb2;" horiz-adv-x="753" d="M94 612q2 115 50.5 201t110.5 134t167 102q160 78 160 213q0 72 -49.5 120t-147.5 52q-119 0 -207 -105q0 -4 -7 -35l-11 -47h-25q-6 49 -10 129q8 12 39 37t93 51.5t126 26.5q135 0 205.5 -64.5t70.5 -164.5q0 -180 -217 -285q-240 -121 -247 -307h430l24 98h27l12 -156 h-594z" />
<glyph unicode="&#xb3;" horiz-adv-x="739" d="M59 647q4 94 11 135h24l21 -90q141 -41 229 -41q139 0 203.5 71t64.5 142q0 68 -64.5 126.5t-174.5 58.5h-103v57h103q194 0 194 168q0 65 -48 112.5t-140 47.5q-90 0 -242 -62l-18 -84q-8 0 -15.5 -1t-11.5 -1l-8 127q160 78 295 78q117 0 196.5 -50t79.5 -149 q0 -82 -50 -138t-126 -62q104 -12 169 -74t65 -154q0 -109 -98.5 -185.5t-262.5 -76.5q-203 0 -293 45z" />
<glyph unicode="&#xb4;" horiz-adv-x="454" d="M182 1309q5 10 101 229h163q-121 -162 -178 -229h-86z" />
<glyph unicode="&#xb7;" horiz-adv-x="593" d="M217 627v174h174v-174h-174z" />
<glyph unicode="&#xb8;" horiz-adv-x="501" d="M125 -401q49 -20 98 -21q125 0 125 113q0 123 -125 123q-43 0 -76 -9q6 6 19 32l38 75q25 49 48 88h14l-84 -160q27 3 52 3q82 0 128 -37q60 -48 60 -115q0 -133 -166 -150q-82 0 -131 17v41z" />
<glyph unicode="&#xb9;" horiz-adv-x="649" d="M231 1409v33q12 8 37 22.5t37 24.5h84v-719l82 -18v-23h-233v23l81 18v662q-45 -2 -88 -23z" />
<glyph unicode="&#xba;" horiz-adv-x="819" d="M139 1210q0 139 74 212t211 75q150 -2 218.5 -72.5t68.5 -214.5q0 -129 -70 -206.5t-217 -77.5q-285 0 -285 284zM197 1212q0 -74 21.5 -127t47 -76.5t65.5 -35.5t54 -13.5t39 -1.5q18 0 37.5 2.5t58.5 15.5t66.5 37.5t50 76t22.5 123t-22.5 124t-49 76t-67.5 36.5 t-58.5 14t-38 1t-38.5 -2t-56 -15t-63.5 -37t-47 -75t-21.5 -123z" />
<glyph unicode="&#xbb;" horiz-adv-x="1136" d="M162 287q0 78 33 102q106 66 268 189l-277 196q-24 12 -24 86v6l348 -248q25 -15 25 -40q0 -27 -27 -41zM670 287q0 78 32 102q106 66 269 189l-277 196q-24 12 -24 86v6l348 -248q24 -15 24 -40q0 -27 -26 -41z" />
<glyph unicode="&#xbc;" horiz-adv-x="3021" d="M231 1333v64q23 16 72 44.5t74 47.5h164v-1407q25 -8 81 -20.5t80 -18.5v-43h-458v43l162 39v1296q-94 -10 -175 -45zM863 -41l719 1583h35l-719 -1581q-16 0 -19.5 -1t-15.5 -1zM1692 412v127l805 950h127v-989h334v-88h-334v-328l168 -41v-43h-471q0 8 -1 23.5t-1 19.5 l166 39l2 330h-795zM1760 500h727v880z" />
<glyph unicode="&#xbd;" horiz-adv-x="2826" d="M231 1333v64q23 16 72 44.5t74 47.5h164v-1407q25 -8 81 -20.5t80 -18.5v-43h-458v43l162 39v1296q-94 -10 -175 -45zM863 -41l719 1583h35l-719 -1581q-16 0 -19.5 -1t-15.5 -1zM1684 0q2 119 33 218t77 171t120.5 138.5t147.5 111.5t175 98q272 139 272 363 q0 119 -82.5 200.5t-248.5 90.5q-211 0 -353 -179q-2 -8 -11 -58t-17 -79h-43l-19 217q18 18 47 41t88.5 63t140.5 65.5t163 25.5q229 0 347.5 -109.5t118.5 -277.5q0 -305 -366 -484q-399 -201 -420 -518h729l39 164h45l21 -262h-1004z" />
<glyph unicode="&#xbe;" horiz-adv-x="3445" d="M106 41l17 233h43l35 -155q231 -70 395 -70q127 0 222 39t143.5 99.5t71 117.5t22.5 109q0 117 -110.5 217t-301.5 100h-174v98h174q180 0 257 81t77 208q0 111 -81 192t-241 81q-166 0 -413 -107q-4 -27 -17.5 -76t-17.5 -67q-12 0 -24.5 -2t-18.5 -2l-14 217 q274 135 505 135q201 0 338 -85t137 -255q0 -141 -87 -236.5t-216 -107.5q178 -25 289 -130.5t111 -260.5q0 -186 -169 -317.5t-450 -131.5q-356 0 -502 76zM1287 -41l719 1583h35l-719 -1581q-16 0 -19.5 -1t-15.5 -1zM2116 412v127l805 950h127v-989h334v-88h-334v-328 l168 -41v-43h-471q0 8 -1 23.5t-1 19.5l166 39l2 330h-795zM2184 500h727v880z" />
<glyph unicode="&#xbf;" horiz-adv-x="1191" d="M184 -115q0 63 18.5 115.5t59.5 99.5t68.5 73t87.5 73q76 59 119 99t86 111.5t51 149.5h82q-18 -252 -236 -409q-61 -49 -95 -81t-64.5 -94.5t-30.5 -136.5q0 -119 89 -187.5t271 -68.5q131 0 295 54l-27 284h43l82 -379q-168 -63 -393 -63q-229 0 -367.5 89t-138.5 271z M616 887v172h175v-172h-175z" />
<glyph unicode="&#xc0;" horiz-adv-x="1345" d="M-80 0q0 10 1 22.5t1 18.5l144 35l516 1308q-78 16 -164 41v41h409l490 -1390q27 -4 77 -17.5t68 -17.5q0 -12 1 -23.5t1 -17.5h-473q0 8 1 22.5t1 20.5l172 39l-147 475h-610l-193 -473q29 -8 90.5 -22.5t81.5 -20.5q0 -12 1 -23.5t1 -17.5h-469zM426 643h565l-274 743z M541 1946h159l103 -230h-86z" />
<glyph unicode="&#xc1;" horiz-adv-x="1345" d="M-80 0q0 10 1 22.5t1 18.5l144 35l516 1308q-78 16 -164 41v41h409l490 -1390q27 -4 77 -17.5t68 -17.5q0 -12 1 -23.5t1 -17.5h-473q0 8 1 22.5t1 20.5l172 39l-147 475h-610l-193 -473q29 -8 90.5 -22.5t81.5 -20.5q0 -12 1 -23.5t1 -17.5h-469zM426 643h565l-274 743z M541 1716q4 11 100 230h164q-121 -162 -178 -230h-86z" />
<glyph unicode="&#xc2;" horiz-adv-x="1345" d="M-80 0q0 10 1 22.5t1 18.5l144 35l516 1308q-78 16 -164 41v41h409l490 -1390q27 -4 77 -17.5t68 -17.5q0 -12 1 -23.5t1 -17.5h-473q0 8 1 22.5t1 20.5l172 39l-147 475h-610l-193 -473q29 -8 90.5 -22.5t81.5 -20.5q0 -12 1 -23.5t1 -17.5h-469zM414 1688l211 264h94 l211 -264h-88l-170 221l-170 -221h-88zM426 643h565l-274 743z" />
<glyph unicode="&#xc3;" horiz-adv-x="1345" d="M-80 0q0 10 1 22.5t1 18.5l144 35l516 1308q-78 16 -164 41v41h409l490 -1390q27 -4 77 -17.5t68 -17.5q0 -12 1 -23.5t1 -17.5h-473q0 8 1 22.5t1 20.5l172 39l-147 475h-610l-193 -473q29 -8 90.5 -22.5t81.5 -20.5q0 -12 1 -23.5t1 -17.5h-469zM387 1851q27 41 117 41 q53 0 160.5 -28.5t164.5 -28.5q82 0 129 20v-77q-59 -47 -127 -47q-61 0 -165 26q-103 27 -164 27q-1 0 -2 -1q-62 0 -111 -20zM426 643h565l-274 743z" />
<glyph unicode="&#xc4;" horiz-adv-x="1345" d="M-80 0q0 10 1 22.5t1 18.5l144 35l516 1308q-78 16 -164 41v41h409l490 -1390q27 -4 77 -17.5t68 -17.5q0 -12 1 -23.5t1 -17.5h-473q0 8 1 22.5t1 20.5l172 39l-147 475h-610l-193 -473q29 -8 90.5 -22.5t81.5 -20.5q0 -12 1 -23.5t1 -17.5h-469zM393 1706v166h135v-166 h-135zM393 1706v166h135v-166h-135zM426 643h565l-274 743zM813 1706v166h137v-166h-137zM813 1706v166h137v-166h-137z" />
<glyph unicode="&#xc5;" horiz-adv-x="1345" d="M-80 0q0 10 1 22.5t1 18.5l144 35l516 1308q-78 16 -164 41v41h409l490 -1390q27 -4 77 -17.5t68 -17.5q0 -12 1 -23.5t1 -17.5h-473q0 8 1 22.5t1 20.5l172 39l-147 475h-610l-193 -473q29 -8 90.5 -22.5t81.5 -20.5q0 -12 1 -23.5t1 -17.5h-469zM422 1731 q0 139 74 211.5t211 74.5q150 -2 218 -72.5t68 -213.5q0 -129 -69.5 -207t-216.5 -78q-285 0 -285 285zM426 643h565l-274 743zM479 1733q0 -74 21.5 -127.5t47 -77t65.5 -35.5t54.5 -13t39.5 -1q18 0 37.5 2t58.5 15t66.5 38t50 76t22.5 122.5t-22.5 124t-49 76t-67.5 36.5 t-58.5 14.5t-38 1.5t-39 -2.5t-56.5 -15.5t-63.5 -36.5t-47 -74.5t-21.5 -123z" />
<glyph unicode="&#xc6;" horiz-adv-x="2152" d="M-23 0v41l144 35l1018 1390h915q-4 -59 -9 -156.5t-7 -129.5h-41l-35 200h-621q0 -102 2.5 -296.5t2.5 -295.5h522v-88h-522l2 -612h682l34 158h39v-246h-899v559h-604l-356 -473q31 -6 188 -45v-41h-455zM649 645h555v762z" />
<glyph unicode="&#xc7;" horiz-adv-x="1433" d="M141 725q0 348 197 560t555 212q197 0 393 -65q-4 -47 -12 -131t-10 -127h-39l-35 174q-18 6 -57 18l-53 16q-13 4 -42.5 11.5t-48 10.5t-44 5t-52.5 2q-59 0 -131 -19.5t-155 -69.5t-149.5 -124t-112.5 -196.5t-48 -272.5q6 -129 38 -233.5t76 -172t102 -118.5 t111.5 -78t112 -42t93 -19.5t63.5 -4.5q201 0 407 160v-141q-59 -41 -172.5 -80t-234.5 -43q-242 0 -415 105.5t-255 276.5t-82 386zM698 -401q49 -20 99 -21q125 0 125 113q0 123 -125 123q-43 0 -76 -9q6 6 19 32l38 75q25 49 47 88h15l-84 -160q27 3 51 3q83 0 129 -37 q59 -48 59 -115q0 -133 -166 -150q-82 0 -131 17v41z" />
<glyph unicode="&#xc8;" horiz-adv-x="1204" d="M55 0v43l160 37l2 1304l-162 37v43h1012l-23 -286h-38l-35 200h-625v-590h533v-88h-533v-612h692l35 158h39v-246h-1057zM471 1946h160l102 -230h-86z" />
<glyph unicode="&#xc9;" horiz-adv-x="1204" d="M55 0v43l160 37l2 1304l-162 37v43h1012l-23 -286h-38l-35 200h-625v-590h533v-88h-533v-612h692l35 158h39v-246h-1057zM469 1716q4 11 100 230h164q-121 -162 -178 -230h-86z" />
<glyph unicode="&#xca;" horiz-adv-x="1204" d="M55 0v43l160 37l2 1304l-162 37v43h1012l-23 -286h-38l-35 200h-625v-590h533v-88h-533v-612h692l35 158h39v-246h-1057zM344 1688l211 264h94l211 -264h-88l-170 221l-170 -221h-88z" />
<glyph unicode="&#xcb;" horiz-adv-x="1204" d="M55 0v43l160 37l2 1304l-162 37v43h1012l-23 -286h-38l-35 200h-625v-590h533v-88h-533v-612h692l35 158h39v-246h-1057zM324 1706v166h135v-166h-135zM324 1706v166h135v-166h-135zM743 1706v166h138v-166h-138zM743 1706v166h138v-166h-138z" />
<glyph unicode="&#xcc;" horiz-adv-x="571" d="M80 0v43l153 37v1306q-23 4 -76 17.5t-75 17.5v45h438v-43l-155 -37v-1308l157 -35v-43h-442zM154 1946h159l103 -230h-86z" />
<glyph unicode="&#xcd;" horiz-adv-x="571" d="M80 0v43l153 37v1306q-23 4 -76 17.5t-75 17.5v45h438v-43l-155 -37v-1308l157 -35v-43h-442zM162 1716q4 11 100 230h164q-121 -162 -178 -230h-86z" />
<glyph unicode="&#xce;" horiz-adv-x="571" d="M27 1688l211 264h94l211 -264h-88l-170 221l-170 -221h-88zM80 0v43l153 37v1306q-23 4 -76 17.5t-75 17.5v45h438v-43l-155 -37v-1308l157 -35v-43h-442z" />
<glyph unicode="&#xcf;" horiz-adv-x="571" d="M6 1706v166h135v-166h-135zM6 1706v166h135v-166h-135zM80 0v43l153 37v1306q-23 4 -76 17.5t-75 17.5v45h438v-43l-155 -37v-1308l157 -35v-43h-442zM426 1706v166h137v-166h-137zM426 1706v166h137v-166h-137z" />
<glyph unicode="&#xd1;" horiz-adv-x="1517" d="M45 0q0 8 1 22.5t1 20.5l158 37l2 1306l-158 37v43h332l838 -1308v1308h292v-43l-159 -37v-1308l161 -35v-43h-317l-854 1337l-2 -1255q98 -20 162 -39q0 -12 1 -24.5t1 -18.5h-459zM473 1851q27 41 117 41q53 0 160.5 -28.5t164.5 -28.5q82 0 129 20v-77 q-59 -47 -126 -47q-61 0 -166 26q-103 27 -164 27q-1 0 -2 -1q-62 0 -111 -20z" />
<glyph unicode="&#xd2;" horiz-adv-x="1728" d="M121 729q0 373 199.5 567.5t568.5 200.5q397 -6 583.5 -196.5t186.5 -571.5q0 -168 -43 -304t-132 -242.5t-240.5 -165t-354.5 -58.5q-403 0 -583.5 200.5t-184.5 569.5zM276 731q0 -143 31 -258t72 -184.5t109.5 -119.5t115.5 -71.5t123 -34t95 -12.5h67q33 0 62.5 2 t98 15.5t124 37t123 73.5t113.5 120t78 181.5t32 250.5q0 141 -32 254t-77 181.5t-115.5 118.5t-123 72.5t-125 35t-97 13.5t-63.5 1q-35 0 -65.5 -2t-97.5 -15.5t-120 -37t-117.5 -73.5t-107.5 -119.5t-73 -180.5t-30 -248zM733 1946h160l102 -230h-86z" />
<glyph unicode="&#xd3;" horiz-adv-x="1728" d="M121 729q0 373 199.5 567.5t568.5 200.5q397 -6 583.5 -196.5t186.5 -571.5q0 -168 -43 -304t-132 -242.5t-240.5 -165t-354.5 -58.5q-403 0 -583.5 200.5t-184.5 569.5zM276 731q0 -143 31 -258t72 -184.5t109.5 -119.5t115.5 -71.5t123 -34t95 -12.5h67q33 0 62.5 2 t98 15.5t124 37t123 73.5t113.5 120t78 181.5t32 250.5q0 141 -32 254t-77 181.5t-115.5 118.5t-123 72.5t-125 35t-97 13.5t-63.5 1q-35 0 -65.5 -2t-97.5 -15.5t-120 -37t-117.5 -73.5t-107.5 -119.5t-73 -180.5t-30 -248zM731 1716q4 11 100 230h164q-121 -162 -178 -230 h-86z" />
<glyph unicode="&#xd4;" horiz-adv-x="1728" d="M121 729q0 373 199.5 567.5t568.5 200.5q397 -6 583.5 -196.5t186.5 -571.5q0 -168 -43 -304t-132 -242.5t-240.5 -165t-354.5 -58.5q-403 0 -583.5 200.5t-184.5 569.5zM276 731q0 -143 31 -258t72 -184.5t109.5 -119.5t115.5 -71.5t123 -34t95 -12.5h67q33 0 62.5 2 t98 15.5t124 37t123 73.5t113.5 120t78 181.5t32 250.5q0 141 -32 254t-77 181.5t-115.5 118.5t-123 72.5t-125 35t-97 13.5t-63.5 1q-35 0 -65.5 -2t-97.5 -15.5t-120 -37t-117.5 -73.5t-107.5 -119.5t-73 -180.5t-30 -248zM606 1688l211 264h94l211 -264h-88l-170 221 l-170 -221h-88z" />
<glyph unicode="&#xd5;" horiz-adv-x="1728" d="M121 729q0 373 199.5 567.5t568.5 200.5q397 -6 583.5 -196.5t186.5 -571.5q0 -168 -43 -304t-132 -242.5t-240.5 -165t-354.5 -58.5q-403 0 -583.5 200.5t-184.5 569.5zM276 731q0 -143 31 -258t72 -184.5t109.5 -119.5t115.5 -71.5t123 -34t95 -12.5h67q33 0 62.5 2 t98 15.5t124 37t123 73.5t113.5 120t78 181.5t32 250.5q0 141 -32 254t-77 181.5t-115.5 118.5t-123 72.5t-125 35t-97 13.5t-63.5 1q-35 0 -65.5 -2t-97.5 -15.5t-120 -37t-117.5 -73.5t-107.5 -119.5t-73 -180.5t-30 -248zM578 1851q25 41 116 41q53 0 161 -28.5 t165 -28.5q82 0 129 20v-77q-59 -47 -127 -47q-61 0 -166 26q-102 27 -163 27q-1 0 -3 -1q-61 0 -110 -20z" />
<glyph unicode="&#xd6;" horiz-adv-x="1728" d="M121 729q0 373 199.5 567.5t568.5 200.5q397 -6 583.5 -196.5t186.5 -571.5q0 -168 -43 -304t-132 -242.5t-240.5 -165t-354.5 -58.5q-403 0 -583.5 200.5t-184.5 569.5zM276 731q0 -143 31 -258t72 -184.5t109.5 -119.5t115.5 -71.5t123 -34t95 -12.5h67q33 0 62.5 2 t98 15.5t124 37t123 73.5t113.5 120t78 181.5t32 250.5q0 141 -32 254t-77 181.5t-115.5 118.5t-123 72.5t-125 35t-97 13.5t-63.5 1q-35 0 -65.5 -2t-97.5 -15.5t-120 -37t-117.5 -73.5t-107.5 -119.5t-73 -180.5t-30 -248zM586 1706v166h135v-166h-135zM586 1706v166h135 v-166h-135zM1006 1706v166h137v-166h-137zM1006 1706v166h137v-166h-137z" />
<glyph unicode="&#xd8;" horiz-adv-x="1687" d="M98 729q0 356 214 562t556 206q129 0 279 -29l16 39h39l-20 -49q236 -90 344 -267t108 -462q0 -168 -43 -304t-132 -242.5t-239.5 -165t-351.5 -58.5q-96 0 -268 29l-8 -29h-35l14 31q-463 154 -473 739zM256 731q0 -465 348 -643l264 664l242 618q-145 37 -244 37 q-37 0 -67.5 -2t-97 -15.5t-120 -37t-117 -73.5t-106.5 -119.5t-72.5 -180.5t-29.5 -248zM639 78q94 -27 229 -27q33 0 63 2t98.5 15.5t123.5 37t122.5 73.5t114 120t78 181.5t31.5 250.5q0 436 -356 629z" />
<glyph unicode="&#xd9;" horiz-adv-x="1509" d="M37 1421v45h461v-43l-162 -34l-4 -768q0 -555 444 -555q432 0 432 555v765l-161 35v45h456l-2 -43l-158 -34l-6 -768q0 -70 -1 -107t-11 -117t-29.5 -127t-60.5 -111.5t-99.5 -100t-150.5 -62.5t-209 -27q-94 0 -172 16.5t-133 40t-99 64.5t-73 77t-48.5 93t-28.5 96 t-14 100.5t-6 93.5t-1 89v747zM623 1946h159l103 -230h-86z" />
<glyph unicode="&#xda;" horiz-adv-x="1509" d="M37 1421v45h461v-43l-162 -34l-4 -768q0 -555 444 -555q432 0 432 555v765l-161 35v45h456l-2 -43l-158 -34l-6 -768q0 -70 -1 -107t-11 -117t-29.5 -127t-60.5 -111.5t-99.5 -100t-150.5 -62.5t-209 -27q-94 0 -172 16.5t-133 40t-99 64.5t-73 77t-48.5 93t-28.5 96 t-14 100.5t-6 93.5t-1 89v747zM623 1716q4 11 100 230h164q-121 -162 -178 -230h-86z" />
<glyph unicode="&#xdb;" horiz-adv-x="1509" d="M37 1421v45h461v-43l-162 -34l-4 -768q0 -555 444 -555q432 0 432 555v765l-161 35v45h456l-2 -43l-158 -34l-6 -768q0 -70 -1 -107t-11 -117t-29.5 -127t-60.5 -111.5t-99.5 -100t-150.5 -62.5t-209 -27q-94 0 -172 16.5t-133 40t-99 64.5t-73 77t-48.5 93t-28.5 96 t-14 100.5t-6 93.5t-1 89v747zM496 1688l211 264h94l211 -264h-88l-170 221l-170 -221h-88z" />
<glyph unicode="&#xdc;" horiz-adv-x="1509" d="M37 1421v45h461v-43l-162 -34l-4 -768q0 -555 444 -555q432 0 432 555v765l-161 35v45h456l-2 -43l-158 -34l-6 -768q0 -70 -1 -107t-11 -117t-29.5 -127t-60.5 -111.5t-99.5 -100t-150.5 -62.5t-209 -27q-94 0 -172 16.5t-133 40t-99 64.5t-73 77t-48.5 93t-28.5 96 t-14 100.5t-6 93.5t-1 89v747zM475 1706v166h135v-166h-135zM475 1706v166h135v-166h-135zM895 1706v166h137v-166h-137zM895 1706v166h137v-166h-137z" />
<glyph unicode="&#xdd;" horiz-adv-x="1454" d="M-14 1423v43h434v-41l-158 -30l479 -762l488 762l-146 30v41h428v-41l-139 -34l-559 -846v-465l158 -37v-43h-455v43l158 37v465l-547 846zM594 1716q4 11 100 230h164q-121 -162 -178 -230h-86z" />
<glyph unicode="&#xdf;" horiz-adv-x="1212" d="M23 0v43l159 39v840q0 78 1 126t7.5 114.5t17.5 107.5t30.5 89t50 76.5t72.5 55.5t101.5 38t133.5 11q72 0 137.5 -15.5t134 -54t110.5 -119.5t42 -196q0 -117 -76 -223.5t-213 -122.5q143 -16 249.5 -130t106.5 -263q0 -432 -514 -432l25 288h43l39 -176q248 86 248 324 q0 66 -7.5 102.5t-38 85.5t-105.5 86t-197 68v108q160 6 240.5 75t80.5 212q0 147 -86 212t-219 65q-168 0 -219 -88t-51 -326v-1020h-303z" />
<glyph unicode="&#xe0;" horiz-adv-x="1044" d="M94 305q0 139 77 226t255 87q170 0 220 8.5t93 47.5q0 145 -24.5 213.5t-70.5 88t-144 19.5q-131 0 -242 -34q0 -2 -12 -61l-21 -97h-47q-2 39 -6 110.5t-8 110.5q141 70 348 70q168 0 265 -90.5t97 -323.5v-596l164 -39v-45h-241l-64 131q-168 -143 -336 -143 q-147 0 -225 81t-78 236zM231 303q0 -113 65.5 -170t164.5 -57q147 0 280 127l4 360q-125 -33 -292 -33q-49 0 -76 -4t-67 -22.5t-59.5 -68.5t-19.5 -132zM391 1538h160l102 -229h-86z" />
<glyph unicode="&#xe1;" horiz-adv-x="1044" d="M94 305q0 139 77 226t255 87q170 0 220 8.5t93 47.5q0 145 -24.5 213.5t-70.5 88t-144 19.5q-131 0 -242 -34q0 -2 -12 -61l-21 -97h-47q-2 39 -6 110.5t-8 110.5q141 70 348 70q168 0 265 -90.5t97 -323.5v-596l164 -39v-45h-241l-64 131q-168 -143 -336 -143 q-147 0 -225 81t-78 236zM231 303q0 -113 65.5 -170t164.5 -57q147 0 280 127l4 360q-125 -33 -292 -33q-49 0 -76 -4t-67 -22.5t-59.5 -68.5t-19.5 -132zM389 1309q4 10 100 229h164q-121 -162 -178 -229h-86z" />
<glyph unicode="&#xe2;" horiz-adv-x="1044" d="M94 305q0 139 77 226t255 87q170 0 220 8.5t93 47.5q0 145 -24.5 213.5t-70.5 88t-144 19.5q-131 0 -242 -34q0 -2 -12 -61l-21 -97h-47q-2 39 -6 110.5t-8 110.5q141 70 348 70q168 0 265 -90.5t97 -323.5v-596l164 -39v-45h-241l-64 131q-168 -143 -336 -143 q-147 0 -225 81t-78 236zM231 303q0 -113 65.5 -170t164.5 -57q147 0 280 127l4 360q-125 -33 -292 -33q-49 0 -76 -4t-67 -22.5t-59.5 -68.5t-19.5 -132zM264 1280l211 264h94l211 -264h-88l-170 221l-170 -221h-88z" />
<glyph unicode="&#xe3;" horiz-adv-x="1044" d="M94 305q0 139 77 226t255 87q170 0 220 8.5t93 47.5q0 145 -24.5 213.5t-70.5 88t-144 19.5q-131 0 -242 -34q0 -2 -12 -61l-21 -97h-47q-2 39 -6 110.5t-8 110.5q141 70 348 70q168 0 265 -90.5t97 -323.5v-596l164 -39v-45h-241l-64 131q-168 -143 -336 -143 q-147 0 -225 81t-78 236zM231 303q0 -113 65.5 -170t164.5 -57q147 0 280 127l4 360q-125 -33 -292 -33q-49 0 -76 -4t-67 -22.5t-59.5 -68.5t-19.5 -132zM236 1444q27 41 116 41q53 0 161 -29t165 -29q82 0 129 21v-78q-59 -47 -127 -47q-61 0 -165.5 26.5t-166 26.5 t-110.5 -20z" />
<glyph unicode="&#xe4;" horiz-adv-x="1044" d="M94 305q0 139 77 226t255 87q170 0 220 8.5t93 47.5q0 145 -24.5 213.5t-70.5 88t-144 19.5q-131 0 -242 -34q0 -2 -12 -61l-21 -97h-47q-2 39 -6 110.5t-8 110.5q141 70 348 70q168 0 265 -90.5t97 -323.5v-596l164 -39v-45h-241l-64 131q-168 -143 -336 -143 q-147 0 -225 81t-78 236zM231 303q0 -113 65.5 -170t164.5 -57q147 0 280 127l4 360q-125 -33 -292 -33q-49 0 -76 -4t-67 -22.5t-59.5 -68.5t-19.5 -132zM244 1298v166h135v-166h-135zM244 1298v166h135v-166h-135zM664 1298v166h137v-166h-137zM664 1298v166h137v-166 h-137z" />
<glyph unicode="&#xe5;" horiz-adv-x="1044" d="M94 305q0 139 77 226t255 87q170 0 220 8.5t93 47.5q0 145 -24.5 213.5t-70.5 88t-144 19.5q-131 0 -242 -34q0 -2 -12 -61l-21 -97h-47q-2 39 -6 110.5t-8 110.5q141 70 348 70q168 0 265 -90.5t97 -323.5v-596l164 -39v-45h-241l-64 131q-168 -143 -336 -143 q-147 0 -225 81t-78 236zM231 303q0 -113 65.5 -170t164.5 -57q147 0 280 127l4 360q-125 -33 -292 -33q-49 0 -76 -4t-67 -22.5t-59.5 -68.5t-19.5 -132zM309.5 1422q73.5 73 210.5 75q150 -2 218.5 -72.5t68.5 -214.5q0 -129 -69.5 -206.5t-217.5 -77.5q-284 0 -284 282 q0 141 73.5 214zM293 1212q0 -74 21.5 -127t47 -76.5t65.5 -35.5t54.5 -13.5t38.5 -1.5q18 0 38 2.5t58.5 15.5t66.5 37.5t50.5 76t22.5 123t-22.5 124t-49.5 76t-68 36.5t-58 14t-37.5 1t-39 -2t-56.5 -15t-63.5 -37t-47 -75t-21.5 -123z" />
<glyph unicode="&#xe6;" horiz-adv-x="1732" d="M82 461l754 71q0 78 -1 120t-7.5 100.5t-19.5 89t-36.5 67.5t-59.5 54.5t-88 30t-122 12.5q-109 0 -191 -53.5t-127 -114.5l-90 69q156 182 408 183q246 0 409 -189q166 188 398 189q422 0 422 -504v-33q-410 0 -754 -33q0 -76 1 -118t7 -100t19.5 -89t37 -66.5t59.5 -53 t88 -30t122 -12.5q106 0 188 53.5t127 114.5q16 -12 43 -36.5t43 -37.5q-152 -178 -401 -178q-238 0 -418 185q-164 -184 -389 -185q-422 0 -422 476v18zM203 371q6 -111 82.5 -210.5t218.5 -99.5q86 0 149.5 37t96 97.5t49 117t20.5 117.5zM995 623l617 32 q-14 147 -86 243.5t-217 96.5q-84 0 -147.5 -37.5t-97.5 -98t-50.5 -119t-18.5 -117.5z" />
<glyph unicode="&#xe7;" horiz-adv-x="1083" d="M127 541q0 299 140.5 425t412.5 126q182 0 336 -86l-6 -108q-4 -73 -9 -107h-43l-36 147q-137 59 -242 59q-88 0 -155.5 -17t-130 -63.5t-95.5 -139.5t-33 -232q0 -274 110.5 -378t303.5 -104q186 0 358 89l2 -119q-201 -63 -360 -64q-279 0 -416 139.5t-137 432.5z M504 -385q49 -20 98 -21q125 0 125 113q0 123 -125 123q-43 0 -76 -8q6 6 19 32l38 74q25 49 48 88h14l-84 -159q27 3 52 3q82 0 128 -37q60 -48 60 -116q0 -133 -166 -149q-82 0 -131 16v41z" />
<glyph unicode="&#xe8;" horiz-adv-x="1107" d="M109 506q0 584 481 584q420 0 420 -546v-5l-766 2q0 -100 4 -163t23.5 -132.5t55 -106.5t102.5 -62.5t161 -25.5q111 0 190.5 51.5t122.5 114.5l90 -72q-152 -178 -403 -178q-260 0 -368.5 137.5t-112.5 401.5zM260 625l629 2q-4 164 -77 266t-222 102q-166 0 -248 -106 t-82 -264zM422 1538h160l102 -229h-86z" />
<glyph unicode="&#xe9;" horiz-adv-x="1107" d="M109 506q0 584 481 584q420 0 420 -546v-5l-766 2q0 -100 4 -163t23.5 -132.5t55 -106.5t102.5 -62.5t161 -25.5q111 0 190.5 51.5t122.5 114.5l90 -72q-152 -178 -403 -178q-260 0 -368.5 137.5t-112.5 401.5zM260 625l629 2q-4 164 -77 266t-222 102q-166 0 -248 -106 t-82 -264zM422 1309q4 10 100 229h164q-121 -162 -178 -229h-86z" />
<glyph unicode="&#xea;" horiz-adv-x="1107" d="M109 506q0 584 481 584q420 0 420 -546v-5l-766 2q0 -100 4 -163t23.5 -132.5t55 -106.5t102.5 -62.5t161 -25.5q111 0 190.5 51.5t122.5 114.5l90 -72q-152 -178 -403 -178q-260 0 -368.5 137.5t-112.5 401.5zM260 625l629 2q-4 164 -77 266t-222 102q-166 0 -248 -106 t-82 -264zM295 1280l211 264h94l211 -264h-88l-170 221l-170 -221h-88z" />
<glyph unicode="&#xeb;" horiz-adv-x="1107" d="M109 506q0 584 481 584q420 0 420 -546v-5l-766 2q0 -100 4 -163t23.5 -132.5t55 -106.5t102.5 -62.5t161 -25.5q111 0 190.5 51.5t122.5 114.5l90 -72q-152 -178 -403 -178q-260 0 -368.5 137.5t-112.5 401.5zM260 625l629 2q-4 164 -77 266t-222 102q-166 0 -248 -106 t-82 -264zM274 1298v166h136v-166h-136zM274 1298v166h136v-166h-136zM694 1298v166h137v-166h-137zM694 1298v166h137v-166h-137z" />
<glyph unicode="&#xec;" horiz-adv-x="534" d="M45 0v43l164 39v895l-164 39v43h303v-977l164 -39v-43h-467zM135 1538h160l102 -229h-86z" />
<glyph unicode="&#xed;" horiz-adv-x="534" d="M45 0v43l164 39v895l-164 39v43h303v-977l164 -39v-43h-467zM141 1309q5 10 101 229h164q-121 -162 -179 -229h-86z" />
<glyph unicode="&#xee;" horiz-adv-x="534" d="M8 1280l211 264h94l211 -264h-88l-170 221l-170 -221h-88zM45 0v43l164 39v895l-164 39v43h303v-977l164 -39v-43h-467z" />
<glyph unicode="&#xef;" horiz-adv-x="534" d="M-12 1298v166h135v-166h-135zM-12 1298v166h135v-166h-135zM45 0v43l164 39v895l-164 39v43h303v-977l164 -39v-43h-467zM408 1298v166h137v-166h-137zM408 1298v166h137v-166h-137z" />
<glyph unicode="&#xf1;" horiz-adv-x="1218" d="M14 1014v45h287l27 -209q63 104 169.5 172t229.5 68q154 0 241 -113t87 -338v-557l164 -37v-45h-295v653q0 160 -68 247t-190 87q-139 0 -245 -94t-106 -217v-594l170 -39v-43h-467v45l164 33v899q-16 4 -76.5 17.5t-91.5 19.5zM324 1444q25 41 116 41q53 0 161 -29 t165 -29q82 0 129 21v-78q-59 -47 -127 -47q-61 0 -165.5 26.5t-166 26.5t-110.5 -20z" />
<glyph unicode="&#xf2;" d="M123 535q0 276 113.5 416.5t373.5 140.5q506 0 506 -557q0 -291 -109.5 -430.5t-377.5 -139.5q-262 0 -384 159t-122 411zM268 535q0 -129 23.5 -221.5t57.5 -140.5t87 -74.5t94 -33t99 -6.5q51 0 81.5 3.5t84 29t84 71.5t55 141t24.5 231q0 131 -24.5 223t-56 138 t-87 70.5t-89 27.5t-91.5 3q-39 0 -57 -1t-57 -5t-58 -16l-52 -33q-32 -20 -49.5 -55t-34.5 -82t-25.5 -115.5t-8.5 -154.5zM467 1538h160l102 -229h-86z" />
<glyph unicode="&#xf3;" d="M123 535q0 276 113.5 416.5t373.5 140.5q506 0 506 -557q0 -291 -109.5 -430.5t-377.5 -139.5q-262 0 -384 159t-122 411zM268 535q0 -129 23.5 -221.5t57.5 -140.5t87 -74.5t94 -33t99 -6.5q51 0 81.5 3.5t84 29t84 71.5t55 141t24.5 231q0 131 -24.5 223t-56 138 t-87 70.5t-89 27.5t-91.5 3q-39 0 -57 -1t-57 -5t-58 -16l-52 -33q-32 -20 -49.5 -55t-34.5 -82t-25.5 -115.5t-8.5 -154.5zM467 1309q4 10 100 229h164q-121 -162 -178 -229h-86z" />
<glyph unicode="&#xf4;" d="M123 535q0 276 113.5 416.5t373.5 140.5q506 0 506 -557q0 -291 -109.5 -430.5t-377.5 -139.5q-262 0 -384 159t-122 411zM268 535q0 -129 23.5 -221.5t57.5 -140.5t87 -74.5t94 -33t99 -6.5q51 0 81.5 3.5t84 29t84 71.5t55 141t24.5 231q0 131 -24.5 223t-56 138 t-87 70.5t-89 27.5t-91.5 3q-39 0 -57 -1t-57 -5t-58 -16l-52 -33q-32 -20 -49.5 -55t-34.5 -82t-25.5 -115.5t-8.5 -154.5zM340 1280l211 264h94l211 -264h-88l-170 221l-170 -221h-88z" />
<glyph unicode="&#xf5;" d="M123 535q0 276 113.5 416.5t373.5 140.5q506 0 506 -557q0 -291 -109.5 -430.5t-377.5 -139.5q-262 0 -384 159t-122 411zM268 535q0 -129 23.5 -221.5t57.5 -140.5t87 -74.5t94 -33t99 -6.5q51 0 81.5 3.5t84 29t84 71.5t55 141t24.5 231q0 131 -24.5 223t-56 138 t-87 70.5t-89 27.5t-91.5 3q-39 0 -57 -1t-57 -5t-58 -16l-52 -33q-32 -20 -49.5 -55t-34.5 -82t-25.5 -115.5t-8.5 -154.5zM313 1444q27 41 117 41q53 0 160.5 -29t165.5 -29q82 0 129 21v-78q-59 -47 -127 -47q-61 0 -166 26.5t-166.5 26.5t-110.5 -20z" />
<glyph unicode="&#xf6;" d="M123 535q0 276 113.5 416.5t373.5 140.5q506 0 506 -557q0 -291 -109.5 -430.5t-377.5 -139.5q-262 0 -384 159t-122 411zM268 535q0 -129 23.5 -221.5t57.5 -140.5t87 -74.5t94 -33t99 -6.5q51 0 81.5 3.5t84 29t84 71.5t55 141t24.5 231q0 131 -24.5 223t-56 138 t-87 70.5t-89 27.5t-91.5 3q-39 0 -57 -1t-57 -5t-58 -16l-52 -33q-32 -20 -49.5 -55t-34.5 -82t-25.5 -115.5t-8.5 -154.5zM319 1298v166h136v-166h-136zM319 1298v166h136v-166h-136zM739 1298v166h138v-166h-138zM739 1298v166h138v-166h-138z" />
<glyph unicode="&#xf8;" d="M123 535q0 276 113.5 416.5t373.5 140.5q506 0 506 -557q0 -291 -109.5 -430.5t-377.5 -139.5q-262 0 -384 159t-122 411zM268 535q0 -129 23.5 -221.5t57.5 -140.5t87 -74.5t94 -33t99 -6.5q51 0 81.5 3.5t84 29t84 71.5t55 141t24.5 231q0 131 -24.5 223t-56 138 t-87 70.5t-89 27.5t-91.5 3q-39 0 -57 -1t-57 -5t-58 -16l-52 -33q-32 -20 -49.5 -55t-34.5 -82t-25.5 -115.5t-8.5 -154.5zM303 -41l623 1133h32l-622 -1131q-16 0 -19.5 -1t-13.5 -1z" />
<glyph unicode="&#xf9;" horiz-adv-x="1216" d="M16 1016v43h293v-676q0 -166 52.5 -247t181.5 -81q145 0 262 100.5t117 260.5v567l-226 35v41h359v-977l164 -39v-43h-287l-25 199q-55 -106 -170.5 -171t-230.5 -65q-150 0 -242 104.5t-92 333.5v576zM477 1538h160l102 -229h-86z" />
<glyph unicode="&#xfa;" horiz-adv-x="1216" d="M16 1016v43h293v-676q0 -166 52.5 -247t181.5 -81q145 0 262 100.5t117 260.5v567l-226 35v41h359v-977l164 -39v-43h-287l-25 199q-55 -106 -170.5 -171t-230.5 -65q-150 0 -242 104.5t-92 333.5v576zM475 1309q4 10 100 229h164q-121 -162 -178 -229h-86z" />
<glyph unicode="&#xfb;" horiz-adv-x="1216" d="M16 1016v43h293v-676q0 -166 52.5 -247t181.5 -81q145 0 262 100.5t117 260.5v567l-226 35v41h359v-977l164 -39v-43h-287l-25 199q-55 -106 -170.5 -171t-230.5 -65q-150 0 -242 104.5t-92 333.5v576zM350 1280l211 264h94l211 -264h-88l-170 221l-170 -221h-88z" />
<glyph unicode="&#xfc;" horiz-adv-x="1216" d="M16 1016v43h293v-676q0 -166 52.5 -247t181.5 -81q145 0 262 100.5t117 260.5v567l-226 35v41h359v-977l164 -39v-43h-287l-25 199q-55 -106 -170.5 -171t-230.5 -65q-150 0 -242 104.5t-92 333.5v576zM330 1298v166h135v-166h-135zM330 1298v166h135v-166h-135z M750 1298v166h137v-166h-137zM750 1298v166h137v-166h-137z" />
<glyph unicode="&#xfd;" horiz-adv-x="1167" d="M-37 1012v47h459v-41l-170 -37l364 -987l320 981l-170 39v45h459v-41l-150 -35l-477 -1339l182 -37v-45h-467v43l158 33l84 243l-442 1102zM451 1309q4 10 100 229h164q-121 -162 -178 -229h-86z" />
<glyph unicode="&#xff;" horiz-adv-x="1167" d="M-37 1012v47h459v-41l-170 -37l364 -987l320 981l-170 39v45h459v-41l-150 -35l-477 -1339l182 -37v-45h-467v43l158 33l84 243l-442 1102zM305 1298v166h135v-166h-135zM305 1298v166h135v-166h-135zM725 1298v166h137v-166h-137zM725 1298v166h137v-166h-137z" />
<glyph unicode="&#x152;" horiz-adv-x="2932" d="M121 729q0 373 199.5 567.5t568.5 200.5q397 -6 583.5 -196.5t186.5 -571.5q0 -168 -43 -304t-132 -242.5t-240.5 -165t-354.5 -58.5q-403 0 -583.5 200.5t-184.5 569.5zM276 731q0 -143 31 -258t72 -184.5t109.5 -119.5t115.5 -71.5t123 -34t95 -12.5h67q33 0 62.5 2 t98 15.5t124 37t123 73.5t113.5 120t78 181.5t32 250.5q0 141 -32 254t-77 181.5t-115.5 118.5t-123 72.5t-125 35t-97 13.5t-63.5 1q-35 0 -65.5 -2t-97.5 -15.5t-120 -37t-117.5 -73.5t-107.5 -119.5t-73 -180.5t-30 -248zM1783 0v43l160 37l2 1304l-162 37v43h1012 l-23 -286h-38l-35 200h-625v-590h533v-88h-533v-612h692l35 158h39v-246h-1057z" />
<glyph unicode="&#x153;" horiz-adv-x="2305" d="M123 535q0 276 113.5 416.5t373.5 140.5q506 0 506 -557q0 -291 -109.5 -430.5t-377.5 -139.5q-262 0 -384 159t-122 411zM268 535q0 -129 23.5 -221.5t57.5 -140.5t87 -74.5t94 -33t99 -6.5q51 0 81.5 3.5t84 29t84 71.5t55 141t24.5 231q0 131 -24.5 223t-56 138 t-87 70.5t-89 27.5t-91.5 3q-39 0 -57 -1t-57 -5t-58 -16l-52 -33q-32 -20 -49.5 -55t-34.5 -82t-25.5 -115.5t-8.5 -154.5zM1307 506q0 584 481 584q420 0 420 -546v-5l-766 2q0 -100 4 -163t23.5 -132.5t55 -106.5t102.5 -62.5t161 -25.5q111 0 190.5 51.5t122.5 114.5 l90 -72q-152 -178 -403 -178q-260 0 -368.5 137.5t-112.5 401.5zM1458 625l629 2q-4 164 -77 266t-222 102q-166 0 -248 -106t-82 -264z" />
<glyph unicode="&#x178;" horiz-adv-x="1454" d="M-14 1423v43h434v-41l-158 -30l479 -762l488 762l-146 30v41h428v-41l-139 -34l-559 -846v-465l158 -37v-43h-455v43l158 37v465l-547 846zM449 1706v166h135v-166h-135zM449 1706v166h135v-166h-135zM868 1706v166h138v-166h-138zM868 1706v166h138v-166h-138z" />
<glyph unicode="&#x2c6;" horiz-adv-x="501" d="M-2 1280l211 264h94l211 -264h-88l-170 221l-170 -221h-88z" />
<glyph unicode="&#x2dc;" horiz-adv-x="454" d="M-37 1444q25 41 117 41q53 0 160.5 -29t165.5 -29q82 0 129 21v-78q-59 -47 -127 -47q-61 0 -166 26.5t-166.5 26.5t-110.5 -20z" />
<glyph unicode="&#x2000;" horiz-adv-x="1008" />
<glyph unicode="&#x2001;" horiz-adv-x="2017" />
<glyph unicode="&#x2002;" horiz-adv-x="1008" />
<glyph unicode="&#x2003;" horiz-adv-x="2017" />
<glyph unicode="&#x2004;" horiz-adv-x="672" />
<glyph unicode="&#x2005;" horiz-adv-x="504" />
<glyph unicode="&#x2006;" horiz-adv-x="336" />
<glyph unicode="&#x2007;" horiz-adv-x="336" />
<glyph unicode="&#x2008;" horiz-adv-x="252" />
<glyph unicode="&#x2009;" horiz-adv-x="403" />
<glyph unicode="&#x200a;" horiz-adv-x="112" />
<glyph unicode="&#x2010;" horiz-adv-x="815" d="M137 518v105h576v-105h-576z" />
<glyph unicode="&#x2011;" horiz-adv-x="815" d="M137 518v105h576v-105h-576z" />
<glyph unicode="&#x2012;" horiz-adv-x="815" d="M137 518v105h576v-105h-576z" />
<glyph unicode="&#x2013;" horiz-adv-x="1024" d="M23 518v105h1024v-105h-1024z" />
<glyph unicode="&#x2014;" horiz-adv-x="2048" d="M293 518v105h1554v-105h-1554z" />
<glyph unicode="&#x2018;" horiz-adv-x="569" d="M186 1122q0 322 224 355v-80q-53 -6 -86 -32t-46.5 -74t-17.5 -88.5t-4 -110.5h129v-174h-180q-18 104 -19 204z" />
<glyph unicode="&#x2019;" horiz-adv-x="569" d="M182 920v73q37 4 64.5 17.5t43 40t26 48t13.5 64.5t4 66.5t1 75.5h-123v174h178q16 -127 17 -209q0 -303 -224 -350z" />
<glyph unicode="&#x201a;" horiz-adv-x="569" d="M188 -311q55 6 88 32.5t45.5 80t15.5 89t3 109.5h-123v172h178q16 -127 17 -203q0 -319 -224 -352v72z" />
<glyph unicode="&#x201c;" horiz-adv-x="901" d="M150 1122q0 170 64.5 255.5t160.5 99.5v-78q-53 -8 -86 -34t-47.5 -75t-17.5 -89t-3 -109h127v-174h-178q-20 109 -20 204zM580 1122q0 324 221 355v-78q-51 -8 -84 -34t-46.5 -74t-17.5 -88.5t-4 -110.5h123v-174h-178q-14 139 -14 204z" />
<glyph unicode="&#x201d;" horiz-adv-x="909" d="M141 920v73q43 4 74 25.5t46 47.5t23.5 72t9.5 77.5t1 89.5h-123v174h178q16 -160 17 -209q0 -305 -226 -350zM569 920v73q37 4 65 17.5t43 40t25.5 48t13.5 64.5t4 66.5t1 75.5h-127v174h180q18 -92 19 -209q0 -309 -224 -350z" />
<glyph unicode="&#x201e;" horiz-adv-x="997" d="M180 -311q53 6 86 32.5t45.5 79t15.5 90t3 109.5h-121v172h176q18 -120 18 -203q0 -319 -223 -352v72zM645 -311q37 4 63.5 16t42 40t24.5 47.5t12.5 65.5t4.5 65.5t1 74.5q-16 0 -58.5 1t-62.5 1v172h178q20 -121 20 -203q0 -174 -64.5 -256t-160.5 -96v72z" />
<glyph unicode="&#x2022;" horiz-adv-x="1024" d="M160 745.5q0 153.5 108.5 262t262 108.5t262 -108.5t108.5 -262t-108.5 -262t-262 -108.5t-262 108.5t-108.5 262z" />
<glyph unicode="&#x2026;" horiz-adv-x="1665" d="M190 -2v172h175v-172h-175zM793 -2v172h174v-172h-174zM1395 -2v172h172v-172h-172z" />
<glyph unicode="&#x202f;" horiz-adv-x="403" />
<glyph unicode="&#x2039;" horiz-adv-x="626" d="M141 578q0 25 25 40l348 248q0 -80 -25 -92l-276 -196q162 -123 268 -189q33 -25 33 -102l-346 250q-27 14 -27 41z" />
<glyph unicode="&#x203a;" horiz-adv-x="636" d="M154 287q0 78 32 102q106 66 269 189l-277 196q-24 12 -24 86v6l348 -248q24 -15 24 -40q0 -27 -26 -41z" />
<glyph unicode="&#x2044;" horiz-adv-x="710" d="M-23 -41l719 1583h35l-719 -1581q-16 0 -19.5 -1t-15.5 -1z" />
<glyph unicode="&#x205f;" horiz-adv-x="504" />
<glyph unicode="&#x20ac;" horiz-adv-x="1259" d="M82 557l29 43h118q-6 108 -6 189q0 94 8 153h-149l27 43h124q113 590 590 590q154 0 400 -72v-127q-242 109 -400 109q-63 0 -114.5 -15.5t-115 -61.5t-114.5 -153.5t-80 -269.5h514l-14 -43h-500q-5 -104 -5 -184q0 -96 7 -158h400q-4 -29 -10 -43h-383q33 -129 86 -221 t100 -134t105.5 -65.5t80 -25.5t43.5 -2q221 0 416 157v-143q-178 -123 -416 -123q-209 0 -367.5 147.5t-224.5 409.5h-149z" />
<glyph unicode="&#x2122;" horiz-adv-x="3137" d="M47 1466h1247l-22 -245h-43l-37 157h-444v-1298l159 -37v-43h-456v43l161 37v1298h-462l-39 -157h-43zM1347 1423v43h365l493 -1099q23 -47 53 -47l1 -1q30 0 51 48l483 1099h346v-43l-160 -37v-1304l166 -39l-2 -43h-461v43l162 37l4 1237l-514 -1145h-151l-541 1149 v-1243l168 -35v-43h-461v43l160 37v1306z" />
<glyph unicode="&#xe000;" horiz-adv-x="1060" d="M0 1060h1060v-1060h-1060v1060z" />
<glyph unicode="&#xfb01;" horiz-adv-x="1282" d="M63 0v41l164 33v897h-161v88h161v190q0 211 108.5 320.5t280.5 109.5q76 0 150 -19.5t100.5 -31.5t104.5 -51v72h180v-183h-207q-59 51 -147 89t-162 38q-100 0 -167 -60t-89.5 -135t-22.5 -157v-182h795v-983l160 -35v-41h-463v41l162 33v897h-652v-895l170 -35v-41 h-465z" />
<glyph unicode="&#xfb02;" horiz-adv-x="1273" d="M61 973v90h181v182q0 248 100 344.5t293 96.5q508 0 508 -386v-1218q25 -8 81 -20.5t81 -18.5v-43h-463v43l159 39v1218q0 139 -99 209t-251 70q-154 -4 -213 -91t-59 -243v-182h260v-90h-260v-891l166 -39v-43h-465v43l162 39v891h-181z" />
<glyph unicode="&#xfb03;" horiz-adv-x="1775" d="M18 973v88h177v94q0 248 99 345t308 97q94 0 225 -63l-14 -221h-41l-35 157q-82 20 -135 21q-82 0 -136 -18.5t-82 -41t-41 -74.5t-15 -88t-2 -114v-94h264v-88h-264v-895l168 -35v-43h-467v43l163 39l5 891h-177zM661 973v88h177v94q0 248 99 345t308 97q94 0 225 -63 l-14 -221h-41l-35 157q-82 20 -135 21q-82 0 -136 -18.5t-82 -41t-41 -74.5t-15 -88t-2 -114v-94h264v-88h-264v-895l168 -35v-43h-467v43l163 39l5 891h-177zM1306 0v43l164 39v895l-164 39v43h304v-977l163 -39v-43h-467zM1436 1454v174h174v-174h-174z" />
<glyph unicode="&#xfb04;" horiz-adv-x="1775" d="M18 973v88h177v94q0 248 99 345t308 97q94 0 225 -63l-14 -221h-41l-35 157q-82 20 -135 21q-82 0 -136 -18.5t-82 -41t-41 -74.5t-15 -88t-2 -114v-94h264v-88h-264v-895l168 -35v-43h-467v43l163 39l5 891h-177zM661 973v88h177v94q0 248 99 345t308 97q94 0 225 -63 l-14 -221h-41l-35 157q-82 20 -135 21q-82 0 -136 -18.5t-82 -41t-41 -74.5t-15 -88t-2 -114v-94h264v-88h-264v-895l168 -35v-43h-467v43l163 39l5 891h-177zM1309 0v43l161 39v1464q-111 25 -161 39v43h303v-1546l161 -39v-43h-464z" />
</font>
</defs>
</svg>
