<?xml version="1.0" encoding="UTF-8" standalone="no"?>
<!-- Created with Inkscape (http://www.inkscape.org/) -->

<svg
   xmlns:dc="http://purl.org/dc/elements/1.1/"
   xmlns:cc="http://creativecommons.org/ns#"
   xmlns:rdf="http://www.w3.org/1999/02/22-rdf-syntax-ns#"
   xmlns:svg="http://www.w3.org/2000/svg"
   xmlns="http://www.w3.org/2000/svg"
   xmlns:xlink="http://www.w3.org/1999/xlink"
   xmlns:sodipodi="http://sodipodi.sourceforge.net/DTD/sodipodi-0.dtd"
   xmlns:inkscape="http://www.inkscape.org/namespaces/inkscape"
   width="160"
   height="67"
   id="svg8138"
   version="1.1"
   inkscape:version="0.47 r22583"
   inkscape:export-filename="/Users/stringer/Desktop/facebook_picture_with_logo.png"
   inkscape:export-xdpi="270"
   inkscape:export-ydpi="270"
   sodipodi:docname="logo_stacked_white.svg">
  <defs
     id="defs8140">
    <inkscape:perspective
       sodipodi:type="inkscape:persp3d"
       inkscape:vp_x="0 : 526.18109 : 1"
       inkscape:vp_y="0 : 1000 : 0"
       inkscape:vp_z="744.09448 : 526.18109 : 1"
       inkscape:persp3d-origin="372.04724 : 350.78739 : 1"
       id="perspective8146" />
    <linearGradient
       id="linearGradient3211">
      <stop
         style="stop-color:#ffffff;stop-opacity:0;"
         offset="0"
         id="stop3213" />
      <stop
         id="stop3221"
         offset="0.7310338"
         style="stop-color:#ffffff;stop-opacity:0;" />
      <stop
         style="stop-color:#ffffff;stop-opacity:0.29411766;"
         offset="1"
         id="stop3215" />
    </linearGradient>
    <linearGradient
       id="linearGradient4706">
      <stop
         style="stop-color:#ffffff;stop-opacity:0;"
         offset="0"
         id="stop4708" />
      <stop
         id="stop4716"
         offset="0.79603142"
         style="stop-color:#ffffff;stop-opacity:0;" />
      <stop
         id="stop4714"
         offset="0.89287627"
         style="stop-color:#ffffff;stop-opacity:0.23529412;" />
      <stop
         style="stop-color:#ffffff;stop-opacity:0;"
         offset="1"
         id="stop4710" />
    </linearGradient>
    <linearGradient
       id="linearGradient4694">
      <stop
         style="stop-color:#ffffff;stop-opacity:0;"
         offset="0"
         id="stop4696" />
      <stop
         id="stop4702"
         offset="0.5"
         style="stop-color:#ffffff;stop-opacity:0.29411766;" />
      <stop
         style="stop-color:#ffffff;stop-opacity:0;"
         offset="1"
         id="stop4698" />
    </linearGradient>
    <linearGradient
       id="linearGradient3230">
      <stop
         style="stop-color:#00004b;stop-opacity:1;"
         offset="0"
         id="stop3232" />
      <stop
         style="stop-color:#00004b;stop-opacity:0;"
         offset="1"
         id="stop3234" />
    </linearGradient>
    <linearGradient
       id="linearGradient3220">
      <stop
         style="stop-color:#ffffff;stop-opacity:0;"
         offset="0"
         id="stop3222" />
      <stop
         id="stop4762"
         offset="0.5"
         style="stop-color:#ffffff;stop-opacity:0.39215687;" />
      <stop
         style="stop-color:#ffffff;stop-opacity:0;"
         offset="1"
         id="stop3224" />
    </linearGradient>
    <linearGradient
       id="linearGradient3196">
      <stop
         style="stop-color:#00004b;stop-opacity:0.78431374;"
         offset="0"
         id="stop3198" />
      <stop
         style="stop-color:#00004b;stop-opacity:0.19607843;"
         offset="1"
         id="stop3200" />
    </linearGradient>
    <inkscape:perspective
       sodipodi:type="inkscape:persp3d"
       inkscape:vp_x="0 : 526.18109 : 1"
       inkscape:vp_y="0 : 1000 : 0"
       inkscape:vp_z="744.09448 : 526.18109 : 1"
       inkscape:persp3d-origin="372.04724 : 350.78739 : 1"
       id="perspective10-3" />
    <linearGradient
       inkscape:collect="always"
       xlink:href="#linearGradient4694"
       id="linearGradient4733"
       gradientUnits="userSpaceOnUse"
       x1="65.154556"
       y1="938.57727"
       x2="72.898659"
       y2="946.26166" />
    <radialGradient
       inkscape:collect="always"
       xlink:href="#linearGradient4706"
       id="radialGradient4737"
       gradientUnits="userSpaceOnUse"
       gradientTransform="translate(0,1.8494672e-5)"
       cx="123.65975"
       cy="887.74347"
       fx="123.65975"
       fy="887.74347"
       r="48" />
    <linearGradient
       inkscape:collect="always"
       xlink:href="#linearGradient3220"
       id="linearGradient4760"
       x1="59.659748"
       y1="823.73065"
       x2="187.65974"
       y2="951.73065"
       gradientUnits="userSpaceOnUse"
       gradientTransform="translate(-1011.3904,-764.07089)" />
    <linearGradient
       inkscape:collect="always"
       xlink:href="#linearGradient4694"
       id="linearGradient4774"
       gradientUnits="userSpaceOnUse"
       x1="65.154556"
       y1="938.57727"
       x2="72.898659"
       y2="946.26166" />
    <radialGradient
       inkscape:collect="always"
       xlink:href="#linearGradient4706"
       id="radialGradient4778"
       gradientUnits="userSpaceOnUse"
       gradientTransform="translate(0,1.8494672e-5)"
       cx="123.65975"
       cy="887.74347"
       fx="123.65975"
       fy="887.74347"
       r="48" />
    <radialGradient
       inkscape:collect="always"
       xlink:href="#linearGradient4706"
       id="radialGradient4784"
       gradientUnits="userSpaceOnUse"
       gradientTransform="translate(0,1.8494672e-5)"
       cx="123.65975"
       cy="887.74347"
       fx="123.65975"
       fy="887.74347"
       r="48" />
    <linearGradient
       inkscape:collect="always"
       xlink:href="#linearGradient3220"
       id="linearGradient4801"
       gradientUnits="userSpaceOnUse"
       gradientTransform="translate(-1011.3904,-764.07089)"
       x1="59.659748"
       y1="823.73065"
       x2="187.65974"
       y2="951.73065" />
    <radialGradient
       inkscape:collect="always"
       xlink:href="#linearGradient3211"
       id="radialGradient3217"
       cx="150.23766"
       cy="917.46796"
       fx="150.23766"
       fy="917.46796"
       r="28.342707"
       gradientUnits="userSpaceOnUse" />
    <radialGradient
       inkscape:collect="always"
       xlink:href="#linearGradient3211"
       id="radialGradient3229"
       gradientUnits="userSpaceOnUse"
       cx="150.23766"
       cy="917.46796"
       fx="150.23766"
       fy="917.46796"
       r="28.342707" />
    <radialGradient
       inkscape:collect="always"
       xlink:href="#linearGradient3211"
       id="radialGradient3231"
       gradientUnits="userSpaceOnUse"
       cx="150.23766"
       cy="917.46796"
       fx="150.23766"
       fy="917.46796"
       r="28.342707" />
    <radialGradient
       inkscape:collect="always"
       xlink:href="#linearGradient3211"
       id="radialGradient3233"
       gradientUnits="userSpaceOnUse"
       cx="150.23766"
       cy="917.46796"
       fx="150.23766"
       fy="917.46796"
       r="28.342707"
       gradientTransform="matrix(1.2366773,0,0,1.2366773,-62.135732,-246.88113)" />
    <radialGradient
       inkscape:collect="always"
       xlink:href="#linearGradient3211"
       id="radialGradient3236"
       gradientUnits="userSpaceOnUse"
       gradientTransform="matrix(1.2366773,0,0,1.2366773,-62.135732,-246.88113)"
       cx="150.23766"
       cy="917.46796"
       fx="150.23766"
       fy="917.46796"
       r="28.342707" />
    <radialGradient
       inkscape:collect="always"
       xlink:href="#linearGradient3211"
       id="radialGradient3245"
       gradientUnits="userSpaceOnUse"
       gradientTransform="matrix(0.8744629,-0.8744629,0.8744629,0.8744629,-810.00826,216.82588)"
       cx="150.23766"
       cy="917.46796"
       fx="150.23766"
       fy="917.46796"
       r="28.342707" />
    <linearGradient
       inkscape:collect="always"
       xlink:href="#linearGradient4694"
       id="linearGradient2435"
       gradientUnits="userSpaceOnUse"
       x1="65.154556"
       y1="938.57727"
       x2="72.898659"
       y2="946.26166" />
    <radialGradient
       inkscape:collect="always"
       xlink:href="#linearGradient4706"
       id="radialGradient2437"
       gradientUnits="userSpaceOnUse"
       gradientTransform="translate(0,1.8494672e-5)"
       cx="123.65975"
       cy="887.74347"
       fx="123.65975"
       fy="887.74347"
       r="48" />
    <radialGradient
       inkscape:collect="always"
       xlink:href="#linearGradient4706"
       id="radialGradient2440"
       gradientUnits="userSpaceOnUse"
       gradientTransform="translate(0,1.8494672e-5)"
       cx="123.65975"
       cy="887.74347"
       fx="123.65975"
       fy="887.74347"
       r="48" />
    <linearGradient
       inkscape:collect="always"
       xlink:href="#linearGradient4694"
       id="linearGradient2443"
       gradientUnits="userSpaceOnUse"
       x1="65.154556"
       y1="938.57727"
       x2="72.898659"
       y2="946.26166" />
    <inkscape:perspective
       id="perspective10"
       inkscape:persp3d-origin="372.04724 : 350.78739 : 1"
       inkscape:vp_z="744.09448 : 526.18109 : 1"
       inkscape:vp_y="0 : 1000 : 0"
       inkscape:vp_x="0 : 526.18109 : 1"
       sodipodi:type="inkscape:persp3d" />
  </defs>
  <sodipodi:namedview
     id="base"
     pagecolor="#ffffff"
     bordercolor="#666666"
     borderopacity="1.0"
     inkscape:pageopacity="0.0"
     inkscape:pageshadow="2"
     inkscape:zoom="5.725"
     inkscape:cx="70.48035"
     inkscape:cy="33.499999"
     inkscape:document-units="px"
     inkscape:current-layer="layer1"
     showgrid="false"
     inkscape:window-width="1280"
     inkscape:window-height="752"
     inkscape:window-x="0"
     inkscape:window-y="0"
     inkscape:window-maximized="1" />
  <metadata
     id="metadata8143">
    <rdf:RDF>
      <cc:Work
         rdf:about="">
        <dc:format>image/svg+xml</dc:format>
        <dc:type
           rdf:resource="http://purl.org/dc/dcmitype/StillImage" />
        <dc:title></dc:title>
      </cc:Work>
    </rdf:RDF>
  </metadata>
  <g
     inkscape:label="Layer 1"
     inkscape:groupmode="layer"
     id="layer1"
     transform="translate(0,-985.36218)">
    <path
       style="font-size:40px;font-style:normal;font-variant:normal;font-weight:300;font-stretch:normal;text-indent:0;text-align:start;text-decoration:none;line-height:125%;letter-spacing:normal;word-spacing:normal;text-transform:none;direction:ltr;block-progression:tb;writing-mode:lr-tb;text-anchor:start;color:#000000;fill:#ffffff;fill-opacity:1;fill-rule:nonzero;stroke:none;stroke-width:2;marker:none;visibility:visible;display:inline;overflow:visible;enable-background:accumulate;font-family:Raleway;-inkscape-font-specification:Raleway Light"
       d="m 15.19319,985.81699 0,0.83825 0,8.82777 c -1.592163,-1.62149 -3.675033,-2.85528 -6.286837,-2.85528 -5.167277,0 -8.906352296032,4.65602 -8.906352296032,9.84937 0,4.9007 3.838574996032,9.8232 9.220694096032,9.8232 2.2034942,0 4.3437012,-0.9862 5.9724952,-2.5147 0,1.0338 0.772946,2.1212 1.990832,2.1742 0.211992,0.01 0.34938,0.063 0.34938,-0 0,-2.2524 -0.0084,-2.2041 -0.0084,-2.2751 l 0,-23.02552 0,-0.83825 -0.838245,0 -0.654837,0 -0.838245,0 0,-2.5e-4 0,0 -5.03e-4,-2.9e-4 z m 25.540233,1.02162 0,0.83824 0,5.21284 -1.67649,0 -0.838245,0 0,0.83824 0,0.68107 0,0.83825 0.838245,0 1.67649,0 0,13.38575 c 0,2.0984 1.868699,3.5101 3.850646,3.5101 1.064319,0 1.953865,-0.278 2.593362,-0.5501 0.31979,-0.136 0.5747,-0.2568 0.759617,-0.3667 0.09254,-0.055 0.178463,-0.1183 0.235799,-0.1572 0.0285,-0.019 0.05616,-0.036 0.07879,-0.052 0.02263,-0.017 -0.03269,0.033 0.10478,-0.1047 l 0.49775,-0.4716 -0.392969,-0.5763 -0.314342,-0.4715 c -0.01593,-0.027 -0.0084,0.011 -0.107547,-0.1248 -0.12867,-0.1675 -0.08768,-0.1349 -0.144849,-0.1925 -0.176534,-0.2287 -0.09397,-0.1155 -0.292044,-0.3623 -0.436977,0.2959 0.0461,-0.036 -0.236637,0.1591 -0.545446,0.3047 -0.30378,0.1742 -0.320545,0.1835 -0.907316,0.4472 -0.17754,0.092 -0.307635,0.154 -0.124899,0.068 -0.281315,0.1473 -0.49775,0.2357 -0.43287,0.1768 -1.024922,0.3406 -1.650337,0.3406 -0.419038,0 -0.78971,-0.1095 -1.047806,-0.3144 -0.258012,-0.2049 -0.437815,-0.4788 -0.471429,-0.9168 l 0,-13.30716 3.35298,0 0.838245,0 0,-0.83824 0,-0.68108 0,-0.83824 -0.838245,0 -3.35298,0 0,-5.21284 0,-0.83824 -0.838245,0 -0.654921,0 -0.838245,0 -0.0084,-2.9e-4 0,0 0,0 0,0 0,0 0,0 0,0 0,0 0,0 0,0 0,0 0,0 0,0 z m -11.447324,5.78912 c -2.416577,0 -4.619065,1.14985 -6.496398,2.43615 l -0.733465,0.47152 0.523903,0.70727 0.419123,0.55009 0.471596,0.65488 0.680991,-0.47151 c 1.842881,-1.30273 3.71485,-1.99083 5.13425,-1.99083 1.526108,0 2.7051,0.52359 3.536387,1.41454 0.831288,0.89094 1.335911,2.17163 1.335995,3.77206 l 0,0.8645 c -1.161723,-0.3407 -2.756401,-0.7073 -5.003316,-0.7073 -1.620579,0 -3.511073,0.3094 -5.108097,1.1788 -1.59694,0.8694 -2.90762,2.4495 -2.90762,4.6365 0,3.4488 2.902255,6.1559 6.470161,6.1559 2.314059,0 4.753603,-0.6889 6.653653,-2.2266 0.05197,0.4173 0.112073,0.8464 0.392885,1.1788 0.350135,0.4144 0.921986,0.6967 1.519319,0.7073 l 0.345776,0.01 c 0,-1.3346 -0.0084,-0.7667 -0.0084,-2.2849 l 0,-9.5088 c 0,-2.03984 -0.603201,-3.928 -1.833577,-5.31763 -1.23046,-1.38962 -3.103937,-2.22659 -5.396286,-2.22659 l -5.87e-4,-1.6e-4 0,2.1e-4 0,0 0,0 0,0 0,0 0,0 0,0 0,0 0,0 z m 28.107442,0 c -2.416577,0 -4.645302,1.14985 -6.522636,2.43615 l -0.707227,0.47152 0.523903,0.70727 0.392886,0.55009 0.49775,0.65488 0.654836,-0.47151 c 1.842882,-1.30273 3.741088,-1.99083 5.160488,-1.99083 1.526025,0 2.705016,0.52359 3.536304,1.41454 0.831371,0.89094 1.309757,2.17163 1.309841,3.77206 l 0,0.8645 c -1.162059,-0.3398 -2.738127,-0.7073 -4.977163,-0.7073 -1.620579,0 -3.537226,0.3094 -5.13425,1.1788 -1.596941,0.8694 -2.881383,2.4495 -2.881383,4.6365 0,3.4488 2.902171,6.1559 6.470161,6.1559 2.308107,0 4.729378,-0.6972 6.627416,-2.2266 0.05197,0.4179 0.137891,0.8459 0.419122,1.1788 0.350051,0.4144 0.895749,0.697 1.493082,0.7073 l 0.354997,0.01 c 0,-2.0916 -0.01257,-0.3112 -0.01257,-2.2848 l 0,-0.026 0,-9.4826 c 0,-2.03985 -0.603201,-3.92802 -1.833577,-5.31764 -1.23046,-1.38963 -3.0777,-2.22659 -5.370048,-2.22659 l 0,-2.5e-4 0,0 0,0 0,0 0,0 0,2.1e-4 0,0 0,0 0,0 0,0 0,0 0,0 0,0 z m 17.315038,0 c -1.531389,0 -3.208382,0.33103 -4.584194,1.17879 -1.375811,0.84776 -2.409954,2.3261 -2.409954,4.296 0,1.99188 0.903964,3.50008 2.252783,4.37458 1.34882,0.8745 3.058589,1.1788 4.819909,1.1788 1.186619,0 2.586069,0.1799 3.588778,0.6549 1.002624,0.4749 1.597862,1.0862 1.597862,2.4099 0,1.1876 -0.555337,1.8888 -1.519319,2.4362 -0.963981,0.5473 -2.328644,0.812 -3.536304,0.812 -2.001309,0 -3.849136,-0.7513 -5.527219,-2.3051 l -0.550056,-0.4978 -0.576377,0.4978 -0.379725,0.3732 c -0.647461,0.6822 0.0084,-0 -0.646706,0.6678 0.234876,0.3 0.528848,0.5498 0.792057,0.8182 1.630051,1.5233 3.924495,2.7767 6.889368,2.7767 1.546561,0 3.299415,-0.3228 4.767434,-1.1788 1.468102,-0.856 2.645752,-2.3451 2.645752,-4.4008 0,-2.0424 -1.143953,-3.5431 -2.619515,-4.3484 -1.475563,-0.8052 -3.256665,-1.074 -4.924689,-1.074 -1.218138,0 -2.490342,-0.2114 -3.35298,-0.7072 -0.862638,-0.4959 -1.388301,-1.13528 -1.388385,-2.48857 0,-1.16236 0.501522,-1.84118 1.362148,-2.35756 0.86071,-0.51638 2.107599,-0.75966 3.300673,-0.75966 0.79474,0 1.737347,0.0754 2.514735,0.34054 0.777305,0.26508 1.364579,0.65978 1.67649,1.28356 l 0.366648,0.73347 0.707311,-0.34054 0.628684,-0.26195 0.916872,-0.39293 -0.576377,-0.83825 c -1.220401,-1.77514 -3.112319,-2.88146 -6.234363,-2.88146 l 0,5.8e-4 0,0 0,0 0,0 0,0 0,0 0,0 0,0 0,0 0,0 0,0 0,0 0,0 z m 17.996029,0 c -5.140202,0 -8.676422,4.56677 -8.853962,9.48267 -0.02263,0.05 -0.04024,0.1032 -0.05197,0.1572 -0.01341,0.051 -0.02263,0.1041 -0.02599,0.1571 -5.87e-4,0.017 -5.87e-4,0.035 0,0.052 0,0.062 0.0109,0.1235 0.02599,0.1834 0,0.053 0.01257,0.1057 0.02598,0.1571 0.0084,0.01 0.01677,0.018 0.02599,0.026 0.189192,4.7738 3.897168,9.4565 9.142067,9.4565 1.428621,0 3.004269,-0.3609 4.400786,-1.1264 1.396599,-0.7656 2.633511,-1.9543 3.169651,-3.5626 l 0.26196,-0.812 -0.8121,-0.262 -0.680986,-0.1833 -0.838245,-0.262 -0.209561,0.8382 c -0.196988,0.7646 -0.985525,1.5517 -2.043306,2.1219 -1.057698,0.5701 -2.343314,0.9168 -3.248199,0.9168 -3.776629,0 -6.863131,-3.5714 -6.863047,-7.4918 0,-1.7865 0.620385,-3.70657 1.755034,-5.13428 1.134648,-1.42771 2.734271,-2.35756 4.819908,-2.35756 2.393189,0 4.2582,0.86322 5.422355,3.01244 l 0.340579,0.62868 0.681074,-0.26195 0.628683,-0.23576 0.890631,-0.31434 -0.41912,-0.83824 c -1.242947,-2.48584 -3.612079,-4.3484 -7.544202,-4.3484 l 0,4e-5 z m 18.860512,0 c -5.06954,0 -9.11591,4.55977 -9.11591,9.84937 0,4.8613 3.58961,9.5351 8.8278,9.797 0.0352,0 0.0687,-0 0.10478,0 0.0168,0.01 0.0344,0.018 0.052,0.026 0.036,8e-4 0.0687,-8e-4 0.10478,0 0.0176,5e-4 0.0352,5e-4 0.0528,0 0.0176,-4e-4 0.0344,4e-4 0.052,0 0.0805,-0.01 0.16027,-0.024 0.2358,-0.052 0.0352,-0.01 0.0704,-0.015 0.10478,-0.026 4.94078,-0.3388 8.69679,-4.6992 8.69679,-9.7446 0,-2.3749 -0.88368,-4.78202 -2.46235,-6.65356 -1.57866,-1.87153 -3.89306,-3.19581 -6.65357,-3.19581 l 3.4e-4,0 z m 20.27505,0 c -2.20358,0 -4.3437,0.98624 -5.9725,2.51474 l 0,-1.41454 0,-0.83824 -0.83824,0 -0.68108,0 -0.83824,0 0,0.83824 0,24.54487 0,0.8382 0.83824,0 0.68108,0 0.83824,0 0,-0.8382 0,-8.7754 c 1.60675,1.6187 3.73941,2.8029 6.26069,2.8029 2.67366,0 4.88059,-1.1974 6.39161,-3.0124 1.44044,-1.7304 2.24776,-4.0129 2.46226,-6.4179 0.0252,-0.7214 5.9e-4,-0.054 0,-0.7333 -0.17628,-4.77964 -3.85559,-9.50884 -9.14206,-9.50884 l -8.4e-4,-1.3e-4 z m 18.80812,0 c -2.68138,0 -4.91237,1.22964 -6.44401,3.06484 -1.45947,1.74869 -2.24465,4.03672 -2.3838,6.41783 -8.4e-4,0.7559 0,0.049 0,0.7595 0.20176,4.7648 3.90664,9.4302 9.14215,9.4302 2.92338,0 6.429,-1.5345 7.67522,-4.6889 l 0.3405,-0.8644 -0.91688,-0.2358 -0.62868,-0.1834 -0.68099,-0.1833 -0.28819,0.6548 c -0.86641,1.9005 -3.25423,3.1697 -5.50098,3.1697 -3.46086,0 -6.05624,-2.8682 -6.67972,-6.3131 l 14.87884,0 0.83825,0 0,-0.8382 0,-0.3668 c -0.0729,-5.14762 -3.79197,-9.82313 -9.35171,-9.82313 l 0,1.6e-4 z M 8.906353,994.9853 c 1.182009,0 2.584561,0.50239 3.772102,1.33595 1.169771,0.82112 2.109192,1.93832 2.514735,3.09103 l 0,5.89392 c 0,0.044 0,0.087 0,0.131 l 0,0.026 c -0.03521,1.0308 -0.855513,2.1892 -2.069459,3.0649 -1.222748,0.882 -2.800409,1.4407 -3.9030362,1.4407 -3.7767125,0 -6.8893673,-3.5714 -6.8893673,-7.4918 0,-1.8851 0.681074,-3.78253 1.8336607,-5.18667 1.1525868,-1.40414 2.7367859,-2.30517 4.7413648,-2.30517 l 0,4e-5 z m 102.658767,0 c 3.76791,0 6.7845,3.59534 6.7845,7.4918 0,1.7652 -0.68895,3.6807 -1.88605,5.1081 -1.19701,1.4273 -2.8668,2.3837 -4.89845,2.3837 -3.91352,0 -6.62038,-3.546 -6.7845,-7.4918 -4.2e-4,-0.01 3.3e-4,-0.017 0,-0.026 0.008,-1.7583 0.72005,-3.65281 1.9122,-5.0819 1.19785,-1.4359 2.84266,-2.38376 4.8723,-2.38376 l 0,-4e-5 z m 20.27505,0 c 3.75542,0 6.83563,3.5395 6.86313,7.4394 8e-5,0.017 0,0.035 0,0.052 0,0.026 0,0.052 0,0.079 -0.0469,1.851 -0.70379,3.7262 -1.83366,5.108 -1.14555,1.401 -2.73679,2.3052 -4.74128,2.3052 -2.62899,0 -5.11011,-1.9489 -6.26069,-4.427 l 0,-6.07727 c 0,-0.97741 0.80564,-2.14649 2.04322,-3.03864 1.23759,-0.89215 2.85356,-1.44073 3.92928,-1.44073 l 0,4e-5 z m 18.80812,0 c 3.70454,0 6.15892,2.63822 6.75835,6.313 l -13.14997,0 c 0.23245,-1.45916 0.7447,-2.92585 1.67649,-4.06022 1.12249,-1.36648 2.67325,-2.25278 4.71513,-2.25278 z m -121.493125,7.7014 c 1.680178,0 3.362452,0.2789 5.003316,0.8382 l 0,2.8029 c 0,0.1637 -0.08885,0.5002 -0.340579,0.8906 -0.0092,0.014 -0.01676,0.012 -0.02598,0.026 -1.68e-4,0.01 -1.68e-4,0.017 0,0.026 -0.01844,0.017 -0.03521,0.034 -0.05197,0.052 -1.162479,1.7406 -3.814266,2.6457 -6.12975,2.6457 -2.182622,0 -4.112598,-1.4803 -4.112598,-3.8245 0,-1.3122 0.640252,-2.0482 1.728881,-2.6195 1.088628,-0.5712 2.606187,-0.8382 3.929273,-0.8382 l -5.87e-4,10e-5 z m 28.107358,0 c 1.671377,0 3.344513,0.2591 4.977163,0.812 l 0,2.8291 c 0,0.1637 -0.06287,0.5002 -0.314342,0.8906 -0.0092,0.014 -0.01676,0.012 -0.02599,0.026 -0.0092,0.01 -0.0176,0.017 -0.02599,0.026 -0.0092,0.017 -0.0176,0.035 -0.02599,0.052 -1.157448,1.75 -3.807895,2.6457 -6.129666,2.6457 -2.182622,0 -4.138834,-1.4803 -4.138834,-3.8245 0,-1.3122 0.666489,-2.0482 1.755117,-2.6195 1.088545,-0.5712 2.606104,-0.8382 3.92919,-0.8382 l -6.71e-4,10e-5 z"
       id="text5412"
       sodipodi:nodetypes="cccsssccsccccccccccccccccccsssssccccssccccccscccccccccccccccccccccccccccccccsccccsscccccccccscccscscscccccscsccscsscsccccccccscsscsscsscsscsscsscsssscssscccccssscscccccccccscscscsccccccccccccccccccccccscscscscccccccccscccscscccccccccccccccsccccsscscccscccccccccccccccscccscccccccscccsccssccssccscccscccscccscccscccscccscccsccssccsscc" />
    <path
       sodipodi:nodetypes="cccsssccccccsssscccccccccccccccccccccccccccccccsssssccccccsssssccccccccccccccccccccccssccssssccsscccscccccccccccccccccssccccccccsccccccccssccssssccscsccsccccccccccccssssscccccccccccsssssccccccsssssssssscccccccccccsssssccccccsccccccccccccccccccccccccccccccccccccccssccccccssccccc"
       id="text5424"
       d="m 56.214693,1019.1111 0,0.4191 0,21.8992 c 0,0.8297 0.256168,1.6117 0.785939,2.2004 0.529687,0.5886 1.334486,0.9692 2.278936,0.9692 0.618709,0 1.215875,-0.083 1.67649,-0.1572 0.23035,-0.037 0.433121,-0.1643 0.576294,-0.1964 l 0.627677,-0.2748 -0.130933,-0.262 -0.288189,-0.6549 -0.149459,-0.3561 c -0.128587,0.06 -0.156417,0.065 -0.288273,0.1002 -0.03688,0.01 -0.182402,0.059 -0.242168,0.072 -0.119534,0.028 -0.281567,0.068 -0.471513,0.1048 -0.379977,0.073 -0.877475,0.1572 -1.283521,0.1572 -0.532034,0 -0.908071,-0.2259 -1.178824,-0.5501 -0.270753,-0.3242 -0.419122,-0.7676 -0.419122,-1.1526 l 0,-21.8991 0,-0.4192 -0.419123,0 -0.65492,0 -0.419123,0 -1.68e-4,-1e-4 0,0 z m 35.127744,0.4453 0,0.4191 0,2.148 0,0.4192 0.419122,0 0.681074,0 0.420631,3e-4 0,-0.4195 0,-2.148 0,-0.4191 -0.419122,0 -0.681074,0 -0.419123,0 0,0 z m -9.482646,0.5763 0,0.4191 0,5.632 -2.095612,0 -0.419123,0 0,0.4191 0,0.6811 0,0.4191 0.419123,0 2.095612,0 0,13.8049 c 0,1.8539 1.635835,3.091 3.431607,3.091 0.993153,0 1.835505,-0.2423 2.436107,-0.4977 0.30026,-0.1278 0.536729,-0.2654 0.707311,-0.3668 0.08525,-0.051 0.159602,-0.097 0.209562,-0.1309 0.02515,-0.017 0.03521,-0.04 0.05197,-0.052 0.0176,-0.013 0.0084,0.018 0.07879,-0.052 l 0.235714,-0.2358 -0.183324,-0.2881 -0.366732,-0.5501 -0.274106,-0.3014 -0.27595,0.1704 c -0.361703,0.2269 -0.06538,0.029 -0.104781,0.052 -0.0394,0.024 -0.08936,0.068 -0.157255,0.1048 -0.135712,0.074 -0.316102,0.1664 -0.550056,0.2619 -0.467908,0.1911 -1.109166,0.3668 -1.807424,0.3668 -0.502947,0 -0.966999,-0.147 -1.309841,-0.4192 -0.342759,-0.2721 -0.586688,-0.659 -0.628684,-1.2049 l 0,-13.7525 3.772102,0 0.419123,0 0,-0.4191 0,-0.6811 0,-0.4191 -0.419123,0 -3.772102,0 0,-5.632 0,-0.4191 -0.419122,0 -0.654837,0 -0.419123,0 1.68e-4,0 z m -74.1322852,5.7891 c -2.2812835,0 -4.4428657,1.0942 -6.2868369,2.3576 l -0.3405789,0.2358 0.2620354,0.3667 0.3928854,0.5239 0.2357983,0.3405 0.340495,-0.2357 c 1.893763,-1.3387 3.8482148,-2.0694 5.3962017,-2.0694 1.6264466,0 2.9121462,0.5677 3.8244922,1.5455 0.912346,0.9777 1.440692,2.3715 1.440776,4.0602 l 0,1.4146 c -1.078402,-0.3573 -2.855649,-0.8383 -5.3962859,-0.8383 -1.5646679,0 -3.4178598,0.3061 -4.9246889,1.1264 -1.5067452,0.8203 -2.671905651,2.2375 -2.671821826504,4.2698 0,3.2165 2.691185326504,5.7368 6.051038626504,5.7368 2.4845579,0 5.067526,-0.8593 6.941758,-2.6981 l 0,0.6024 c 0,0.4386 0.141328,0.8762 0.419122,1.205 0.250468,0.2965 0.62969,0.5095 1.061889,0.5642 0.04694,0.01 0,-0.01 0.05113,-0.01 0,-1.8004 -0.01257,-0.053 -0.01257,-1.8141 l 0,-9.5612 c 0,-1.9587 -0.579227,-3.7311 -1.728796,-5.0295 -1.149653,-1.2983 -2.8617685,-2.0956 -5.0557069,-2.0956 l -2.515e-4,0 -8.38e-5,0 z m 19.7772992,0 c -2.788925,0 -5.534344,1.5542 -7.229862,3.8769 l 0,-3.1958 0,-0.4191 -0.419123,0 -0.654837,0 -0.419122,0 0,0.4191 0,17.4198 0,0.4191 0.419122,0 0.654837,0 0.419123,0 0,-0.4191 0,-10.8972 c 0.817205,-2.8914 3.905047,-5.6843 7.229862,-5.6843 1.920503,0 2.861433,0.7572 3.431607,2.017 0.570174,1.2598 0.681074,3.0616 0.681074,4.8723 l 0,9.6922 0,0.4191 0.419122,0 0.681074,0 0.419123,0 0,-0.4191 0,-9.6922 c 0,-1.7723 -0.07544,-3.8352 -0.812092,-5.501 -0.736314,-1.6658 -2.244903,-2.9077 -4.819908,-2.9077 z m 17.026934,10e-5 c -2.281284,0 -4.44295,1.0941 -6.286837,2.3575 l -0.340579,0.2358 0.261951,0.3667 0.39297,0.5239 0.235714,0.3405 0.340495,-0.2357 c 1.893847,-1.3387 3.848299,-2.0694 5.396286,-2.0694 1.626363,0 2.912146,0.5677 3.824408,1.5455 0.912346,0.9777 1.440776,2.3715 1.440776,4.0602 l 0,1.4146 c -1.078319,-0.3573 -2.855649,-0.8383 -5.396202,-0.8383 -1.564752,0 -3.41786,0.3061 -4.924689,1.1264 -1.506829,0.8203 -2.671906,2.2375 -2.671906,4.2698 0,3.2165 2.691186,5.7368 6.051123,5.7368 2.484558,0 5.067526,-0.8593 6.941674,-2.6981 l 0,0.6024 c 0,0.4386 0.141412,0.8763 0.419122,1.205 0.232529,0.2753 0.576042,0.4786 0.970017,0.5501 0.07628,0.014 0.05029,0.01 0.13018,0.013 l -5.87e-4,-1.8205 0,-9.5613 c 0,-1.9587 -0.579311,-3.7311 -1.72888,-5.0294 -1.149569,-1.2984 -2.861685,-2.0956 -5.055623,-2.0956 l 5.87e-4,0 z m 59.855881,-10e-5 c -5.01706,0 -8.487227,4.5707 -8.487227,9.4303 0,4.68 3.679644,9.4041 8.801567,9.4041 1.35134,0 2.86219,-0.3455 4.19123,-1.074 1.32904,-0.7286 2.4657,-1.8437 2.96001,-3.3268 l 0.15725,-0.4191 -0.41912,-0.1048 -0.68116,-0.2096 -0.41912,-0.131 -0.10478,0.4192 c -0.24091,0.9355 -1.10673,1.8063 -2.22654,2.4099 -1.11982,0.6036 -2.46051,0.943 -3.45777,0.943 -4.03422,0 -7.308401,-3.7713 -7.308485,-7.9109 8.4e-5,-1.8824 0.659699,-3.886 1.859898,-5.3962 1.200197,-1.5102 2.917927,-2.5147 5.134247,-2.5147 2.50426,0 4.57942,0.9403 5.81533,3.222 l 0.15717,0.3143 0.34049,-0.131 0.62869,-0.2357 0.44536,-0.1572 -0.20956,-0.4191 c -1.19149,-2.3829 -3.36723,-4.1127 -7.17748,-4.1127 z m 17.00062,0 c -1.46978,0 -3.09154,0.3096 -4.37455,1.1002 -1.28302,0.7906 -2.22663,2.1239 -2.22663,3.9555 0,1.8761 0.82299,3.2259 2.06946,4.0341 1.24647,0.8081 2.87358,1.1002 4.58419,1.1002 1.22191,0 2.69965,0.1606 3.79826,0.681 1.0986,0.5204 1.83366,1.3279 1.83366,2.8029 0,1.3398 -0.70094,2.1782 -1.75504,2.7767 -1.05417,0.5985 -2.45371,0.8906 -3.71979,0.8906 -2.1071,0 -4.09709,-0.7948 -5.84148,-2.4099 l -0.26195,-0.262 -0.28819,0.262 -0.49767,0.4191 -0.33848,0.329 0.31225,0.2997 c 1.60457,1.5398 3.91175,2.8553 6.91552,2.8553 1.48587,0 3.18063,-0.2971 4.55804,-1.1002 1.37732,-0.8031 2.40995,-2.1523 2.40995,-4.0603 0,-1.9013 -1.00472,-3.229 -2.3838,-3.9816 -1.37908,-0.7527 -3.11936,-1.0217 -4.74128,-1.0217 -1.2629,0 -2.57274,-0.2057 -3.53639,-0.7596 -0.96364,-0.5539 -1.59786,-1.3739 -1.59786,-2.8553 0,-1.3021 0.61745,-2.1256 1.57171,-2.6981 0.95417,-0.5725 2.25974,-0.8382 3.51007,-0.8382 0.82491,0 1.80231,0.079 2.64575,0.3667 0.84344,0.2876 1.53835,0.7453 1.91229,1.4931 l 0.18332,0.3668 0.36673,-0.1572 0.60253,-0.262 0.44528,-0.2095 -0.28819,-0.4192 c -1.1634,-1.6922 -2.83134,-2.6981 -5.86771,-2.6981 z m -59.882042,0.262 0.288105,0.6025 7.989564,17.2364 c -1.238339,2.821 -1.943136,4.4163 -2.305174,5.2128 -0.187431,0.4123 -0.30051,0.6599 -0.366816,0.7859 -0.05365,0.1018 -0.05784,0.1055 -0.0788,0.131 -0.0084,0.01 -0.02012,-0.01 -0.02598,0 0,0 0,0.022 0,0.026 -0.07041,0.069 -0.112576,0.09 -0.261868,0.131 -0.167481,0.046 -0.476458,0.078 -0.9955,0.078 l -0.419122,0 0,0.4192 0,0.681 0,0.4192 0.419122,0 c 0.650562,0 1.187961,-0.07 1.624184,-0.2358 0.436139,-0.1654 0.780406,-0.4466 0.995332,-0.8121 l 0.235798,-0.3929 0,-0.026 0.02599,-0.026 10.347044,-23.628 0.261951,-0.6025 -0.654837,0 -0.733464,0 -0.248875,0.013 -0.117941,0.2488 -6.915521,15.7171 -7.282169,-15.7433 -0.10478,-0.2357 -0.288189,0 -0.733464,0 -0.654837,0 2.51e-4,0 0,0 z m 29.836239,0.079 0,0.4192 0,17.3412 0,0.4191 0.419122,0 0.681074,0 0.419123,0 0,-0.4191 0,-17.3412 0,-0.4192 -0.419123,0 -0.681074,0 -0.419122,0 z m -69.679109,3.0911 c -0.08215,0.085 -0.157507,0.1737 -0.235799,0.2619 0.08047,-0.088 0.151974,-0.1768 0.235799,-0.2619 z m -14.0668399,5.7891 c 1.8047413,0 3.6278399,0.3034 5.3962859,0.943 l 0,3.1172 c 0,0.286 -0.11484,0.6962 -0.419123,1.1526 -1.257786,1.9633 -4.0773069,2.9077 -6.522635,2.9077 -2.3822083,0 -4.5579568,-1.6633 -4.5579568,-4.2436 0,-1.4692 0.7853517,-2.3936 1.9646785,-3.0125 1.1792429,-0.6188 2.7646994,-0.8644 4.1387504,-0.8644 z m 36.8042329,0 c 1.804658,0 3.627756,0.3034 5.396202,0.943 l 0,3.1172 c 0,0.286 -0.11484,0.6962 -0.419123,1.1526 -1.257702,1.9633 -4.077307,2.9077 -6.522551,2.9077 -2.382292,0 -4.558041,-1.6633 -4.558041,-4.2436 0,-1.4692 0.785436,-2.3936 1.964679,-3.0125 1.179243,-0.6188 2.764783,-0.8644 4.138834,-0.8644 z"
       style="font-size:40px;font-style:normal;font-variant:normal;font-weight:300;font-stretch:normal;text-indent:0;text-align:start;text-decoration:none;line-height:125%;letter-spacing:normal;word-spacing:normal;text-transform:none;direction:ltr;block-progression:tb;writing-mode:lr-tb;text-anchor:start;color:#000000;fill:#ffffff;fill-opacity:1;fill-rule:nonzero;stroke:none;stroke-width:1;marker:none;visibility:visible;display:inline;overflow:visible;enable-background:accumulate;font-family:Raleway;-inkscape-font-specification:Raleway Light" />
  </g>
</svg>
