<?xml version="1.0" encoding="UTF-8" standalone="no"?>
<!-- Created with Inkscape (http://www.inkscape.org/) -->

<svg
   xmlns:dc="http://purl.org/dc/elements/1.1/"
   xmlns:cc="http://creativecommons.org/ns#"
   xmlns:rdf="http://www.w3.org/1999/02/22-rdf-syntax-ns#"
   xmlns:svg="http://www.w3.org/2000/svg"
   xmlns="http://www.w3.org/2000/svg"
   xmlns:xlink="http://www.w3.org/1999/xlink"
   xmlns:sodipodi="http://sodipodi.sourceforge.net/DTD/sodipodi-0.dtd"
   xmlns:inkscape="http://www.inkscape.org/namespaces/inkscape"
   width="160"
   height="67"
   id="svg8138"
   version="1.1"
   inkscape:version="0.47 r22583"
   inkscape:export-filename="/Users/stringer/Desktop/facebook_picture_with_logo.png"
   inkscape:export-xdpi="270"
   inkscape:export-ydpi="270"
   sodipodi:docname="logo_square_with_caption.svg">
  <defs
     id="defs8140">
    <inkscape:perspective
       sodipodi:type="inkscape:persp3d"
       inkscape:vp_x="0 : 526.18109 : 1"
       inkscape:vp_y="0 : 1000 : 0"
       inkscape:vp_z="744.09448 : 526.18109 : 1"
       inkscape:persp3d-origin="372.04724 : 350.78739 : 1"
       id="perspective8146" />
    <linearGradient
       id="linearGradient3211">
      <stop
         style="stop-color:#ffffff;stop-opacity:0;"
         offset="0"
         id="stop3213" />
      <stop
         id="stop3221"
         offset="0.7310338"
         style="stop-color:#ffffff;stop-opacity:0;" />
      <stop
         style="stop-color:#ffffff;stop-opacity:0.29411766;"
         offset="1"
         id="stop3215" />
    </linearGradient>
    <linearGradient
       id="linearGradient4706">
      <stop
         style="stop-color:#ffffff;stop-opacity:0;"
         offset="0"
         id="stop4708" />
      <stop
         id="stop4716"
         offset="0.79603142"
         style="stop-color:#ffffff;stop-opacity:0;" />
      <stop
         id="stop4714"
         offset="0.89287627"
         style="stop-color:#ffffff;stop-opacity:0.23529412;" />
      <stop
         style="stop-color:#ffffff;stop-opacity:0;"
         offset="1"
         id="stop4710" />
    </linearGradient>
    <linearGradient
       id="linearGradient4694">
      <stop
         style="stop-color:#ffffff;stop-opacity:0;"
         offset="0"
         id="stop4696" />
      <stop
         id="stop4702"
         offset="0.5"
         style="stop-color:#ffffff;stop-opacity:0.29411766;" />
      <stop
         style="stop-color:#ffffff;stop-opacity:0;"
         offset="1"
         id="stop4698" />
    </linearGradient>
    <linearGradient
       id="linearGradient3230">
      <stop
         style="stop-color:#00004b;stop-opacity:1;"
         offset="0"
         id="stop3232" />
      <stop
         style="stop-color:#00004b;stop-opacity:0;"
         offset="1"
         id="stop3234" />
    </linearGradient>
    <linearGradient
       id="linearGradient3220">
      <stop
         style="stop-color:#ffffff;stop-opacity:0;"
         offset="0"
         id="stop3222" />
      <stop
         id="stop4762"
         offset="0.5"
         style="stop-color:#ffffff;stop-opacity:0.39215687;" />
      <stop
         style="stop-color:#ffffff;stop-opacity:0;"
         offset="1"
         id="stop3224" />
    </linearGradient>
    <linearGradient
       id="linearGradient3196">
      <stop
         style="stop-color:#00004b;stop-opacity:0.78431374;"
         offset="0"
         id="stop3198" />
      <stop
         style="stop-color:#00004b;stop-opacity:0.19607843;"
         offset="1"
         id="stop3200" />
    </linearGradient>
    <inkscape:perspective
       sodipodi:type="inkscape:persp3d"
       inkscape:vp_x="0 : 526.18109 : 1"
       inkscape:vp_y="0 : 1000 : 0"
       inkscape:vp_z="744.09448 : 526.18109 : 1"
       inkscape:persp3d-origin="372.04724 : 350.78739 : 1"
       id="perspective10-3" />
    <linearGradient
       inkscape:collect="always"
       xlink:href="#linearGradient4694"
       id="linearGradient4733"
       gradientUnits="userSpaceOnUse"
       x1="65.154556"
       y1="938.57727"
       x2="72.898659"
       y2="946.26166" />
    <radialGradient
       inkscape:collect="always"
       xlink:href="#linearGradient4706"
       id="radialGradient4737"
       gradientUnits="userSpaceOnUse"
       gradientTransform="translate(0,1.8494672e-5)"
       cx="123.65975"
       cy="887.74347"
       fx="123.65975"
       fy="887.74347"
       r="48" />
    <linearGradient
       inkscape:collect="always"
       xlink:href="#linearGradient3220"
       id="linearGradient4760"
       x1="59.659748"
       y1="823.73065"
       x2="187.65974"
       y2="951.73065"
       gradientUnits="userSpaceOnUse"
       gradientTransform="translate(-1011.3904,-764.07089)" />
    <linearGradient
       inkscape:collect="always"
       xlink:href="#linearGradient4694"
       id="linearGradient4774"
       gradientUnits="userSpaceOnUse"
       x1="65.154556"
       y1="938.57727"
       x2="72.898659"
       y2="946.26166" />
    <radialGradient
       inkscape:collect="always"
       xlink:href="#linearGradient4706"
       id="radialGradient4778"
       gradientUnits="userSpaceOnUse"
       gradientTransform="translate(0,1.8494672e-5)"
       cx="123.65975"
       cy="887.74347"
       fx="123.65975"
       fy="887.74347"
       r="48" />
    <radialGradient
       inkscape:collect="always"
       xlink:href="#linearGradient4706"
       id="radialGradient4784"
       gradientUnits="userSpaceOnUse"
       gradientTransform="translate(0,1.8494672e-5)"
       cx="123.65975"
       cy="887.74347"
       fx="123.65975"
       fy="887.74347"
       r="48" />
    <linearGradient
       inkscape:collect="always"
       xlink:href="#linearGradient3220"
       id="linearGradient4801"
       gradientUnits="userSpaceOnUse"
       gradientTransform="translate(-1011.3904,-764.07089)"
       x1="59.659748"
       y1="823.73065"
       x2="187.65974"
       y2="951.73065" />
    <radialGradient
       inkscape:collect="always"
       xlink:href="#linearGradient3211"
       id="radialGradient3217"
       cx="150.23766"
       cy="917.46796"
       fx="150.23766"
       fy="917.46796"
       r="28.342707"
       gradientUnits="userSpaceOnUse" />
    <radialGradient
       inkscape:collect="always"
       xlink:href="#linearGradient3211"
       id="radialGradient3229"
       gradientUnits="userSpaceOnUse"
       cx="150.23766"
       cy="917.46796"
       fx="150.23766"
       fy="917.46796"
       r="28.342707" />
    <radialGradient
       inkscape:collect="always"
       xlink:href="#linearGradient3211"
       id="radialGradient3231"
       gradientUnits="userSpaceOnUse"
       cx="150.23766"
       cy="917.46796"
       fx="150.23766"
       fy="917.46796"
       r="28.342707" />
    <radialGradient
       inkscape:collect="always"
       xlink:href="#linearGradient3211"
       id="radialGradient3233"
       gradientUnits="userSpaceOnUse"
       cx="150.23766"
       cy="917.46796"
       fx="150.23766"
       fy="917.46796"
       r="28.342707"
       gradientTransform="matrix(1.2366773,0,0,1.2366773,-62.135732,-246.88113)" />
    <radialGradient
       inkscape:collect="always"
       xlink:href="#linearGradient3211"
       id="radialGradient3236"
       gradientUnits="userSpaceOnUse"
       gradientTransform="matrix(1.2366773,0,0,1.2366773,-62.135732,-246.88113)"
       cx="150.23766"
       cy="917.46796"
       fx="150.23766"
       fy="917.46796"
       r="28.342707" />
    <radialGradient
       inkscape:collect="always"
       xlink:href="#linearGradient3211"
       id="radialGradient3245"
       gradientUnits="userSpaceOnUse"
       gradientTransform="matrix(0.8744629,-0.8744629,0.8744629,0.8744629,-810.00826,216.82588)"
       cx="150.23766"
       cy="917.46796"
       fx="150.23766"
       fy="917.46796"
       r="28.342707" />
    <linearGradient
       inkscape:collect="always"
       xlink:href="#linearGradient4694"
       id="linearGradient2435"
       gradientUnits="userSpaceOnUse"
       x1="65.154556"
       y1="938.57727"
       x2="72.898659"
       y2="946.26166" />
    <radialGradient
       inkscape:collect="always"
       xlink:href="#linearGradient4706"
       id="radialGradient2437"
       gradientUnits="userSpaceOnUse"
       gradientTransform="translate(0,1.8494672e-5)"
       cx="123.65975"
       cy="887.74347"
       fx="123.65975"
       fy="887.74347"
       r="48" />
    <radialGradient
       inkscape:collect="always"
       xlink:href="#linearGradient4706"
       id="radialGradient2440"
       gradientUnits="userSpaceOnUse"
       gradientTransform="translate(0,1.8494672e-5)"
       cx="123.65975"
       cy="887.74347"
       fx="123.65975"
       fy="887.74347"
       r="48" />
    <linearGradient
       inkscape:collect="always"
       xlink:href="#linearGradient4694"
       id="linearGradient2443"
       gradientUnits="userSpaceOnUse"
       x1="65.154556"
       y1="938.57727"
       x2="72.898659"
       y2="946.26166" />
    <inkscape:perspective
       id="perspective10"
       inkscape:persp3d-origin="372.04724 : 350.78739 : 1"
       inkscape:vp_z="744.09448 : 526.18109 : 1"
       inkscape:vp_y="0 : 1000 : 0"
       inkscape:vp_x="0 : 526.18109 : 1"
       sodipodi:type="inkscape:persp3d" />
  </defs>
  <sodipodi:namedview
     id="base"
     pagecolor="#ffffff"
     bordercolor="#666666"
     borderopacity="1.0"
     inkscape:pageopacity="0.0"
     inkscape:pageshadow="2"
     inkscape:zoom="5.725"
     inkscape:cx="80"
     inkscape:cy="33.499999"
     inkscape:document-units="px"
     inkscape:current-layer="layer1"
     showgrid="false"
     inkscape:window-width="1280"
     inkscape:window-height="752"
     inkscape:window-x="0"
     inkscape:window-y="0"
     inkscape:window-maximized="1" />
  <metadata
     id="metadata8143">
    <rdf:RDF>
      <cc:Work
         rdf:about="">
        <dc:format>image/svg+xml</dc:format>
        <dc:type
           rdf:resource="http://purl.org/dc/dcmitype/StillImage" />
        <dc:title></dc:title>
      </cc:Work>
    </rdf:RDF>
  </metadata>
  <g
     inkscape:label="Layer 1"
     inkscape:groupmode="layer"
     id="layer1"
     transform="translate(0,-985.36218)">
    <g
       id="g9361"
       transform="matrix(0.83824492,0,0,0.83824492,-19.32188,360.26575)">
      <path
         sodipodi:nodetypes="cccsssccsccccccccccccccccccsssssccccssccccccscccccccccccccccccccccccccccccccsccccsscccccccccscccscscscccccscsccscsscsccccccccscsscsscsscsscsscsscsssscssscccccssscscccccccccscscscsccccccccccccccccccccccscscscscccccccccscccscscccccccccccccccsccccsscscccscccccccccccccccscccscccccccscccsccssccssccscccscccscccscccscccscccscccsccssccsscc"
         id="text5412"
         d="m 41.1754,746.26309 0,1 0,10.53125 c -1.8994,-1.93438 -4.3842,-3.40625 -7.5,-3.40625 -6.1644,0 -10.625,5.55448 -10.625,11.75 0,5.84631 4.5793,11.71875 11,11.71875 2.6287,0 5.1819,-1.17655 7.125,-3 0,1.23333 0.9221,2.53058 2.375,2.59375 0.2529,0.008 0.4168,0.0755 0.4168,-0.004 0,-2.68707 -0.01,-2.6294 -0.01,-2.71411 l 0,-27.46875 0,-1 -1,0 -0.7812,0 -1,0 0,-3e-4 0,0 -6e-4,-3.5e-4 z m 30.4687,1.21875 0,1 0,6.21875 -2,0 -1,0 0,1 0,0.8125 0,1 1,0 2,0 0,15.96875 c 0,2.50333 2.2293,4.1875 4.5937,4.1875 1.2697,0 2.3309,-0.33172 3.0938,-0.65625 0.3815,-0.16226 0.6856,-0.30643 0.9062,-0.4375 0.1104,-0.0655 0.2129,-0.14109 0.2813,-0.1875 0.034,-0.0232 0.067,-0.0427 0.094,-0.0625 0.027,-0.0198 -0.039,0.0396 0.125,-0.125 l 0.5938,-0.5625 -0.4688,-0.6875 -0.375,-0.5625 c -0.019,-0.0324 -0.01,0.0136 -0.1283,-0.14894 -0.1535,-0.19981 -0.1046,-0.16091 -0.1728,-0.22965 -0.2106,-0.27277 -0.1121,-0.13772 -0.3484,-0.43222 -0.5213,0.35302 0.055,-0.0431 -0.2823,0.18978 -0.6507,0.36355 -0.3624,0.20792 -0.3824,0.21902 -1.0824,0.53345 -0.2118,0.10974 -0.367,0.18361 -0.149,0.0814 -0.3356,0.17582 -0.5938,0.28125 -0.5164,0.21086 -1.2227,0.40625 -1.9688,0.40625 -0.4999,0 -0.9421,-0.13056 -1.25,-0.375 -0.3078,-0.24444 -0.5223,-0.57116 -0.5624,-1.09375 l 0,-15.875 4,0 1,0 0,-1 0,-0.8125 0,-1 -1,0 -4,0 0,-6.21875 0,-1 -1,0 -0.7813,0 -1,0 -0.01,-3.5e-4 0,0 0,0 0,0 0,0 0,0 0,0 0,0 0,0 0,0 0,0 0,0 0,0 z m -13.6563,6.90625 c -2.8829,0 -5.5104,1.37173 -7.75,2.90625 l -0.875,0.5625 0.625,0.84375 0.5,0.65625 0.5626,0.78125 0.8124,-0.5625 c 2.1985,-1.55411 4.4317,-2.375 6.125,-2.375 1.8206,0 3.2271,0.62463 4.2188,1.6875 0.9917,1.06287 1.5937,2.59069 1.5938,4.5 l 0,1.03125 c -1.3859,-0.40645 -3.2883,-0.84375 -5.9688,-0.84375 -1.9333,0 -4.1886,0.36913 -6.0938,1.40625 -1.9051,1.03712 -3.4687,2.9222 -3.4687,5.53125 0,4.1143 3.4623,7.34375 7.7187,7.34375 2.7606,0 5.6709,-0.82181 7.9376,-2.65625 0.062,0.49781 0.1337,1.00968 0.4687,1.40625 0.4177,0.49441 1.0999,0.83121 1.8125,0.84375 l 0.4125,0.007 c 0,-1.59215 -0.01,-0.91466 -0.01,-2.72581 l 0,-11.34375 c 0,-2.43345 -0.7196,-4.68597 -2.1874,-6.34375 -1.4679,-1.65778 -3.7029,-2.65625 -6.4376,-2.65625 l -7e-4,-2e-4 0,2.6e-4 0,0 0,0 0,0 0,0 0,0 0,0 0,0 0,0 z m 33.5313,0 c -2.8829,0 -5.5417,1.37173 -7.7813,2.90625 l -0.8437,0.5625 0.625,0.84375 0.4687,0.65625 0.5938,0.78125 0.7812,-0.5625 c 2.1985,-1.55411 4.463,-2.375 6.1563,-2.375 1.8205,0 3.227,0.62463 4.2187,1.6875 0.9918,1.06287 1.5625,2.59069 1.5626,4.5 l 0,1.03125 c -1.3863,-0.40533 -3.2665,-0.84375 -5.9376,-0.84375 -1.9333,0 -4.2198,0.36913 -6.125,1.40625 -1.9051,1.03712 -3.4374,2.9222 -3.4374,5.53125 0,4.1143 3.4622,7.34375 7.7187,7.34375 2.7535,0 5.642,-0.8317 7.9063,-2.65625 0.062,0.49851 0.1645,1.00916 0.5,1.40625 0.4176,0.49441 1.0686,0.83154 1.7812,0.84375 l 0.4235,0.007 c 0,-2.4953 -0.015,-0.37124 -0.015,-2.72576 l 0,-0.0312 0,-11.3125 c 0,-2.43344 -0.7196,-4.68597 -2.1874,-6.34375 -1.4679,-1.65778 -3.6716,-2.65625 -6.4063,-2.65625 l 0,-3e-4 0,0 0,0 0,0 0,0 0,2.6e-4 0,0 0,0 0,0 0,0 0,0 0,0 0,0 z m 20.6563,0 c -1.8269,0 -3.8275,0.3949 -5.4688,1.40625 -1.6413,1.01135 -2.875,2.77497 -2.875,5.125 0,2.37619 1.0784,4.17551 2.6875,5.21875 1.6091,1.04324 3.6488,1.40625 5.75,1.40625 1.4156,0 3.0851,0.21464 4.2813,0.78125 1.1961,0.56661 1.9062,1.29583 1.9062,2.875 0,1.4167 -0.6625,2.25329 -1.8125,2.90625 -1.15,0.65296 -2.778,0.96875 -4.2187,0.96875 -2.3875,0 -4.5919,-0.89635 -6.5938,-2.75 l -0.6562,-0.59375 -0.6876,0.59375 -0.453,0.44531 c -0.7724,0.81382 0.01,-0.003 -0.7715,0.79663 0.2802,0.35785 0.6309,0.6559 0.9449,0.97611 1.9446,1.81724 4.6818,3.3125 8.2188,3.3125 1.845,0 3.9361,-0.38508 5.6874,-1.40625 1.7514,-1.02117 3.1563,-2.79763 3.1563,-5.25 0,-2.43651 -1.3647,-4.22681 -3.125,-5.1875 -1.7603,-0.96069 -3.8851,-1.28125 -5.875,-1.28125 -1.4532,0 -2.9709,-0.25221 -4,-0.84375 -1.0291,-0.59154 -1.6562,-1.35432 -1.6563,-2.96875 0,-1.38666 0.5983,-2.19647 1.625,-2.8125 1.0268,-0.61603 2.5143,-0.90625 3.9376,-0.90625 0.9481,0 2.0726,0.09 3,0.40625 0.9273,0.31624 1.6279,0.7871 2,1.53125 l 0.4374,0.875 0.8438,-0.40625 0.75,-0.3125 1.0938,-0.46875 -0.6876,-1 c -1.4559,-2.11769 -3.7129,-3.4375 -7.4374,-3.4375 l 0,7e-4 0,0 0,0 0,0 0,0 0,0 0,0 0,0 0,0 0,0 0,0 0,0 0,0 z m 21.4687,0 c -6.1321,0 -10.3507,5.44801 -10.5625,11.3125 -0.027,0.0602 -0.048,0.12316 -0.062,0.1875 -0.016,0.0613 -0.027,0.12421 -0.031,0.1875 -7e-4,0.0208 -7e-4,0.0417 0,0.0625 0,0.0738 0.013,0.14728 0.031,0.21875 0,0.0633 0.015,0.12617 0.031,0.1875 0.01,0.0106 0.02,0.021 0.031,0.0312 0.2257,5.69496 4.6492,11.28125 10.9062,11.28125 1.7043,0 3.584,-0.43045 5.25,-1.34375 1.6661,-0.9133 3.1417,-2.33134 3.7813,-4.25 l 0.3125,-0.96875 -0.9688,-0.3125 -0.8124,-0.21875 -1,-0.3125 -0.25,1 c -0.235,0.91214 -1.1757,1.8511 -2.4376,2.53125 -1.2618,0.68015 -2.7955,1.09375 -3.875,1.09375 -4.5054,0 -8.1875,-4.26058 -8.1874,-8.9375 0,-2.13118 0.7401,-4.42179 2.0937,-6.125 1.3536,-1.70321 3.2619,-2.8125 5.75,-2.8125 2.855,0 5.0799,1.0298 6.4687,3.59375 l 0.4063,0.75 0.8125,-0.3125 0.75,-0.28125 1.0625,-0.375 -0.5,-1 c -1.4828,-2.96553 -4.3091,-5.1875 -9,-5.1875 l 0,5e-5 z m 22.5,0 c -6.0478,0 -10.875,5.43966 -10.875,11.75 0,5.79938 4.2823,11.37512 10.5313,11.6875 0.042,0.002 0.082,-0.002 0.125,0 0.02,0.0111 0.041,0.0215 0.062,0.0312 0.043,10e-4 0.082,-8.8e-4 0.125,0 0.021,6.6e-4 0.042,6.6e-4 0.063,0 0.021,-4.6e-4 0.041,5.8e-4 0.062,0 0.096,-0.007 0.1912,-0.0283 0.2813,-0.0625 0.042,-0.008 0.084,-0.0181 0.125,-0.0312 5.8942,-0.40413 10.375,-5.60606 10.375,-11.625 0,-2.83323 -1.0542,-5.70482 -2.9375,-7.9375 -1.8833,-2.23268 -4.6443,-3.8125 -7.9375,-3.8125 l 4e-4,0 z m 24.1875,0 c -2.6288,0 -5.1819,1.17655 -7.125,3 l 0,-1.6875 0,-1 -1,0 -0.8125,0 -1,0 0,1 0,29.28125 0,1 1,0 0.8125,0 1,0 0,-1 0,-10.46875 c 1.9168,1.93099 4.461,3.34375 7.4688,3.34375 3.1896,0 5.8224,-1.42849 7.625,-3.59375 1.7184,-2.06426 2.6815,-4.78725 2.9374,-7.65625 0.03,-0.86066 7e-4,-0.0648 0,-0.87485 -0.2103,-5.70196 -4.5996,-11.34375 -10.9062,-11.34375 l -0.001,-1.5e-4 z m 22.4375,0 c -3.1988,0 -5.8603,1.46692 -7.6875,3.65625 -1.7411,2.08614 -2.6778,4.81569 -2.8438,7.65625 -0.001,0.9018 0,0.0582 0,0.90605 0.2407,5.6843 4.6605,11.25 10.9063,11.25 3.4875,0 7.6696,-1.83059 9.1563,-5.59375 l 0.4062,-1.03125 -1.0938,-0.28125 -0.75,-0.21875 -0.8124,-0.21875 -0.3438,0.78125 c -1.0336,2.26719 -3.8822,3.78125 -6.5625,3.78125 -4.1287,0 -7.2249,-3.42168 -7.9687,-7.53125 l 17.75,0 1,0 0,-1 0,-0.4375 c -0.087,-6.14101 -4.5237,-11.71875 -11.1563,-11.71875 l 0,2e-4 z m -169.0937,2.8125 c 1.4101,0 3.0833,0.59934 4.5,1.59375 1.3955,0.97957 2.5162,2.31235 3,3.6875 l 0,7.03125 c 0,0.052 0,0.10427 0,0.15625 l 0,0.0312 c -0.042,1.22975 -1.0206,2.61157 -2.4688,3.65625 -1.4587,1.05223 -3.3408,1.71875 -4.6562,1.71875 -4.5055,0 -8.2188,-4.26058 -8.2188,-8.9375 0,-2.24881 0.8125,-4.51241 2.1875,-6.1875 1.375,-1.67509 3.2649,-2.75 5.6563,-2.75 l 0,5e-5 z m 122.4687,0 c 4.495,0 8.0937,4.28913 8.0937,8.9375 0,2.10576 -0.8219,4.39095 -2.25,6.09375 -1.428,1.7028 -3.42,2.84375 -5.8437,2.84375 -4.6687,0 -7.8979,-4.23033 -8.0937,-8.9375 -5e-4,-0.0104 4e-4,-0.0208 0,-0.0312 0.01,-2.09751 0.859,-4.35764 2.2812,-6.0625 1.429,-1.71298 3.3912,-2.84375 5.8125,-2.84375 l 0,-5e-5 z m 24.1875,0 c 4.4801,0 8.1547,4.22252 8.1875,8.875 1e-4,0.0208 0,0.0416 0,0.0625 0,0.0312 0,0.0625 0,0.0937 -0.056,2.20826 -0.8396,4.44535 -2.1875,6.09375 -1.3666,1.67132 -3.2649,2.75 -5.6562,2.75 -3.1363,0 -6.0962,-2.32497 -7.4688,-5.28125 l 0,-7.25 c 0,-1.16602 0.9611,-2.56069 2.4375,-3.625 1.4764,-1.06431 3.4042,-1.71875 4.6875,-1.71875 l 0,5e-5 z m 22.4375,0 c 4.4194,0 7.3474,3.14732 8.0625,7.53125 l -15.6875,0 c 0.2773,-1.74077 0.8884,-3.49048 2,-4.84375 1.3391,-1.63017 3.1891,-2.6875 5.625,-2.6875 z m -144.9375,9.1875 c 2.0044,0 4.0113,0.33281 5.9688,1 l 0,3.34375 c 0,0.19525 -0.106,0.59674 -0.4063,1.0625 -0.011,0.0166 -0.02,0.0144 -0.031,0.0312 -2e-4,0.0104 -2e-4,0.0208 0,0.0312 -0.022,0.0199 -0.042,0.0408 -0.062,0.0625 -1.3868,2.07648 -4.5503,3.15625 -7.3126,3.15625 -2.6038,0 -4.9062,-1.766 -4.9062,-4.5625 0,-1.56543 0.7638,-2.44351 2.0625,-3.125 1.2987,-0.68149 3.1091,-1 4.6875,-1 l -7e-4,1e-4 z m 33.5312,0 c 1.9939,0 3.9899,0.30915 5.9376,0.96875 l 0,3.375 c 0,0.19526 -0.075,0.59671 -0.375,1.0625 -0.011,0.0166 -0.02,0.0144 -0.031,0.0312 -0.011,0.0102 -0.021,0.0206 -0.031,0.0312 -0.011,0.0205 -0.021,0.0413 -0.031,0.0625 -1.3808,2.0877 -4.5427,3.15625 -7.3125,3.15625 -2.6038,0 -4.9375,-1.766 -4.9375,-4.5625 0,-1.56543 0.7951,-2.44351 2.0938,-3.125 1.2986,-0.68149 3.109,-1 4.6874,-1 l -8e-4,1e-4 z"
         style="font-size:40px;font-style:normal;font-variant:normal;font-weight:300;font-stretch:normal;text-indent:0;text-align:start;text-decoration:none;line-height:125%;letter-spacing:normal;word-spacing:normal;text-transform:none;direction:ltr;block-progression:tb;writing-mode:lr-tb;text-anchor:start;color:#000000;fill:#ff6000;fill-opacity:1;fill-rule:nonzero;stroke:none;stroke-width:2;marker:none;visibility:visible;display:inline;overflow:visible;enable-background:accumulate;font-family:Raleway;-inkscape-font-specification:Raleway Light" />
      <g
         transform="translate(-1227.0434,1347.0132)"
         id="g5422">
        <path
           sodipodi:nodetypes="cccsssccccccsssscccccccccccccccccccccccccccccccsssssccccccsssssccccccccccccccccccccccssccssssccsscccscccccccccccccccccssccccccccsccccccccssccssssccscsccsccccccccccccssssscccccccccccsssssccccccsssssssssscccccccccccsssssccccccsccccccccccccccccccccccccccccccccccccccssccccccssccccc"
           id="text5424"
           d="m 1317.1562,-561.03125 0,0.5 0,26.125 c 0,0.98985 0.3056,1.92279 0.9376,2.625 0.6319,0.70221 1.592,1.15625 2.7187,1.15625 0.7381,0 1.4505,-0.0994 2,-0.1875 0.2748,-0.0441 0.5167,-0.19608 0.6875,-0.23438 l 0.7488,-0.32782 -0.1562,-0.3125 -0.3438,-0.78125 -0.1783,-0.42488 c -0.1534,0.0715 -0.1866,0.0774 -0.3439,0.11959 -0.044,0.0102 -0.2176,0.07 -0.2889,0.0864 -0.1426,0.0329 -0.3359,0.0816 -0.5625,0.125 -0.4533,0.0868 -1.0468,0.1875 -1.5312,0.1875 -0.6347,0 -1.0833,-0.26949 -1.4063,-0.65625 -0.323,-0.38676 -0.5,-0.91569 -0.5,-1.375 l 0,-26.125 0,-0.5 -0.5,0 -0.7813,0 -0.5,0 -2e-4,-2e-4 0,4e-5 z m 41.9063,0.53125 0,0.5 0,2.5625 0,0.5 0.5,0 0.8125,0 0.5018,4.2e-4 0,-0.50042 0,-2.5625 0,-0.5 -0.5,0 -0.8125,0 -0.5,0 0,0 z m -11.3125,0.6875 0,0.5 0,6.71875 -2.5,0 -0.5,0 0,0.5 0,0.8125 0,0.5 0.5,0 2.5,0 0,16.46875 c 0,2.21167 1.9515,3.6875 4.0938,3.6875 1.1848,0 2.1897,-0.28899 2.9062,-0.59375 0.3582,-0.15238 0.6403,-0.31665 0.8438,-0.4375 0.1017,-0.0604 0.1904,-0.11582 0.25,-0.15625 0.03,-0.0202 0.042,-0.0474 0.062,-0.0625 0.021,-0.0151 0.01,0.021 0.094,-0.0625 l 0.2812,-0.28125 -0.2187,-0.34375 -0.4375,-0.65625 -0.327,-0.35957 -0.3292,0.20332 c -0.4315,0.27067 -0.078,0.0344 -0.125,0.0625 -0.047,0.0281 -0.1066,0.0807 -0.1876,0.125 -0.1619,0.0885 -0.3771,0.19854 -0.6562,0.3125 -0.5582,0.22793 -1.3232,0.4375 -2.1562,0.4375 -0.6,0 -1.1536,-0.17528 -1.5626,-0.5 -0.4089,-0.32472 -0.6999,-0.78621 -0.75,-1.4375 l 0,-16.40625 4.5,0 0.5,0 0,-0.5 0,-0.8125 0,-0.5 -0.5,0 -4.5,0 0,-6.71875 0,-0.5 -0.5,0 -0.7812,0 -0.5,0 2e-4,0 z m -88.4375,6.90625 c -2.7215,0 -5.3002,1.30524 -7.5,2.8125 l -0.4063,0.28125 0.3126,0.4375 0.4687,0.625 0.2813,0.40625 0.4062,-0.28125 c 2.2592,-1.59705 4.5908,-2.46875 6.4375,-2.46875 1.9403,0 3.4741,0.67731 4.5625,1.84375 1.0884,1.16644 1.7187,2.8291 1.7188,4.84375 l 0,1.6875 c -1.2865,-0.42625 -3.4067,-1 -6.4376,-1 -1.8666,0 -4.0774,0.36519 -5.875,1.34375 -1.7975,0.97856 -3.1875,2.66923 -3.1874,5.09375 0,3.83715 3.2105,6.84375 7.2187,6.84375 2.964,0 6.0454,-1.02509 8.2813,-3.21875 l 0,0.71875 c 0,0.52317 0.1686,1.04528 0.5,1.4375 0.2988,0.35366 0.7512,0.60784 1.2668,0.67304 0.056,0.007 0,-0.0115 0.061,-0.009 0,-2.14782 -0.015,-0.0634 -0.015,-2.16406 l 0,-11.40625 c 0,-2.33672 -0.691,-4.45111 -2.0624,-6 -1.3715,-1.54889 -3.414,-2.5 -6.0313,-2.5 l -3e-4,0 -10e-5,2e-5 z m 23.5937,0 c -3.3271,0 -6.6023,1.854 -8.625,4.625 l 0,-3.8125 0,-0.5 -0.5,0 -0.7812,0 -0.5,0 0,0.5 0,20.78125 0,0.5 0.5,0 0.7812,0 0.5,0 0,-0.5 0,-13 c 0.9749,-3.44942 4.6586,-6.78125 8.625,-6.78125 2.2911,0 3.4136,0.90331 4.0938,2.40625 0.6802,1.50294 0.8125,3.65238 0.8125,5.8125 l 0,11.5625 0,0.5 0.5,0 0.8125,0 0.5,0 0,-0.5 0,-11.5625 c 0,-2.11428 -0.09,-4.57523 -0.9688,-6.5625 -0.8784,-1.98727 -2.6781,-3.46875 -5.75,-3.46875 z m 20.3126,10e-6 c -2.7215,0 -5.3003,1.30523 -7.5,2.81249 l -0.4063,0.28125 0.3125,0.4375 0.4688,0.625 0.2812,0.40625 0.4062,-0.28125 c 2.2593,-1.59705 4.5909,-2.46875 6.4376,-2.46875 1.9402,0 3.4741,0.67731 4.5624,1.84375 1.0884,1.16644 1.7188,2.8291 1.7188,4.84375 l 0,1.6875 c -1.2864,-0.42625 -3.4067,-1 -6.4375,-1 -1.8667,0 -4.0774,0.36519 -5.875,1.34375 -1.7976,0.97856 -3.1875,2.66923 -3.1875,5.09375 0,3.83715 3.2105,6.84375 7.2188,6.84375 2.964,0 6.0454,-1.02509 8.2812,-3.21875 l 0,0.71875 c 0,0.52317 0.1687,1.0453 0.5,1.4375 0.2774,0.32839 0.6872,0.57098 1.1572,0.65618 0.091,0.0166 0.06,0.0116 0.1553,0.0157 l -7e-4,-2.17187 0,-11.40625 c 0,-2.33672 -0.6911,-4.45111 -2.0625,-6 -1.3714,-1.54889 -3.4139,-2.5 -6.0312,-2.5 l 7e-4,0 z m 71.4062,-10e-6 c -5.9852,0 -10.125,5.45259 -10.125,11.25 0,5.58315 4.3897,11.21875 10.5,11.21875 1.6121,0 3.4145,-0.4121 5,-1.28125 1.5855,-0.86915 2.9415,-2.19942 3.5312,-3.96875 l 0.1876,-0.5 -0.5,-0.125 -0.8126,-0.25 -0.5,-0.15625 -0.125,0.5 c -0.2874,1.11607 -1.3203,2.15493 -2.6562,2.875 -1.3359,0.72007 -2.9353,1.125 -4.125,1.125 -4.8127,0 -8.7187,-4.49904 -8.7188,-9.4375 1e-4,-2.24559 0.787,-4.6359 2.2188,-6.4375 1.4318,-1.8016 3.481,-3 6.125,-3 2.9875,0 5.4631,1.12178 6.9375,3.84375 l 0.1875,0.375 0.4062,-0.15625 0.75,-0.28125 0.5313,-0.1875 -0.25,-0.5 c -1.4214,-2.84276 -4.017,-4.90625 -8.5625,-4.90625 z m 20.2812,0 c -1.7534,0 -3.6881,0.36933 -5.2187,1.3125 -1.5306,0.94317 -2.6563,2.53374 -2.6563,4.71875 0,2.23809 0.9818,3.84838 2.4688,4.8125 1.487,0.96412 3.4281,1.3125 5.4688,1.3125 1.4577,0 3.2206,0.19169 4.5312,0.8125 1.3106,0.62081 2.1875,1.58416 2.1875,3.34375 0,1.59835 -0.8362,2.59852 -2.0937,3.3125 -1.2576,0.71398 -2.9272,1.0625 -4.4376,1.0625 -2.5137,0 -4.8877,-0.94818 -6.9687,-2.875 l -0.3125,-0.3125 -0.3438,0.3125 -0.5937,0.5 -0.4038,0.39252 0.3725,0.35748 c 1.9142,1.83696 4.6666,3.40625 8.25,3.40625 1.7726,0 3.7944,-0.35442 5.4376,-1.3125 1.6431,-0.95808 2.875,-2.56756 2.875,-4.84375 0,-2.26825 -1.1986,-3.85215 -2.8438,-4.75 -1.6452,-0.89785 -3.7213,-1.21875 -5.6562,-1.21875 -1.5066,0 -3.0692,-0.24548 -4.2188,-0.90625 -1.1496,-0.66077 -1.9062,-1.63903 -1.9062,-3.40625 0,-1.55333 0.7366,-2.53573 1.875,-3.21875 1.1383,-0.68302 2.6958,-1 4.1874,-1 0.9841,0 2.1501,0.0944 3.1563,0.4375 1.0062,0.34312 1.8352,0.88918 2.2813,1.78125 l 0.2187,0.4375 0.4375,-0.1875 0.7188,-0.3125 0.5312,-0.25 -0.3438,-0.5 c -1.3879,-2.01884 -3.3777,-3.21875 -7,-3.21875 z m -71.4374,0.3125 0.3437,0.71875 9.5313,20.5625 c -1.4773,3.36533 -2.3181,5.26847 -2.75,6.21875 -0.2236,0.49177 -0.3585,0.78716 -0.4376,0.9375 -0.064,0.12143 -0.069,0.12586 -0.094,0.15625 -0.01,0.007 -0.024,-0.007 -0.031,0 0,0.005 0,0.0258 0,0.0312 -0.084,0.082 -0.1343,0.10766 -0.3124,0.15625 -0.1998,0.0545 -0.5684,0.0937 -1.1876,0.0937 l -0.5,0 0,0.5 0,0.8125 0,0.5 0.5,0 c 0.7761,0 1.4172,-0.0839 1.9376,-0.28125 0.5203,-0.19736 0.931,-0.53273 1.1874,-0.96875 l 0.2813,-0.46875 0,-0.0312 0.031,-0.0312 12.3437,-28.1875 0.3125,-0.71875 -0.7812,0 -0.875,0 -0.2969,0.0156 -0.1407,0.29688 -8.25,18.75 -8.6874,-18.78125 -0.125,-0.28125 -0.3438,0 -0.875,0 -0.7812,0 3e-4,0 0,2e-5 z m 35.5937,0.0937 0,0.5 0,20.6875 0,0.5 0.5,0 0.8125,0 0.5,0 0,-0.5 0,-20.6875 0,-0.5 -0.5,0 -0.8125,0 -0.5,0 z m -83.125,3.6875 c -0.098,0.10195 -0.1879,0.20729 -0.2813,0.3125 0.096,-0.10547 0.1813,-0.21097 0.2813,-0.3125 z m -16.7813,6.90625 c 2.153,0 4.3279,0.36191 6.4376,1.125 l 0,3.71875 c 0,0.34111 -0.137,0.83047 -0.5,1.375 -1.5005,2.34214 -4.8641,3.46875 -7.7813,3.46875 -2.8419,0 -5.4375,-1.98425 -5.4375,-5.0625 0,-1.75271 0.9369,-2.85551 2.3438,-3.59375 1.4068,-0.73824 3.2982,-1.03125 4.9374,-1.03125 z m 43.9063,0 c 2.1529,0 4.3278,0.36191 6.4375,1.125 l 0,3.71875 c 0,0.34111 -0.137,0.83047 -0.5,1.375 -1.5004,2.34214 -4.8641,3.46875 -7.7812,3.46875 -2.842,0 -5.4376,-1.98425 -5.4376,-5.0625 0,-1.75271 0.937,-2.85551 2.3438,-3.59375 1.4068,-0.73824 3.2983,-1.03125 4.9375,-1.03125 z"
           style="font-size:40px;font-style:normal;font-variant:normal;font-weight:300;font-stretch:normal;text-indent:0;text-align:start;text-decoration:none;line-height:125%;letter-spacing:normal;word-spacing:normal;text-transform:none;direction:ltr;block-progression:tb;writing-mode:lr-tb;text-anchor:start;color:#000000;fill:#606060;fill-opacity:1;fill-rule:nonzero;stroke:none;stroke-width:1;marker:none;visibility:visible;display:inline;overflow:visible;enable-background:accumulate;font-family:Raleway;-inkscape-font-specification:Raleway Light" />
      </g>
    </g>
  </g>
</svg>
