<?xml version="1.0" encoding="UTF-8" standalone="no"?>
<!-- Created with Inkscape (http://www.inkscape.org/) -->

<svg
   xmlns:dc="http://purl.org/dc/elements/1.1/"
   xmlns:cc="http://creativecommons.org/ns#"
   xmlns:rdf="http://www.w3.org/1999/02/22-rdf-syntax-ns#"
   xmlns:svg="http://www.w3.org/2000/svg"
   xmlns="http://www.w3.org/2000/svg"
   xmlns:xlink="http://www.w3.org/1999/xlink"
   xmlns:sodipodi="http://sodipodi.sourceforge.net/DTD/sodipodi-0.dtd"
   xmlns:inkscape="http://www.inkscape.org/namespaces/inkscape"
   width="750"
   height="750"
   id="svg2"
   version="1.1"
   inkscape:version="0.47 r22583"
   sodipodi:docname="venn.svg">
  <defs
     id="defs4">
    <inkscape:perspective
       sodipodi:type="inkscape:persp3d"
       inkscape:vp_x="0 : 526.18109 : 1"
       inkscape:vp_y="0 : 1000 : 0"
       inkscape:vp_z="744.09448 : 526.18109 : 1"
       inkscape:persp3d-origin="372.04724 : 350.78739 : 1"
       id="perspective10" />
    <inkscape:perspective
       sodipodi:type="inkscape:persp3d"
       inkscape:vp_x="0 : 526.18109 : 1"
       inkscape:vp_y="0 : 1000 : 0"
       inkscape:vp_z="744.09448 : 526.18109 : 1"
       inkscape:persp3d-origin="372.04724 : 350.78739 : 1"
       id="perspective10-7" />
    <linearGradient
       y2="946.26166"
       x2="72.898659"
       y1="938.57727"
       x1="65.154556"
       gradientUnits="userSpaceOnUse"
       id="linearGradient2443"
       xlink:href="#linearGradient4694"
       inkscape:collect="always" />
    <radialGradient
       r="48"
       fy="887.74347"
       fx="123.65975"
       cy="887.74347"
       cx="123.65975"
       gradientTransform="translate(0,1.8494672e-5)"
       gradientUnits="userSpaceOnUse"
       id="radialGradient2440"
       xlink:href="#linearGradient4706"
       inkscape:collect="always" />
    <radialGradient
       r="48"
       fy="887.74347"
       fx="123.65975"
       cy="887.74347"
       cx="123.65975"
       gradientTransform="translate(0,1.8494672e-5)"
       gradientUnits="userSpaceOnUse"
       id="radialGradient2437"
       xlink:href="#linearGradient4706"
       inkscape:collect="always" />
    <linearGradient
       y2="946.26166"
       x2="72.898659"
       y1="938.57727"
       x1="65.154556"
       gradientUnits="userSpaceOnUse"
       id="linearGradient2435"
       xlink:href="#linearGradient4694"
       inkscape:collect="always" />
    <radialGradient
       r="28.342707"
       fy="917.46796"
       fx="150.23766"
       cy="917.46796"
       cx="150.23766"
       gradientTransform="matrix(0.8744629,-0.8744629,0.8744629,0.8744629,-810.00826,216.82588)"
       gradientUnits="userSpaceOnUse"
       id="radialGradient3245"
       xlink:href="#linearGradient3211"
       inkscape:collect="always" />
    <radialGradient
       r="28.342707"
       fy="917.46796"
       fx="150.23766"
       cy="917.46796"
       cx="150.23766"
       gradientTransform="matrix(1.2366773,0,0,1.2366773,-62.135732,-246.88113)"
       gradientUnits="userSpaceOnUse"
       id="radialGradient3236"
       xlink:href="#linearGradient3211"
       inkscape:collect="always" />
    <radialGradient
       gradientTransform="matrix(1.2366773,0,0,1.2366773,-62.135732,-246.88113)"
       r="28.342707"
       fy="917.46796"
       fx="150.23766"
       cy="917.46796"
       cx="150.23766"
       gradientUnits="userSpaceOnUse"
       id="radialGradient3233"
       xlink:href="#linearGradient3211"
       inkscape:collect="always" />
    <radialGradient
       r="28.342707"
       fy="917.46796"
       fx="150.23766"
       cy="917.46796"
       cx="150.23766"
       gradientUnits="userSpaceOnUse"
       id="radialGradient3231"
       xlink:href="#linearGradient3211"
       inkscape:collect="always" />
    <radialGradient
       r="28.342707"
       fy="917.46796"
       fx="150.23766"
       cy="917.46796"
       cx="150.23766"
       gradientUnits="userSpaceOnUse"
       id="radialGradient3229"
       xlink:href="#linearGradient3211"
       inkscape:collect="always" />
    <radialGradient
       gradientUnits="userSpaceOnUse"
       r="28.342707"
       fy="917.46796"
       fx="150.23766"
       cy="917.46796"
       cx="150.23766"
       id="radialGradient3217"
       xlink:href="#linearGradient3211"
       inkscape:collect="always" />
    <linearGradient
       y2="951.73065"
       x2="187.65974"
       y1="823.73065"
       x1="59.659748"
       gradientTransform="translate(-1011.3904,-764.07089)"
       gradientUnits="userSpaceOnUse"
       id="linearGradient4801"
       xlink:href="#linearGradient3220"
       inkscape:collect="always" />
    <radialGradient
       r="48"
       fy="887.74347"
       fx="123.65975"
       cy="887.74347"
       cx="123.65975"
       gradientTransform="translate(0,1.8494672e-5)"
       gradientUnits="userSpaceOnUse"
       id="radialGradient4784"
       xlink:href="#linearGradient4706"
       inkscape:collect="always" />
    <radialGradient
       r="48"
       fy="887.74347"
       fx="123.65975"
       cy="887.74347"
       cx="123.65975"
       gradientTransform="translate(0,1.8494672e-5)"
       gradientUnits="userSpaceOnUse"
       id="radialGradient4778"
       xlink:href="#linearGradient4706"
       inkscape:collect="always" />
    <linearGradient
       y2="946.26166"
       x2="72.898659"
       y1="938.57727"
       x1="65.154556"
       gradientUnits="userSpaceOnUse"
       id="linearGradient4774"
       xlink:href="#linearGradient4694"
       inkscape:collect="always" />
    <linearGradient
       gradientTransform="translate(-1011.3904,-764.07089)"
       gradientUnits="userSpaceOnUse"
       y2="951.73065"
       x2="187.65974"
       y1="823.73065"
       x1="59.659748"
       id="linearGradient4760"
       xlink:href="#linearGradient3220"
       inkscape:collect="always" />
    <radialGradient
       r="48"
       fy="887.74347"
       fx="123.65975"
       cy="887.74347"
       cx="123.65975"
       gradientTransform="translate(0,1.8494672e-5)"
       gradientUnits="userSpaceOnUse"
       id="radialGradient4737"
       xlink:href="#linearGradient4706"
       inkscape:collect="always" />
    <linearGradient
       y2="946.26166"
       x2="72.898659"
       y1="938.57727"
       x1="65.154556"
       gradientUnits="userSpaceOnUse"
       id="linearGradient4733"
       xlink:href="#linearGradient4694"
       inkscape:collect="always" />
    <inkscape:perspective
       id="perspective10-3"
       inkscape:persp3d-origin="372.04724 : 350.78739 : 1"
       inkscape:vp_z="744.09448 : 526.18109 : 1"
       inkscape:vp_y="0 : 1000 : 0"
       inkscape:vp_x="0 : 526.18109 : 1"
       sodipodi:type="inkscape:persp3d" />
    <linearGradient
       id="linearGradient3196">
      <stop
         id="stop3198"
         offset="0"
         style="stop-color:#00004b;stop-opacity:0.78431374;" />
      <stop
         id="stop3200"
         offset="1"
         style="stop-color:#00004b;stop-opacity:0.19607843;" />
    </linearGradient>
    <linearGradient
       id="linearGradient3220">
      <stop
         id="stop3222"
         offset="0"
         style="stop-color:#ffffff;stop-opacity:0;" />
      <stop
         style="stop-color:#ffffff;stop-opacity:0.39215687;"
         offset="0.5"
         id="stop4762" />
      <stop
         id="stop3224"
         offset="1"
         style="stop-color:#ffffff;stop-opacity:0;" />
    </linearGradient>
    <linearGradient
       id="linearGradient3230">
      <stop
         id="stop3232"
         offset="0"
         style="stop-color:#00004b;stop-opacity:1;" />
      <stop
         id="stop3234"
         offset="1"
         style="stop-color:#00004b;stop-opacity:0;" />
    </linearGradient>
    <linearGradient
       id="linearGradient4694">
      <stop
         id="stop4696"
         offset="0"
         style="stop-color:#ffffff;stop-opacity:0;" />
      <stop
         style="stop-color:#ffffff;stop-opacity:0.29411766;"
         offset="0.5"
         id="stop4702" />
      <stop
         id="stop4698"
         offset="1"
         style="stop-color:#ffffff;stop-opacity:0;" />
    </linearGradient>
    <linearGradient
       id="linearGradient4706">
      <stop
         id="stop4708"
         offset="0"
         style="stop-color:#ffffff;stop-opacity:0;" />
      <stop
         style="stop-color:#ffffff;stop-opacity:0;"
         offset="0.79603142"
         id="stop4716" />
      <stop
         style="stop-color:#ffffff;stop-opacity:0.23529412;"
         offset="0.89287627"
         id="stop4714" />
      <stop
         id="stop4710"
         offset="1"
         style="stop-color:#ffffff;stop-opacity:0;" />
    </linearGradient>
    <linearGradient
       id="linearGradient3211">
      <stop
         id="stop3213"
         offset="0"
         style="stop-color:#ffffff;stop-opacity:0;" />
      <stop
         style="stop-color:#ffffff;stop-opacity:0;"
         offset="0.7310338"
         id="stop3221" />
      <stop
         id="stop3215"
         offset="1"
         style="stop-color:#ffffff;stop-opacity:0.29411766;" />
    </linearGradient>
    <inkscape:perspective
       id="perspective8146"
       inkscape:persp3d-origin="372.04724 : 350.78739 : 1"
       inkscape:vp_z="744.09448 : 526.18109 : 1"
       inkscape:vp_y="0 : 1000 : 0"
       inkscape:vp_x="0 : 526.18109 : 1"
       sodipodi:type="inkscape:persp3d" />
  </defs>
  <sodipodi:namedview
     id="base"
     pagecolor="#ffffff"
     bordercolor="#666666"
     borderopacity="1.0"
     inkscape:pageopacity="0.0"
     inkscape:pageshadow="2"
     inkscape:zoom="0.35"
     inkscape:cx="753.52457"
     inkscape:cy="134.9017"
     inkscape:document-units="px"
     inkscape:current-layer="layer1"
     showgrid="false"
     inkscape:window-width="1280"
     inkscape:window-height="752"
     inkscape:window-x="0"
     inkscape:window-y="0"
     inkscape:window-maximized="1" />
  <metadata
     id="metadata7">
    <rdf:RDF>
      <cc:Work
         rdf:about="">
        <dc:format>image/svg+xml</dc:format>
        <dc:type
           rdf:resource="http://purl.org/dc/dcmitype/StillImage" />
        <dc:title></dc:title>
      </cc:Work>
    </rdf:RDF>
  </metadata>
  <g
     inkscape:label="Layer 1"
     inkscape:groupmode="layer"
     id="layer1"
     transform="translate(0,-302.36218)">
    <rect
       style="fill:#ffffff;fill-opacity:1;fill-rule:nonzero;stroke:none"
       id="rect4612"
       width="1296"
       height="1080"
       x="-30.00001"
       y="77.362167"
       inkscape:export-filename="/Users/stringer/DsA/venn.png"
       inkscape:export-xdpi="38.889999"
       inkscape:export-ydpi="38.889999" />
    <g
       id="g4804">
      <path
         sodipodi:type="arc"
         style="fill:#804000;fill-opacity:0.50196078;fill-rule:nonzero;stroke:none"
         id="path3648"
         sodipodi:cx="-240"
         sodipodi:cy="560.93359"
         sodipodi:rx="205.71428"
         sodipodi:ry="194.28572"
         d="m -445.39701,550.14744 c 6.30744,-107.13556 103.38001,-189.15696 216.81765,-183.19993 113.43764,5.95703 200.283819,97.63669 193.976375,204.77224 C -40.910429,678.85531 -137.983,760.87671 -251.42064,754.91968 -364.5076,748.98106 -451.23827,657.82531 -445.445,550.99599"
         sodipodi:start="3.1971382"
         sodipodi:end="9.4759497"
         sodipodi:open="true"
         transform="matrix(1.2152468,0,0,-1.2867292,909.65902,1274.1318)" />
      <path
         sodipodi:type="arc"
         style="fill:#408000;fill-opacity:0.50196078;fill-rule:nonzero;stroke:none"
         id="path3598"
         sodipodi:cx="-240"
         sodipodi:cy="560.93359"
         sodipodi:rx="205.71428"
         sodipodi:ry="194.28572"
         d="m -445.39701,550.14744 c 6.30744,-107.13556 103.38001,-189.15696 216.81765,-183.19993 113.43764,5.95703 200.283819,97.63669 193.976375,204.77224 C -40.910429,678.85531 -137.983,760.87671 -251.42064,754.91968 -364.5076,748.98106 -451.23827,657.82531 -445.445,550.99599"
         sodipodi:start="3.1971382"
         sodipodi:end="9.4759497"
         sodipodi:open="true"
         transform="matrix(1.2152468,0,0,-1.2867292,1034.6587,1524.1318)" />
      <path
         transform="matrix(1.2152468,0,0,-1.2867292,784.65873,1524.1318)"
         sodipodi:open="true"
         sodipodi:end="9.4759497"
         sodipodi:start="3.1971382"
         d="m -445.39701,550.14744 c 6.30744,-107.13556 103.38001,-189.15696 216.81765,-183.19993 113.43764,5.95703 200.283819,97.63669 193.976375,204.77224 C -40.910429,678.85531 -137.983,760.87671 -251.42064,754.91968 -364.5076,748.98106 -451.23827,657.82531 -445.445,550.99599"
         sodipodi:ry="194.28572"
         sodipodi:rx="205.71428"
         sodipodi:cy="560.93359"
         sodipodi:cx="-240"
         id="path2816"
         style="fill:#0060c0;fill-opacity:0.50196078;fill-rule:nonzero;stroke:none"
         sodipodi:type="arc" />
      <path
         id="path3596"
         d="m 491.97086,552.37501 c -4.26636,0.0209 -8.53579,0.13547 -12.84375,0.375 -39.65624,2.20499 -76.64098,13.55954 -109.03125,31.875 10.35941,80.25351 58.3713,147.7488 124.96875,185.4375 0.10594,0.0599 0.20647,0.1277 0.3125,0.1875 0.39271,0.22149 0.7935,0.43684 1.1875,0.65625 1.01458,0.565 2.03951,1.10508 3.0625,1.65625 0.57299,0.30875 1.14315,0.63312 1.71875,0.9375 1.2402,0.65579 2.49787,1.30215 3.75,1.9375 0.34506,0.17509 0.68529,0.35773 1.03125,0.53125 1.43995,0.72228 2.88852,1.42999 4.34375,2.125 0.61456,0.29342 1.22651,0.58649 1.84375,0.875 1.0911,0.51018 2.18189,1.00525 3.28125,1.5 0.74746,0.33627 1.49878,0.67091 2.25,1 0.28704,0.12577 0.58742,0.21903 0.875,0.34375 1.22666,0.53186 2.45105,1.08116 3.6875,1.59375 4.02137,1.66714 8.09831,3.22823 12.21875,4.6875 1.26103,0.4466 2.51136,0.88575 3.78125,1.3125 1.51084,0.50797 3.03943,0.98914 4.5625,1.46875 0.60263,0.18969 1.20799,0.37728 1.8125,0.5625 1.20744,0.37008 2.41019,0.74163 3.625,1.09375 0.16789,0.0486 0.33197,0.10795 0.5,0.15625 0.82938,0.23851 1.66727,0.45742 2.5,0.6875 1.26698,0.34997 2.5379,0.70092 3.8125,1.03125 1.57309,0.40774 3.16562,0.80995 4.75,1.1875 0.0937,0.0223 0.18747,0.0403 0.28125,0.0625 1.71556,0.4067 3.42791,0.78532 5.15625,1.15625 0.28182,0.0605 0.5616,0.128 0.84375,0.1875 1.66159,0.35056 3.32708,0.68283 5,1 0.44726,0.0847 0.89569,0.16766 1.34375,0.25 1.59645,0.29356 3.2062,0.58088 4.8125,0.84375 0.0727,0.0119 0.14606,0.0194 0.21875,0.0312 1.94743,0.31692 3.91367,0.60368 5.875,0.875 1.97493,0.27321 3.94908,0.52357 5.9375,0.75 1.18385,0.13481 2.37404,0.25693 3.5625,0.375 1.45821,0.1447 2.91007,0.28693 4.375,0.40625 1.33292,0.10875 2.6617,0.19368 4,0.28125 1.42407,0.0932 2.85129,0.181 4.28125,0.25 1.0591,0.051 2.12528,0.0874 3.1875,0.125 1.05648,0.0375 2.12802,0.0696 3.1875,0.0937 0.45965,0.0105 0.9148,0.0233 1.375,0.0312 0.0312,5.4e-4 0.0626,-5.3e-4 0.0937,0 2.02254,0.0343 4.06089,0.0458 6.09375,0.0312 1.43506,-0.0103 2.87255,-0.0276 4.3125,-0.0625 0.97912,-0.0237 1.9562,-0.0586 2.9375,-0.0937 1.67498,-0.0599 3.35019,-0.12528 5.03125,-0.21875 1.68111,-0.0935 3.35993,-0.21757 5.03125,-0.34375 0.22899,-0.0173 0.45869,-0.0133 0.6875,-0.0312 0.56595,-0.0442 1.1227,-0.1083 1.6875,-0.15625 2.0115,-0.17077 4.00339,-0.37617 6,-0.59375 1.20528,-0.13138 2.39406,-0.25796 3.59375,-0.40625 1.86448,-0.23047 3.74312,-0.47909 5.59375,-0.75 1.01093,-0.1479 2.02454,-0.30891 3.03125,-0.46875 0.84455,-0.13424 1.68973,-0.26365 2.53125,-0.40625 0.35542,-0.0602 0.70763,-0.12587 1.0625,-0.1875 1.48777,-0.25871 2.95943,-0.52783 4.4375,-0.8125 0.90228,-0.17352 1.78889,-0.34814 2.6875,-0.53125 0.28281,-0.0577 0.56131,-0.12887 0.84375,-0.1875 0.89951,-0.18655 1.79176,-0.36639 2.6875,-0.5625 0.28315,-0.062 0.56098,-0.12451 0.84375,-0.1875 1.26831,-0.28253 2.52067,-0.57342 3.78125,-0.875 1.72479,-0.41263 3.44627,-0.83334 5.15625,-1.28125 0.0733,-0.0192 0.14544,-0.0432 0.21875,-0.0625 0.1569,-0.0412 0.31198,-0.0835 0.46875,-0.125 1.20589,-0.31957 2.42667,-0.63181 3.625,-0.96875 1.09703,-0.30821 2.19066,-0.6461 3.28125,-0.96875 1.07738,-0.31898 2.14776,-0.63579 3.21875,-0.96875 0.0634,-0.0197 0.12414,-0.0428 0.1875,-0.0625 1.13354,-0.35339 2.24874,-0.72482 3.375,-1.09375 1.12817,-0.36926 2.25425,-0.74029 3.375,-1.125 1.14991,-0.39499 2.29553,-0.77639 3.4375,-1.1875 0.10589,-0.0381 0.20668,-0.0868 0.3125,-0.125 1.57651,-0.56995 3.1577,-1.14964 4.71875,-1.75 0.0217,-0.008 0.0408,-0.0229 0.0625,-0.0312 0.48019,-0.18471 0.9588,-0.37494 1.4375,-0.5625 1.20985,-0.47437 2.42474,-0.94502 3.625,-1.4375 0.9736,-0.39921 1.93906,-0.80772 2.90625,-1.21875 2.16211,-0.91884 4.30809,-1.86662 6.4375,-2.84375 1.8334,-0.8413 3.66025,-1.70997 5.46875,-2.59375 0.29385,-0.1436 0.58181,-0.29279 0.875,-0.4375 2.09422,-1.03367 4.15907,-2.09773 6.21875,-3.1875 2.06204,-1.09102 4.09853,-2.19756 6.125,-3.34375 67.36067,-38.09978 114.82708,-106.3779 125.03125,-185.46875 -36.73117,-20.78481 -79.13779,-32.46962 -123.96875,-32.25 -4.26636,0.0209 -8.53579,0.13547 -12.84375,0.375 -40.52937,2.25354 -78.26088,14.06215 -111.15625,33.09375 -37.20486,-21.51907 -80.32709,-33.69249 -126,-33.46875 z"
         style="fill:none;stroke:#ffffff;stroke-width:10;stroke-miterlimit:4;stroke-opacity:1;stroke-dasharray:none" />
      <g
         inkscape:label="Layer 1"
         id="layer1-3"
         transform="matrix(2.1336975,0,0,2.1336975,453.02601,-1501.3773)">
        <path
           style="font-size:40px;font-style:normal;font-variant:normal;font-weight:300;font-stretch:normal;text-indent:0;text-align:start;text-decoration:none;line-height:125%;letter-spacing:normal;word-spacing:normal;text-transform:none;direction:ltr;block-progression:tb;writing-mode:lr-tb;text-anchor:start;color:#000000;fill:#ffffff;fill-opacity:1;fill-rule:nonzero;stroke:none;stroke-width:2;marker:none;visibility:visible;display:inline;overflow:visible;enable-background:accumulate;font-family:Raleway;-inkscape-font-specification:Raleway Light"
           d="m 18.193189,983.27179 0,0.83825 0,8.82777 c -1.592163,-1.62149 -3.675033,-2.85528 -6.286837,-2.85528 -5.167277,0 -8.9063523,4.65602 -8.9063523,9.84938 0,4.90069 3.838575,9.82319 9.2206943,9.82319 2.203494,0 4.343701,-0.9862 5.972495,-2.5147 0,1.0338 0.772946,2.1212 1.990832,2.1742 0.211992,0.01 0.34938,0.063 0.34938,0 0,-2.2524 -0.0084,-2.2041 -0.0084,-2.2751 l 0,-23.02552 0,-0.83825 -0.838245,0 -0.654837,0 -0.838245,0 0,-2.5e-4 0,0 -5.03e-4,-2.9e-4 z m 25.540233,1.02162 0,0.83824 0,5.21284 -1.67649,0 -0.838245,0 0,0.83824 0,0.68107 0,0.83825 0.838245,0 1.67649,0 0,13.38575 c 0,2.0984 1.868699,3.5101 3.850646,3.5101 1.064319,0 1.953865,-0.278 2.593362,-0.5501 0.31979,-0.136 0.5747,-0.2568 0.759617,-0.3667 0.09254,-0.055 0.178463,-0.1183 0.235799,-0.1572 0.0285,-0.019 0.05616,-0.036 0.07879,-0.052 0.02263,-0.017 -0.03269,0.033 0.10478,-0.1047 l 0.49775,-0.4716 -0.392969,-0.5763 -0.314342,-0.4715 c -0.01593,-0.027 -0.0084,0.011 -0.107547,-0.1248 -0.12867,-0.1675 -0.08768,-0.1349 -0.144849,-0.1925 -0.176534,-0.2287 -0.09397,-0.1155 -0.292044,-0.3623 -0.436977,0.2959 0.0461,-0.036 -0.236637,0.1591 -0.545446,0.3047 -0.30378,0.1742 -0.320545,0.1835 -0.907316,0.4472 -0.17754,0.092 -0.307635,0.154 -0.124899,0.068 -0.281315,0.1473 -0.49775,0.2357 -0.43287,0.1768 -1.024922,0.3406 -1.650337,0.3406 -0.419038,0 -0.78971,-0.1095 -1.047806,-0.3144 -0.258012,-0.2049 -0.437815,-0.4788 -0.471429,-0.9168 l 0,-13.30716 3.35298,0 0.838245,0 0,-0.83824 0,-0.68108 0,-0.83824 -0.838245,0 -3.35298,0 0,-5.21284 0,-0.83824 -0.838245,0 -0.654921,0 -0.838245,0 -0.0084,-2.9e-4 0,0 0,0 0,0 0,0 0,0 0,0 0,0 0,0 0,0 0,0 0,0 0,0 z m -11.447324,5.78912 c -2.416577,0 -4.619065,1.14985 -6.496398,2.43615 l -0.733465,0.47152 0.523903,0.70727 0.419123,0.55009 0.471596,0.65488 0.680991,-0.47151 c 1.842881,-1.30273 3.71485,-1.99083 5.13425,-1.99083 1.526108,0 2.7051,0.52359 3.536387,1.41454 0.831288,0.89094 1.335911,2.17163 1.335995,3.7721 l 0,0.86444 c -1.161723,-0.34071 -2.756401,-0.70727 -5.003316,-0.70727 -1.620579,0 -3.511073,0.30942 -5.108097,1.17878 -1.59694,0.86936 -2.90762,2.44951 -2.90762,4.63651 0,3.4488 2.902255,6.1559 6.470161,6.1559 2.314059,0 4.753603,-0.6889 6.653653,-2.2266 0.05197,0.4173 0.112073,0.8464 0.392885,1.1788 0.350135,0.4144 0.921986,0.6967 1.519319,0.7073 l 0.345776,0.01 c 0,-1.3346 -0.0084,-0.7667 -0.0084,-2.2849 l 0,-9.50881 c 0,-2.03983 -0.603201,-3.92799 -1.833577,-5.31762 -1.23046,-1.38962 -3.103937,-2.22659 -5.396286,-2.22659 l -5.87e-4,-1.6e-4 0,2.1e-4 0,0 0,0 0,0 0,0 0,0 0,0 0,0 0,0 z m 28.107442,0 c -2.416577,0 -4.645302,1.14985 -6.522636,2.43615 l -0.707227,0.47152 0.523903,0.70727 0.392886,0.55009 0.49775,0.65488 0.654836,-0.47151 c 1.842882,-1.30273 3.741088,-1.99083 5.160488,-1.99083 1.526025,0 2.705016,0.52359 3.536304,1.41454 0.831371,0.89094 1.309757,2.17163 1.309841,3.7721 l 0,0.86444 c -1.162059,-0.33977 -2.738127,-0.70727 -4.977163,-0.70727 -1.620579,0 -3.537226,0.30942 -5.13425,1.17878 -1.596941,0.86936 -2.881383,2.44951 -2.881383,4.63651 0,3.4488 2.902171,6.1559 6.470161,6.1559 2.308107,0 4.729378,-0.6972 6.627416,-2.2266 0.05197,0.4179 0.137891,0.8459 0.419122,1.1788 0.350051,0.4144 0.895749,0.697 1.493082,0.7073 l 0.354997,0.01 c 0,-2.0916 -0.01257,-0.3112 -0.01257,-2.2848 l 0,-0.026 0,-9.48263 c 0,-2.03982 -0.603201,-3.92799 -1.833577,-5.31761 -1.23046,-1.38963 -3.0777,-2.22659 -5.370048,-2.22659 l 0,-2.5e-4 0,0 0,0 0,0 0,0 0,2.1e-4 0,0 0,0 0,0 0,0 0,0 0,0 0,0 z m 17.315038,0 c -1.531389,0 -3.208382,0.33103 -4.584194,1.17879 -1.375811,0.84776 -2.409954,2.3261 -2.409954,4.296 0,1.99183 0.903964,3.5001 2.252783,4.37459 1.34882,0.87449 3.058589,1.17879 4.819909,1.17879 1.186619,0 2.586069,0.1799 3.588778,0.6549 1.002624,0.4749 1.597862,1.0862 1.597862,2.4099 0,1.1876 -0.555337,1.8888 -1.519319,2.4362 -0.963981,0.5473 -2.328644,0.812 -3.536304,0.812 -2.001309,0 -3.849136,-0.7513 -5.527219,-2.3051 l -0.550056,-0.4978 -0.576377,0.4978 -0.379725,0.3732 c -0.647461,0.6822 0.0084,0 -0.646706,0.6678 0.234876,0.3 0.528848,0.5498 0.792057,0.8182 1.630051,1.5233 3.924495,2.7767 6.889368,2.7767 1.546561,0 3.299415,-0.3228 4.767434,-1.1788 1.468102,-0.856 2.645752,-2.3451 2.645752,-4.4008 0,-2.0424 -1.143953,-3.5431 -2.619515,-4.34836 -1.475563,-0.80529 -3.256665,-1.074 -4.924689,-1.074 -1.218138,0 -2.490342,-0.21141 -3.35298,-0.70727 -0.862638,-0.49585 -1.388301,-1.13525 -1.388385,-2.48854 0,-1.16236 0.501522,-1.84118 1.362148,-2.35756 0.86071,-0.51638 2.107599,-0.75966 3.300673,-0.75966 0.79474,0 1.737347,0.0754 2.514735,0.34054 0.777305,0.26508 1.364579,0.65978 1.67649,1.28356 l 0.366648,0.73347 0.707311,-0.34054 0.628684,-0.26195 0.916872,-0.39293 -0.576377,-0.83825 c -1.220401,-1.77514 -3.112319,-2.88146 -6.234363,-2.88146 l 0,5.8e-4 0,0 0,0 0,0 0,0 0,0 0,0 0,0 0,0 0,0 0,0 0,0 0,0 z m 17.996029,0 c -5.140202,0 -8.676422,4.56677 -8.853962,9.48265 -0.02263,0.0505 -0.04024,0.10324 -0.05197,0.15717 -0.01341,0.0514 -0.02263,0.10412 -0.02599,0.15717 -5.87e-4,0.0174 -5.87e-4,0.035 0,0.0524 0,0.0619 0.0109,0.12348 0.02599,0.18338 0,0.053 0.01257,0.1057 0.02598,0.1571 0.0084,0.01 0.01677,0.018 0.02599,0.026 0.189192,4.7738 3.897168,9.4565 9.142067,9.4565 1.428621,0 3.004269,-0.3609 4.400788,-1.1264 1.3966,-0.7656 2.63351,-1.9543 3.16965,-3.5626 l 0.26195,-0.812 -0.81209,-0.262 -0.68099,-0.1833 -0.83824,-0.262 -0.20956,0.8382 c -0.19699,0.7646 -0.98553,1.5517 -2.043309,2.1219 -1.057698,0.5701 -2.343314,0.9168 -3.248199,0.9168 -3.776629,0 -6.863131,-3.5714 -6.863047,-7.49182 0,-1.78645 0.620385,-3.70654 1.755034,-5.13425 1.134648,-1.42771 2.734271,-2.35756 4.819908,-2.35756 2.393189,0 4.2582,0.86322 5.422353,3.01244 l 0.34058,0.62868 0.68107,-0.26195 0.62869,-0.23576 0.89063,-0.31434 -0.41912,-0.83824 c -1.24295,-2.48584 -3.61208,-4.3484 -7.544203,-4.3484 l 0,4e-5 z m 18.860513,0 c -5.06954,0 -9.11592,4.55977 -9.11592,9.84938 0,4.86129 3.58962,9.53509 8.82781,9.79699 0.0352,0 0.0687,0 0.10478,0 0.0168,0.01 0.0344,0.018 0.052,0.026 0.036,8e-4 0.0687,-8e-4 0.10479,0 0.0176,5e-4 0.0352,5e-4 0.0528,0 0.0176,-4e-4 0.0344,4e-4 0.052,0 0.0805,-0.01 0.16027,-0.024 0.23579,-0.052 0.0352,-0.01 0.0704,-0.015 0.10478,-0.026 4.94079,-0.3388 8.6968,-4.6992 8.6968,-9.74459 0,-2.37494 -0.88368,-4.78203 -2.46235,-6.65357 -1.57867,-1.87153 -3.89306,-3.19581 -6.65357,-3.19581 l 3.4e-4,0 z m 20.27505,0 c -2.20358,0 -4.3437,0.98624 -5.9725,2.51474 l 0,-1.41454 0,-0.83824 -0.83824,0 -0.68108,0 -0.83824,0 0,0.83824 0,24.54487 0,0.8382 0.83824,0 0.68108,0 0.83824,0 0,-0.8382 0,-8.7754 c 1.60675,1.6187 3.73941,2.8029 6.26069,2.8029 2.67366,0 4.88059,-1.1974 6.39161,-3.0124 1.44044,-1.7304 2.24776,-4.0129 2.46226,-6.4179 0.0252,-0.7214 5.9e-4,-0.054 0,-0.7333 -0.17628,-4.77964 -3.85559,-9.50884 -9.14206,-9.50884 l -8.4e-4,-1.3e-4 z m 18.80812,0 c -2.68138,0 -4.91237,1.22964 -6.44401,3.06484 -1.45947,1.74869 -2.24465,4.03672 -2.3838,6.41781 -8.4e-4,0.75592 0,0.0488 0,0.75952 0.20176,4.7648 3.90664,9.4302 9.14215,9.4302 2.92338,0 6.429,-1.5345 7.67522,-4.6889 l 0.3405,-0.8644 -0.91688,-0.2358 -0.62868,-0.1834 -0.68099,-0.1833 -0.28819,0.6548 c -0.86641,1.9005 -3.25423,3.1697 -5.50098,3.1697 -3.46086,0 -6.05624,-2.8682 -6.67972,-6.3131 l 14.87884,0 0.83825,0 0,-0.8382 0,-0.36675 c -0.0729,-5.14767 -3.79197,-9.82318 -9.35171,-9.82318 l 0,1.6e-4 z M 11.906352,992.4401 c 1.182009,0 2.584561,0.50239 3.772102,1.33595 1.169771,0.82112 2.109192,1.93832 2.514735,3.09103 l 0,5.89392 c 0,0.044 0,0.087 0,0.131 l 0,0.026 c -0.03521,1.0308 -0.855513,2.1892 -2.069459,3.0649 -1.222748,0.882 -2.800409,1.4407 -3.903036,1.4407 -3.7767127,0 -6.8893675,-3.5714 -6.8893675,-7.49183 0,-1.88505 0.681074,-3.7825 1.8336607,-5.18664 1.1525868,-1.40414 2.7367859,-2.30517 4.7413648,-2.30517 l 0,4e-5 z m 102.658768,0 c 3.76791,0 6.7845,3.59534 6.7845,7.49181 0,1.76519 -0.68895,3.68069 -1.88605,5.10809 -1.19701,1.4273 -2.8668,2.3837 -4.89845,2.3837 -3.91352,0 -6.62038,-3.546 -6.78451,-7.49179 -4.1e-4,-0.009 3.4e-4,-0.0174 0,-0.0262 0.008,-1.75823 0.72006,-3.65277 1.91221,-5.08186 1.19785,-1.4359 2.84266,-2.38376 4.8723,-2.38376 l 0,-4e-5 z m 20.27505,0 c 3.75542,0 6.83563,3.5395 6.86313,7.43942 8e-5,0.0174 0,0.0349 0,0.0524 0,0.0262 0,0.0524 0,0.0786 -0.0469,1.851 -0.70379,3.7262 -1.83366,5.108 -1.14555,1.401 -2.73679,2.3052 -4.74128,2.3052 -2.62899,0 -5.11011,-1.9489 -6.26069,-4.427 l 0,-6.07683 c 0,-0.97741 0.80564,-2.14649 2.04322,-3.03864 1.23759,-0.89215 2.85356,-1.44073 3.92928,-1.44073 l 0,4e-5 z m 18.80812,0 c 3.70454,0 6.15892,2.63822 6.75835,6.31303 l -13.14997,0 c 0.23244,-1.45919 0.7447,-2.92588 1.67649,-4.06025 1.12249,-1.36648 2.67325,-2.25278 4.71513,-2.25278 z m -121.493126,7.7014 c 1.680178,0 3.362452,0.2789 5.003316,0.8382 l 0,2.8029 c 0,0.1637 -0.08885,0.5002 -0.340579,0.8906 -0.0092,0.014 -0.01676,0.012 -0.02598,0.026 -1.68e-4,0.01 -1.68e-4,0.017 0,0.026 -0.01844,0.017 -0.03521,0.034 -0.05197,0.052 -1.162479,1.7406 -3.814266,2.6457 -6.12975,2.6457 -2.182622,0 -4.112598,-1.4803 -4.112598,-3.8245 0,-1.3122 0.640252,-2.0482 1.728881,-2.6195 1.088628,-0.5712 2.606187,-0.8382 3.929273,-0.8382 l -5.87e-4,10e-5 z m 28.107358,0 c 1.671377,0 3.344513,0.2591 4.977163,0.812 l 0,2.8291 c 0,0.1637 -0.06287,0.5002 -0.314342,0.8906 -0.0092,0.014 -0.01676,0.012 -0.02598,0.026 -0.0092,0.01 -0.0176,0.017 -0.02599,0.026 -0.0092,0.017 -0.0176,0.035 -0.02599,0.052 -1.157448,1.75 -3.807895,2.6457 -6.129666,2.6457 -2.182622,0 -4.138834,-1.4803 -4.138834,-3.8245 0,-1.3122 0.666489,-2.0482 1.755117,-2.6195 1.088545,-0.5712 2.606104,-0.8382 3.92919,-0.8382 l -6.71e-4,10e-5 z"
           id="text5412"
           sodipodi:nodetypes="cccsssccsccccccccccccccccccsssssccccssccccccscccccccccccccccccccccccccccccccsccccsscccccccccscccscscscccccscsccscsscsccccccccscsscsscsscsscsscsscsssscssscccccssscscccccccccscscscsccccccccccccccccccccccscscscscccccccccscccscscccccccccccccccsccccsscscccscccccccccccccccscccscccccccscccsccssccssccscccscccscccscccscccscccscccsccssccsscc" />
        <path
           sodipodi:nodetypes="cccsssccccccsssscccccccccccccccccccccccccccccccsssssccccccsssssccccccccccccccccccccccssccssssccsscccscccccccccccccccccssccccccccsccccccccssccssssccscsccsccccccccccccssssscccccccccccsssssccccccsssssssssscccccccccccsssssccccccsccccccccccccccccccccccccccccccccccccccssccccccssccccc"
           id="text5424"
           d="m 59.214693,1016.5659 0,0.4191 0,21.8992 c 0,0.8297 0.256168,1.6117 0.785939,2.2004 0.529687,0.5886 1.334486,0.9692 2.278936,0.9692 0.618709,0 1.215875,-0.083 1.67649,-0.1572 0.23035,-0.037 0.433121,-0.1643 0.576294,-0.1964 l 0.627677,-0.2748 -0.130933,-0.262 -0.288189,-0.6549 -0.149459,-0.3561 c -0.128587,0.06 -0.156417,0.065 -0.288273,0.1002 -0.03688,0.01 -0.182402,0.059 -0.242168,0.072 -0.119534,0.028 -0.281567,0.068 -0.471513,0.1048 -0.379977,0.073 -0.877475,0.1572 -1.283521,0.1572 -0.532034,0 -0.908071,-0.2259 -1.178824,-0.5501 -0.270753,-0.3242 -0.419122,-0.7676 -0.419122,-1.1526 l 0,-21.8991 0,-0.4192 -0.419123,0 -0.65492,0 -0.419123,0 -1.68e-4,-10e-5 0,0 z m 35.127744,0.4453 0,0.4191 0,2.148 0,0.4192 0.419122,0 0.681074,0 0.420631,3e-4 0,-0.4195 0,-2.148 0,-0.4191 -0.419122,0 -0.681074,0 -0.419123,0 0,0 z m -9.482646,0.5763 0,0.4191 0,5.632 -2.095612,0 -0.419123,0 0,0.4191 0,0.6811 0,0.4191 0.419123,0 2.095612,0 0,13.8049 c 0,1.8539 1.635835,3.091 3.431607,3.091 0.993153,0 1.835505,-0.2423 2.436107,-0.4977 0.30026,-0.1278 0.536729,-0.2654 0.707311,-0.3668 0.08525,-0.051 0.159602,-0.097 0.209562,-0.1309 0.02515,-0.017 0.03521,-0.04 0.05197,-0.052 0.0176,-0.013 0.0084,0.018 0.07879,-0.052 l 0.235714,-0.2358 -0.183324,-0.2881 -0.366732,-0.5501 -0.274106,-0.3014 -0.27595,0.1704 c -0.361703,0.2269 -0.06538,0.029 -0.104781,0.052 -0.0394,0.024 -0.08936,0.068 -0.157255,0.1048 -0.135712,0.074 -0.316102,0.1664 -0.550056,0.2619 -0.467908,0.1911 -1.109166,0.3668 -1.807424,0.3668 -0.502947,0 -0.966999,-0.147 -1.309841,-0.4192 -0.342759,-0.2721 -0.586688,-0.659 -0.628684,-1.2049 l 0,-13.7525 3.772102,0 0.419123,0 0,-0.4191 0,-0.6811 0,-0.4191 -0.419123,0 -3.772102,0 0,-5.632 0,-0.4191 -0.419122,0 -0.654837,0 -0.419123,0 1.68e-4,0 z m -74.132285,5.7891 c -2.2812837,0 -4.4428659,1.0942 -6.2868371,2.3576 l -0.3405789,0.2358 0.2620354,0.3667 0.3928854,0.5239 0.2357983,0.3405 0.340495,-0.2357 c 1.893763,-1.3387 3.8482148,-2.0694 5.3962019,-2.0694 1.626446,0 2.912146,0.5677 3.824492,1.5455 0.912346,0.9777 1.440692,2.3715 1.440776,4.0602 l 0,1.4146 c -1.078402,-0.3573 -2.855649,-0.8383 -5.396286,-0.8383 -1.5646678,0 -3.4178597,0.3061 -4.9246888,1.1264 -1.5067452,0.8203 -2.6719057,2.2375 -2.6718218,4.2698 0,3.2165 2.6911853,5.7368 6.0510386,5.7368 2.484558,0 5.067526,-0.8593 6.941758,-2.6981 l 0,0.6024 c 0,0.4386 0.141328,0.8762 0.419122,1.205 0.250468,0.2965 0.62969,0.5095 1.061889,0.5642 0.04694,0.01 0,-0.01 0.05113,-0.01 0,-1.8004 -0.01257,-0.053 -0.01257,-1.8141 l 0,-9.5612 c 0,-1.9587 -0.579227,-3.7311 -1.728796,-5.0295 -1.149653,-1.2983 -2.861768,-2.0956 -5.055707,-2.0956 l -2.51e-4,0 -8.4e-5,0 z m 19.777299,0 c -2.788925,0 -5.534344,1.5542 -7.229862,3.8769 l 0,-3.1958 0,-0.4191 -0.419123,0 -0.654837,0 -0.419122,0 0,0.4191 0,17.4198 0,0.4191 0.419122,0 0.654837,0 0.419123,0 0,-0.4191 0,-10.8972 c 0.817205,-2.8914 3.905047,-5.6843 7.229862,-5.6843 1.920503,0 2.861433,0.7572 3.431607,2.017 0.570174,1.2598 0.681074,3.0616 0.681074,4.8723 l 0,9.6922 0,0.4191 0.419122,0 0.681074,0 0.419123,0 0,-0.4191 0,-9.6922 c 0,-1.7723 -0.07544,-3.8352 -0.812092,-5.501 -0.736314,-1.6658 -2.244903,-2.9077 -4.819908,-2.9077 z m 17.026934,10e-5 c -2.281284,0 -4.44295,1.0941 -6.286837,2.3575 l -0.340579,0.2358 0.261951,0.3667 0.39297,0.5239 0.235714,0.3405 0.340495,-0.2357 c 1.893847,-1.3387 3.848299,-2.0694 5.396286,-2.0694 1.626363,0 2.912146,0.5677 3.824408,1.5455 0.912346,0.9777 1.440776,2.3715 1.440776,4.0602 l 0,1.4146 c -1.078319,-0.3573 -2.855649,-0.8383 -5.396202,-0.8383 -1.564752,0 -3.41786,0.3061 -4.924689,1.1264 -1.506829,0.8203 -2.671906,2.2375 -2.671906,4.2698 0,3.2165 2.691186,5.7368 6.051123,5.7368 2.484558,0 5.067526,-0.8593 6.941674,-2.6981 l 0,0.6024 c 0,0.4386 0.141412,0.8763 0.419122,1.205 0.232529,0.2753 0.576042,0.4786 0.970017,0.5501 0.07628,0.014 0.05029,0.01 0.13018,0.013 l -5.87e-4,-1.8205 0,-9.5613 c 0,-1.9587 -0.579311,-3.7311 -1.72888,-5.0294 -1.149569,-1.2984 -2.861685,-2.0956 -5.055623,-2.0956 l 5.87e-4,0 z m 59.855881,-10e-5 c -5.01706,0 -8.487227,4.5707 -8.487227,9.4303 0,4.68 3.679647,9.4041 8.801567,9.4041 1.35134,0 2.86219,-0.3455 4.19123,-1.074 1.32904,-0.7286 2.4657,-1.8437 2.96001,-3.3268 l 0.15725,-0.4191 -0.41912,-0.1048 -0.68116,-0.2096 -0.41912,-0.131 -0.10478,0.4192 c -0.24091,0.9355 -1.10673,1.8063 -2.22654,2.4099 -1.11982,0.6036 -2.46051,0.943 -3.45777,0.943 -4.03422,0 -7.3084,-3.7713 -7.30848,-7.9109 8e-5,-1.8824 0.65969,-3.886 1.85989,-5.3962 1.2002,-1.5102 2.91793,-2.5147 5.13425,-2.5147 2.50426,0 4.57942,0.9403 5.81533,3.222 l 0.15717,0.3143 0.34049,-0.131 0.62869,-0.2357 0.44536,-0.1572 -0.20956,-0.4191 c -1.19149,-2.3829 -3.36723,-4.1127 -7.17748,-4.1127 z m 17.00062,0 c -1.46978,0 -3.09154,0.3096 -4.37455,1.1002 -1.28302,0.7906 -2.22663,2.1239 -2.22663,3.9555 0,1.8761 0.82299,3.2259 2.06946,4.0341 1.24647,0.8081 2.87358,1.1002 4.58419,1.1002 1.22191,0 2.69965,0.1606 3.79826,0.681 1.0986,0.5204 1.83366,1.3279 1.83366,2.8029 0,1.3398 -0.70094,2.1782 -1.75504,2.7767 -1.05417,0.5985 -2.45371,0.8906 -3.71979,0.8906 -2.1071,0 -4.09709,-0.7948 -5.84148,-2.4099 l -0.26195,-0.262 -0.28819,0.262 -0.49767,0.4191 -0.33848,0.329 0.31225,0.2997 c 1.60457,1.5398 3.91175,2.8553 6.91552,2.8553 1.48587,0 3.18063,-0.2971 4.55804,-1.1002 1.37732,-0.8031 2.40995,-2.1523 2.40995,-4.0603 0,-1.9013 -1.00472,-3.229 -2.3838,-3.9816 -1.37908,-0.7527 -3.11936,-1.0217 -4.74128,-1.0217 -1.2629,0 -2.57274,-0.2057 -3.53639,-0.7596 -0.96364,-0.5539 -1.59786,-1.3739 -1.59786,-2.8553 0,-1.3021 0.61745,-2.1256 1.57171,-2.6981 0.95417,-0.5725 2.25974,-0.8382 3.51007,-0.8382 0.82491,0 1.80231,0.079 2.64575,0.3667 0.84344,0.2876 1.53835,0.7453 1.91229,1.4931 l 0.18332,0.3668 0.36673,-0.1572 0.60253,-0.262 0.44528,-0.2095 -0.28819,-0.4192 c -1.1634,-1.6922 -2.83134,-2.6981 -5.86771,-2.6981 z m -59.882042,0.262 0.288105,0.6025 7.989564,17.2364 c -1.238339,2.821 -1.943136,4.4163 -2.305174,5.2128 -0.187431,0.4123 -0.30051,0.6599 -0.366816,0.7859 -0.05365,0.1018 -0.05784,0.1055 -0.0788,0.131 -0.0084,0.01 -0.02012,-0.01 -0.02598,0 0,0 0,0.022 0,0.026 -0.07041,0.069 -0.112576,0.09 -0.261868,0.131 -0.167481,0.046 -0.476458,0.078 -0.9955,0.078 l -0.419122,0 0,0.4192 0,0.681 0,0.4192 0.419122,0 c 0.650562,0 1.187961,-0.07 1.624184,-0.2358 0.436139,-0.1654 0.780406,-0.4466 0.995332,-0.8121 l 0.235798,-0.3929 0,-0.026 0.02599,-0.026 10.347044,-23.628 0.261951,-0.6025 -0.654837,0 -0.733464,0 -0.248875,0.013 -0.117941,0.2488 -6.915521,15.7171 -7.282169,-15.7433 -0.10478,-0.2357 -0.288189,0 -0.733464,0 -0.654837,0 2.51e-4,0 0,0 z m 29.836239,0.078 0,0.4192 0,17.3412 0,0.4191 0.419122,0 0.681074,0 0.419123,0 0,-0.4191 0,-17.3412 0,-0.4192 -0.419123,0 -0.681074,0 -0.419122,0 z m -69.679109,3.0911 c -0.08215,0.085 -0.157507,0.1737 -0.235799,0.2619 0.08047,-0.088 0.151974,-0.1768 0.235799,-0.2619 z m -14.06684,5.7891 c 1.804741,0 3.62784,0.3034 5.396286,0.943 l 0,3.1172 c 0,0.286 -0.11484,0.6962 -0.419123,1.1526 -1.257786,1.9633 -4.077307,2.9077 -6.522635,2.9077 -2.3822083,0 -4.5579568,-1.6633 -4.5579568,-4.2436 0,-1.4692 0.7853517,-2.3936 1.9646785,-3.0125 1.1792429,-0.6188 2.7646994,-0.8644 4.1387503,-0.8644 z m 36.804233,0 c 1.804658,0 3.627756,0.3034 5.396202,0.943 l 0,3.1172 c 0,0.286 -0.11484,0.6962 -0.419123,1.1526 -1.257702,1.9633 -4.077307,2.9077 -6.522551,2.9077 -2.382292,0 -4.558041,-1.6633 -4.558041,-4.2436 0,-1.4692 0.785436,-2.3936 1.964679,-3.0125 1.179243,-0.6188 2.764783,-0.8644 4.138834,-0.8644 z"
           style="font-size:40px;font-style:normal;font-variant:normal;font-weight:300;font-stretch:normal;text-indent:0;text-align:start;text-decoration:none;line-height:125%;letter-spacing:normal;word-spacing:normal;text-transform:none;direction:ltr;block-progression:tb;writing-mode:lr-tb;text-anchor:start;color:#000000;fill:#ffffff;fill-opacity:1;fill-rule:nonzero;stroke:none;stroke-width:1;marker:none;visibility:visible;display:inline;overflow:visible;enable-background:accumulate;font-family:Raleway;-inkscape-font-specification:Raleway Light" />
      </g>
      <path
         id="path4752"
         d="m -445.445,550.99599 c -5.79327,106.82932 80.9374,197.98507 194.02436,203.92369 C -137.983,760.87671 -40.910429,678.85531 -34.602985,571.71975 -28.295541,464.5842 -115.14172,372.90454 -228.57936,366.94751 -342.017,360.99048 -439.08957,443.01188 -445.39701,550.14744"
         style="fill:#804000;fill-opacity:0;fill-rule:nonzero;stroke:none"
         transform="matrix(1.0145852,0,0,-1.0742645,861.50032,1154.9532)" />
      <text
         sodipodi:linespacing="125%"
         id="text4594"
         style="font-size:36px;font-style:normal;font-variant:normal;font-weight:normal;font-stretch:normal;text-align:start;line-height:125%;writing-mode:lr-tb;text-anchor:start;fill:#ffffff;fill-opacity:1;stroke:none;font-family:Museo Slab;-inkscape-font-specification:Museo Slab"
         xml:space="preserve"><textPath
           id="textPath4774"
           xlink:href="#path4752">                             analytics</textPath></text>
      <path
         transform="matrix(1.118027,0,0,-1.1837908,1011.326,1466.3902)"
         sodipodi:open="true"
         sodipodi:end="9.4759497"
         sodipodi:start="3.1971382"
         d="m -445.39701,550.14744 c 6.30744,-107.13556 103.38001,-189.15696 216.81765,-183.19993 113.43764,5.95703 200.283819,97.63669 193.976375,204.77224 C -40.910429,678.85531 -137.983,760.87671 -251.42064,754.91968 -364.5076,748.98106 -451.23827,657.82531 -445.445,550.99599"
         sodipodi:ry="194.28572"
         sodipodi:rx="205.71428"
         sodipodi:cy="560.93359"
         sodipodi:cx="-240"
         id="path4798"
         style="fill:#408000;fill-opacity:0;fill-rule:nonzero;stroke:none"
         sodipodi:type="arc" />
      <text
         inkscape:transform-center-y="64.131598"
         inkscape:transform-center-x="-220.34582"
         sodipodi:linespacing="125%"
         id="text4602"
         style="font-size:36px;font-style:normal;font-variant:normal;font-weight:normal;font-stretch:normal;text-align:start;line-height:125%;writing-mode:lr-tb;text-anchor:start;fill:#ffffff;fill-opacity:1;stroke:none;font-family:Museo Slab;-inkscape-font-specification:Museo Slab"
         xml:space="preserve"><textPath
           id="textPath4801"
           xlink:href="#path4798">                                                            design</textPath></text>
      <path
         sodipodi:type="arc"
         style="fill:#0060c0;fill-opacity:0;fill-rule:nonzero;stroke:none"
         id="path4784"
         sodipodi:cx="-240"
         sodipodi:cy="560.93359"
         sodipodi:rx="205.71428"
         sodipodi:ry="194.28572"
         d="m -445.39701,550.14744 c 6.30744,-107.13556 103.38001,-189.15696 216.81765,-183.19993 113.43764,5.95703 200.283819,97.63669 193.976375,204.77224 C -40.910429,678.85531 -137.983,760.87671 -251.42064,754.91968 -364.5076,748.98106 -451.23827,657.82531 -445.445,550.99599"
         sodipodi:start="3.1971382"
         sodipodi:end="9.4759497"
         sodipodi:open="true"
         transform="matrix(1.118027,0,0,-1.1837909,761.32602,1466.3902)" />
      <text
         xml:space="preserve"
         style="font-size:40px;font-style:normal;font-variant:normal;font-weight:normal;font-stretch:normal;text-align:start;line-height:125%;writing-mode:lr-tb;text-anchor:start;fill:#ffffff;fill-opacity:1;stroke:none;font-family:Museo Slab;-inkscape-font-specification:Museo Slab"
         id="text4598"
         sodipodi:linespacing="125%"><textPath
           id="textPath4794"
           xlink:href="#path4784">consulting</textPath></text>
    </g>
  </g>
</svg>
