<?xml version="1.0" encoding="UTF-8" standalone="no"?>
<!-- Created with Inkscape (http://www.inkscape.org/) -->

<svg
   xmlns:dc="http://purl.org/dc/elements/1.1/"
   xmlns:cc="http://creativecommons.org/ns#"
   xmlns:rdf="http://www.w3.org/1999/02/22-rdf-syntax-ns#"
   xmlns:svg="http://www.w3.org/2000/svg"
   xmlns="http://www.w3.org/2000/svg"
   xmlns:xlink="http://www.w3.org/1999/xlink"
   xmlns:sodipodi="http://sodipodi.sourceforge.net/DTD/sodipodi-0.dtd"
   xmlns:inkscape="http://www.inkscape.org/namespaces/inkscape"
   width="750"
   height="750"
   id="svg2"
   version="1.1"
   inkscape:version="0.48.1 r9760"
   sodipodi:docname="venn_bold.svg">
  <defs
     id="defs4">
    <inkscape:perspective
       sodipodi:type="inkscape:persp3d"
       inkscape:vp_x="0 : 526.18109 : 1"
       inkscape:vp_y="0 : 1000 : 0"
       inkscape:vp_z="744.09448 : 526.18109 : 1"
       inkscape:persp3d-origin="372.04724 : 350.78739 : 1"
       id="perspective10" />
    <inkscape:perspective
       sodipodi:type="inkscape:persp3d"
       inkscape:vp_x="0 : 526.18109 : 1"
       inkscape:vp_y="0 : 1000 : 0"
       inkscape:vp_z="744.09448 : 526.18109 : 1"
       inkscape:persp3d-origin="372.04724 : 350.78739 : 1"
       id="perspective10-7" />
    <linearGradient
       y2="946.26166"
       x2="72.898659"
       y1="938.57727"
       x1="65.154556"
       gradientUnits="userSpaceOnUse"
       id="linearGradient2443"
       xlink:href="#linearGradient4694"
       inkscape:collect="always" />
    <radialGradient
       r="48"
       fy="887.74347"
       fx="123.65975"
       cy="887.74347"
       cx="123.65975"
       gradientTransform="translate(0,1.8494672e-5)"
       gradientUnits="userSpaceOnUse"
       id="radialGradient2440"
       xlink:href="#linearGradient4706"
       inkscape:collect="always" />
    <radialGradient
       r="48"
       fy="887.74347"
       fx="123.65975"
       cy="887.74347"
       cx="123.65975"
       gradientTransform="translate(0,1.8494672e-5)"
       gradientUnits="userSpaceOnUse"
       id="radialGradient2437"
       xlink:href="#linearGradient4706"
       inkscape:collect="always" />
    <linearGradient
       y2="946.26166"
       x2="72.898659"
       y1="938.57727"
       x1="65.154556"
       gradientUnits="userSpaceOnUse"
       id="linearGradient2435"
       xlink:href="#linearGradient4694"
       inkscape:collect="always" />
    <radialGradient
       r="28.342707"
       fy="917.46796"
       fx="150.23766"
       cy="917.46796"
       cx="150.23766"
       gradientTransform="matrix(0.8744629,-0.8744629,0.8744629,0.8744629,-810.00826,216.82588)"
       gradientUnits="userSpaceOnUse"
       id="radialGradient3245"
       xlink:href="#linearGradient3211"
       inkscape:collect="always" />
    <radialGradient
       r="28.342707"
       fy="917.46796"
       fx="150.23766"
       cy="917.46796"
       cx="150.23766"
       gradientTransform="matrix(1.2366773,0,0,1.2366773,-62.135732,-246.88113)"
       gradientUnits="userSpaceOnUse"
       id="radialGradient3236"
       xlink:href="#linearGradient3211"
       inkscape:collect="always" />
    <radialGradient
       gradientTransform="matrix(1.2366773,0,0,1.2366773,-62.135732,-246.88113)"
       r="28.342707"
       fy="917.46796"
       fx="150.23766"
       cy="917.46796"
       cx="150.23766"
       gradientUnits="userSpaceOnUse"
       id="radialGradient3233"
       xlink:href="#linearGradient3211"
       inkscape:collect="always" />
    <radialGradient
       r="28.342707"
       fy="917.46796"
       fx="150.23766"
       cy="917.46796"
       cx="150.23766"
       gradientUnits="userSpaceOnUse"
       id="radialGradient3231"
       xlink:href="#linearGradient3211"
       inkscape:collect="always" />
    <radialGradient
       r="28.342707"
       fy="917.46796"
       fx="150.23766"
       cy="917.46796"
       cx="150.23766"
       gradientUnits="userSpaceOnUse"
       id="radialGradient3229"
       xlink:href="#linearGradient3211"
       inkscape:collect="always" />
    <radialGradient
       gradientUnits="userSpaceOnUse"
       r="28.342707"
       fy="917.46796"
       fx="150.23766"
       cy="917.46796"
       cx="150.23766"
       id="radialGradient3217"
       xlink:href="#linearGradient3211"
       inkscape:collect="always" />
    <linearGradient
       y2="951.73065"
       x2="187.65974"
       y1="823.73065"
       x1="59.659748"
       gradientTransform="translate(-1011.3904,-764.07089)"
       gradientUnits="userSpaceOnUse"
       id="linearGradient4801"
       xlink:href="#linearGradient3220"
       inkscape:collect="always" />
    <radialGradient
       r="48"
       fy="887.74347"
       fx="123.65975"
       cy="887.74347"
       cx="123.65975"
       gradientTransform="translate(0,1.8494672e-5)"
       gradientUnits="userSpaceOnUse"
       id="radialGradient4784"
       xlink:href="#linearGradient4706"
       inkscape:collect="always" />
    <radialGradient
       r="48"
       fy="887.74347"
       fx="123.65975"
       cy="887.74347"
       cx="123.65975"
       gradientTransform="translate(0,1.8494672e-5)"
       gradientUnits="userSpaceOnUse"
       id="radialGradient4778"
       xlink:href="#linearGradient4706"
       inkscape:collect="always" />
    <linearGradient
       y2="946.26166"
       x2="72.898659"
       y1="938.57727"
       x1="65.154556"
       gradientUnits="userSpaceOnUse"
       id="linearGradient4774"
       xlink:href="#linearGradient4694"
       inkscape:collect="always" />
    <linearGradient
       gradientTransform="translate(-1011.3904,-764.07089)"
       gradientUnits="userSpaceOnUse"
       y2="951.73065"
       x2="187.65974"
       y1="823.73065"
       x1="59.659748"
       id="linearGradient4760"
       xlink:href="#linearGradient3220"
       inkscape:collect="always" />
    <radialGradient
       r="48"
       fy="887.74347"
       fx="123.65975"
       cy="887.74347"
       cx="123.65975"
       gradientTransform="translate(0,1.8494672e-5)"
       gradientUnits="userSpaceOnUse"
       id="radialGradient4737"
       xlink:href="#linearGradient4706"
       inkscape:collect="always" />
    <linearGradient
       y2="946.26166"
       x2="72.898659"
       y1="938.57727"
       x1="65.154556"
       gradientUnits="userSpaceOnUse"
       id="linearGradient4733"
       xlink:href="#linearGradient4694"
       inkscape:collect="always" />
    <inkscape:perspective
       id="perspective10-3"
       inkscape:persp3d-origin="372.04724 : 350.78739 : 1"
       inkscape:vp_z="744.09448 : 526.18109 : 1"
       inkscape:vp_y="0 : 1000 : 0"
       inkscape:vp_x="0 : 526.18109 : 1"
       sodipodi:type="inkscape:persp3d" />
    <linearGradient
       id="linearGradient3196">
      <stop
         id="stop3198"
         offset="0"
         style="stop-color:#00004b;stop-opacity:0.78431374;" />
      <stop
         id="stop3200"
         offset="1"
         style="stop-color:#00004b;stop-opacity:0.19607843;" />
    </linearGradient>
    <linearGradient
       id="linearGradient3220">
      <stop
         id="stop3222"
         offset="0"
         style="stop-color:#ffffff;stop-opacity:0;" />
      <stop
         style="stop-color:#ffffff;stop-opacity:0.39215687;"
         offset="0.5"
         id="stop4762" />
      <stop
         id="stop3224"
         offset="1"
         style="stop-color:#ffffff;stop-opacity:0;" />
    </linearGradient>
    <linearGradient
       id="linearGradient3230">
      <stop
         id="stop3232"
         offset="0"
         style="stop-color:#00004b;stop-opacity:1;" />
      <stop
         id="stop3234"
         offset="1"
         style="stop-color:#00004b;stop-opacity:0;" />
    </linearGradient>
    <linearGradient
       id="linearGradient4694">
      <stop
         id="stop4696"
         offset="0"
         style="stop-color:#ffffff;stop-opacity:0;" />
      <stop
         style="stop-color:#ffffff;stop-opacity:0.29411766;"
         offset="0.5"
         id="stop4702" />
      <stop
         id="stop4698"
         offset="1"
         style="stop-color:#ffffff;stop-opacity:0;" />
    </linearGradient>
    <linearGradient
       id="linearGradient4706">
      <stop
         id="stop4708"
         offset="0"
         style="stop-color:#ffffff;stop-opacity:0;" />
      <stop
         style="stop-color:#ffffff;stop-opacity:0;"
         offset="0.79603142"
         id="stop4716" />
      <stop
         style="stop-color:#ffffff;stop-opacity:0.23529412;"
         offset="0.89287627"
         id="stop4714" />
      <stop
         id="stop4710"
         offset="1"
         style="stop-color:#ffffff;stop-opacity:0;" />
    </linearGradient>
    <linearGradient
       id="linearGradient3211">
      <stop
         id="stop3213"
         offset="0"
         style="stop-color:#ffffff;stop-opacity:0;" />
      <stop
         style="stop-color:#ffffff;stop-opacity:0;"
         offset="0.7310338"
         id="stop3221" />
      <stop
         id="stop3215"
         offset="1"
         style="stop-color:#ffffff;stop-opacity:0.29411766;" />
    </linearGradient>
    <inkscape:perspective
       id="perspective8146"
       inkscape:persp3d-origin="372.04724 : 350.78739 : 1"
       inkscape:vp_z="744.09448 : 526.18109 : 1"
       inkscape:vp_y="0 : 1000 : 0"
       inkscape:vp_x="0 : 526.18109 : 1"
       sodipodi:type="inkscape:persp3d" />
  </defs>
  <sodipodi:namedview
     id="base"
     pagecolor="#ffffff"
     bordercolor="#666666"
     borderopacity="1.0"
     inkscape:pageopacity="0.0"
     inkscape:pageshadow="2"
     inkscape:zoom="0.51760216"
     inkscape:cx="222.83283"
     inkscape:cy="346.27409"
     inkscape:document-units="px"
     inkscape:current-layer="layer1"
     showgrid="false"
     inkscape:window-width="1280"
     inkscape:window-height="745"
     inkscape:window-x="0"
     inkscape:window-y="0"
     inkscape:window-maximized="1" />
  <metadata
     id="metadata7">
    <rdf:RDF>
      <cc:Work
         rdf:about="">
        <dc:format>image/svg+xml</dc:format>
        <dc:type
           rdf:resource="http://purl.org/dc/dcmitype/StillImage" />
        <dc:title></dc:title>
      </cc:Work>
    </rdf:RDF>
  </metadata>
  <g
     inkscape:label="Layer 1"
     inkscape:groupmode="layer"
     id="layer1"
     transform="translate(0,-302.36218)">
    <path
       sodipodi:type="spiral"
       style="fill:none;stroke:#000000;stroke-width:1px;stroke-linecap:butt;stroke-linejoin:miter;stroke-opacity:1"
       id="path3095"
       sodipodi:cx="1175.8175"
       sodipodi:cy="85.319626"
       sodipodi:expansion="0"
       sodipodi:revolution="0.050000001"
       sodipodi:radius="347.38086"
       sodipodi:argument="0.508259"
       sodipodi:t0="0.99900001"
       d="m 1412.2732,339.80378 c -0.027,0.0248 -0.053,0.0495 -0.08,0.0743"
       transform="translate(0,302.36218)" />
    <path
       sodipodi:type="spiral"
       style="fill:none;stroke:#000000;stroke-width:1px;stroke-linecap:butt;stroke-linejoin:miter;stroke-opacity:1"
       id="path3097"
       sodipodi:cx="1117.2288"
       sodipodi:cy="83.299324"
       sodipodi:expansion="0"
       sodipodi:revolution="0.050000001"
       sodipodi:radius="324.57193"
       sodipodi:argument="0.30319586"
       sodipodi:t0="0.99900001"
       d="m 1381.9477,271.10454 c -0.02,0.0277 -0.039,0.0554 -0.059,0.0832"
       transform="translate(0,302.36218)" />
    <path
       sodipodi:type="spiral"
       style="fill:none;stroke:#000000;stroke-width:1px;stroke-linecap:butt;stroke-linejoin:miter;stroke-opacity:1"
       id="path3099"
       sodipodi:cx="1394.0105"
       sodipodi:cy="141.88817"
       sodipodi:expansion="0"
       sodipodi:revolution="0.59747338"
       sodipodi:radius="183.05792"
       sodipodi:argument="-250.58885"
       sodipodi:t0="0.99900001"
       d="m 1353.4285,-36.614785 c 0.2234,-0.05078 0.4468,-0.101143 0.6704,-0.151086"
       transform="translate(0,302.36218)" />
    <path
       transform="matrix(1.2152468,0,0,-1.2867292,665.43547,1272.8476)"
       sodipodi:open="true"
       sodipodi:end="9.4759497"
       sodipodi:start="3.1971382"
       d="m -445.39701,550.14744 c 6.30744,-107.13556 103.38001,-189.15696 216.81765,-183.19993 113.43764,5.95703 200.283819,97.63669 193.976375,204.77224 C -40.910429,678.85531 -137.983,760.87671 -251.42064,754.91968 -364.5076,748.98106 -451.23827,657.82531 -445.445,550.99599"
       sodipodi:ry="194.28572"
       sodipodi:rx="205.71428"
       sodipodi:cy="560.93359"
       sodipodi:cx="-240"
       id="path3648"
       style="fill:#ff6000;fill-opacity:0.50196078;fill-rule:nonzero;stroke:none"
       sodipodi:type="arc" />
    <path
       transform="matrix(1.2152468,0,0,-1.2867292,790.43515,1522.8476)"
       sodipodi:open="true"
       sodipodi:end="9.4759497"
       sodipodi:start="3.1971382"
       d="m -445.39701,550.14744 c 6.30744,-107.13556 103.38001,-189.15696 216.81765,-183.19993 113.43764,5.95703 200.283819,97.63669 193.976375,204.77224 C -40.910429,678.85531 -137.983,760.87671 -251.42064,754.91968 -364.5076,748.98106 -451.23827,657.82531 -445.445,550.99599"
       sodipodi:ry="194.28572"
       sodipodi:rx="205.71428"
       sodipodi:cy="560.93359"
       sodipodi:cx="-240"
       id="path3598"
       style="fill:#408000;fill-opacity:0.50196078;fill-rule:nonzero;stroke:none"
       sodipodi:type="arc" />
    <path
       sodipodi:type="arc"
       style="fill:#0060c0;fill-opacity:0.50196078;fill-rule:nonzero;stroke:none"
       id="path2816"
       sodipodi:cx="-240"
       sodipodi:cy="560.93359"
       sodipodi:rx="205.71428"
       sodipodi:ry="194.28572"
       d="m -445.39701,550.14744 c 6.30744,-107.13556 103.38001,-189.15696 216.81765,-183.19993 113.43764,5.95703 200.283819,97.63669 193.976375,204.77224 C -40.910429,678.85531 -137.983,760.87671 -251.42064,754.91968 -364.5076,748.98106 -451.23827,657.82531 -445.445,550.99599"
       sodipodi:start="3.1971382"
       sodipodi:end="9.4759497"
       sodipodi:open="true"
       transform="matrix(1.2152468,0,0,-1.2867292,540.43518,1522.8476)" />
    <path
       inkscape:connector-curvature="0"
       style="fill:none;stroke:#ffffff;stroke-width:10;stroke-miterlimit:4;stroke-opacity:1;stroke-dasharray:none"
       d="m 247.74731,551.09081 c -4.26636,0.0209 -8.53579,0.13547 -12.84375,0.375 -39.65624,2.20499 -76.64098,13.55954 -109.03125,31.875 10.35941,80.25351 58.3713,147.7488 124.96875,185.4375 0.10594,0.0599 0.20647,0.1277 0.3125,0.1875 0.39271,0.22149 0.7935,0.43684 1.1875,0.65625 1.01458,0.565 2.03951,1.10508 3.0625,1.65625 0.57299,0.30875 1.14315,0.63312 1.71875,0.9375 1.2402,0.65579 2.49787,1.30215 3.75,1.9375 0.34506,0.17509 0.68529,0.35773 1.03125,0.53125 1.43995,0.72228 2.88852,1.42999 4.34375,2.125 0.61456,0.29342 1.22651,0.58649 1.84375,0.875 1.0911,0.51018 2.18189,1.00525 3.28125,1.5 0.74746,0.33627 1.49878,0.67091 2.25,1 0.28704,0.12577 0.58742,0.21903 0.875,0.34375 1.22666,0.53186 2.45105,1.08116 3.6875,1.59375 4.02137,1.66714 8.09831,3.22823 12.21875,4.6875 1.26103,0.4466 2.51136,0.88575 3.78125,1.3125 1.51084,0.50797 3.03943,0.98914 4.5625,1.46875 0.60263,0.18969 1.20799,0.37728 1.8125,0.5625 1.20744,0.37008 2.41019,0.74163 3.625,1.09375 0.16789,0.0486 0.33197,0.10795 0.5,0.15625 0.82938,0.23851 1.66727,0.45742 2.5,0.6875 1.26698,0.34997 2.5379,0.70092 3.8125,1.03125 1.57309,0.40774 3.16562,0.80995 4.75,1.1875 0.0937,0.0223 0.18747,0.0403 0.28125,0.0625 1.71556,0.4067 3.42791,0.78532 5.15625,1.15625 0.28182,0.0605 0.5616,0.128 0.84375,0.1875 1.66159,0.35056 3.32708,0.68283 5,1 0.44726,0.0847 0.89569,0.16766 1.34375,0.25 1.59645,0.29356 3.2062,0.58088 4.8125,0.84375 0.0727,0.0119 0.14606,0.0194 0.21875,0.0312 1.94743,0.31692 3.91367,0.60368 5.875,0.875 1.97493,0.27321 3.94908,0.52357 5.9375,0.75 1.18385,0.13481 2.37404,0.25693 3.5625,0.375 1.45821,0.1447 2.91007,0.28693 4.375,0.40625 1.33292,0.10875 2.6617,0.19368 4,0.28125 1.42407,0.0932 2.85129,0.181 4.28125,0.25 1.0591,0.051 2.12528,0.0874 3.1875,0.125 1.05648,0.0375 2.12802,0.0696 3.1875,0.0937 0.45965,0.0105 0.9148,0.0233 1.375,0.0312 0.0312,5.4e-4 0.0626,-5.3e-4 0.0937,0 2.02254,0.0343 4.06089,0.0458 6.09375,0.0312 1.43506,-0.0103 2.87255,-0.0276 4.3125,-0.0625 0.97912,-0.0237 1.9562,-0.0586 2.9375,-0.0937 1.67498,-0.0599 3.35019,-0.12528 5.03125,-0.21875 1.68111,-0.0935 3.35993,-0.21757 5.03125,-0.34375 0.22899,-0.0173 0.45869,-0.0133 0.6875,-0.0312 0.56595,-0.0442 1.1227,-0.1083 1.6875,-0.15625 2.0115,-0.17077 4.00339,-0.37617 6,-0.59375 1.20528,-0.13138 2.39406,-0.25796 3.59375,-0.40625 1.86448,-0.23047 3.74312,-0.47909 5.59375,-0.75 1.01093,-0.1479 2.02454,-0.30891 3.03125,-0.46875 0.84455,-0.13424 1.68973,-0.26365 2.53125,-0.40625 0.35542,-0.0602 0.70763,-0.12587 1.0625,-0.1875 1.48777,-0.25871 2.95943,-0.52783 4.4375,-0.8125 0.90228,-0.17352 1.78889,-0.34814 2.6875,-0.53125 0.28281,-0.0577 0.56131,-0.12887 0.84375,-0.1875 0.89951,-0.18655 1.79176,-0.36639 2.6875,-0.5625 0.28315,-0.062 0.56098,-0.12451 0.84375,-0.1875 1.26831,-0.28253 2.52067,-0.57342 3.78125,-0.875 1.72479,-0.41263 3.44627,-0.83334 5.15625,-1.28125 0.0733,-0.0192 0.14544,-0.0432 0.21875,-0.0625 0.1569,-0.0412 0.31198,-0.0835 0.46875,-0.125 1.20589,-0.31957 2.42667,-0.63181 3.625,-0.96875 1.09703,-0.30821 2.19066,-0.6461 3.28125,-0.96875 1.07738,-0.31898 2.14776,-0.63579 3.21875,-0.96875 0.0634,-0.0197 0.12414,-0.0428 0.1875,-0.0625 1.13354,-0.35339 2.24874,-0.72482 3.375,-1.09375 1.12817,-0.36926 2.25425,-0.74029 3.375,-1.125 1.14991,-0.39499 2.29553,-0.77639 3.4375,-1.1875 0.10589,-0.0381 0.20668,-0.0868 0.3125,-0.125 1.57651,-0.56995 3.1577,-1.14964 4.71875,-1.75 0.0217,-0.008 0.0408,-0.0229 0.0625,-0.0312 0.48019,-0.18471 0.9588,-0.37494 1.4375,-0.5625 1.20985,-0.47437 2.42474,-0.94502 3.625,-1.4375 0.9736,-0.39921 1.93906,-0.80772 2.90625,-1.21875 2.16211,-0.91884 4.30809,-1.86662 6.4375,-2.84375 1.8334,-0.8413 3.66025,-1.70997 5.46875,-2.59375 0.29385,-0.1436 0.58181,-0.29279 0.875,-0.4375 2.09422,-1.03367 4.15907,-2.09773 6.21875,-3.1875 2.06204,-1.09102 4.09853,-2.19756 6.125,-3.34375 67.36067,-38.09978 114.82708,-106.3779 125.03125,-185.46875 -36.73117,-20.78481 -79.13779,-32.46962 -123.96875,-32.25 -4.26636,0.0209 -8.53579,0.13547 -12.84375,0.375 -40.52937,2.25354 -78.26088,14.06215 -111.15625,33.09375 -37.20486,-21.51907 -80.32709,-33.69249 -126,-33.46875 z"
       id="path3596" />
    <path
       inkscape:connector-curvature="0"
       style="fill:#804000;fill-opacity:0;fill-rule:nonzero;stroke:none"
       d="M 165.33487,561.75357 C 159.4571,446.99062 247.45275,349.06524 362.18911,342.68559 477.28126,336.28616 575.76965,424.39884 582.16909,539.49077 588.56853,654.58269 500.45568,753.07089 385.36353,759.47032 270.27138,765.86974 171.78299,677.75706 165.38356,562.66514"
       id="path4752" />
    <path
       sodipodi:type="arc"
       style="fill:#408000;fill-opacity:0;fill-rule:nonzero;stroke:none"
       id="path4798"
       sodipodi:cx="-240"
       sodipodi:cy="560.93359"
       sodipodi:rx="205.71428"
       sodipodi:ry="194.28572"
       d="m -445.39701,550.14744 c 6.30744,-107.13556 103.38001,-189.15696 216.81765,-183.19993 113.43764,5.95703 200.283819,97.63669 193.976375,204.77224 C -40.910429,678.85531 -137.983,760.87671 -251.42064,754.91968 -364.5076,748.98106 -451.23827,657.82531 -445.445,550.99599"
       sodipodi:start="3.1971382"
       sodipodi:end="9.4759497"
       sodipodi:open="true"
       transform="matrix(1.118027,0,0,-1.1837908,767.10245,1465.106)" />
    <path
       transform="matrix(1.118027,0,0,-1.1837909,517.10247,1465.106)"
       sodipodi:open="true"
       sodipodi:end="9.4759497"
       sodipodi:start="3.1971382"
       d="m -445.39701,550.14744 c 6.30744,-107.13556 103.38001,-189.15696 216.81765,-183.19993 113.43764,5.95703 200.283819,97.63669 193.976375,204.77224 C -40.910429,678.85531 -137.983,760.87671 -251.42064,754.91968 -364.5076,748.98106 -451.23827,657.82531 -445.445,550.99599"
       sodipodi:ry="194.28572"
       sodipodi:rx="205.71428"
       sodipodi:cy="560.93359"
       sodipodi:cx="-240"
       id="path4784"
       style="fill:#0060c0;fill-opacity:0;fill-rule:nonzero;stroke:none"
       sodipodi:type="arc" />
    <text
       xml:space="preserve"
       style="font-size:72px;font-style:normal;font-variant:normal;font-weight:normal;font-stretch:normal;text-align:start;line-height:125%;letter-spacing:0px;word-spacing:0px;writing-mode:lr-tb;text-anchor:start;fill:#ffffff;fill-opacity:1;stroke:none;font-family:Bebas;-inkscape-font-specification:Bebas"
       id="text3085"
       sodipodi:linespacing="125%"
       transform="translate(-1309.2919,2.7735213)"
       x="139.20259"
       y="48.459198"><tspan
   style="font-size:72px;font-style:normal;font-variant:normal;font-weight:normal;font-stretch:normal;text-align:start;line-height:125%;writing-mode:lr-tb;text-anchor:start;fill:#ffffff;font-family:Bebas;-inkscape-font-specification:Bebas"
   id="tspan3087">            ANALYTICS</tspan></text>
    <path
       transform="matrix(-0.68941436,0,0,-0.68941436,1425.1974,736.11912)"
       d="m 1720.1829,186.33488 c 0,118.24833 -98.8276,217.07598 -217.076,217.07598 -118.2483,0 -217.0759,-98.82765 -217.0759,-217.07598"
       sodipodi:t0="0"
       sodipodi:argument="0"
       sodipodi:radius="217.07597"
       sodipodi:revolution="0.5"
       sodipodi:expansion="0"
       sodipodi:cy="186.33488"
       sodipodi:cx="1503.1069"
       id="path3894"
       style="fill:none;stroke:#000000;stroke-width:1px;stroke-linecap:butt;stroke-linejoin:miter;stroke-opacity:0"
       sodipodi:type="spiral" />
    <path
       sodipodi:type="spiral"
       style="fill:none;stroke:none;stroke-width:2.21601844000000003;stroke-linecap:butt;stroke-linejoin:miter;stroke-miterlimit:4;stroke-opacity:1;stroke-dasharray:none"
       id="path4001"
       sodipodi:cx="911.89728"
       sodipodi:cy="301.7793"
       sodipodi:expansion="0"
       sodipodi:revolution="0.5"
       sodipodi:radius="332.40277"
       sodipodi:argument="-3.1415927"
       sodipodi:t0="0"
       d="M 579.49451,301.77933 C 579.49449,120.70875 730.82667,-30.623458 911.89725,-30.623474 1092.9678,-30.62349 1244.3,120.70869 1244.3,301.77927"
       transform="matrix(0.44976057,0,0,0.44976057,-36.358695,415.34953)" />
    <text
       xml:space="preserve"
       style="font-size:72px;font-style:normal;font-variant:normal;font-weight:normal;font-stretch:normal;text-align:start;line-height:100%;letter-spacing:0px;word-spacing:0px;writing-mode:lr-tb;text-anchor:start;fill:#ffffff;fill-opacity:1;stroke:none;font-family:Bebas Neue;-inkscape-font-specification:Bebas Neue"
       id="text4007"
       sodipodi:linespacing="100%"><textPath
         xlink:href="#path4001"
         id="textPath4011"><tspan
   id="tspan4009"
   style="fill:#ffffff;fill-opacity:1">           ANALYTICS</tspan></textPath></text>
    <text
       xml:space="preserve"
       style="font-size:72px;font-style:normal;font-variant:normal;font-weight:normal;font-stretch:normal;text-align:start;line-height:100%;letter-spacing:0px;word-spacing:0px;writing-mode:lr-tb;text-anchor:start;fill:#ffffff;fill-opacity:1;stroke:none;font-family:Bebas Neue;-inkscape-font-specification:Bebas Neue"
       id="text4301"
       sodipodi:linespacing="100%"><textPath
         xlink:href="#path4321"
         id="textPath4323"
         style="letter-spacing:8.26923084000000053;fill:#ffffff;fill-opacity:1">CONSULTING</textPath></text>
    <path
       style="fill:none;stroke:none;stroke-width:1px;stroke-linecap:butt;stroke-linejoin:miter;stroke-opacity:1"
       d="m 57.476576,437.01831 -5.795957,21.25184 -2.414983,15.45589 -1.448989,21.73484 0.482997,19.80285 2.897978,21.73484 4.829965,18.35387 5.795957,18.83686 11.108918,21.25184 8.693936,14.97289 15.938882,20.76885 10.62592,11.10891 11.10892,10.14293 14.0069,10.62592 11.10891,7.24495 8.69394,4.82996 16.42188,7.72795 17.38787,7.72794 19.31986,4.82996"
       id="path4321"
       inkscape:connector-curvature="0"
       transform="translate(0,302.36218)" />
    <path
       style="fill:none;stroke:none;stroke-width:1px;stroke-linecap:butt;stroke-linejoin:miter;stroke-opacity:1"
       d="m 599.72678,672.13115 11.61202,-6.8306 14.34426,-10.92897 13.6612,-12.29508 10.2459,-11.27049 8.53826,-10.92896 8.87978,-11.61202 7.17213,-11.61202 6.14754,-12.97815 6.48907,-14.34426 4.78142,-15.02732 4.09836,-16.39344 2.39071,-16.73498 1.02459,-14.68579 0,-10.58743"
       id="path4336"
       inkscape:connector-curvature="0"
       transform="translate(0,302.36218)" />
    <text
       xml:space="preserve"
       style="font-size:72px;font-style:normal;font-variant:normal;font-weight:normal;font-stretch:normal;text-align:start;line-height:100%;letter-spacing:0px;word-spacing:0px;writing-mode:lr-tb;text-anchor:start;fill:#ffffff;fill-opacity:1;stroke:none;font-family:Bebas Neue;-inkscape-font-specification:Bebas Neue"
       id="text4338"
       sodipodi:linespacing="100%"><textPath
         xlink:href="#path4336"
         id="textPath4342"><tspan
   id="tspan4340"
   style="letter-spacing:8.65209770000000056;fill:#ffffff;fill-opacity:1">DESIGN</tspan></textPath></text>
  </g>
</svg>
